<svg width="239" height="63" viewBox="0 0 239 63" fill="none" xmlns="http://www.w3.org/2000/svg">
<g style="mix-blend-mode:multiply" opacity="0.1" clip-path="url(#clip0_690_13752)">
<path d="M208.356 104.845C208.356 104.745 208.34 104.645 208.31 104.549L223.61 95.6827L223.755 95.6015V57.9446L238.818 49.2113C238.922 49.359 239.059 49.4793 239.219 49.5621C239.379 49.6448 239.556 49.6875 239.736 49.6865C239.992 49.657 240.231 49.5424 240.415 49.3607C240.599 49.1791 240.717 48.9409 240.75 48.6842C240.783 48.4276 240.73 48.1671 240.598 47.9444C240.467 47.7217 240.265 47.5495 240.025 47.4553V29.0151L223.783 38.4323V19.9399L206.959 10.1925V29.6874L222.9 38.9249L207.224 48.0059L192.068 39.2262C192.094 39.1298 192.107 39.0305 192.109 38.9307C192.115 38.7116 192.059 38.4953 191.948 38.3068C191.836 38.1183 191.674 37.9654 191.479 37.8657C191.285 37.7661 191.066 37.7239 190.849 37.7439C190.631 37.764 190.424 37.8455 190.251 37.979C190.078 38.1125 189.946 38.2926 189.871 38.4983C189.795 38.704 189.78 38.9269 189.825 39.1412C189.871 39.3555 189.977 39.5523 190.129 39.7089C190.282 39.8655 190.476 39.9755 190.688 40.026V57.255V76.4138L174.735 85.686L159.066 76.605L174.88 67.4429L175.024 67.3617V48.5101L175.313 48.342L175.024 48.174V29.6816L191.121 20.3514L191.266 20.2702V0.769531L174.591 10.4359L174.447 10.517V29.0094L158.777 19.9341V19.598L158.488 19.7661L141.952 10.1809V28.4182C141.757 28.4676 141.579 28.5699 141.438 28.7138L126.288 19.9341V0.775325L110.041 10.1925L93.3662 19.853L93.2218 19.9341V38.4265L77.5519 29.3455V29.0151L77.2632 29.1774L76.9745 29.0151V29.3455L61.0217 38.6177L44.4857 29.0151V48.174L28.8157 57.255V38.78L11.9968 29.0094L-4.25049 19.598V38.78L-19.4008 47.5423C-19.56 47.3746 -19.7656 47.2587 -19.9911 47.2095C-20.2165 47.1602 -20.4515 47.1799 -20.6657 47.266C-20.8799 47.352 -21.0636 47.5005 -21.1929 47.6923C-21.3222 47.8841 -21.3914 48.1104 -21.3914 48.342C-21.3914 48.5736 -21.3222 48.7999 -21.1929 48.9917C-21.0636 49.1835 -20.8799 49.332 -20.6657 49.418C-20.4515 49.5041 -20.2165 49.5238 -19.9911 49.4745C-19.7656 49.4253 -19.56 49.3094 -19.4008 49.1417L-4.25049 57.904V77.086L12.4298 67.4197L12.5742 67.3328V48.8404L28.2384 57.904V77.0628L43.966 67.9528C44.1119 68.0922 44.2907 68.1919 44.4857 68.2426V86.1438L61.3046 95.8913V77.0802L77.5519 86.4973V66.9966L61.599 57.7534L77.2632 48.6781L93.7992 58.2575V39.0929L109.463 30.0177V67.0024L93.3662 76.3326L93.2218 76.4196V95.9145L108.949 86.7987C109.054 86.9056 109.179 86.9904 109.317 87.0481C109.455 87.1058 109.603 87.1353 109.752 87.1348C110.008 87.1054 110.247 86.9907 110.431 86.8091C110.615 86.6274 110.733 86.3893 110.766 86.1326C110.799 85.8759 110.746 85.6154 110.614 85.3927C110.483 85.17 110.281 84.9978 110.041 84.9037V67.3385L126.144 58.0083L126.288 57.9214V39.4291L141.952 48.5101V66.0752C141.713 66.1425 141.502 66.2854 141.35 66.4827C141.198 66.68 141.114 66.9212 141.109 67.1705C141.11 67.2708 141.125 67.3705 141.155 67.466L125.855 76.3326L125.711 76.4138V95.9087L142.241 86.3293L158.488 95.7464L174.735 86.3293L190.977 95.7464L206.936 86.4742V103.703C206.723 103.754 206.529 103.864 206.377 104.02C206.224 104.177 206.118 104.374 206.073 104.588C206.027 104.802 206.043 105.025 206.118 105.231C206.193 105.437 206.325 105.617 206.498 105.75C206.671 105.884 206.879 105.965 207.096 105.985C207.313 106.005 207.532 105.963 207.727 105.863C207.921 105.764 208.083 105.611 208.195 105.422C208.306 105.234 208.362 105.018 208.356 104.798V104.845Z" stroke="black" stroke-width="0.472669" stroke-miterlimit="10"/>
<path d="M191.266 58.2578L206.936 67.3388V85.4951L191.266 76.4198V58.2578Z" stroke="black" stroke-width="0.472669" stroke-miterlimit="10"/>
<path d="M207.513 67.3388L223.177 58.2578V76.4198L207.513 85.4951V67.3388Z" stroke="black" stroke-width="0.472669" stroke-miterlimit="10"/>
<path d="M223.177 57.5937L207.513 66.669V48.5127L223.177 39.4375V57.5937Z" stroke="black" stroke-width="0.472669" stroke-miterlimit="10"/>
<path d="M239.448 30.0234V47.4727C239.208 47.5399 238.997 47.6828 238.845 47.8802C238.694 48.0775 238.609 48.3187 238.605 48.568C238.602 48.6027 238.602 48.6376 238.605 48.6723L223.772 57.2723V39.0987L239.448 30.0234Z" stroke="black" stroke-width="0.472669" stroke-miterlimit="10"/>
<path d="M207.536 11.1992L223.206 20.2802V38.4365L207.536 29.3555V11.1992Z" stroke="black" stroke-width="0.472669" stroke-miterlimit="10"/>
<path d="M191.254 40.0299C191.449 39.9771 191.628 39.8754 191.774 39.7344L206.924 48.514V66.6703L191.254 57.5893V40.0299Z" stroke="black" stroke-width="0.472669" stroke-miterlimit="10"/>
<path d="M158.488 57.4238L142.818 48.3427L149.937 44.2166L158.488 39.2617L174.152 48.3427L167.039 52.4689L158.488 57.4238Z" stroke="black" stroke-width="0.472669" stroke-miterlimit="10"/>
<path d="M142.53 30.6159C142.726 30.5666 142.906 30.4645 143.049 30.3203L157.911 38.9319L142.53 47.8449V30.6159Z" stroke="black" stroke-width="0.472669" stroke-miterlimit="10"/>
<path d="M158.199 38.4276L143.332 29.8102C143.391 29.6216 143.391 29.4193 143.332 29.2307L158.199 20.6133V38.4276Z" stroke="black" stroke-width="0.472669" stroke-miterlimit="10"/>
<path d="M158.199 57.9035V76.0655L143.332 67.4655C143.362 67.3699 143.378 67.2702 143.378 67.1699C143.373 66.9199 143.288 66.6781 143.135 66.4807C142.982 66.2833 142.77 66.1409 142.53 66.0747V48.8398L158.199 57.9035Z" stroke="black" stroke-width="0.472669" stroke-miterlimit="10"/>
<path d="M174.447 67.0078L158.777 76.0888V57.9268L174.447 48.8516V67.0078Z" stroke="black" stroke-width="0.472669" stroke-miterlimit="10"/>
<path d="M175.024 10.8623L190.688 1.78125V19.9375L175.024 29.0185V10.8623Z" stroke="black" stroke-width="0.472669" stroke-miterlimit="10"/>
<path d="M174.447 29.6846V47.8408L158.777 38.7656V20.6094L174.447 29.6846Z" stroke="black" stroke-width="0.472669" stroke-miterlimit="10"/>
<path d="M157.911 20.1083L143.049 28.7199C142.907 28.5745 142.727 28.4721 142.53 28.4243V11.1953L157.911 20.1083Z" stroke="black" stroke-width="0.472669" stroke-miterlimit="10"/>
<path d="M125.711 1.78516V19.9356L110.041 29.0166V10.8604L125.711 1.78516Z" stroke="black" stroke-width="0.472669" stroke-miterlimit="10"/>
<path d="M76.9746 30.0195V48.1758L61.3047 57.2568V39.1005L76.9746 30.0195Z" stroke="black" stroke-width="0.472669" stroke-miterlimit="10"/>
<path d="M45.063 30.0195L60.7271 39.1005V57.2568L52.8922 52.7134L45.063 48.1758V30.0195Z" stroke="black" stroke-width="0.472669" stroke-miterlimit="10"/>
<path d="M60.7271 76.0771L52.898 71.5395L45.8655 67.4829C45.8907 67.3844 45.9042 67.2832 45.906 67.1815C45.9015 66.9322 45.8171 66.691 45.6652 66.4937C45.5134 66.2964 45.3022 66.1535 45.063 66.0862V48.8398L52.898 53.3832L60.7271 57.9035V76.0771Z" stroke="black" stroke-width="0.472669" stroke-miterlimit="10"/>
<path d="M28.2383 57.2568L12.5684 48.1758V30.0195L28.2383 39.0948V57.2568Z" stroke="black" stroke-width="0.472669" stroke-miterlimit="10"/>
<path d="M-3.6731 20.6016L11.9911 29.6826V47.8388L-3.6731 38.7636V20.6016Z" stroke="black" stroke-width="0.472669" stroke-miterlimit="10"/>
<path d="M-19.1179 48.0511L-3.96185 39.2656L11.6908 48.3408L4.58906 52.4612L-3.96185 57.4161L-19.1179 48.6306C-19.0589 48.442 -19.0589 48.2397 -19.1179 48.0511Z" stroke="black" stroke-width="0.472669" stroke-miterlimit="10"/>
<path d="M11.9911 67.0078L-3.6731 76.0888V57.9268L11.9911 48.8516V67.0078Z" stroke="black" stroke-width="0.472669" stroke-miterlimit="10"/>
<path d="M28.8157 76.0789V57.9052L44.4856 48.8242V66.0532C44.2453 66.1195 44.0329 66.2619 43.8799 66.4593C43.7269 66.6567 43.6417 66.8985 43.6369 67.1485C43.6405 67.2504 43.656 67.3516 43.6831 67.4499L28.8157 76.0789Z" stroke="black" stroke-width="0.472669" stroke-miterlimit="10"/>
<path d="M76.9746 85.4951L61.3047 76.4141V58.2578L76.9746 67.333V85.4951Z" stroke="black" stroke-width="0.472669" stroke-miterlimit="10"/>
<path d="M93.2162 57.2568L77.552 48.1758V30.0195L93.2162 39.1005V57.2568Z" stroke="black" stroke-width="0.472669" stroke-miterlimit="10"/>
<path d="M93.7935 38.4326V20.2763L109.463 11.1953V29.3573L93.7935 38.4326Z" stroke="black" stroke-width="0.472669" stroke-miterlimit="10"/>
<path d="M125.711 20.6094V38.7656L110.041 47.8408V29.6904L125.711 20.6094Z" stroke="black" stroke-width="0.472669" stroke-miterlimit="10"/>
<path d="M125.711 57.5917L110.041 66.6727V48.5107L125.711 39.4297V57.5917Z" stroke="black" stroke-width="0.472669" stroke-miterlimit="10"/>
<path d="M126.288 20.6094L141.155 29.221C141.125 29.3166 141.11 29.4162 141.109 29.5165C141.114 29.7658 141.198 30.007 141.35 30.2043C141.502 30.4016 141.713 30.5445 141.952 30.6118V47.8408L126.288 38.783V20.6094Z" stroke="black" stroke-width="0.472669" stroke-miterlimit="10"/>
</g>
<defs>
<clipPath id="clip0_690_13752">
<rect width="262.792" height="105.982" fill="white" transform="translate(-21.6294 0.273438)"/>
</clipPath>
</defs>
</svg>
