<svg width="24" height="24" viewBox="0 0 24 24" fill="none" xmlns="http://www.w3.org/2000/svg">
<path fill-rule="evenodd" clip-rule="evenodd" d="M5.27194 20.9288V20.2667H2.65985V20.9288H5.27194ZM2.65985 12.2965V12.7776H5.27194V12.2965H2.65985ZM4.71759 13.3272H3.21446V19.7168H4.71759V13.3272ZM17.1566 22.6136H16.229H16.2279H1.76168H1.76064H0.834028V23.1995H17.1564L17.1566 22.6136ZM2.0309 22.064H15.9603V21.4781H2.03064L2.0309 22.064ZM10.3018 20.9285V20.2664H7.68968V20.9285H10.3018ZM7.15203 20.9285H5.81011V19.9915C5.81011 19.8397 5.68985 19.7165 5.54116 19.7165H5.25551V13.3269H5.54116C5.68959 13.3269 5.81011 13.204 5.81011 13.052V12.296H7.15203V13.052C7.15203 13.2037 7.27229 13.3269 7.42098 13.3269H7.70664V19.7165H7.42098C7.27255 19.7165 7.15203 19.8395 7.15203 19.9915V20.9285ZM15.3313 20.9285V20.2664H12.7192V20.9285H15.3313ZM8.83046 10.6811C9.17507 9.75173 9.85072 8.6952 10.9485 7.512L8.97785 6.36827L1.54646 10.6811H8.83046ZM8.56672 11.7467C8.58603 11.5795 8.61707 11.4075 8.66064 11.2307H2.11907V11.7467H8.5662H8.56672ZM8.60168 12.7773C8.57116 12.6224 8.55185 12.4621 8.54507 12.2963H7.68968V12.7773H8.60168ZM9.74716 14.6125C9.31359 14.2603 8.97394 13.832 8.76681 13.3269H8.24403V19.7165H9.74716V14.6125ZM12.7357 15.7723V19.7165H12.45C12.3016 19.7165 12.1811 19.8395 12.1811 19.9915V20.9285H10.8392V19.9915C10.8392 19.8397 10.7189 19.7165 10.5702 19.7165H10.2845V14.9837L10.29 14.9869C10.9845 15.3939 11.8359 15.6552 12.7354 15.772L12.7357 15.7723ZM14.7765 15.7792C14.4478 15.8189 14.112 15.84 13.7742 15.8427H13.7721C13.6054 15.8413 13.4387 15.8352 13.2733 15.8245V19.7165H14.7765V15.7792ZM11.7219 4.46107C11.6919 4.53413 11.6729 4.6112 11.6755 4.68587C11.6792 4.79493 11.7392 4.91253 11.904 5.02293C11.9267 5.03813 11.9017 5.02213 11.9158 5.0312C11.9272 5.03867 12.1534 5.00987 12.4936 4.99493C13.0907 4.96853 13.9166 4.90773 14.2571 4.87893C14.2933 4.87573 14.3272 4.84373 14.3515 4.79867C14.3734 4.75813 14.3867 4.71013 14.3896 4.66C14.3925 4.61093 14.3849 4.5608 14.3653 4.51547C14.3348 4.44453 14.2691 4.38213 14.159 4.34853C13.9213 4.36987 13.1567 4.4184 12.5382 4.4464C12.2032 4.4616 11.9006 4.46907 11.7219 4.46107ZM11.6964 3.9008C11.7034 3.90427 11.7102 3.90773 11.7172 3.912C11.7298 3.9184 11.7428 3.924 11.7561 3.92907C11.7632 3.93173 12.0989 3.9176 12.515 3.89867C13.2094 3.8672 14.0729 3.8128 14.1316 3.80187C14.1694 3.79467 14.2117 3.77147 14.2482 3.7376C14.2779 3.71013 14.3001 3.67893 14.3074 3.6488C14.3202 3.5952 14.3244 3.55227 14.3192 3.51467C14.3142 3.4784 14.2988 3.43813 14.2727 3.38933C14.0893 3.04773 13.8611 3.02987 13.536 3.00453C13.4724 2.99947 13.4059 2.9944 13.3365 2.98747C13.2559 3.07867 13.1708 3.1616 13.0902 3.22587C12.8669 3.40453 12.5645 3.5264 12.2617 3.55493C12.0368 3.576 11.8088 3.54693 11.6064 3.45307C11.5769 3.54507 11.5612 3.6408 11.573 3.7248C11.5826 3.792 11.6165 3.85387 11.6888 3.8968L11.6961 3.90107L11.6964 3.9008ZM14.3737 6.432C14.388 6.45627 14.4065 6.47893 14.4287 6.4984C16.4857 8.30027 17.6218 9.81147 18.0965 11.048C18.4185 11.8864 18.4302 12.5888 18.2181 13.1616C18.0065 13.7328 17.5688 14.1872 16.9915 14.5269C16.4385 14.8525 15.761 15.0731 15.03 15.1917C15.012 15.1928 14.9945 15.1955 14.9776 15.2C14.5873 15.2605 14.1822 15.2923 13.7732 15.2955C13.5321 15.2936 13.2919 15.2811 13.0547 15.2581C13.0391 15.2552 13.0232 15.2536 13.0067 15.2533C12.1018 15.16 11.243 14.9131 10.5569 14.5109C10.4259 14.4341 10.3012 14.3517 10.1841 14.2635C10.1784 14.2589 10.1726 14.2544 10.1666 14.2504C9.75316 13.9355 9.43437 13.5496 9.25255 13.0928C9.23716 13.0544 9.22281 13.0152 9.20951 12.9757C9.20716 12.9677 9.20455 12.9597 9.20168 12.952C9.1109 12.6739 9.06811 12.3688 9.0822 12.0365V12.0355C9.09498 11.7323 9.15498 11.4064 9.26872 11.0579C9.27211 11.0488 9.27524 11.0397 9.27785 11.0304C9.28959 10.9952 9.30185 10.9597 9.31464 10.9243C9.65168 9.98533 10.3631 8.89547 11.5612 7.65173C11.5686 7.64507 11.5753 7.63787 11.5819 7.6304C11.8498 7.35307 12.1419 7.06827 12.4594 6.77573C12.5434 6.77947 12.6298 6.77893 12.7177 6.77493C13.3057 6.74773 13.9769 6.5616 14.3737 6.43253V6.432ZM11.9565 5.54907C11.9168 5.68187 11.9014 5.792 11.9069 5.88213C11.9147 6.01467 11.9823 6.0984 12.0853 6.1472C12.2356 6.21867 12.4526 6.23813 12.6945 6.22693C13.3383 6.19707 14.1157 5.9472 14.4112 5.84107C14.4859 5.81333 14.5375 5.776 14.5691 5.73307C14.5954 5.6976 14.61 5.6568 14.6147 5.61467C14.6199 5.56613 14.6126 5.5136 14.5949 5.4624C14.5816 5.4248 14.5631 5.38853 14.5393 5.35547C14.4679 5.3944 14.388 5.4192 14.3012 5.42667C13.9688 5.45493 13.1455 5.51493 12.5165 5.54267C12.3039 5.552 12.1099 5.5552 11.9565 5.54907ZM21.2752 6.72053C20.6784 6.6008 20.142 6.51973 19.6662 6.47733C19.3367 6.448 19.0336 6.43707 18.7568 6.44427C18.815 6.27973 18.8484 6.092 18.8572 5.88133C18.863 5.73013 18.7479 5.60267 18.6 5.5968C18.4521 5.59093 18.3274 5.70853 18.3217 5.85973C18.3146 6.0304 18.287 6.1752 18.2395 6.29387C18.2004 6.3912 18.1472 6.47067 18.0799 6.5328C17.7952 6.68427 17.4572 6.80747 17.0992 6.90133C16.7043 7.00507 16.2832 7.0728 15.8802 7.10453C15.5765 6.8048 15.2471 6.49707 14.8905 6.18133C14.9309 6.1448 14.9664 6.10533 14.9974 6.06347C15.0843 5.94613 15.1331 5.81173 15.1479 5.67253C15.1623 5.53973 15.1451 5.40453 15.1007 5.2776C15.0553 5.14747 14.9805 5.0248 14.8816 4.9224C14.9056 4.84907 14.9205 4.7712 14.9249 4.692C14.9327 4.5592 14.9116 4.4216 14.8565 4.29413C14.8185 4.20587 14.765 4.1232 14.6948 4.0504C14.6995 4.04427 14.7042 4.03813 14.7089 4.03173C14.987 4.31707 15.2867 4.52293 15.6076 4.64933C16.0704 4.83173 16.5681 4.8464 17.1008 4.69387C17.2435 4.65307 17.3267 4.5016 17.2868 4.35573C17.2469 4.20987 17.0987 4.1248 16.956 4.1656C16.5371 4.2856 16.152 4.27653 15.8009 4.1384C15.4537 4.0016 15.1305 3.7368 14.8315 3.34373C14.8125 3.2704 14.7832 3.1992 14.7433 3.1248C14.4459 2.57067 14.1274 2.50347 13.6923 2.46587C13.7497 2.34267 13.7734 2.23547 13.7705 2.1224C13.7677 2.01253 13.74 1.91467 13.6941 1.8008C13.6378 1.6608 13.4812 1.59413 13.3443 1.65147C13.2073 1.70907 13.1421 1.86907 13.1982 2.00907C13.2206 2.0648 13.2339 2.1056 13.2347 2.1352C13.2352 2.15867 13.2264 2.18933 13.2047 2.23413C13.1606 2.32693 13.0905 2.43307 13.0112 2.5328C12.929 2.63627 12.8392 2.73013 12.7602 2.7936C12.6146 2.91013 12.4151 2.98987 12.2132 3.00907C12.0433 3.02507 11.8764 2.9968 11.7493 2.908C11.6233 2.82 11.6899 2.664 11.7887 2.51627C11.8511 2.4232 11.9223 2.3344 11.9867 2.2544C12.035 2.1944 12.0801 2.1384 12.1075 2.10107C12.2424 1.9184 12.3285 1.7608 12.4036 1.624C12.5452 1.36507 12.6326 1.20587 13.0811 1.15653C13.3558 1.1264 13.6088 1.05227 13.8647 0.977599C14.1866 0.883466 14.513 0.787999 14.8419 0.798932C14.9732 0.803199 15.0965 0.831199 15.2142 0.878666C15.3355 0.927732 15.4498 0.997066 15.5599 1.08267C16.7252 1.98907 17.5229 2.592 18.3598 2.912C19.1486 3.2136 19.944 3.2552 21.0634 3.048C21.1425 3.57627 21.1999 4.13173 21.2356 4.71387C21.2747 5.35147 21.288 6.02027 21.2752 6.71973V6.72053ZM23.7397 1.90427V7.80827H23.7389C23.7389 7.83093 23.736 7.85387 23.7303 7.87707C23.6932 8.02347 23.5469 8.11147 23.4037 8.0736C22.7927 7.91173 22.4541 7.8968 21.9574 7.87467C21.815 7.86827 21.6605 7.8616 21.5012 7.852C21.3543 7.84373 21.2411 7.71573 21.2481 7.56533C21.2525 7.46853 21.2565 7.37227 21.2601 7.27653C20.652 7.152 20.1055 7.068 19.6203 7.02507C19.109 6.97947 18.6731 6.98 18.3128 7.0264C17.9938 7.19413 17.6223 7.3296 17.2318 7.432C16.9492 7.50613 16.6571 7.5632 16.3688 7.60347C17.525 8.8264 18.2353 9.9072 18.5966 10.8485C18.971 11.8237 18.978 12.6587 18.7203 13.3549C18.4618 14.0531 17.9405 14.6 17.2586 15.0013C16.7009 15.3299 16.0331 15.5605 15.3146 15.6965V19.7168H15.6003C15.7487 19.7168 15.8692 19.8397 15.8692 19.9917V20.9288H16.2295C16.3779 20.9288 16.4985 21.0517 16.4985 21.2037V22.0643H17.4261C17.5746 22.0643 17.6951 22.1872 17.6951 22.3392V23.4747C17.6951 23.6264 17.5748 23.7496 17.4261 23.7496H0.565332C0.416898 23.7496 0.296376 23.6267 0.296376 23.4747V22.3392C0.296376 22.1875 0.416637 22.0643 0.565332 22.0643H1.49298V21.2037C1.49298 21.052 1.61325 20.9288 1.76194 20.9288H2.1222V19.9917C2.1222 19.84 2.24246 19.7168 2.39116 19.7168H2.67681V13.3272H2.39116C2.24272 13.3272 2.1222 13.2043 2.1222 13.0523V12.2963H1.85038C1.70194 12.2963 1.58142 12.1733 1.58142 12.0213V11.2304H0.529332C0.380898 11.2304 0.260376 11.1075 0.260376 10.9555C0.260376 10.8453 0.323767 10.7504 0.415072 10.7067L8.84481 5.81467C8.93142 5.76453 9.03368 5.7688 9.11377 5.81707L11.3356 7.1064C11.4911 6.94853 11.6539 6.7888 11.8242 6.62667C11.5623 6.4904 11.3922 6.264 11.3711 5.9136C11.3617 5.7552 11.3865 5.57173 11.4527 5.35947C11.2333 5.15947 11.1475 4.93013 11.1397 4.7024C11.1339 4.53173 11.1754 4.3688 11.2375 4.2248C11.1243 4.1032 11.064 3.9568 11.0419 3.80107C11.0139 3.6056 11.0523 3.40027 11.1188 3.21947C11.1373 3.1688 11.1579 3.12027 11.1796 3.07467C11.0332 2.79467 11.1577 2.48853 11.3458 2.20693C11.4162 2.1016 11.4986 1.99893 11.5732 1.9064C11.6087 1.8624 11.6419 1.82107 11.6794 1.77013C11.7916 1.61787 11.8685 1.47733 11.9356 1.3552C12.161 0.943466 12.2995 0.690399 13.0247 0.610932C13.2488 0.586399 13.4823 0.518132 13.7181 0.449066C14.0776 0.343999 14.4423 0.237332 14.8592 0.250932C15.0585 0.257599 15.2413 0.298399 15.4119 0.367199C15.5792 0.434666 15.7357 0.529866 15.8857 0.646399C17.0137 1.52373 17.7835 2.1064 18.5471 2.3984C19.2394 2.6632 19.9534 2.6968 20.9737 2.50747C20.958 2.4224 20.9419 2.3384 20.9249 2.25493C20.921 2.23893 20.9181 2.2224 20.9171 2.20533C20.9066 2.05413 21.018 1.92293 21.1659 1.91227C21.8111 1.8648 22.4293 1.77573 23.0619 1.6848C23.1793 1.668 23.297 1.65093 23.4157 1.63413C23.4337 1.6304 23.4522 1.62827 23.4712 1.62827C23.6197 1.62827 23.7402 1.7512 23.7402 1.9032L23.7397 1.90427ZM23.202 7.4616V2.21973L23.1352 2.22933C22.59 2.30773 22.0552 2.3848 21.5059 2.43573C21.6339 3.13733 21.7224 3.8856 21.7712 4.68027C21.8171 5.4288 21.828 6.22053 21.8035 7.05547C21.8035 7.06027 21.8035 7.0648 21.803 7.0696C21.8006 7.15227 21.7978 7.2352 21.7946 7.31867C21.8601 7.32187 21.9214 7.32453 21.9801 7.3272C22.4137 7.3464 22.7343 7.36053 23.2018 7.46187L23.202 7.4616ZM13.3211 8.54293L13.3245 8.94213C13.104 8.992 12.9058 9.09787 12.7498 9.24293C12.5272 9.4496 12.3887 9.73493 12.3887 10.0523C12.3887 10.0709 12.3892 10.0421 12.39 10.0779C12.4101 10.9251 12.9945 11.0867 13.5681 11.2451C13.937 11.3472 14.2991 11.4472 14.2944 11.8427C14.2923 12.0088 14.2182 12.1605 14.099 12.2717C13.9753 12.3869 13.8032 12.4584 13.6101 12.4584C13.4163 12.4584 13.242 12.3867 13.1176 12.2704C12.9999 12.1605 12.9269 12.0104 12.9269 11.8459C12.9269 11.6941 12.8066 11.5709 12.6579 11.5709C12.5092 11.5709 12.389 11.6939 12.389 11.8459C12.389 12.1712 12.5293 12.4648 12.756 12.676C12.9191 12.828 13.1272 12.9371 13.3592 12.9832L13.3625 13.3784C13.3636 13.5296 13.4846 13.6512 13.6325 13.6501C13.7805 13.6491 13.8994 13.5253 13.8984 13.3741L13.895 12.9757C14.1118 12.9261 14.3059 12.8211 14.46 12.6773C14.6854 12.4672 14.8258 12.1741 14.8299 11.8488C14.8401 11.028 14.279 10.8728 13.7069 10.7147C13.3252 10.6091 12.9363 10.5016 12.9259 10.0648C12.9253 10.0419 12.9266 10.0835 12.9266 10.0523C12.9266 9.8968 12.9976 9.7544 13.1113 9.64853C13.2339 9.53467 13.4035 9.46267 13.5905 9.45813H13.5958H13.5971C13.5992 9.45813 13.5848 9.45893 13.6099 9.45893C13.8037 9.45893 13.9779 9.53067 14.1024 9.64693C14.22 9.7568 14.2931 9.90693 14.2931 10.0715C14.2931 10.2232 14.4133 10.3464 14.562 10.3464C14.7107 10.3464 14.831 10.2235 14.831 10.0715C14.831 9.74613 14.6906 9.45253 14.4639 9.24133C14.3009 9.08933 14.0925 8.98027 13.8605 8.93413L13.8572 8.53893C13.8561 8.38773 13.7351 8.26613 13.5872 8.2672C13.4392 8.26827 13.3203 8.392 13.3213 8.5432L13.3211 8.54293Z" fill="#282828"/>
</svg>
