<svg width="24" height="24" viewBox="0 0 24 24" fill="none" xmlns="http://www.w3.org/2000/svg">
<path fill-rule="evenodd" clip-rule="evenodd" d="M4.77362 21.3577V20.6638H1.97549V21.3577H4.77362ZM1.97549 12.3121V12.8161H4.77362V12.3121H1.97549ZM4.17949 13.3921H2.56935V20.0878H4.17949V13.3921ZM17.504 23.1235H16.5104H16.5094H1.01362H1.01255H0.0200195V23.7374H17.5046V23.1235H17.504ZM1.30135 22.5475H16.2224V21.9337H1.30162L1.30135 22.5475ZM10.1608 21.3577V20.6638H7.36269V21.3577H10.1608ZM15.5483 21.3577V20.6638H12.7502V21.3577H15.5483ZM8.58455 10.6193C8.95362 9.6454 9.67735 8.5382 10.8534 7.29846L8.74242 6.10006L0.78242 10.6193H8.58509H8.58455ZM8.30215 11.7361C8.32295 11.5609 8.35602 11.3806 8.40269 11.1953H1.39655V11.7361H8.30269H8.30215ZM8.33975 12.8161C8.30695 12.6539 8.28642 12.4859 8.27922 12.3121H7.36269V12.8161H8.33975ZM9.56695 14.7393C9.10242 14.3702 8.73869 13.9214 8.51682 13.3921H7.95682V20.0878H9.56695V14.7393ZM14.9544 15.9617C14.6024 16.0033 14.2427 16.0254 13.8808 16.0283H13.8787C13.7 16.027 13.5216 16.0206 13.3443 16.0091V20.0878H14.9544V15.9617ZM11.6824 4.10113C11.6504 4.17766 11.6299 4.25846 11.6326 4.33686C11.6366 4.45126 11.7008 4.57446 11.8774 4.68993C11.9016 4.70566 11.875 4.68913 11.8899 4.69846C11.9024 4.70646 12.1446 4.67606 12.5088 4.66059C13.1483 4.63313 14.0331 4.56913 14.3979 4.539C14.4368 4.5358 14.4728 4.5022 14.499 4.45473C14.5224 4.41206 14.5368 4.36193 14.5398 4.3094C14.5427 4.25793 14.535 4.20539 14.5139 4.15793C14.4811 4.0838 14.411 4.0182 14.2928 3.983C14.0384 4.00513 13.2192 4.05606 12.5566 4.08566C12.1976 4.10166 11.8736 4.1094 11.6824 4.10113ZM11.6552 3.5142C11.6627 3.51766 11.6702 3.52166 11.6774 3.52593C11.691 3.5326 11.7048 3.53846 11.719 3.5438C11.7264 3.54673 12.0862 3.5318 12.5318 3.5118C13.2758 3.47873 14.2006 3.42193 14.2635 3.4102C14.304 3.40273 14.3491 3.37846 14.3883 3.343C14.4203 3.3142 14.444 3.2814 14.4518 3.24993C14.4654 3.19366 14.4699 3.1486 14.4646 3.10913C14.4595 3.071 14.443 3.02886 14.415 2.97766C14.2187 2.6198 13.9739 2.60113 13.6256 2.57446C13.5574 2.5694 13.4862 2.5638 13.4118 2.5566C13.3254 2.65206 13.2344 2.739 13.148 2.80646C12.9088 2.99366 12.5851 3.1214 12.2606 3.15153C12.0198 3.17366 11.7755 3.143 11.5587 3.0446C11.5272 3.14113 11.5102 3.24139 11.523 3.32913C11.5334 3.3998 11.5696 3.46433 11.647 3.5094L11.655 3.51393L11.6552 3.5142ZM14.523 6.16646C14.5384 6.19206 14.5582 6.21553 14.5819 6.23606C16.7854 8.12406 18.0022 9.7078 18.5107 11.0038C18.8555 11.8822 18.868 12.6185 18.6408 13.2187C18.4142 13.8174 17.9451 14.2934 17.327 14.6494C16.7347 14.9905 16.0088 15.2217 15.2259 15.3459C15.2067 15.347 15.1878 15.3499 15.1699 15.3547C14.7518 15.4182 14.3179 15.4515 13.8798 15.455C13.6216 15.4529 13.3643 15.4398 13.1102 15.4158C13.0934 15.4126 13.0763 15.411 13.0587 15.4107C12.0894 15.3129 11.1694 15.0539 10.4344 14.6326C10.2939 14.5521 10.1606 14.4657 10.0352 14.3734C10.0291 14.3686 10.023 14.3638 10.0166 14.3595C9.57389 14.0297 9.23229 13.6251 9.03762 13.1465C9.02109 13.1062 9.00589 13.0651 8.99149 13.0238C8.98909 13.0153 8.98615 13.007 8.98295 12.999C8.88562 12.7075 8.84002 12.3878 8.85495 12.0395V12.0385C8.86882 11.7209 8.93309 11.3793 9.05469 11.0139C9.05842 11.0046 9.06162 10.995 9.06429 10.9851C9.07682 10.9483 9.08989 10.9113 9.10349 10.8739C9.46455 9.88993 10.2264 8.7478 11.5099 7.4446C11.5176 7.43766 11.5248 7.4302 11.532 7.4222C11.819 7.13153 12.132 6.83313 12.472 6.52646C12.5619 6.5302 12.6547 6.52966 12.7486 6.52539C13.3784 6.49686 14.0976 6.30166 14.5224 6.16673L14.523 6.16646ZM11.9336 5.24113C11.891 5.38033 11.8747 5.49579 11.8806 5.5902C11.8891 5.72886 11.9614 5.8166 12.0715 5.86806C12.2326 5.943 12.4651 5.96326 12.724 5.95153C13.4139 5.92033 14.2467 5.65846 14.563 5.547C14.643 5.51793 14.6982 5.47873 14.7323 5.43393C14.7606 5.39686 14.7763 5.3542 14.7811 5.30993C14.7867 5.259 14.779 5.20406 14.7598 5.15046C14.7456 5.11099 14.7256 5.07286 14.7003 5.0382C14.6238 5.079 14.5382 5.10513 14.4451 5.11286C14.0891 5.14246 13.2072 5.2054 12.5336 5.23446C12.3059 5.24433 12.0984 5.2478 11.9339 5.2414L11.9336 5.24113ZM21.9158 6.46886C21.2766 6.34326 20.7019 6.25846 20.1923 6.21393C19.8395 6.18326 19.5147 6.17153 19.2182 6.17926C19.2803 6.007 19.3163 5.81019 19.3256 5.5894C19.3318 5.43099 19.2086 5.29739 19.0499 5.29126C18.8915 5.28513 18.7579 5.40833 18.7518 5.567C18.744 5.74593 18.7147 5.89766 18.6635 6.02193C18.6216 6.1238 18.5646 6.20726 18.4926 6.27206C18.1875 6.431 17.8256 6.5598 17.4419 6.65846C17.0187 6.76699 16.568 6.8382 16.1363 6.87126C15.8112 6.55713 15.4582 6.23473 15.076 5.9038C15.1192 5.86566 15.1574 5.82433 15.1907 5.78033C15.2838 5.6574 15.336 5.51659 15.352 5.37073C15.3672 5.23179 15.3488 5.08966 15.3014 4.95713C15.2526 4.82086 15.1726 4.69233 15.0667 4.58486C15.0923 4.50806 15.1083 4.42646 15.1131 4.34353C15.1214 4.20433 15.099 4.06006 15.0398 3.92646C14.999 3.8342 14.9416 3.74726 14.8664 3.67126C14.8715 3.66486 14.8766 3.6582 14.8816 3.6518C15.1795 3.95073 15.5006 4.16673 15.8443 4.299C16.34 4.48993 16.8734 4.50566 17.4438 4.34566C17.5966 4.30273 17.6856 4.14406 17.643 3.99126C17.6 3.83846 17.4414 3.7494 17.2886 3.79206C16.8398 3.91793 16.4275 3.90833 16.0512 3.76353C15.6792 3.62033 15.3331 3.34273 15.0128 2.93073C14.9926 2.85393 14.9611 2.77926 14.9184 2.7014C14.5998 2.12086 14.2584 2.0502 13.7926 2.011C13.8542 1.88193 13.8795 1.76966 13.8763 1.651C13.8734 1.5358 13.8435 1.4334 13.7944 1.31393C13.7342 1.16726 13.5664 1.09739 13.4198 1.15766C13.2731 1.21793 13.2032 1.38566 13.2635 1.53233C13.2875 1.59073 13.3019 1.63366 13.3027 1.6646C13.3032 1.68913 13.2936 1.72113 13.2707 1.76833C13.2235 1.86539 13.1483 1.97686 13.0635 2.0814C12.9752 2.18966 12.8795 2.28833 12.7947 2.35473C12.6387 2.47686 12.4248 2.5606 12.2088 2.58033C12.027 2.59713 11.8483 2.56753 11.712 2.47446C11.5771 2.3822 11.6486 2.21873 11.7542 2.06406C11.8208 1.96646 11.8971 1.87366 11.9662 1.78966C12.0179 1.727 12.0662 1.66806 12.0958 1.62886C12.2403 1.43739 12.3326 1.27233 12.4128 1.12886C12.5648 0.857395 12.6582 0.690462 13.1384 0.638995C13.4326 0.607528 13.7038 0.529928 13.9779 0.451528C14.3227 0.352862 14.6723 0.252862 15.0246 0.264328C15.1651 0.268862 15.2974 0.298195 15.4232 0.348062C15.5531 0.399528 15.6755 0.472328 15.7934 0.561928C17.0416 1.5118 17.8963 2.14353 18.7928 2.479C19.6379 2.795 20.4899 2.83873 21.6888 2.62166C21.7734 3.17526 21.835 3.75713 21.8731 4.36726C21.915 5.03553 21.9291 5.73633 21.9155 6.4694L21.9158 6.46886ZM23.9798 7.24539V1.75206L23.9083 1.76219C23.3243 1.84433 22.7515 1.92486 22.163 1.97846C22.3003 2.71393 22.395 3.49793 22.4472 4.33073C22.4966 5.11526 22.508 5.94486 22.4819 6.81953C22.4819 6.82433 22.4819 6.8294 22.4814 6.8342C22.4787 6.92086 22.4758 7.0078 22.4723 7.09526C22.5424 7.09846 22.608 7.1014 22.671 7.10406C23.1352 7.12406 23.479 7.13899 23.9795 7.24513L23.9798 7.24539ZM13.3952 8.37846L13.399 8.7966C13.163 8.84886 12.9504 8.9598 12.7832 9.1118C12.5448 9.32833 12.3963 9.62726 12.3963 9.96006C12.3963 9.9798 12.3968 9.9494 12.3976 9.98673C12.4192 10.8745 13.0454 11.0438 13.6595 11.2099C14.0547 11.3169 14.4424 11.4217 14.4374 11.8361C14.4352 12.0099 14.3558 12.1691 14.228 12.2857C14.0955 12.4065 13.9112 12.4811 13.7043 12.4811C13.4966 12.4811 13.3102 12.4059 13.1766 12.2843C13.0504 12.1694 12.9723 12.0121 12.9723 11.8395C12.9723 11.6806 12.8432 11.5515 12.6843 11.5515C12.5254 11.5515 12.3963 11.6806 12.3963 11.8395C12.3963 12.1806 12.5464 12.4881 12.7894 12.7097C12.964 12.8689 13.187 12.983 13.4355 13.0315L13.4392 13.4457C13.4406 13.6041 13.5699 13.7315 13.7283 13.7302C13.8867 13.7289 14.0142 13.5995 14.0128 13.4411L14.0091 13.0235C14.2414 12.9715 14.4494 12.8614 14.6144 12.7107C14.856 12.4905 15.0062 12.1835 15.0104 11.8427C15.0214 10.9825 14.42 10.8198 13.8075 10.6542C13.3987 10.5435 12.9819 10.4307 12.971 9.97313C12.9704 9.94913 12.9718 9.99286 12.9718 9.9598C12.9718 9.79686 13.0478 9.64753 13.1696 9.53686C13.3008 9.41766 13.4827 9.3422 13.683 9.3374H13.6886H13.6891H13.6904C13.6926 9.3374 13.6774 9.3382 13.704 9.3382C13.9118 9.3382 14.0982 9.4134 14.2318 9.53526C14.3579 9.6502 14.436 9.80753 14.436 9.98006C14.436 10.139 14.5651 10.2681 14.724 10.2681C14.883 10.2681 15.012 10.139 15.012 9.98006C15.012 9.639 14.8616 9.33153 14.6187 9.10993C14.444 8.95073 14.2208 8.83633 13.9723 8.78806L13.9686 8.37393C13.9672 8.21553 13.8379 8.08806 13.6795 8.0894C13.5211 8.09073 13.3939 8.22006 13.3952 8.37846Z" fill="#282828"/>
</svg>
