<svg width="49" height="99" viewBox="0 0 49 99" fill="none" xmlns="http://www.w3.org/2000/svg">
<path d="M3.78751 70.7968C3.78751 70.7968 -0.83427 98.4336 24.084 98.4336C48.2588 98.4336 44.3832 70.7968 44.3832 70.7968C44.3832 70.7968 49.1089 69.9298 48.0019 66.5795C48.0019 66.5795 47.0453 65.6496 43.0658 67.7747L43.3364 33.1993C43.3364 33.1993 44.4734 30.9539 44.4734 22.6041C44.4734 -7.53519 3.70005 -7.53519 3.70005 22.6041C3.70005 30.9539 4.83431 33.1993 4.83431 33.1993L5.1049 67.7747C1.12814 65.6496 0.168797 66.5795 0.168797 66.5795C-0.940868 69.9298 3.78751 70.7968 3.78751 70.7968ZM23.9446 8.10606C31.6303 8.10606 37.6104 16.2562 37.6104 16.2562L37.6022 26.0036C37.6022 26.0036 32.2562 15.9964 23.7314 15.9964C15.2067 15.9964 10.4236 26.2853 10.4236 26.2853L10.2268 16.2562C10.2268 16.2562 16.2589 8.10606 23.9446 8.10606ZM10.6177 65.6469C10.6177 65.6469 13.8811 68.5596 23.6604 68.5596C33.4451 68.5596 37.1813 65.2722 37.1813 65.2722L40.9996 74.1964C40.9996 74.1964 35.9733 80.9599 23.9173 80.9599C11.8667 80.9599 6.83772 74.0569 6.83772 74.0569L10.6177 65.6469Z" fill="#E3E3E3"/>
</svg>
