<svg width="24" height="24" viewBox="0 0 24 24" fill="none" xmlns="http://www.w3.org/2000/svg">
<path d="M4.7857 1.09904V2.57062H3.35712V1.09904C3.35712 0.889662 3.43238 0.688857 3.56633 0.540802C3.70029 0.392747 3.88197 0.30957 4.07141 0.30957C4.26085 0.30957 4.44253 0.392747 4.57649 0.540802C4.71044 0.688857 4.7857 0.889662 4.7857 1.09904ZM10.36 0.315886C10.1705 0.315886 9.98886 0.399062 9.85491 0.547117C9.72095 0.695172 9.64569 0.895978 9.64569 1.10536V2.57694H11.0743V1.09904C11.0728 0.890759 10.9968 0.691572 10.863 0.54488C10.7293 0.398188 10.5484 0.315879 10.36 0.315886ZM16.6457 0.315886C16.4563 0.315886 16.2746 0.399062 16.1406 0.547117C16.0067 0.695172 15.9314 0.895978 15.9314 1.10536V2.57694H17.36V1.09904C17.3596 0.995783 17.3408 0.893615 17.3047 0.798373C17.2686 0.703131 17.2159 0.616681 17.1496 0.543958C17.0833 0.471235 17.0046 0.413663 16.9182 0.374531C16.8317 0.335398 16.7391 0.31547 16.6457 0.315886ZM23.8343 17.5485C23.8343 18.7637 23.5081 19.9516 22.8971 20.9619C22.2861 21.9721 21.4177 22.7594 20.4018 23.224C19.3858 23.6886 18.268 23.8097 17.1898 23.5719C16.1116 23.3341 15.1214 22.7482 14.3446 21.8883C13.5678 21.0283 13.0392 19.933 12.8257 18.741C12.6123 17.5489 12.7235 16.3136 13.1455 15.1915C13.5674 14.0693 14.281 13.1107 15.196 12.4369C16.111 11.7632 17.1862 11.4045 18.2857 11.4064C19.7576 11.4106 21.168 12.0593 22.208 13.2106C23.248 14.3618 23.8328 15.9217 23.8343 17.5485ZM20.44 15.2843C20.3656 15.2212 20.2807 15.175 20.1901 15.1482C20.0995 15.1215 20.005 15.1149 19.9121 15.1287C19.8191 15.1425 19.7296 15.1764 19.6486 15.2286C19.5675 15.2808 19.4967 15.3502 19.44 15.4327L18.1686 17.2738L17.6971 16.5601C17.6475 16.4629 17.5797 16.3784 17.4983 16.3123C17.417 16.2462 17.3238 16.1999 17.2251 16.1765C17.1263 16.153 17.0242 16.153 16.9254 16.1764C16.8267 16.1998 16.7335 16.2461 16.6522 16.3122C16.5708 16.3783 16.503 16.4628 16.4533 16.56C16.4036 16.6571 16.3732 16.7649 16.3639 16.876C16.3547 16.9872 16.3668 17.0993 16.3996 17.2048C16.4325 17.3104 16.4852 17.4071 16.5543 17.4885L17.5886 19.0675C17.6549 19.1657 17.7412 19.2454 17.8404 19.3002C17.9396 19.3551 18.0491 19.3835 18.16 19.3833C18.2708 19.383 18.3801 19.3544 18.4793 19.2996C18.5784 19.2448 18.6647 19.1653 18.7314 19.0675L20.5714 16.3927C20.6287 16.3105 20.6708 16.2165 20.6953 16.1162C20.7197 16.016 20.726 15.9113 20.7138 15.8084C20.7016 15.7054 20.6711 15.6061 20.6241 15.5162C20.5771 15.4263 20.5146 15.3475 20.44 15.2843ZM21.3343 5.53589V10.6075C20.0536 9.91955 18.6134 9.68058 17.2065 9.92258C15.7995 10.1646 14.4931 10.876 13.4622 11.9615C12.4312 13.047 11.725 14.4548 11.4382 15.9963C11.1513 17.5378 11.2975 19.1393 11.8571 20.5864H2.85712C2.14658 20.5856 1.46535 20.2732 0.962913 19.7179C0.46048 19.1626 0.17788 18.4096 0.177124 17.6243V5.53589C0.177879 4.75025 0.460386 3.99699 0.962739 3.44116C1.46509 2.88534 2.14631 2.57229 2.85712 2.57062H3.36855V5.75378C3.36855 5.96316 3.44381 6.16397 3.57776 6.31202C3.71172 6.46008 3.8934 6.54325 4.08284 6.54325C4.27228 6.54325 4.45396 6.46008 4.58791 6.31202C4.72187 6.16397 4.79712 5.96316 4.79712 5.75378V2.57062H9.65427V5.75378C9.65427 5.96316 9.72952 6.16397 9.86348 6.31202C9.99743 6.46008 10.1791 6.54325 10.3686 6.54325C10.558 6.54325 10.7397 6.46008 10.8736 6.31202C11.0076 6.16397 11.0828 5.96316 11.0828 5.75378V2.57062H15.94V5.75378C15.94 5.85746 15.9585 5.96012 15.9944 6.0559C16.0302 6.15168 16.0829 6.23871 16.1492 6.31202C16.2155 6.38533 16.2943 6.44348 16.3809 6.48316C16.4676 6.52283 16.5605 6.54325 16.6543 6.54325C16.7481 6.54325 16.841 6.52283 16.9276 6.48316C17.0143 6.44348 17.093 6.38533 17.1593 6.31202C17.2257 6.23871 17.2783 6.15168 17.3142 6.0559C17.3501 5.96012 17.3686 5.85746 17.3686 5.75378V2.57062H18.66C19.3698 2.57396 20.0496 2.88774 20.5507 3.44339C21.0518 3.99903 21.3335 4.75134 21.3343 5.53589ZM6.63712 15.2875C6.63712 15.0781 6.56187 14.8773 6.42791 14.7292C6.29396 14.5812 6.11228 14.498 5.92284 14.498H5.02855C4.83911 14.498 4.65743 14.5812 4.52348 14.7292C4.38952 14.8773 4.31427 15.0781 4.31427 15.2875C4.31427 15.4968 4.38952 15.6977 4.52348 15.8457C4.65743 15.9938 4.83911 16.0769 5.02855 16.0769H5.92284C6.11228 16.0769 6.29396 15.9938 6.42791 15.8457C6.56187 15.6977 6.63712 15.4968 6.63712 15.2875ZM6.63712 9.91904C6.63712 9.70966 6.56187 9.50886 6.42791 9.3608C6.29396 9.21275 6.11228 9.12957 5.92284 9.12957H5.02855C4.83911 9.12957 4.65743 9.21275 4.52348 9.3608C4.38952 9.50886 4.31427 9.70966 4.31427 9.91904C4.31427 10.1284 4.38952 10.3292 4.52348 10.4773C4.65743 10.6253 4.83911 10.7085 5.02855 10.7085H5.92284C6.11228 10.7085 6.29396 10.6253 6.42791 10.4773C6.56187 10.3292 6.63712 10.1284 6.63712 9.91904ZM10.8943 15.2875C10.8943 15.0781 10.819 14.8773 10.6851 14.7292C10.5511 14.5812 10.3694 14.498 10.18 14.498H9.2857C9.09626 14.498 8.91457 14.5812 8.78062 14.7292C8.64666 14.8773 8.57141 15.0781 8.57141 15.2875C8.57141 15.4968 8.64666 15.6977 8.78062 15.8457C8.91457 15.9938 9.09626 16.0769 9.2857 16.0769H10.18C10.3694 16.0769 10.5511 15.9938 10.6851 15.8457C10.819 15.6977 10.8943 15.4968 10.8943 15.2875ZM10.8943 9.91904C10.8943 9.70966 10.819 9.50886 10.6851 9.3608C10.5511 9.21275 10.3694 9.12957 10.18 9.12957H9.2857C9.09626 9.12957 8.91457 9.21275 8.78062 9.3608C8.64666 9.50886 8.57141 9.70966 8.57141 9.91904C8.57141 10.1284 8.64666 10.3292 8.78062 10.4773C8.91457 10.6253 9.09626 10.7085 9.2857 10.7085H10.18C10.3694 10.7085 10.5511 10.6253 10.6851 10.4773C10.819 10.3292 10.8943 10.1284 10.8943 9.91904Z" fill="#282828"/>
</svg>
