<svg width="24" height="24" viewBox="0 0 24 24" fill="none" xmlns="http://www.w3.org/2000/svg">
<path d="M0.165771 17.6243V5.53589C0.166146 5.1458 0.23608 4.75962 0.371575 4.39943C0.50707 4.03924 0.705469 3.71209 0.955429 3.4367C1.20539 3.16131 1.50201 2.94307 1.82833 2.79446C2.15465 2.64586 2.50427 2.56979 2.8572 2.57062H3.36863V1.09904C3.36863 0.889663 3.44388 0.688857 3.57784 0.540802C3.71179 0.392747 3.89347 0.30957 4.08291 0.30957C4.27235 0.30957 4.45404 0.392747 4.58799 0.540802C4.72195 0.688857 4.7972 0.889663 4.7972 1.09904V2.57062H9.65434V1.09904C9.65434 0.889663 9.7296 0.688857 9.86355 0.540802C9.99751 0.392747 10.1792 0.30957 10.3686 0.30957C10.5581 0.30957 10.7397 0.392747 10.8737 0.540802C11.0077 0.688857 11.0829 0.889663 11.0829 1.09904V2.57062H15.9401V1.09904C15.9401 0.995369 15.9585 0.892709 15.9944 0.796926C16.0303 0.701142 16.0829 0.614111 16.1493 0.540802C16.2156 0.467492 16.2943 0.40934 16.381 0.369666C16.4677 0.329991 16.5605 0.30957 16.6543 0.30957C16.7481 0.30957 16.841 0.329991 16.9277 0.369666C17.0143 0.40934 17.0931 0.467492 17.1594 0.540802C17.2257 0.614111 17.2784 0.701142 17.3143 0.796926C17.3502 0.892709 17.3686 0.995369 17.3686 1.09904V2.57062H18.6601C19.3714 2.57146 20.0533 2.88414 20.5563 3.44005C21.0593 3.99597 21.3422 4.74971 21.3429 5.53589V8.24852C21.3429 8.4579 21.2677 8.6587 21.1337 8.80676C20.9997 8.95481 20.8181 9.03799 20.6286 9.03799C20.4392 9.03799 20.2575 8.95481 20.1236 8.80676C19.9896 8.6587 19.9143 8.4579 19.9143 8.24852V5.53589C19.9136 5.16847 19.7812 4.81634 19.5461 4.55653C19.3111 4.29673 18.9925 4.1504 18.6601 4.14957H17.3601V5.75378C17.3601 5.96316 17.2848 6.16397 17.1508 6.31202C17.0169 6.46008 16.8352 6.54325 16.6458 6.54325C16.4563 6.54325 16.2746 6.46008 16.1407 6.31202C16.0067 6.16397 15.9315 5.96316 15.9315 5.75378V4.14957H11.0743V5.75378C11.0743 5.96316 10.9991 6.16397 10.8651 6.31202C10.7312 6.46008 10.5495 6.54325 10.3601 6.54325C10.1706 6.54325 9.98893 6.46008 9.85498 6.31202C9.72103 6.16397 9.64577 5.96316 9.64577 5.75378V4.14957H4.78863V5.75378C4.78863 5.96316 4.71337 6.16397 4.57942 6.31202C4.44546 6.46008 4.26378 6.54325 4.07434 6.54325C3.8849 6.54325 3.70322 6.46008 3.56927 6.31202C3.43531 6.16397 3.36006 5.96316 3.36006 5.75378V4.14957H2.8572C2.52504 4.15041 2.20674 4.29683 1.97213 4.55673C1.73753 4.81662 1.60577 5.16876 1.60577 5.53589V17.6243C1.60577 17.9911 1.73762 18.343 1.97231 18.6023C2.20699 18.8617 2.5253 19.0075 2.8572 19.0075H9.36577C9.55521 19.0075 9.73689 19.0906 9.87085 19.2387C10.0048 19.3868 10.0801 19.5876 10.0801 19.7969C10.0801 20.0063 10.0048 20.2071 9.87085 20.3552C9.73689 20.5032 9.55521 20.5864 9.36577 20.5864H2.8572C2.5044 20.5877 2.15485 20.512 1.82854 20.3637C1.50224 20.2155 1.2056 19.9975 0.955601 19.7224C0.705604 19.4472 0.50716 19.1203 0.37163 18.7603C0.2361 18.4003 0.166145 18.0142 0.165771 17.6243ZM23.8343 17.5485C23.8343 18.7637 23.5082 19.9516 22.8972 20.9619C22.2862 21.9721 21.4178 22.7594 20.4018 23.224C19.3859 23.6886 18.2681 23.8097 17.1899 23.5719C16.1117 23.3341 15.1215 22.7482 14.3447 21.8883C13.5678 21.0283 13.0392 19.933 12.8258 18.741C12.6123 17.5489 12.7236 16.3136 13.1455 15.1915C13.5675 14.0693 14.2811 13.1107 15.1961 12.4369C16.111 11.7632 17.1863 11.4045 18.2858 11.4064C19.7577 11.4106 21.1681 12.0593 22.2081 13.2106C23.248 14.3618 23.8328 15.9217 23.8343 17.5485ZM22.4058 17.5485C22.4069 16.6453 22.1655 15.7621 21.7122 15.0107C21.2588 14.2592 20.6139 13.6734 19.8591 13.3273C19.1043 12.9812 18.2736 12.8905 17.4721 13.0667C16.6706 13.2428 15.9345 13.6778 15.3568 14.3167C14.7792 14.9556 14.3861 15.7695 14.2273 16.6555C14.0685 17.5414 14.1512 18.4596 14.4648 19.2936C14.7784 20.1276 15.3089 20.84 15.9891 21.3405C16.6693 21.841 17.4686 22.1072 18.2858 22.1054C19.378 22.102 20.4246 21.6208 21.1967 20.7668C21.9688 19.9129 22.4035 18.7558 22.4058 17.5485ZM20.4401 15.2843C20.3657 15.2212 20.2808 15.175 20.1901 15.1482C20.0995 15.1215 20.0051 15.1149 19.9121 15.1287C19.8192 15.1425 19.7296 15.1764 19.6486 15.2286C19.5676 15.2808 19.4967 15.3502 19.4401 15.4327L18.1686 17.2738L17.6972 16.5601C17.6475 16.4629 17.5798 16.3784 17.4984 16.3123C17.417 16.2462 17.3239 16.1999 17.2251 16.1765C17.1264 16.153 17.0243 16.153 16.9255 16.1764C16.8268 16.1998 16.7336 16.2461 16.6522 16.3122C16.5709 16.3783 16.5031 16.4628 16.4534 16.56C16.4037 16.6571 16.3732 16.7649 16.364 16.876C16.3547 16.9872 16.3669 17.0993 16.3997 17.2048C16.4325 17.3104 16.4852 17.4071 16.5543 17.4885L17.5886 19.0675C17.655 19.1657 17.7412 19.2454 17.8405 19.3002C17.9397 19.3551 18.0491 19.3835 18.1601 19.3833C18.2709 19.383 18.3802 19.3544 18.4793 19.2996C18.5785 19.2448 18.6648 19.1653 18.7315 19.0675L20.5715 16.3896C20.6287 16.3076 20.6708 16.2139 20.6952 16.1138C20.7195 16.0138 20.7258 15.9095 20.7136 15.8067C20.7014 15.704 20.6709 15.605 20.624 15.5154C20.577 15.4257 20.5145 15.3472 20.4401 15.2843ZM5.92291 9.12957H5.02863C4.83919 9.12957 4.65751 9.21275 4.52355 9.3608C4.3896 9.50886 4.31434 9.70966 4.31434 9.91904C4.31434 10.1284 4.3896 10.3292 4.52355 10.4773C4.65751 10.6253 4.83919 10.7085 5.02863 10.7085H5.92291C6.11235 10.7085 6.29404 10.6253 6.42799 10.4773C6.56194 10.3292 6.6372 10.1284 6.6372 9.91904C6.6372 9.70966 6.56194 9.50886 6.42799 9.3608C6.29404 9.21275 6.11235 9.12957 5.92291 9.12957ZM5.92291 14.498H5.02863C4.83919 14.498 4.65751 14.5812 4.52355 14.7292C4.3896 14.8773 4.31434 15.0781 4.31434 15.2875C4.31434 15.4968 4.3896 15.6977 4.52355 15.8457C4.65751 15.9938 4.83919 16.0769 5.02863 16.0769H5.92291C6.11235 16.0769 6.29404 15.9938 6.42799 15.8457C6.56194 15.6977 6.6372 15.4968 6.6372 15.2875C6.6372 15.0781 6.56194 14.8773 6.42799 14.7292C6.29404 14.5812 6.11235 14.498 5.92291 14.498ZM10.1801 9.12957H9.28577C9.09633 9.12957 8.91465 9.21275 8.78069 9.3608C8.64674 9.50886 8.57149 9.70966 8.57149 9.91904C8.57149 10.1284 8.64674 10.3292 8.78069 10.4773C8.91465 10.6253 9.09633 10.7085 9.28577 10.7085H10.1801C10.3695 10.7085 10.5512 10.6253 10.6851 10.4773C10.8191 10.3292 10.8943 10.1284 10.8943 9.91904C10.8943 9.70966 10.8191 9.50886 10.6851 9.3608C10.5512 9.21275 10.3695 9.12957 10.1801 9.12957ZM13.8172 9.12957C13.6278 9.12957 13.4461 9.21275 13.3121 9.3608C13.1782 9.50886 13.1029 9.70966 13.1029 9.91904C13.1029 10.1284 13.1782 10.3292 13.3121 10.4773C13.4461 10.6253 13.6278 10.7085 13.8172 10.7085H14.7143C14.9038 10.7085 15.0855 10.6253 15.2194 10.4773C15.3534 10.3292 15.4286 10.1284 15.4286 9.91904C15.4286 9.70966 15.3534 9.50886 15.2194 9.3608C15.0855 9.21275 14.9038 9.12957 14.7143 9.12957H13.8172ZM10.1801 14.498H9.28577C9.09633 14.498 8.91465 14.5812 8.78069 14.7292C8.64674 14.8773 8.57149 15.0781 8.57149 15.2875C8.57149 15.4968 8.64674 15.6977 8.78069 15.8457C8.91465 15.9938 9.09633 16.0769 9.28577 16.0769H10.1801C10.3695 16.0769 10.5512 15.9938 10.6851 15.8457C10.8191 15.6977 10.8943 15.4968 10.8943 15.2875C10.8943 15.0781 10.8191 14.8773 10.6851 14.7292C10.5512 14.5812 10.3695 14.498 10.1801 14.498Z" fill="#282828"/>
</svg>
