<svg width="29" height="28" viewBox="0 0 29 28" fill="none" xmlns="http://www.w3.org/2000/svg">
<rect x="0.789551" width="28" height="28" rx="8" fill="#52459F" fill-opacity="0.1"/>
<path d="M18.946 6.615V5.25C18.946 4.89125 18.6485 4.59375 18.2898 4.59375C17.931 4.59375 17.6335 4.89125 17.6335 5.25V6.5625H11.946V5.25C11.946 4.89125 11.6485 4.59375 11.2898 4.59375C10.931 4.59375 10.6335 4.89125 10.6335 5.25V6.615C8.271 6.83375 7.12475 8.2425 6.94975 10.3337C6.93225 10.5875 7.14225 10.7975 7.38725 10.7975H22.1923C22.446 10.7975 22.656 10.5788 22.6298 10.3337C22.4548 8.2425 21.3085 6.83375 18.946 6.615Z" fill="#52459F"/>
<path d="M21.7896 12.11H7.78955C7.3083 12.11 6.91455 12.5037 6.91455 12.985V18.375C6.91455 21 8.22705 22.75 11.2896 22.75H18.2896C21.3521 22.75 22.6646 21 22.6646 18.375V12.985C22.6646 12.5037 22.2708 12.11 21.7896 12.11ZM12.3483 19.4337C12.3046 19.4687 12.2608 19.5125 12.2171 19.5387C12.1646 19.5737 12.1121 19.6 12.0596 19.6175C12.0071 19.6437 11.9546 19.6612 11.9021 19.67C11.8408 19.6787 11.7883 19.6875 11.7271 19.6875C11.6133 19.6875 11.4996 19.6612 11.3946 19.6175C11.2808 19.5737 11.1933 19.5125 11.1058 19.4337C10.9483 19.2675 10.8521 19.04 10.8521 18.8125C10.8521 18.585 10.9483 18.3575 11.1058 18.1912C11.1933 18.1125 11.2808 18.0512 11.3946 18.0075C11.5521 17.9375 11.7271 17.92 11.9021 17.955C11.9546 17.9637 12.0071 17.9812 12.0596 18.0075C12.1121 18.025 12.1646 18.0512 12.2171 18.0862C12.2608 18.1212 12.3046 18.1562 12.3483 18.1912C12.5058 18.3575 12.6021 18.585 12.6021 18.8125C12.6021 19.04 12.5058 19.2675 12.3483 19.4337ZM12.3483 16.3712C12.1821 16.5287 11.9546 16.625 11.7271 16.625C11.4996 16.625 11.2721 16.5287 11.1058 16.3712C10.9483 16.205 10.8521 15.9775 10.8521 15.75C10.8521 15.5225 10.9483 15.295 11.1058 15.1287C11.3508 14.8837 11.7358 14.805 12.0596 14.945C12.1733 14.9887 12.2696 15.05 12.3483 15.1287C12.5058 15.295 12.6021 15.5225 12.6021 15.75C12.6021 15.9775 12.5058 16.205 12.3483 16.3712ZM15.4108 19.4337C15.2446 19.5912 15.0171 19.6875 14.7896 19.6875C14.5621 19.6875 14.3346 19.5912 14.1683 19.4337C14.0108 19.2675 13.9146 19.04 13.9146 18.8125C13.9146 18.585 14.0108 18.3575 14.1683 18.1912C14.4921 17.8675 15.0871 17.8675 15.4108 18.1912C15.5683 18.3575 15.6646 18.585 15.6646 18.8125C15.6646 19.04 15.5683 19.2675 15.4108 19.4337ZM15.4108 16.3712C15.3671 16.4062 15.3233 16.4412 15.2796 16.4762C15.2271 16.5112 15.1746 16.5375 15.1221 16.555C15.0696 16.5812 15.0171 16.5987 14.9646 16.6075C14.9033 16.6162 14.8508 16.625 14.7896 16.625C14.5621 16.625 14.3346 16.5287 14.1683 16.3712C14.0108 16.205 13.9146 15.9775 13.9146 15.75C13.9146 15.5225 14.0108 15.295 14.1683 15.1287C14.2471 15.05 14.3433 14.9887 14.4571 14.945C14.7808 14.805 15.1658 14.8837 15.4108 15.1287C15.5683 15.295 15.6646 15.5225 15.6646 15.75C15.6646 15.9775 15.5683 16.205 15.4108 16.3712ZM18.4733 19.4337C18.307 19.5912 18.0796 19.6875 17.8521 19.6875C17.6246 19.6875 17.3971 19.5912 17.2308 19.4337C17.0733 19.2675 16.9771 19.04 16.9771 18.8125C16.9771 18.585 17.0733 18.3575 17.2308 18.1912C17.5546 17.8675 18.1496 17.8675 18.4733 18.1912C18.6308 18.3575 18.7271 18.585 18.7271 18.8125C18.7271 19.04 18.6308 19.2675 18.4733 19.4337ZM18.4733 16.3712C18.4296 16.4062 18.3858 16.4412 18.3421 16.4762C18.2896 16.5112 18.2371 16.5375 18.1846 16.555C18.1321 16.5812 18.0796 16.5987 18.0271 16.6075C17.9658 16.6162 17.9046 16.625 17.8521 16.625C17.6246 16.625 17.3971 16.5287 17.2308 16.3712C17.0733 16.205 16.9771 15.9775 16.9771 15.75C16.9771 15.5225 17.0733 15.295 17.2308 15.1287C17.3183 15.05 17.4058 14.9887 17.5196 14.945C17.6771 14.875 17.8521 14.8575 18.0271 14.8925C18.0796 14.9012 18.1321 14.9187 18.1846 14.945C18.2371 14.9625 18.2896 14.9887 18.3421 15.0237C18.3858 15.0587 18.4296 15.0937 18.4733 15.1287C18.6308 15.295 18.7271 15.5225 18.7271 15.75C18.7271 15.9775 18.6308 16.205 18.4733 16.3712Z" fill="#52459F"/>
</svg>
