<svg width="28" height="28" viewBox="0 0 28 28" fill="none" xmlns="http://www.w3.org/2000/svg">
<rect width="28" height="28" rx="8" fill="#53BE61" fill-opacity="0.1"/>
<path d="M18.436 22.75C17.5163 22.75 16.5477 22.5302 15.5465 22.107C14.5698 21.6919 13.5849 21.1221 12.6244 20.4302C11.6721 19.7302 10.7523 18.9488 9.88139 18.0942C9.0186 17.2233 8.23721 16.3035 7.54535 15.3593C6.84535 14.3826 6.28372 13.4058 5.88488 12.4616C5.46163 11.4523 5.25 10.4756 5.25 9.55581C5.25 8.92093 5.36395 8.3186 5.58372 7.75698C5.81163 7.17907 6.17791 6.64186 6.67442 6.17791C7.30116 5.5593 8.01744 5.25 8.78256 5.25C9.1 5.25 9.42558 5.32326 9.70232 5.45349C10.0198 5.6 10.2884 5.81977 10.4837 6.11279L12.3721 8.77442C12.543 9.01047 12.6733 9.23837 12.7628 9.46628C12.8686 9.71046 12.9256 9.95465 12.9256 10.1907C12.9256 10.5 12.836 10.8012 12.6651 11.086C12.543 11.3058 12.3558 11.5419 12.1198 11.7779L11.5663 12.3558C11.5744 12.3802 11.5826 12.3965 11.5907 12.4128C11.6884 12.5837 11.8837 12.8767 12.2581 13.3163C12.657 13.7721 13.0314 14.1872 13.4058 14.5698C13.886 15.0419 14.2849 15.4163 14.6593 15.7256C15.1233 16.1163 15.3125 16.1875 15.3125 16.1875H15.75L16.1814 15.8558C16.4337 15.6035 16.6779 15.4163 16.914 15.2942C17.3616 15.0174 17.9314 14.9686 18.5012 15.2047C18.7128 15.2942 18.9407 15.4163 19.1849 15.5872L21.8872 17.5081C22.1884 17.7116 22.4081 17.9721 22.5384 18.2814C22.6605 18.5907 22.7174 18.8756 22.7174 19.1605C22.7174 19.5512 22.6279 19.9419 22.457 20.3081C22.286 20.6744 22.0744 20.9919 21.8058 21.2849C21.3419 21.7977 20.8372 22.164 20.2512 22.4C19.6895 22.6279 19.0791 22.75 18.436 22.75Z" fill="#53BE61"/>
<path d="M19.2904 12.1684C18.9566 12.1684 18.6799 11.8917 18.6799 11.5579C18.6799 11.2649 18.3869 10.6544 17.8985 10.1335C17.4183 9.62073 16.8892 9.31956 16.4415 9.31956C16.1078 9.31956 15.8311 9.04282 15.8311 8.7091C15.8311 8.37538 16.1078 8.09863 16.4415 8.09863C17.2311 8.09863 18.0613 8.52189 18.7857 9.29514C19.4613 10.0196 19.9008 10.9068 19.9008 11.5579C19.9008 11.8917 19.6241 12.1684 19.2904 12.1684Z" fill="#53BE61"/>
<path d="M22.1392 12.1686C21.8055 12.1686 21.5287 11.8919 21.5287 11.5581C21.5287 8.75 19.2497 6.47093 16.4415 6.47093C16.1078 6.47093 15.8311 6.19419 15.8311 5.86047C15.8311 5.52674 16.1078 5.25 16.4415 5.25C19.9171 5.25 22.7497 8.08256 22.7497 11.5581C22.7497 11.8919 22.4729 12.1686 22.1392 12.1686Z" fill="#53BE61"/>
</svg>
