<svg width="24" height="24" viewBox="0 0 24 24" fill="none" xmlns="http://www.w3.org/2000/svg">
<rect width="24" height="24" rx="8" fill="#53BE61" fill-opacity="0.1"/>
<path d="M15.8023 19.5C15.014 19.5 14.1837 19.3116 13.3256 18.9488C12.4884 18.593 11.6442 18.1047 10.8209 17.5116C10.0047 16.9116 9.21628 16.2419 8.46977 15.5093C7.73023 14.7628 7.06047 13.9744 6.46744 13.1651C5.86744 12.3279 5.38605 11.4907 5.04419 10.6814C4.6814 9.81628 4.5 8.97907 4.5 8.1907C4.5 7.64651 4.59767 7.13023 4.78605 6.64884C4.9814 6.15349 5.29535 5.69302 5.72093 5.29535C6.25814 4.76512 6.87209 4.5 7.52791 4.5C7.8 4.5 8.07907 4.56279 8.31628 4.67442C8.58837 4.8 8.8186 4.98837 8.98605 5.23953L10.6047 7.52093C10.7512 7.72326 10.8628 7.9186 10.9395 8.11395C11.0302 8.32326 11.0791 8.53256 11.0791 8.73488C11.0791 9 11.0023 9.25814 10.8558 9.50233C10.7512 9.6907 10.5907 9.89302 10.3884 10.0953L9.91395 10.5907C9.92093 10.6116 9.92791 10.6256 9.93488 10.6395C10.0186 10.786 10.186 11.0372 10.507 11.414C10.8488 11.8047 11.1698 12.1605 11.4907 12.4884C11.9023 12.893 12.2442 13.214 12.5651 13.4791C12.9628 13.814 13.125 13.875 13.125 13.875H13.5L13.8698 13.5907C14.086 13.3744 14.2953 13.214 14.4977 13.1093C14.8814 12.8721 15.3698 12.8302 15.8581 13.0326C16.0395 13.1093 16.2349 13.214 16.4442 13.3605L18.7605 15.007C19.0186 15.1814 19.207 15.4047 19.3186 15.6698C19.4233 15.9349 19.4721 16.1791 19.4721 16.4233C19.4721 16.7581 19.3953 17.093 19.2488 17.407C19.1023 17.7209 18.9209 17.993 18.6907 18.2442C18.293 18.6837 17.8605 18.9977 17.3581 19.2C16.8767 19.3953 16.3535 19.5 15.8023 19.5Z" fill="#53BE61"/>
<path d="M16.5349 10.4298C16.2489 10.4298 16.0117 10.1926 16.0117 9.90652C16.0117 9.65536 15.7605 9.1321 15.3419 8.68559C14.9303 8.24606 14.4768 7.98792 14.0931 7.98792C13.807 7.98792 13.5698 7.75071 13.5698 7.46466C13.5698 7.17862 13.807 6.94141 14.0931 6.94141C14.7698 6.94141 15.4815 7.3042 16.1024 7.96699C16.6815 8.58792 17.0582 9.34838 17.0582 9.90652C17.0582 10.1926 16.821 10.4298 16.5349 10.4298Z" fill="#53BE61"/>
<path d="M18.9768 10.4302C18.6908 10.4302 18.4535 10.193 18.4535 9.90698C18.4535 7.5 16.5001 5.54651 14.0931 5.54651C13.807 5.54651 13.5698 5.3093 13.5698 5.02326C13.5698 4.73721 13.807 4.5 14.0931 4.5C17.0721 4.5 19.5001 6.92791 19.5001 9.90698C19.5001 10.193 19.2628 10.4302 18.9768 10.4302Z" fill="#53BE61"/>
</svg>
