<svg width="29" height="28" viewBox="0 0 29 28" fill="none" xmlns="http://www.w3.org/2000/svg">
<rect x="0.789551" width="28" height="28" rx="8" fill="#EB4747" fill-opacity="0.1"/>
<path d="M23.6007 16.6176C23.6062 16.9965 23.5341 17.3724 23.3889 17.7224C23.2436 18.0723 23.0284 18.3889 22.7563 18.6526C22.5157 18.9003 22.2288 19.0982 21.9119 19.2352C21.5402 19.412 21.1329 19.5016 20.7213 19.497H8.89985C8.56517 19.4992 8.23301 19.4391 7.92036 19.3197C7.38111 19.1212 6.9156 18.7623 6.58649 18.2913C6.25738 17.8203 6.08047 17.2598 6.07959 16.6852V15.1568C6.10862 14.3212 6.36557 13.5095 6.82265 12.8094L7.24485 12.0917L7.83592 11.07C7.9222 10.9335 8.00113 10.7926 8.07235 10.6478V10.5802L8.91674 8.76478C9.1505 8.23901 9.53183 7.79239 10.0145 7.47913C10.4971 7.16586 11.0603 6.99942 11.6357 7H18.0868C18.6878 7.00294 19.2741 7.18646 19.7694 7.52676C20.2648 7.86705 20.6465 8.3484 20.8649 8.90832L21.4306 10.3691C21.4306 10.4704 21.515 10.5718 21.5657 10.6731C21.6681 10.8934 21.7926 11.1028 21.9372 11.298L22.731 12.4294L22.7985 12.5392C23.2851 13.265 23.5546 14.1144 23.5754 14.9879L23.6007 16.6176Z" fill="#EB4747"/>
<path d="M9.54132 16.9973C9.20731 16.9973 8.8808 16.8983 8.60308 16.7127C8.32536 16.5271 8.10891 16.2634 7.98109 15.9548C7.85327 15.6462 7.81983 15.3067 7.88499 14.9791C7.95015 14.6515 8.11099 14.3506 8.34717 14.1144C8.58335 13.8782 8.88426 13.7174 9.21186 13.6522C9.53945 13.587 9.87901 13.6205 10.1876 13.7483C10.4962 13.8761 10.7599 14.0926 10.9455 14.3703C11.1311 14.648 11.2301 14.9745 11.2301 15.3085C11.2301 15.7564 11.0522 16.186 10.7355 16.5027C10.4188 16.8194 9.98922 16.9973 9.54132 16.9973ZM9.54132 14.9117C9.45879 14.91 9.37765 14.9331 9.30833 14.9779C9.23901 15.0227 9.18468 15.0872 9.15232 15.1631C9.11997 15.2391 9.11107 15.323 9.12676 15.404C9.14246 15.485 9.18203 15.5595 9.24039 15.6179C9.29876 15.6763 9.37326 15.7158 9.45429 15.7315C9.53533 15.7472 9.61921 15.7383 9.69515 15.706C9.77109 15.6736 9.83561 15.6193 9.88043 15.55C9.92524 15.4806 9.94829 15.3995 9.94663 15.317C9.94663 15.2095 9.90393 15.1064 9.82792 15.0304C9.75191 14.9544 9.64882 14.9117 9.54132 14.9117Z" fill="white"/>
<path d="M20.2571 16.9973C19.9231 16.9973 19.5966 16.8983 19.3189 16.7127C19.0412 16.5271 18.8247 16.2634 18.6969 15.9548C18.5691 15.6462 18.5356 15.3067 18.6008 14.9791C18.666 14.6515 18.8268 14.3506 19.063 14.1144C19.2992 13.8782 19.6001 13.7174 19.9277 13.6522C20.2553 13.587 20.5948 13.6205 20.9034 13.7483C21.212 13.8761 21.4757 14.0926 21.6613 14.3703C21.8469 14.648 21.9459 14.9745 21.9459 15.3085C21.9459 15.7564 21.768 16.186 21.4513 16.5027C21.1346 16.8194 20.705 16.9973 20.2571 16.9973ZM20.2571 14.9117C20.1452 14.9117 20.0378 14.9562 19.9586 15.0353C19.8794 15.1145 19.8349 15.2219 19.8349 15.3339C19.8349 15.4458 19.8794 15.5532 19.9586 15.6324C20.0378 15.7116 20.1452 15.7561 20.2571 15.7561C20.3691 15.7561 20.4765 15.7116 20.5557 15.6324C20.6349 15.5532 20.6793 15.4458 20.6793 15.3339C20.6793 15.2219 20.6349 15.1145 20.5557 15.0353C20.4765 14.9562 20.3691 14.9117 20.2571 14.9117Z" fill="white"/>
<path d="M21.9715 19.6906V20.1382C21.9715 20.5861 21.7935 21.0156 21.4768 21.3323C21.1601 21.649 20.7306 21.827 20.2827 21.827H19.4383C18.9904 21.827 18.5609 21.649 18.2441 21.3323C17.9274 21.0156 17.7495 20.5861 17.7495 20.1382V19.9355H20.7555C21.1731 19.9355 21.5865 19.8523 21.9715 19.6906Z" fill="#EB4747"/>
<path d="M12.2019 19.9361V20.1557C12.2019 20.6036 12.024 21.0331 11.7073 21.3498C11.3906 21.6665 10.961 21.8444 10.5132 21.8444H9.66876C9.22087 21.8444 8.79132 21.6665 8.47461 21.3498C8.1579 21.0331 7.97998 20.6036 7.97998 20.1557V19.7672C8.29617 19.8703 8.62692 19.9216 8.95947 19.9192L12.2019 19.9361Z" fill="#EB4747"/>
<path d="M7.93732 9.87064L7.684 10.4448C7.62384 10.585 7.55328 10.7205 7.4729 10.8501L6.73829 12.0914H5.80101C5.60332 12.0936 5.40716 12.0566 5.22387 11.9825C5.04059 11.9084 4.87383 11.7987 4.73326 11.6597C4.59268 11.5206 4.48107 11.3551 4.40491 11.1727C4.32875 10.9902 4.28954 10.7945 4.28955 10.5968C4.28955 10.1019 4.48616 9.62724 4.83612 9.27728C5.18608 8.92732 5.66073 8.73071 6.15565 8.73071C6.53125 8.72714 6.89976 8.83304 7.21616 9.03547C7.53256 9.23791 7.78315 9.52811 7.93732 9.87064Z" fill="#EB4747"/>
<path d="M25.3067 11.0187C25.3067 11.4137 25.1504 11.7925 24.8719 12.0726C24.5934 12.3526 24.2155 12.5111 23.8205 12.5133H23.297C23.2271 12.3913 23.151 12.273 23.069 12.1587L22.2669 11.0356C22.088 10.7709 21.938 10.4878 21.8193 10.1912V10.0983C21.9909 9.80444 22.238 9.56178 22.5349 9.39549C22.8319 9.22921 23.1679 9.14536 23.5081 9.15263C23.9912 9.17013 24.4487 9.37443 24.7842 9.72252C25.1197 10.0706 25.307 10.5353 25.3067 11.0187Z" fill="#EB4747"/>
<path d="M20.4424 11.2301H9.17822L9.22888 11.1457L10.0733 9.26268C10.2057 8.95927 10.4243 8.70147 10.7021 8.52131C10.9798 8.34116 11.3044 8.24661 11.6354 8.24942H18.0865C18.4345 8.24482 18.7753 8.3478 19.0625 8.54429C19.3497 8.74077 19.5691 9.02116 19.6909 9.34712L20.2566 10.8079C20.31 10.9523 20.372 11.0933 20.4424 11.2301Z" fill="white"/>
</svg>
