<svg width="10" height="19" viewBox="0 0 10 19" fill="none" xmlns="http://www.w3.org/2000/svg">
<path d="M9.10434 5.45932C9.10434 5.45932 10.0524 0.250305 4.94084 0.250305C-0.0182416 0.250305 0.776782 5.45932 0.776782 5.45932C0.776782 5.45932 -0.192608 5.62273 0.0344613 6.2542C0.0344613 6.2542 0.230694 6.42947 1.04702 6.02893L0.991517 12.5457C0.991517 12.5457 0.75828 12.969 0.75828 14.5427C0.75828 20.2234 9.12228 20.2234 9.12228 14.5427C9.12228 12.969 8.88961 12.5457 8.88961 12.5457L8.8341 6.02893C9.64987 6.42947 9.84666 6.2542 9.84666 6.2542C10.0743 5.62273 9.10434 5.45932 9.10434 5.45932ZM4.96944 17.2754C3.39285 17.2754 2.16611 15.7392 2.16611 15.7392L2.16779 13.902C2.16779 13.902 3.26445 15.7882 5.01317 15.7882C6.76188 15.7882 7.74305 13.8489 7.74305 13.8489L7.78341 15.7392C7.78341 15.7392 6.54603 17.2754 4.96944 17.2754ZM7.70324 6.42998C7.70324 6.42998 7.0338 5.88099 5.02775 5.88099C3.02056 5.88099 2.25413 6.50061 2.25413 6.50061L1.47089 4.81857C1.47089 4.81857 2.50195 3.54376 4.97504 3.54376C7.44702 3.54376 8.47864 4.84486 8.47864 4.84486L7.70324 6.42998Z" fill="#E51C39"/>
</svg>
