<svg width="25" height="18" viewBox="0 0 25 18" fill="none" xmlns="http://www.w3.org/2000/svg">
<path d="M18 12.8643H23.1357V15.4321C23.1357 16.8532 21.9889 18 20.5679 18H2.56787C1.14681 18 0 16.8532 0 15.4321V2.56787C0 1.14681 1.14681 0 2.56787 0H20.5679C21.9889 0 23.1357 1.14681 23.1357 2.56787V5.13573H18C15.8809 5.13573 14.1357 6.85596 14.1357 9C14.1357 11.1191 15.8809 12.8643 18 12.8643Z" fill="#282828"/>
<path d="M24.4325 10.2715V7.7036C24.4325 7.00554 23.8591 6.43213 23.1361 6.43213H18.0004C16.5793 6.43213 15.4325 7.57894 15.4325 9C15.4325 10.421 16.5793 11.5679 18.0004 11.5679H23.1361C23.8591 11.5679 24.4325 10.9695 24.4325 10.2715Z" fill="#E51C39"/>
<path d="M17.9997 7.70361C18.7227 7.70361 19.2961 8.30195 19.2961 9.00001C19.2961 9.69807 18.7227 10.2964 17.9997 10.2964C17.2767 10.2964 16.7033 9.723 16.7033 9.00001C16.7033 8.27702 17.2767 7.70361 17.9997 7.70361Z" fill="white"/>
</svg>
