<svg width="15" height="18" viewBox="0 0 15 18" fill="none" xmlns="http://www.w3.org/2000/svg">
<g clip-path="url(#clip0_1019_65657)">
<path d="M8.98465 1.50172V2.00863C8.99207 2.28531 9.24543 2.50741 9.55655 2.50741L9.55985 2.50814L10.5155 2.50741V3.81856H4.46796V2.50741H5.4261C5.73806 2.50741 5.99141 2.28531 5.998 2.00789L5.99883 1.50172H8.98465ZM2.63267 6.72054C2.3166 6.72054 2.06077 6.94926 2.06077 7.23186C2.06077 7.51445 2.3166 7.74318 2.63267 7.74318H6.97359C7.28967 7.74318 7.54632 7.51445 7.54632 7.23186C7.54632 6.94926 7.28967 6.72054 6.97359 6.72054H2.63267ZM12.2948 5.76944V5.77018H12.2931C12.1471 5.77018 12.001 5.81962 11.8896 5.91922L10.1681 7.4591L9.39564 6.76849C9.28341 6.66814 9.13733 6.6187 8.99126 6.6187C8.84436 6.6187 8.69829 6.66814 8.58604 6.76849C8.36322 6.96771 8.36322 7.29162 8.58604 7.49157L9.76369 8.54448C9.8751 8.64409 10.022 8.69426 10.1681 8.69426C10.315 8.69426 10.4602 8.64482 10.5716 8.54522L12.6991 6.64311C12.9228 6.44315 12.9228 6.11924 12.6991 5.91928C12.5877 5.81967 12.4409 5.76944 12.2948 5.76944ZM2.63267 9.95295C2.3166 9.95295 2.06077 10.1824 2.06077 10.465C2.06077 10.7476 2.3166 10.9763 2.63267 10.9763H6.97359C7.28967 10.9763 7.54632 10.7476 7.54632 10.465C7.54632 10.1824 7.28967 9.95369 6.97359 9.95369L2.63267 9.95295ZM12.2948 9.00262H12.2931C12.1471 9.00262 12.001 9.05279 11.8896 9.1524L10.1681 10.6923L9.39564 10.0009C9.28341 9.9013 9.13733 9.85112 8.99126 9.85112C8.84436 9.85112 8.69829 9.9013 8.58604 10.0009C8.36322 10.2009 8.36322 10.5248 8.58604 10.7247L9.76369 11.7769C9.8751 11.8772 10.022 11.9267 10.1681 11.9267C10.315 11.9267 10.4602 11.878 10.5716 11.7784L12.6991 9.87626C12.9228 9.6763 12.9228 9.3524 12.6991 9.15244C12.5877 9.05283 12.4409 9.00262 12.2948 9.00262ZM2.63267 13.1861C2.3166 13.1861 2.06077 13.4149 2.06077 13.6974C2.06077 13.98 2.3166 14.2095 2.63267 14.2095H6.97359C7.28967 14.2095 7.54632 13.9808 7.54632 13.6982C7.54632 13.4156 7.28967 13.1861 6.97359 13.1861H2.63267ZM12.2948 12.2358H12.2931C12.1471 12.2358 12.001 12.286 11.8896 12.3856L10.1681 13.9255L9.39564 13.2341C9.28341 13.1345 9.13733 13.0843 8.99126 13.0843C8.84436 13.0843 8.69829 13.1345 8.58604 13.2341C8.36322 13.434 8.36322 13.7579 8.58604 13.9579L9.76369 15.0101C9.8751 15.1104 10.022 15.1599 10.1681 15.1599C10.315 15.1599 10.4602 15.1112 10.5716 15.0108L12.6991 13.1087C12.9228 12.9095 12.9228 12.5856 12.6991 12.3856C12.5877 12.2853 12.4409 12.2358 12.2948 12.2358ZM3.32331 3.65022V4.33052C3.32331 4.46555 3.38355 4.5954 3.49084 4.69134C3.59812 4.78726 3.74337 4.84186 3.89522 4.84186L11.0874 4.84112C11.4035 4.84112 11.6601 4.6124 11.6601 4.3298V3.65097L13.4625 3.65023C13.6606 3.65097 13.8215 3.79338 13.8231 3.96972V15.8654C13.8215 16.0417 13.6606 16.1849 13.4625 16.1849H1.52102C1.32296 16.1849 1.16203 16.0417 1.15956 15.8654V3.96972C1.16204 3.79338 1.32297 3.65097 1.52102 3.65023L3.32331 3.65022ZM5.42608 0.47821V0.478948L5.42525 0.479686C5.42443 0.478948 5.4236 0.478948 5.42277 0.478948C5.27258 0.478948 5.12816 0.532812 5.0217 0.627993C4.91442 0.723913 4.85418 0.853772 4.85418 0.989545V1.48464L3.89521 1.4839C3.74336 1.4839 3.59813 1.53777 3.49082 1.63369C3.38354 1.72961 3.32329 1.8602 3.32329 1.99598V2.62832L1.50358 2.62758C0.690688 2.6357 0.0329701 3.22007 0.015625 3.94465V15.8911C0.0329555 16.6149 0.690688 17.1993 1.50358 17.2074H13.4799C14.2928 17.1993 14.9505 16.615 14.9671 15.8911V3.94465C14.9505 3.22009 14.2928 2.6357 13.4799 2.62758H11.6602V1.99597C11.6602 1.71338 11.4036 1.48465 11.0875 1.48465H10.1293V0.990293C10.1293 0.707696 9.8727 0.478234 9.55662 0.478234L5.42608 0.47821Z" fill="#FF7A00"/>
</g>
<defs>
<clipPath id="clip0_1019_65657">
<rect width="15" height="17" fill="white" transform="translate(0 0.343994)"/>
</clipPath>
</defs>
</svg>
