<svg width="25" height="25" viewBox="0 0 25 25" fill="none" xmlns="http://www.w3.org/2000/svg">
<path d="M12.9023 22.0898C7.38607 22.0898 2.90234 17.6061 2.90234 12.0898C2.90234 6.57357 7.38607 2.08984 12.9023 2.08984C18.4186 2.08984 22.9023 6.57357 22.9023 12.0898C22.9023 17.6061 18.4186 22.0898 12.9023 22.0898ZM12.9023 3.48519C8.15816 3.48519 4.29769 7.34566 4.29769 12.0898C4.29769 16.834 8.15816 20.6945 12.9023 20.6945C17.6465 20.6945 21.507 16.834 21.507 12.0898C21.507 7.34566 17.6465 3.48519 12.9023 3.48519Z" fill="#282828"/>
<path d="M10.2696 15.4203C10.0928 15.4203 9.91608 15.3552 9.77654 15.2157C9.50678 14.9459 9.50678 14.4994 9.77654 14.2296L15.0417 8.96453C15.3114 8.69477 15.7579 8.69477 16.0277 8.96453C16.2975 9.2343 16.2975 9.68081 16.0277 9.95058L10.7626 15.2157C10.6324 15.3552 10.4463 15.4203 10.2696 15.4203Z" fill="#282828"/>
<path d="M15.5347 15.4203C15.3579 15.4203 15.1812 15.3552 15.0417 15.2157L9.77654 9.95058C9.50678 9.68081 9.50678 9.2343 9.77654 8.96453C10.0463 8.69477 10.4928 8.69477 10.7626 8.96453L16.0277 14.2296C16.2975 14.4994 16.2975 14.9459 16.0277 15.2157C15.8882 15.3552 15.7114 15.4203 15.5347 15.4203Z" fill="#282828"/>
</svg>
