<svg width="24" height="24" viewBox="0 0 24 24" fill="none" xmlns="http://www.w3.org/2000/svg">
<rect width="24" height="24" rx="8" fill="#256CD6" fill-opacity="0.1"/>
<path d="M9.76909 4.5C7.8081 4.5 6.21387 6.09751 6.21387 8.06252C6.21387 9.99003 7.71829 11.55 9.67927 11.6175C9.73915 11.61 9.79903 11.61 9.84394 11.6175C9.85891 11.6175 9.86639 11.6175 9.88136 11.6175C9.88884 11.6175 9.88885 11.6175 9.89633 11.6175C11.8124 11.55 13.3168 9.99003 13.3243 8.06252C13.3243 6.09751 11.7301 4.5 9.76909 4.5Z" fill="#256CD6"/>
<path d="M13.5714 13.6127C11.4832 12.2177 8.07768 12.2177 5.97448 13.6127C5.02393 14.2502 4.5 15.1127 4.5 16.0352C4.5 16.9577 5.02393 17.8127 5.967 18.4427C7.01485 19.1477 8.39203 19.5002 9.76921 19.5002C11.1464 19.5002 12.5236 19.1477 13.5714 18.4427C14.5145 17.8052 15.0384 16.9502 15.0384 16.0202C15.0309 15.0977 14.5145 14.2427 13.5714 13.6127Z" fill="#256CD6"/>
<path d="M17.9947 8.5046C18.1145 9.95961 17.0816 11.2346 15.652 11.4071C15.6446 11.4071 15.6446 11.4071 15.6371 11.4071H15.6146C15.5697 11.4071 15.5248 11.4071 15.4874 11.4221C14.7614 11.4596 14.0952 11.2271 13.5938 10.7996C14.3647 10.1096 14.8063 9.0746 14.7165 7.9496C14.6641 7.34209 14.4545 6.78709 14.1401 6.31459C14.4245 6.17209 14.7539 6.08209 15.0907 6.05209C16.5577 5.92459 17.8675 7.01959 17.9947 8.5046Z" fill="#256CD6"/>
<path d="M19.4917 15.4428C19.4318 16.1703 18.9677 16.8003 18.1893 17.2278C17.4408 17.6403 16.4978 17.8353 15.5622 17.8128C16.1011 17.3253 16.4154 16.7178 16.4753 16.0728C16.5502 15.1428 16.1086 14.2503 15.2254 13.5378C14.7239 13.1403 14.1401 12.8253 13.5039 12.5928C15.158 12.1128 17.2388 12.4353 18.5186 13.4703C19.2072 14.0253 19.559 14.7228 19.4917 15.4428Z" fill="#256CD6"/>
</svg>
