<svg width="30" height="19" viewBox="0 0 30 19" fill="none" xmlns="http://www.w3.org/2000/svg">
<path d="M28.2442 0H1.75584C0.792858 0 0 0.792858 0 1.75584L-1.66893e-06 4H30L30 1.75584C30 0.792858 29.2136 0 28.2442 0Z" fill="#E51C39"/>
<path d="M0 16.2844C0 17.2474 0.792858 18.0403 1.75584 18.0403H28.2442C29.2136 18.0403 30 17.2474 30 16.2844V5.5H0V16.2844ZM4.29812 11.3475C4.79567 11.3475 5.26753 11.4984 5.65593 11.768C6.03471 11.5048 6.50978 11.3475 7.01374 11.3475C8.33945 11.3475 9.41158 12.4196 9.41158 13.7454C9.41158 15.0614 8.33945 16.1432 7.01374 16.1432C6.50657 16.1432 6.03471 15.9827 5.65593 15.7131C5.2579 15.9827 4.78604 16.1336 4.29812 16.1336C2.98204 16.1336 1.90029 15.0614 1.90029 13.7357C1.90029 12.4196 2.97883 11.3475 4.29812 11.3475Z" fill="#282828"/>
<path d="M7.01364 15.507C7.98305 15.507 8.77911 14.7142 8.77911 13.7415C8.77911 12.7625 7.98626 11.9761 7.01364 11.9761C6.04424 11.9761 5.24817 12.7625 5.24817 13.7415C5.25138 14.7142 6.04424 15.507 7.01364 15.507Z" fill="#E51C39"/>
<path d="M4.29849 15.4974C4.61949 15.4974 4.9148 15.4204 5.18444 15.2599C4.83776 14.8458 4.61949 14.3225 4.61949 13.7415C4.61949 13.1605 4.83776 12.6277 5.18444 12.2136C4.92122 12.0627 4.61949 11.9761 4.29849 11.9761C3.32909 11.9761 2.53302 12.7625 2.53302 13.7319C2.53302 14.7142 3.32588 15.4974 4.29849 15.4974Z" fill="#282828"/>
</svg>
