<svg width="24" height="24" viewBox="0 0 24 24" fill="none" xmlns="http://www.w3.org/2000/svg">
<path d="M23.7128 0.0444337H0.2872C0.249497 0.0443899 0.212157 0.0536348 0.177313 0.0716399C0.14247 0.0896449 0.110808 0.116057 0.0841351 0.149367C0.0574626 0.182676 0.0363034 0.22223 0.021867 0.265768C0.00743057 0.309305 -1.62825e-08 0.355971 0 0.4031V23.5971C0 23.6922 0.0302304 23.7835 0.0840408 23.8507C0.137851 23.918 0.210834 23.9558 0.286933 23.9558H23.7128C23.7505 23.9558 23.7878 23.9466 23.8227 23.9286C23.8575 23.9106 23.8892 23.8841 23.9159 23.8508C23.9425 23.8175 23.9637 23.778 23.9781 23.7344C23.9926 23.6909 24 23.6442 24 23.5971V0.4031C24 0.355971 23.9926 0.309305 23.9781 0.265768C23.9637 0.22223 23.9425 0.182676 23.9159 0.149367C23.8892 0.116057 23.8575 0.0896449 23.8227 0.0716399C23.7878 0.0536348 23.7505 0.0443899 23.7128 0.0444337ZM23.4261 0.761767V4.8381H0.573867V0.761767H23.4261ZM0.5728 23.2384V5.5551H23.4261V23.2384H0.5728ZM20.8267 3.9781C21.0132 3.97836 21.1955 3.90947 21.3507 3.78014C21.5059 3.65081 21.6269 3.46685 21.6984 3.25154C21.7699 3.03624 21.7887 2.79925 21.7524 2.57058C21.7161 2.34191 21.6264 2.13183 21.4946 1.96691C21.3628 1.802 21.1948 1.68967 21.0119 1.64413C20.829 1.5986 20.6394 1.6219 20.4671 1.7111C20.2947 1.80029 20.1475 1.95138 20.0439 2.14522C19.9403 2.33907 19.885 2.56698 19.8851 2.8001C19.8854 3.11222 19.9847 3.41144 20.1612 3.63223C20.3377 3.85303 20.577 3.9774 20.8267 3.9781ZM20.8267 2.33877C20.8997 2.33844 20.9712 2.36521 21.0321 2.4157C21.0929 2.4662 21.1405 2.53813 21.1686 2.6224C21.1967 2.70667 21.2042 2.79948 21.1901 2.88908C21.176 2.97868 21.141 3.06103 21.0894 3.12572C21.0379 3.1904 20.9721 3.23451 20.9005 3.25244C20.8289 3.27038 20.7546 3.26134 20.6871 3.22647C20.6196 3.19161 20.5618 3.13248 20.5212 3.05658C20.4806 2.98067 20.4589 2.89141 20.4589 2.8001C20.4589 2.67804 20.4976 2.56095 20.5666 2.47448C20.6355 2.38801 20.729 2.33921 20.8267 2.33877ZM17.7907 3.9781C17.9771 3.97817 18.1594 3.90911 18.3145 3.77965C18.4695 3.6502 18.5904 3.46618 18.6618 3.25085C18.7332 3.03552 18.7519 2.79857 18.7155 2.56997C18.6791 2.34136 18.5893 2.13137 18.4575 1.96656C18.3256 1.80175 18.1577 1.68951 17.9748 1.64406C17.7919 1.5986 17.6023 1.62197 17.4301 1.71119C17.2578 1.80042 17.1106 1.9515 17.007 2.14533C16.9035 2.33915 16.8482 2.56702 16.8483 2.8001C16.8486 3.11239 16.948 3.41176 17.1247 3.63259C17.3013 3.85341 17.5408 3.97766 17.7907 3.9781ZM17.7907 2.33877C17.8637 2.3387 17.9351 2.3657 17.9958 2.41635C18.0565 2.46701 18.1039 2.53903 18.1318 2.62332C18.1598 2.70762 18.1672 2.80039 18.1529 2.8899C18.1387 2.97941 18.1036 3.06164 18.052 3.12619C18.0004 3.19075 17.9346 3.23472 17.863 3.25254C17.7914 3.27037 17.7172 3.26126 17.6498 3.22635C17.5823 3.19144 17.5247 3.13231 17.4841 3.05644C17.4435 2.98057 17.4219 2.89136 17.4219 2.8001C17.4219 2.67783 17.4608 2.56059 17.5299 2.4741C17.5991 2.38762 17.6929 2.33894 17.7907 2.33877ZM14.7539 3.9781C14.9403 3.9781 15.1226 3.90898 15.2776 3.77949C15.4326 3.65 15.5535 3.46595 15.6248 3.25062C15.6961 3.03529 15.7148 2.79835 15.6784 2.56976C15.642 2.34118 15.5522 2.13122 15.4203 1.96644C15.2885 1.80166 15.1205 1.68946 14.9376 1.64403C14.7547 1.59861 14.5652 1.62199 14.3929 1.71122C14.2207 1.80046 14.0735 1.95154 13.9699 2.14536C13.8664 2.33918 13.8111 2.56703 13.8112 2.8001C13.8115 3.11247 13.9109 3.41195 14.0876 3.6328C14.2644 3.85365 14.504 3.97784 14.7539 3.9781ZM14.7539 2.33877C14.8269 2.33877 14.8982 2.36582 14.9589 2.41652C15.0196 2.46721 15.0669 2.53926 15.0948 2.62356C15.1228 2.70785 15.1301 2.80061 15.1158 2.8901C15.1016 2.97959 15.0665 3.06179 15.0148 3.12631C14.9632 3.19083 14.8975 3.23477 14.8259 3.25257C14.7543 3.27037 14.6801 3.26123 14.6126 3.22632C14.5452 3.1914 14.4876 3.13227 14.447 3.0564C14.4064 2.98054 14.3848 2.89134 14.3848 2.8001C14.3849 2.67777 14.4238 2.56048 14.493 2.47399C14.5622 2.38749 14.656 2.33886 14.7539 2.33877ZM13.5805 15.1874H4.77493C4.69883 15.1874 4.62585 15.2252 4.57204 15.2925C4.51823 15.3597 4.488 15.451 4.488 15.5461V18.2981C4.488 18.3932 4.51823 18.4845 4.57204 18.5517C4.62585 18.619 4.69883 18.6568 4.77493 18.6568H13.5816C13.6193 18.6568 13.6566 18.6475 13.6914 18.6295C13.7262 18.6114 13.7578 18.585 13.7844 18.5517C13.811 18.5184 13.8321 18.4788 13.8465 18.4353C13.8609 18.3918 13.8683 18.3452 13.8683 18.2981V15.5461C13.8683 15.499 13.8609 15.4524 13.8465 15.4089C13.8321 15.3654 13.811 15.3258 13.7844 15.2925C13.7578 15.2592 13.7262 15.2328 13.6914 15.2147C13.6566 15.1967 13.6193 15.1874 13.5816 15.1874H13.5805ZM13.2936 17.9394H5.0616V15.9061H13.2947L13.2936 17.9394ZM12.7784 6.5891C12.5893 6.58899 12.4035 6.6504 12.2392 6.76729C12.0748 6.88417 11.9377 7.0525 11.8412 7.25573C11.7447 7.45896 11.6921 7.69009 11.6888 7.92639C11.6854 8.16268 11.7312 8.39602 11.8219 8.60343L10.2261 10.5208C9.98341 10.3392 9.69366 10.2829 9.41828 10.3637C9.1429 10.4446 8.90355 10.6564 8.75093 10.9541L7.64427 10.5181C7.64427 10.5004 7.64427 10.4828 7.64427 10.4651C7.6443 10.2577 7.60644 10.053 7.53357 9.8666C7.46069 9.68024 7.35474 9.51714 7.22378 9.38973C7.09282 9.26233 6.94032 9.17399 6.7779 9.13145C6.61548 9.08892 6.44743 9.0933 6.28657 9.14428C6.12572 9.19525 5.9763 9.29147 5.8497 9.42559C5.72311 9.55972 5.6227 9.72821 5.55611 9.91821C5.48953 10.1082 5.45853 10.3147 5.46549 10.522C5.47245 10.7292 5.51718 10.9317 5.59627 11.1141L4.00427 13.0174C3.77777 12.8488 3.51 12.7886 3.25068 12.848C2.99136 12.9075 2.75812 13.0826 2.59428 13.3408C2.43044 13.599 2.34714 13.9227 2.35984 14.2519C2.37255 14.5811 2.48039 14.8933 2.66336 15.1306C2.84632 15.3679 3.09196 15.5141 3.35465 15.5421C3.61735 15.5701 3.87924 15.478 4.09169 15.2828C4.30415 15.0877 4.45272 14.8028 4.50981 14.481C4.56691 14.1593 4.52865 13.8226 4.40213 13.5334L5.99413 11.6304C6.23679 11.8131 6.52686 11.8703 6.80272 11.7899C7.07858 11.7095 7.31849 11.4978 7.47147 11.1998L8.57813 11.6358C8.57813 11.6534 8.57813 11.6711 8.57813 11.6888C8.57809 11.8964 8.616 12.1012 8.68897 12.2877C8.76193 12.4741 8.86802 12.6373 8.99914 12.7647C9.13025 12.8921 9.28293 12.9804 9.44549 13.0227C9.60806 13.0651 9.77623 13.0605 9.93715 13.0092C10.0981 12.958 10.2475 12.8614 10.374 12.7269C10.5005 12.5925 10.6008 12.4236 10.6671 12.2333C10.7335 12.043 10.7641 11.8363 10.7568 11.6289C10.7495 11.4215 10.7043 11.219 10.6248 11.0368L12.2205 9.11943C12.3646 9.22719 12.5266 9.2919 12.694 9.3085C12.8613 9.3251 13.0295 9.29315 13.1853 9.21514C13.3412 9.13714 13.4805 9.01518 13.5924 8.85879C13.7044 8.7024 13.7859 8.51579 13.8306 8.31354C13.8754 8.11128 13.8821 7.89884 13.8504 7.69278C13.8186 7.48672 13.7492 7.29261 13.6476 7.1256C13.5459 6.95858 13.4148 6.82318 13.2644 6.72995C13.114 6.63671 12.9484 6.58817 12.7805 6.5881L12.7784 6.5891ZM3.44507 14.8288C3.34295 14.8288 3.24312 14.7909 3.15822 14.72C3.07331 14.6491 3.00714 14.5483 2.96807 14.4303C2.92901 14.3124 2.9188 14.1826 2.93874 14.0574C2.95868 13.9322 3.00788 13.8172 3.08011 13.727C3.15233 13.6368 3.24435 13.5753 3.34451 13.5505C3.44467 13.5256 3.54849 13.5384 3.64282 13.5873C3.73715 13.6362 3.81776 13.719 3.87446 13.8251C3.93115 13.9313 3.96139 14.0561 3.96133 14.1838C3.96112 14.355 3.90651 14.5192 3.8095 14.6401C3.71248 14.7611 3.58102 14.8289 3.444 14.8288H3.44507ZM6.55547 11.1094C6.45336 11.1094 6.35354 11.0716 6.26864 11.0007C6.18374 10.9298 6.11757 10.829 6.0785 10.7111C6.03942 10.5931 6.0292 10.4634 6.04912 10.3382C6.06904 10.213 6.11821 10.098 6.19041 10.0078C6.26261 9.91753 6.3546 9.85607 6.45475 9.83117C6.55489 9.80627 6.6587 9.81905 6.75303 9.86789C6.84737 9.91673 6.928 9.99945 6.98473 10.1056C7.04145 10.2117 7.07173 10.3365 7.07173 10.4641C7.07152 10.6352 7.01706 10.7992 6.92029 10.9201C6.82352 11.0411 6.69232 11.1092 6.55547 11.1094ZM9.66693 12.3351C9.56483 12.3351 9.46501 12.2973 9.38011 12.2263C9.29521 12.1554 9.22904 12.0546 9.18997 11.9367C9.15089 11.8188 9.14067 11.6891 9.16059 11.5639C9.18051 11.4387 9.22968 11.3237 9.30188 11.2334C9.37408 11.1432 9.46607 11.0817 9.56622 11.0568C9.66636 11.0319 9.77017 11.0447 9.8645 11.0936C9.95884 11.1424 10.0395 11.2251 10.0962 11.3312C10.1529 11.4374 10.1832 11.5621 10.1832 11.6898C10.183 11.8608 10.1285 12.0248 10.0318 12.1458C9.93498 12.2668 9.80379 12.3348 9.66693 12.3351ZM12.7784 8.59677C12.6763 8.59677 12.5765 8.55892 12.4916 8.48801C12.4067 8.4171 12.3405 8.31631 12.3014 8.19839C12.2624 8.08047 12.2521 7.95072 12.2721 7.82554C12.292 7.70035 12.3411 7.58537 12.4133 7.49511C12.4855 7.40486 12.5775 7.3434 12.6777 7.3185C12.7778 7.2936 12.8816 7.30638 12.976 7.35522C13.0703 7.40407 13.1509 7.48678 13.2077 7.59291C13.2644 7.69903 13.2947 7.8238 13.2947 7.95143C13.2945 8.12251 13.24 8.2865 13.1432 8.40746C13.0464 8.52843 12.9153 8.5965 12.7784 8.59677ZM13.8683 20.9814C13.8683 21.0765 13.8381 21.1676 13.7843 21.2348C13.7305 21.302 13.6576 21.3398 13.5816 21.3398H4.77493C4.73653 21.3412 4.69829 21.333 4.66247 21.3157C4.62665 21.2983 4.59399 21.2722 4.56641 21.2387C4.53884 21.2053 4.51691 21.1653 4.50194 21.121C4.48697 21.0768 4.47925 21.0293 4.47925 20.9813C4.47925 20.9332 4.48697 20.8857 4.50194 20.8415C4.51691 20.7973 4.53884 20.7572 4.56641 20.7238C4.59399 20.6904 4.62665 20.6642 4.66247 20.6469C4.69829 20.6295 4.73653 20.6213 4.77493 20.6228H13.5816C13.6193 20.6228 13.6566 20.632 13.6914 20.6501C13.7262 20.6681 13.7578 20.6945 13.7844 20.7278C13.811 20.7611 13.8321 20.8007 13.8465 20.8442C13.8609 20.8877 13.8683 20.9343 13.8683 20.9814ZM17.9952 7.26343C17.2556 7.26343 16.5325 7.5376 15.9175 8.05126C15.3025 8.56492 14.8232 9.295 14.5401 10.1492C14.2571 11.0034 14.183 11.9433 14.3273 12.8501C14.4716 13.7569 14.8278 14.5898 15.3508 15.2436C15.8738 15.8974 16.5402 16.3426 17.2656 16.5229C17.9911 16.7033 18.743 16.6107 19.4263 16.2569C20.1097 15.9031 20.6937 15.304 21.1047 14.5352C21.5156 13.7665 21.7349 12.8627 21.7349 11.9381C21.7338 10.6987 21.3394 9.51054 20.6383 8.63417C19.9373 7.75781 18.9867 7.26485 17.9952 7.26343ZM14.8291 11.9381C14.8301 10.9855 15.1055 10.0652 15.605 9.34571C16.1046 8.62624 16.7947 8.15577 17.5491 8.02043V15.8558C16.7947 15.7204 16.1046 15.25 15.605 14.5305C15.1055 13.811 14.8301 12.8907 14.8291 11.9381ZM18.1237 15.8914V12.6334L20.3387 14.5958C20.0569 14.9849 19.7159 15.2999 19.3356 15.5224C18.9553 15.7449 18.5433 15.8703 18.1237 15.8914ZM20.6837 14.0248L18.1237 11.7561V7.98443C18.6766 8.01201 19.2141 8.22041 19.6824 8.58882C20.1508 8.95724 20.5336 9.47277 20.7927 10.084C21.0518 10.6951 21.178 11.3806 21.1589 12.0719C21.1398 12.7632 20.976 13.4361 20.6837 14.0234V14.0248ZM21.2789 18.1914C21.279 18.2385 21.2716 18.2852 21.2572 18.3287C21.2428 18.3722 21.2217 18.4117 21.1951 18.445C21.1684 18.4783 21.1368 18.5048 21.102 18.5228C21.0672 18.5408 21.0299 18.5501 20.9923 18.5501H14.9976C14.9599 18.5501 14.9226 18.5408 14.8878 18.5228C14.853 18.5048 14.8214 18.4784 14.7947 18.445C14.7681 18.4117 14.7469 18.3722 14.7325 18.3287C14.7181 18.2852 14.7107 18.2385 14.7107 18.1914C14.7107 18.1443 14.7181 18.0977 14.7325 18.0542C14.7469 18.0107 14.7681 17.9711 14.7947 17.9378C14.8214 17.9045 14.853 17.8781 14.8878 17.8601C14.9226 17.842 14.9599 17.8328 14.9976 17.8328H20.9928C21.0304 17.8327 21.0677 17.8419 21.1025 17.8598C21.1374 17.8777 21.169 17.904 21.1957 17.9373C21.2223 17.9705 21.2435 18.0099 21.258 18.0534C21.2724 18.0968 21.2799 18.1434 21.28 18.1904L21.2789 18.1914ZM21.2789 20.9824C21.2789 21.0775 21.2487 21.1686 21.195 21.2358C21.1412 21.303 21.0683 21.3408 20.9923 21.3408H14.9976C14.9592 21.3422 14.921 21.334 14.8851 21.3167C14.8493 21.2993 14.8167 21.2732 14.7891 21.2397C14.7615 21.2063 14.7396 21.1663 14.7246 21.122C14.7096 21.0778 14.7019 21.0303 14.7019 20.9823C14.7019 20.9342 14.7096 20.8867 14.7246 20.8425C14.7396 20.7983 14.7615 20.7582 14.7891 20.7248C14.8167 20.6914 14.8493 20.6652 14.8851 20.6479C14.921 20.6305 14.9592 20.6223 14.9976 20.6238H20.9928C21.0304 20.6237 21.0677 20.6329 21.1025 20.6508C21.1374 20.6687 21.169 20.695 21.1957 20.7283C21.2223 20.7615 21.2435 20.8009 21.258 20.8444C21.2724 20.8878 21.2799 20.9344 21.28 20.9814L21.2789 20.9824Z" fill="#282828"/>
</svg>
