<svg width="24" height="24" viewBox="0 0 24 24" fill="none" xmlns="http://www.w3.org/2000/svg">
<path fill-rule="evenodd" clip-rule="evenodd" d="M21.2736 18.1855C21.3505 18.1885 21.4235 18.2299 21.4771 18.3009C21.5307 18.3719 21.5607 18.467 21.5607 18.5659C21.5607 18.6649 21.5307 18.76 21.4771 18.831C21.4235 18.902 21.3505 18.9434 21.2736 18.9463H15.0912C15.0142 18.9434 14.9412 18.902 14.8876 18.831C14.834 18.76 14.804 18.6649 14.804 18.5659C14.804 18.467 14.834 18.3719 14.8876 18.3009C14.9412 18.2299 15.0142 18.1885 15.0912 18.1855H21.2736ZM4.54928 21.9066C4.47085 21.9066 4.39563 21.8665 4.34017 21.7952C4.28471 21.7239 4.25355 21.6272 4.25355 21.5263C4.25355 21.4255 4.28471 21.3288 4.34017 21.2575C4.39563 21.1862 4.47085 21.1461 4.54928 21.1461H13.6309C13.7093 21.1461 13.7845 21.1862 13.84 21.2575C13.8955 21.3288 13.9266 21.4255 13.9266 21.5263C13.9266 21.6272 13.8955 21.7239 13.84 21.7952C13.7845 21.8665 13.7093 21.9066 13.6309 21.9066H4.54928ZM13.3352 16.1414H4.84502V18.3014H13.3352V16.1414ZM4.54928 15.381H13.6309C13.6697 15.3809 13.7082 15.3907 13.7441 15.4098C13.78 15.4289 13.8126 15.4569 13.8401 15.4922C13.8675 15.5275 13.8893 15.5695 13.9042 15.6156C13.919 15.6618 13.9267 15.7112 13.9266 15.7612V18.6803C13.9267 18.7302 13.919 18.7797 13.9042 18.8258C13.8893 18.872 13.8675 18.9139 13.8401 18.9492C13.8126 18.9846 13.78 19.0126 13.7441 19.0317C13.7082 19.0507 13.6697 19.0605 13.6309 19.0605H4.54928C4.51043 19.0605 4.47194 19.0507 4.43603 19.0317C4.40012 19.0126 4.36749 18.9846 4.34 18.9493C4.31251 18.9139 4.2907 18.872 4.27582 18.8259C4.26094 18.7797 4.25329 18.7302 4.25329 18.6803V15.7612C4.25329 15.7112 4.26094 15.6618 4.27582 15.6156C4.2907 15.5694 4.31251 15.5275 4.34 15.4922C4.36749 15.4569 4.40012 15.4289 4.43603 15.4098C4.47194 15.3907 4.51043 15.3809 4.54928 15.381ZM15.1093 1.8957C15.0471 1.81576 14.9652 1.76602 14.8777 1.75496C14.7901 1.7439 14.7023 1.77221 14.6292 1.83507C14.556 1.89792 14.5021 1.99143 14.4766 2.09966C14.4511 2.2079 14.4555 2.32417 14.4892 2.42865C14.5228 2.53314 14.5836 2.61939 14.6612 2.67271C14.7388 2.72603 14.8284 2.74312 14.9146 2.72106C15.0009 2.69901 15.0786 2.63917 15.1344 2.55176C15.1902 2.46434 15.2207 2.35475 15.2208 2.24165C15.2208 2.17739 15.211 2.11375 15.1919 2.05438C15.1727 1.99501 15.1447 1.94109 15.1093 1.8957ZM14.8402 0.99159C15.0652 0.991493 15.2832 1.09169 15.4571 1.2751C15.6311 1.45852 15.7501 1.7138 15.7941 1.99745C15.838 2.2811 15.8041 2.57557 15.6981 2.83067C15.5921 3.08577 15.4206 3.28573 15.2128 3.39646C15.005 3.50719 14.7737 3.52185 14.5585 3.43793C14.3432 3.35402 14.1572 3.17672 14.0322 2.93626C13.9072 2.6958 13.8509 2.40705 13.873 2.11922C13.895 1.83139 13.994 1.56228 14.153 1.35776C14.2432 1.24155 14.3503 1.14939 14.4682 1.08655C14.5861 1.02371 14.7126 0.991439 14.8402 0.99159ZM18.24 1.8957C18.1777 1.81576 18.0959 1.76602 18.0083 1.75496C17.9208 1.7439 17.833 1.77221 17.7598 1.83507C17.6867 1.89792 17.6328 1.99143 17.6072 2.09966C17.5817 2.2079 17.5862 2.32417 17.6198 2.42865C17.6535 2.53314 17.7143 2.61939 17.7919 2.67271C17.8695 2.72603 17.959 2.74312 18.0453 2.72106C18.1316 2.69901 18.2092 2.63917 18.2651 2.55176C18.3209 2.46434 18.3514 2.35475 18.3514 2.24165C18.3515 2.17739 18.3417 2.11375 18.3225 2.05438C18.3034 1.99501 18.2753 1.94109 18.24 1.8957ZM17.9709 0.99159C18.1958 0.991493 18.4139 1.09169 18.5878 1.2751C18.7617 1.45852 18.8808 1.7138 18.9247 1.99745C18.9687 2.2811 18.9348 2.57557 18.8288 2.83067C18.7228 3.08577 18.5513 3.28573 18.3435 3.39646C18.1356 3.50719 17.9044 3.52185 17.6891 3.43793C17.4738 3.35402 17.2879 3.17672 17.1629 2.93626C17.0379 2.6958 16.9816 2.40705 17.0036 2.11922C17.0257 1.83139 17.1246 1.56228 17.2837 1.35776C17.3739 1.2416 17.481 1.14946 17.5989 1.08663C17.7168 1.02379 17.8432 0.991495 17.9709 0.99159ZM21.3717 1.8957C21.3095 1.81576 21.2276 1.76602 21.1401 1.75496C21.0525 1.7439 20.9647 1.77221 20.8916 1.83507C20.8184 1.89792 20.7645 1.99143 20.739 2.09966C20.7135 2.2079 20.7179 2.32417 20.7516 2.42865C20.7852 2.53314 20.846 2.61939 20.9236 2.67271C21.0012 2.72603 21.0908 2.74312 21.177 2.72106C21.2633 2.69901 21.341 2.63917 21.3968 2.55176C21.4526 2.46434 21.4831 2.35475 21.4832 2.24165C21.4832 2.17738 21.4734 2.11373 21.4543 2.05436C21.4352 1.99498 21.4071 1.94106 21.3717 1.8957ZM21.1026 0.99159C21.3276 0.991334 21.5457 1.0914 21.7197 1.27472C21.8937 1.45805 22.0129 1.71329 22.0569 1.99695C22.101 2.2806 22.0671 2.57512 21.9612 2.83029C21.8553 3.08547 21.6838 3.28551 21.476 3.39633C21.2682 3.50714 21.0369 3.52187 20.8216 3.43801C20.6063 3.35414 20.4202 3.17687 20.2952 2.9364C20.1702 2.69594 20.1139 2.40717 20.1359 2.1193C20.1579 1.83144 20.2569 1.5623 20.416 1.35776C20.5061 1.2416 20.6132 1.14946 20.7312 1.08663C20.8491 1.02379 20.9755 0.991495 21.1032 0.99159H21.1026ZM23.7821 4.40336H0.217285V0.0795898H23.7826V4.40336H23.7821ZM0.217285 23.9205H23.7826V5.16382H0.217285V23.9205ZM13.1792 7.22336C13.2665 7.3355 13.3208 7.48311 13.333 7.64102C13.3451 7.79893 13.3143 7.95737 13.2458 8.08933C13.1772 8.22129 13.0752 8.3186 12.9571 8.36468C12.839 8.41075 12.7121 8.40274 12.5981 8.342C12.4841 8.28126 12.39 8.17157 12.3318 8.0316C12.2737 7.89164 12.2551 7.73008 12.2792 7.57446C12.3033 7.41884 12.3687 7.2788 12.4641 7.1782C12.5596 7.0776 12.6792 7.02268 12.8026 7.02279C12.8726 7.02269 12.9418 7.04035 13.0065 7.07477C13.0711 7.10919 13.1298 7.15969 13.1792 7.22336ZM9.97062 11.1868C10.058 11.2989 10.1125 11.4464 10.1247 11.6043C10.1369 11.7622 10.1062 11.9207 10.0377 12.0527C9.96921 12.1847 9.86724 12.2821 9.74915 12.3283C9.63107 12.3745 9.50419 12.3666 9.39013 12.3059C9.27608 12.2453 9.18192 12.1356 9.1237 11.9957C9.06548 11.8558 9.04681 11.6942 9.07087 11.5386C9.09493 11.383 9.16023 11.2429 9.25564 11.1422C9.35105 11.0415 9.47066 10.9865 9.59409 10.9866C9.66401 10.9864 9.73327 11.004 9.79789 11.0384C9.8625 11.0727 9.9212 11.1232 9.97062 11.1868ZM6.76182 9.88667C6.84921 9.99875 6.90366 10.1463 6.91588 10.3043C6.92811 10.4622 6.89735 10.6207 6.82885 10.7527C6.76035 10.8847 6.65836 10.9821 6.54026 11.0282C6.42216 11.0744 6.29526 11.0664 6.18121 11.0057C6.06716 10.9451 5.97301 10.8354 5.91482 10.6954C5.85663 10.5555 5.838 10.3939 5.86211 10.2382C5.88622 10.0826 5.95157 9.94252 6.04702 9.84189C6.14247 9.74127 6.26212 9.68633 6.38555 9.68645C6.45543 9.68636 6.52463 9.704 6.5892 9.73836C6.65377 9.77272 6.71243 9.82312 6.76182 9.88667ZM3.55329 13.8319C3.64067 13.944 3.69512 14.0916 3.70735 14.2495C3.71958 14.4074 3.68883 14.5658 3.62035 14.6979C3.55188 14.8299 3.4499 14.9273 3.33182 14.9735C3.21374 15.0196 3.08685 15.0117 2.9728 14.9511C2.85875 14.8904 2.76459 14.7808 2.70637 14.6409C2.64815 14.5009 2.62948 14.3394 2.65354 14.1837C2.6776 14.0281 2.7429 13.888 2.83831 13.7873C2.93372 13.6867 3.05333 13.6317 3.17675 13.6317C3.24667 13.6316 3.31592 13.6492 3.38053 13.6836C3.44514 13.718 3.50384 13.7684 3.55329 13.8319ZM3.17675 12.8719C2.93072 12.8719 2.69149 12.9757 2.49581 13.1675C2.30014 13.3592 2.15884 13.6283 2.09362 13.9333C2.02841 14.2383 2.0429 14.5624 2.13485 14.8558C2.2268 15.1492 2.39114 15.3956 2.60261 15.5573C2.81408 15.719 3.06099 15.7869 3.3054 15.7506C3.5498 15.7144 3.77819 15.576 3.95547 15.3566C4.13275 15.1373 4.24911 14.8492 4.28668 14.5366C4.32425 14.2239 4.28094 13.9041 4.16342 13.6262L5.80422 11.6088C6.01924 11.7753 6.27141 11.8444 6.52055 11.8052C6.76968 11.766 7.00143 11.6207 7.17889 11.3925C7.23559 11.3195 7.28618 11.2391 7.32982 11.1525L8.46955 11.6143C8.46955 11.6332 8.46955 11.652 8.46955 11.6712C8.46956 11.8915 8.50871 12.1088 8.58403 12.3066C8.65934 12.5044 8.76881 12.6774 8.90409 12.8125C9.03937 12.9476 9.19687 13.0411 9.36456 13.086C9.53225 13.1309 9.7057 13.1259 9.87166 13.0714C10.0376 13.0169 10.1917 12.9144 10.3221 12.7716C10.4526 12.6289 10.5559 12.4497 10.6242 12.2477C10.6926 12.0458 10.7241 11.8264 10.7164 11.6064C10.7088 11.3864 10.6621 11.1716 10.58 10.9783L12.2248 8.94587C12.4581 9.12534 12.7343 9.18977 13.0018 9.12718C13.2693 9.0646 13.5101 8.87925 13.6794 8.6056C13.8486 8.33194 13.9349 7.98858 13.922 7.63933C13.9092 7.29009 13.7982 6.95871 13.6096 6.70677C13.4211 6.45484 13.1678 6.2995 12.8968 6.26961C12.6259 6.23971 12.3557 6.33731 12.1365 6.54426C11.9174 6.75121 11.7641 7.05343 11.7051 7.39476C11.6462 7.73609 11.6857 8.09332 11.8162 8.40005L10.1717 10.4325C9.92113 10.24 9.6222 10.1802 9.338 10.2658C9.0538 10.3513 8.80657 10.5754 8.64849 10.8909L7.50849 10.4291C7.50849 10.4102 7.50849 10.3914 7.50849 10.3722C7.50847 10.1521 7.46936 9.93493 7.39415 9.73725C7.31893 9.53956 7.20959 9.36658 7.07447 9.23148C6.93935 9.09639 6.78202 9.00275 6.61447 8.95772C6.44693 8.91269 6.2736 8.91746 6.1077 8.97165C5.94181 9.02584 5.78773 9.12803 5.65722 9.27042C5.52671 9.41282 5.42322 9.59165 5.35464 9.79329C5.28607 9.99492 5.25421 10.214 5.26151 10.4339C5.26881 10.6538 5.31506 10.8686 5.39675 11.062L3.75595 13.0794C3.58083 12.9441 3.38026 12.8729 3.17595 12.8736L3.17675 12.8719ZM15.4554 8.42816C16.0863 7.6171 16.9164 7.11238 17.8043 7C18.6921 6.88761 19.5828 7.17451 20.3246 7.81182C21.0664 8.44912 21.6134 9.3974 21.8723 10.4951C22.1313 11.5928 22.0862 12.7719 21.7448 13.8317C21.4033 14.8914 20.7867 15.7661 19.9999 16.3068C19.213 16.8476 18.3047 17.0208 17.4297 16.797C16.5547 16.5732 15.7671 15.9662 15.2011 15.0795C14.6352 14.1929 14.3258 13.0813 14.3258 11.9342C14.3252 11.2829 14.4246 10.6379 14.6185 10.0362C14.8123 9.43456 15.0968 8.88806 15.4554 8.42816ZM20.9565 14.1484L18.3149 11.7412V7.74005C18.8851 7.76993 19.4393 7.99144 19.9222 8.3825C20.4051 8.77357 20.7998 9.32052 21.0671 9.96885C21.3343 10.6172 21.4647 11.3443 21.4453 12.0776C21.4259 12.8109 21.2574 13.5249 20.9565 14.1484ZM18.3149 16.1284V12.671L20.601 14.7542C20.5653 14.8046 20.5285 14.8543 20.4909 14.9023C19.9117 15.6491 19.1345 16.087 18.3149 16.1284ZM17.7234 7.77776V16.0907C16.9449 15.9483 16.2325 15.4495 15.7171 14.6859C15.2017 13.9223 14.9179 12.9453 14.9179 11.9342C14.9179 10.9232 15.2017 9.9461 15.7171 9.18251C16.2325 8.41893 16.9449 7.92012 17.7234 7.77776ZM21.2736 21.1461C21.352 21.1461 21.4272 21.1862 21.4827 21.2575C21.5381 21.3288 21.5693 21.4255 21.5693 21.5263C21.5693 21.6272 21.5381 21.7239 21.4827 21.7952C21.4272 21.8665 21.352 21.9066 21.2736 21.9066H15.0912C15.0127 21.9066 14.9375 21.8665 14.882 21.7952C14.8266 21.7239 14.7954 21.6272 14.7954 21.5263C14.7954 21.4255 14.8266 21.3288 14.882 21.2575C14.9375 21.1862 15.0127 21.1461 15.0912 21.1461H21.2736Z" fill="#282828"/>
</svg>
