<svg width="24" height="24" viewBox="0 0 24 24" fill="none" xmlns="http://www.w3.org/2000/svg">
<path fill-rule="evenodd" clip-rule="evenodd" d="M11.5797 6.75002H6.95067C7.06921 7.13396 7.31619 7.4573 7.644 7.65774C8.12011 7.96638 8.66341 8.13592 9.21973 8.14945H9.2216C9.24373 8.14945 9.21013 8.14945 9.27173 8.14945C9.89261 8.15634 10.5003 7.95756 11.0117 7.58031C11.2801 7.37738 11.4798 7.08663 11.5808 6.75174L11.5797 6.75002ZM5.44 7.65716C5.76743 7.45677 6.01431 7.13396 6.13333 6.75059H1.49333C1.61237 7.13409 1.85923 7.45708 2.18667 7.65774C2.66198 7.96617 3.20446 8.13571 3.76 8.14945C3.78667 8.14945 3.7488 8.14945 3.81333 8.14945C3.87787 8.14945 3.84 8.14945 3.86667 8.14945C4.42226 8.13551 4.96473 7.96578 5.44 7.65716ZM7.13493 2.87545H3.616L1.76 5.97145H6.27147L7.1344 2.87545H7.13493ZM11.6368 2.87545V5.97145H7.02933L7.89333 2.87488L11.6368 2.87545ZM17.0501 6.75059H12.4213C12.5223 7.08549 12.722 7.37624 12.9904 7.57916C13.5018 7.95642 14.1095 8.1552 14.7304 8.14831C14.792 8.14831 14.7584 8.14831 14.7805 8.14831H14.7824C15.3387 8.13495 15.882 7.96561 16.3581 7.65716C16.6859 7.45673 16.9329 7.13339 17.0515 6.74945L17.0501 6.75059ZM17.8691 6.75059C17.9881 7.13396 18.235 7.45677 18.5624 7.65716C19.0376 7.96598 19.5801 8.13591 20.1357 8.15002C20.1624 8.15002 20.1253 8.15002 20.1891 8.15002C20.2528 8.15002 20.2157 8.15002 20.2411 8.15002C20.7973 8.13629 21.3405 7.96634 21.8163 7.65716C22.1438 7.45659 22.3907 7.13357 22.5096 6.75002L17.8691 6.75059ZM16.9717 5.97145L16.1085 2.87488H12.3635V5.97145H16.9717ZM16.8667 2.87488H20.3853L22.24 5.97145H17.7296L16.8667 2.87488ZM20.2195 2.09574V1.06031C20.2192 1.02587 20.2063 0.992937 20.1835 0.968614C20.1608 0.94429 20.13 0.930531 20.0979 0.930307H3.9032C3.87106 0.930531 3.84029 0.94429 3.81754 0.968614C3.79479 0.992937 3.78188 1.02587 3.7816 1.06031V2.09574H20.2195ZM23.2733 22.318H0.726667V23.0697H23.2733V22.318ZM2.00507 21.5389H21.9949V20.7869H2.00507V21.5389ZM0.3632 21.5389H1.2776V20.3975C1.2776 20.2941 1.31592 20.195 1.38414 20.1219C1.45235 20.0488 1.54487 20.0077 1.64133 20.0077H2.80453V8.77917C2.4485 8.67903 2.10846 8.52234 1.79573 8.31431C1.47564 8.1232 1.20788 7.84554 1.01913 7.50902C0.830387 7.17249 0.72725 6.78884 0.72 6.39631C0.72 6.36259 0.72 6.41745 0.721867 6.35288C0.722689 6.30143 0.733118 6.25069 0.752536 6.20363C0.771955 6.15657 0.799971 6.11415 0.834933 6.07888L3.0544 2.37145V1.06031C3.05482 0.819251 3.14439 0.588198 3.30348 0.417745C3.46256 0.247292 3.67821 0.151332 3.9032 0.150879H20.0979C20.3229 0.151332 20.5385 0.247292 20.6976 0.417745C20.8567 0.588198 20.9462 0.819251 20.9467 1.06031V2.37145L23.1672 6.07774C23.2022 6.11301 23.2302 6.15543 23.2496 6.20248C23.269 6.24954 23.2794 6.30029 23.2803 6.35174C23.2803 6.41631 23.2821 6.36145 23.2821 6.39516C23.275 6.78801 23.1718 7.17197 22.9828 7.50872C22.7939 7.84548 22.5258 8.12324 22.2053 8.31431C21.8923 8.52226 21.5518 8.67876 21.1955 8.77859V20.0072H22.3587C22.4064 20.0072 22.4537 20.0172 22.4979 20.0368C22.542 20.0564 22.5821 20.0851 22.6159 20.1213C22.6496 20.1575 22.6764 20.2005 22.6947 20.2477C22.713 20.295 22.7224 20.3457 22.7224 20.3969V21.5383H23.6368C23.7332 21.5385 23.8256 21.5796 23.8937 21.6528C23.9619 21.7259 24.0001 21.825 24 21.9283V23.4595C24 23.5628 23.9617 23.6619 23.8935 23.735C23.8253 23.8081 23.7327 23.8492 23.6363 23.8492H0.3632C0.266824 23.849 0.174444 23.8079 0.106346 23.7348C0.0382485 23.6617 -1.03602e-07 23.5627 0 23.4595V21.9283C7.06905e-05 21.825 0.0384237 21.7259 0.106629 21.6529C0.174835 21.5799 0.267311 21.5389 0.363733 21.5389H0.3632ZM15.9715 14.1769H8.10107V18.4935H15.9715V14.1769ZM12.3763 9.90888C12.2895 9.81608 12.1755 9.75838 12.0535 9.74559C11.9315 9.7328 11.8091 9.76572 11.7072 9.83874C11.6054 9.91176 11.5303 10.0204 11.4947 10.1461C11.4592 10.2717 11.4655 10.4067 11.5124 10.5281C11.5594 10.6494 11.6441 10.7495 11.7522 10.8114C11.8603 10.8732 11.9851 10.893 12.1053 10.8674C12.2256 10.8417 12.3337 10.7722 12.4115 10.6707C12.4892 10.5692 12.5317 10.4419 12.5317 10.3106C12.5318 10.236 12.5181 10.1621 12.4914 10.0931C12.4647 10.0242 12.4256 9.96156 12.3763 9.90888ZM12.588 11.5029C12.415 11.6003 12.2231 11.6534 12.0277 11.6577C11.8323 11.6621 11.6385 11.6177 11.4619 11.528L9.78427 13.3975H14.2885L12.588 11.5029ZM10.7931 10.6857H5.27307V20.0077H18.7277V10.6857H13.2096C13.1841 10.7804 13.149 10.8717 13.1048 10.958L15.2947 13.398H16.3347C16.4311 13.398 16.5237 13.4391 16.5919 13.5122C16.6601 13.5853 16.6984 13.6844 16.6984 13.7877V18.8832C16.6984 18.9343 16.689 18.985 16.6707 19.0323C16.6524 19.0796 16.6256 19.1225 16.5919 19.1587C16.5581 19.1949 16.518 19.2236 16.4739 19.2432C16.4297 19.2628 16.3824 19.2729 16.3347 19.2729H7.73733C7.68957 19.2729 7.64227 19.2628 7.59814 19.2432C7.55401 19.2236 7.51391 19.1949 7.48014 19.1587C7.44636 19.1225 7.41957 19.0796 7.40129 19.0323C7.38301 18.985 7.3736 18.9343 7.3736 18.8832V13.7872C7.3736 13.6838 7.41192 13.5847 7.48014 13.5116C7.54835 13.4385 7.64087 13.3975 7.73733 13.3975H8.77733L10.9237 11.006C10.8671 10.9057 10.823 10.7978 10.7925 10.6852L10.7931 10.6857ZM4.5448 20.0077H3.53147V8.91431C3.604 8.92031 3.67547 8.92431 3.7448 8.92574C3.81307 8.92574 3.78453 8.92774 3.8096 8.92774C3.83467 8.92774 3.8096 8.92774 3.87733 8.92574C4.56566 8.90804 5.23762 8.69721 5.82613 8.31431C6.10373 8.13111 6.34582 7.89239 6.5392 7.61117C6.73388 7.89279 6.97744 8.13153 7.25653 8.31431C7.8449 8.69674 8.51655 8.90726 9.20453 8.92488H9.20667C9.27387 8.92488 9.2456 8.92688 9.27067 8.92688C10.047 8.93163 10.8057 8.67861 11.4424 8.20259C11.6585 8.03297 11.8469 7.82617 12 7.59059C12.1537 7.82669 12.343 8.03379 12.56 8.20345C13.1967 8.67946 13.9554 8.93249 14.7317 8.92774C14.7568 8.92774 14.7285 8.92774 14.7957 8.92574H14.7979C15.4855 8.90765 16.1566 8.69684 16.7445 8.31431C17.0229 8.1311 17.2656 7.89206 17.4595 7.61031C17.6528 7.89184 17.8949 8.13086 18.1725 8.31431C18.7611 8.69725 19.4332 8.90807 20.1216 8.92574C20.1893 8.92574 20.1653 8.92774 20.1891 8.92774C20.2128 8.92774 20.1856 8.92774 20.2539 8.92574H20.2555C20.3251 8.92431 20.3963 8.92031 20.4688 8.91431V20.0077H19.4555V10.2955C19.4555 10.1921 19.4171 10.093 19.3489 10.0199C19.2807 9.9468 19.1882 9.90574 19.0917 9.90574H13.2C13.1196 9.63225 12.9599 9.39335 12.7441 9.22377C12.5283 9.05419 12.2676 8.96276 12 8.96276C11.7324 8.96276 11.4717 9.05419 11.2559 9.22377C11.0401 9.39335 10.8804 9.63225 10.8 9.90574H4.90667C4.8102 9.90574 4.71768 9.9468 4.64947 10.0199C4.58126 10.093 4.54293 10.1921 4.54293 10.2955L4.5448 20.0077Z" fill="#282828"/>
</svg>
