<svg width="24" height="24" viewBox="0 0 24 24" fill="none" xmlns="http://www.w3.org/2000/svg">
<g clip-path="url(#clip0_127_3513)">
<path fill-rule="evenodd" clip-rule="evenodd" d="M11.5621 6.40723H6.73779C6.86113 6.81591 7.11802 7.16025 7.4591 7.37408C7.95525 7.70294 8.52148 7.88352 9.10127 7.8978H9.1044C9.12736 7.8978 9.0924 7.8978 9.15658 7.8978C9.8036 7.9051 10.4369 7.69335 10.9699 7.29151C11.2495 7.07479 11.4573 6.76447 11.5621 6.40723Z" fill="#282828"/>
<path fill-rule="evenodd" clip-rule="evenodd" d="M5.1626 7.37294C5.50335 7.15915 5.76023 6.81535 5.88417 6.40723H1.04895C1.17281 6.81555 1.42982 7.1595 1.77078 7.37323C2.26662 7.7025 2.83271 7.88339 3.41243 7.8978C3.43852 7.8978 3.40069 7.8978 3.46643 7.8978C3.53217 7.8978 3.49382 7.8978 3.52225 7.8978C4.10155 7.88306 4.66717 7.70208 5.1626 7.37294Z" fill="#282828"/>
<path fill-rule="evenodd" clip-rule="evenodd" d="M6.92919 2.27856H3.26214L1.3291 5.57685H6.02971L6.92919 2.27856Z" fill="#282828"/>
<path fill-rule="evenodd" clip-rule="evenodd" d="M11.621 2.27856H7.71918L6.8197 5.57685H11.621V2.27856Z" fill="#282828"/>
<path fill-rule="evenodd" clip-rule="evenodd" d="M17.2633 6.40723H12.4391C12.5444 6.76421 12.7526 7.07417 13.0323 7.29065C13.5653 7.69246 14.1986 7.9042 14.8456 7.89694C14.9098 7.89694 14.8748 7.89694 14.8978 7.89694H14.8996C15.4798 7.88292 16.0466 7.70233 16.5431 7.37323C16.8837 7.15955 17.1403 6.81551 17.2633 6.40723Z" fill="#282828"/>
<path fill-rule="evenodd" clip-rule="evenodd" d="M18.1168 6.40702C18.2408 6.81514 18.4976 7.15894 18.8384 7.37274C19.3337 7.70178 19.8991 7.88275 20.4782 7.8976C20.5064 7.8976 20.4673 7.8976 20.5338 7.8976C20.6003 7.8976 20.5612 7.8976 20.588 7.8976C21.1677 7.88296 21.7337 7.70198 22.2294 7.37274C22.5705 7.15902 22.8276 6.81508 22.9515 6.40674L18.1168 6.40702Z" fill="#282828"/>
<path fill-rule="evenodd" clip-rule="evenodd" d="M17.1814 5.57685L16.2819 2.27856H12.3788V5.57685H17.1814Z" fill="#282828"/>
<path fill-rule="evenodd" clip-rule="evenodd" d="M17.0718 2.27856L17.9713 5.57685H22.6721L20.7388 2.27856H17.0718Z" fill="#282828"/>
<path fill-rule="evenodd" clip-rule="evenodd" d="M20.5661 1.4485V0.345358C20.5658 0.308722 20.5523 0.273692 20.5287 0.247785C20.505 0.221878 20.473 0.207159 20.4396 0.206787H3.56134C3.52784 0.207012 3.49578 0.221683 3.4721 0.247622C3.44842 0.273561 3.43502 0.308676 3.43481 0.345358V1.4485H20.5661Z" fill="#282828"/>
<path fill-rule="evenodd" clip-rule="evenodd" d="M23.7488 22.9922H22.7956H1.20444H0.251221V23.793H23.7488V22.9922Z" fill="#282828"/>
<path fill-rule="evenodd" clip-rule="evenodd" d="M1.58325 22.1619H22.4168V21.3611H21.2046H19.3907H4.60934H2.79551H1.58325V22.1619Z" fill="#282828"/>
<path d="M16.1389 14.3188H7.9364V18.9177H16.1389V14.3188Z" fill="#282828"/>
<path fill-rule="evenodd" clip-rule="evenodd" d="M12.3912 9.77143C12.3008 9.67228 12.1818 9.61053 12.0545 9.59671C11.9272 9.58288 11.7994 9.61783 11.693 9.6956C11.5866 9.77337 11.5081 9.88915 11.4708 10.0232C11.4336 10.1573 11.44 10.3013 11.4888 10.4308C11.5377 10.5603 11.6261 10.6673 11.7389 10.7334C11.8516 10.7996 11.9819 10.8209 12.1074 10.7936C12.2329 10.7664 12.3459 10.6924 12.4272 10.5841C12.5084 10.4759 12.5529 10.3401 12.553 10.2C12.5531 10.1204 12.5389 10.0416 12.5112 9.96803C12.4834 9.89449 12.4427 9.82767 12.3912 9.77143Z" fill="#282828"/>
<path fill-rule="evenodd" clip-rule="evenodd" d="M12.6128 11.4702C12.4324 11.5742 12.2325 11.6307 12.0287 11.6354C11.825 11.6401 11.623 11.5927 11.4389 11.4971L9.69104 13.4888H14.3849L12.6128 11.4702Z" fill="#282828"/>
<path fill-rule="evenodd" clip-rule="evenodd" d="M10.7421 10.6001H4.9884V20.531H19.0117V10.6001H13.2608C13.2342 10.7009 13.1976 10.7981 13.1515 10.8901L15.4339 13.4901H16.5183C16.5681 13.4901 16.6174 13.5008 16.6633 13.5217C16.7093 13.5426 16.7511 13.5732 16.7862 13.6117C16.8214 13.6503 16.8493 13.696 16.8683 13.7464C16.8874 13.7968 16.8971 13.8507 16.8971 13.9052V19.3338C16.8971 19.4439 16.8572 19.5494 16.7862 19.6273C16.7151 19.7051 16.6188 19.7489 16.5183 19.749H7.55771C7.45718 19.749 7.36077 19.7052 7.28968 19.6274C7.2186 19.5495 7.17866 19.4439 7.17866 19.3338V13.9052C7.17863 13.8507 7.18841 13.7967 7.20745 13.7463C7.22648 13.6959 7.2544 13.6502 7.28961 13.6116C7.32481 13.5731 7.36661 13.5425 7.41261 13.5216C7.45862 13.5008 7.50792 13.4901 7.55771 13.4901H8.64214L10.8783 10.9412C10.8195 10.8345 10.7738 10.7198 10.7421 10.6001Z" fill="#282828"/>
<path fill-rule="evenodd" clip-rule="evenodd" d="M4.23025 20.5308V10.1839C4.23032 10.0738 4.27028 9.96829 4.34134 9.89045C4.41241 9.81261 4.50879 9.76885 4.60929 9.76878H10.7512C10.8352 9.47775 11.0018 9.22361 11.2266 9.04322C11.4514 8.86284 11.7229 8.7656 12.0016 8.7656C12.2803 8.7656 12.5517 8.86284 12.7765 9.04322C13.0014 9.22361 13.1679 9.47775 13.2519 9.76878H19.3907C19.4912 9.76885 19.5876 9.81261 19.6586 9.89045C19.7297 9.96829 19.7697 10.0738 19.7697 10.1839V20.5308H20.8255V8.71249C20.7503 8.71906 20.6763 8.72306 20.6037 8.72478H20.6022C20.5309 8.7262 20.5607 8.72706 20.5346 8.72706C20.5085 8.72706 20.5346 8.72706 20.4642 8.72478C19.7467 8.70575 19.0463 8.48115 18.4328 8.07335C18.1435 7.87814 17.8913 7.62381 17.6898 7.3242C17.4877 7.62436 17.2348 7.87909 16.9448 8.07449C16.3316 8.48182 15.6316 8.70603 14.9147 8.72478H14.9123C14.8422 8.7262 14.8716 8.72706 14.8456 8.72706C14.0365 8.73205 13.2459 8.46257 12.5822 7.95563C12.3566 7.77464 12.1598 7.55393 12 7.30249C11.8403 7.55371 11.6439 7.7743 11.4185 7.95535C10.7548 8.46229 9.96409 8.73177 9.15495 8.72678C9.12886 8.72678 9.15834 8.72678 9.08816 8.72449H9.08608C8.36912 8.70575 7.66917 8.48153 7.05599 8.0742C6.76584 7.87888 6.51279 7.62414 6.31068 7.32392C6.10933 7.62365 5.85707 7.87801 5.56773 8.07306C4.95427 8.48083 4.25398 8.70543 3.5366 8.72449C3.4659 8.72592 3.49068 8.72678 3.4659 8.72678C3.44112 8.72678 3.46955 8.72678 3.39834 8.72449C3.32529 8.72278 3.25068 8.71878 3.17529 8.71221V20.5308H4.23025Z" fill="#282828"/>
</g>
<defs>
<clipPath id="clip0_127_3513">
<rect width="24" height="24" fill="white"/>
</clipPath>
</defs>
</svg>
