<svg width="14" height="14" viewBox="0 0 14 14" fill="none" xmlns="http://www.w3.org/2000/svg">
<path d="M11.4327 3.88844C11.4327 3.57895 11.3098 3.28224 11.091 3.06338C10.8722 2.84461 10.5755 2.72169 10.266 2.72169H9.06032C8.97004 2.28277 8.73121 1.88838 8.38405 1.60503C8.03698 1.32158 7.60275 1.16662 7.15462 1.16602H6.37679C5.92866 1.16662 5.49443 1.32158 5.14736 1.60503C4.8002 1.88838 4.56138 2.28277 4.47109 2.72169H3.26544C2.89588 2.72099 2.54803 2.89575 2.32804 3.19263C2.10797 3.48952 2.042 3.87324 2.15025 4.22656C2.25842 4.57987 2.52796 4.86089 2.87652 4.98364V10.9823C2.87705 11.4731 3.07229 11.9438 3.41928 12.2908C3.76635 12.6378 4.23696 12.833 4.7278 12.8336H8.80366C9.2945 12.8331 9.76511 12.6378 10.1122 12.2908C10.4592 11.9438 10.6544 11.4731 10.6549 10.9823V4.98364C10.8816 4.90342 11.0781 4.75524 11.2173 4.5592C11.3566 4.3631 11.4318 4.12888 11.4328 3.8884L11.4327 3.88844ZM6.37679 1.94385H7.15462C7.39509 1.94481 7.6293 2.02007 7.82543 2.15932C8.02145 2.29857 8.16963 2.49501 8.24986 2.72169H5.28164C5.36185 2.49503 5.51003 2.29857 5.70607 2.15932C5.90218 2.02007 6.13639 1.94481 6.37688 1.94385H6.37679ZM8.80364 12.0557H4.72777C4.4432 12.0554 4.17036 11.9423 3.96903 11.741C3.7678 11.5397 3.65467 11.2669 3.65434 10.9823V5.05517H9.87703V10.9823C9.87668 11.2669 9.76356 11.5397 9.56234 11.741C9.36102 11.9423 9.08817 12.0554 8.80359 12.0557H8.80364ZM10.266 4.27736H3.26546C3.12648 4.27736 2.99809 4.20322 2.92864 4.0829C2.85919 3.96258 2.85919 3.8143 2.92864 3.69398C2.99809 3.57366 3.12648 3.49952 3.26546 3.49952H10.266C10.405 3.49952 10.5334 3.57366 10.6028 3.69398C10.6723 3.81431 10.6723 3.96258 10.6028 4.0829C10.5334 4.20322 10.405 4.27736 10.266 4.27736Z" fill="#EB4747"/>
<path d="M5.599 6.21973C5.49587 6.21973 5.3969 6.2607 5.32398 6.33362C5.25106 6.40655 5.21008 6.50551 5.21008 6.60864V10.4978C5.21008 10.6368 5.28422 10.7652 5.40454 10.8347C5.52486 10.9041 5.67314 10.9041 5.79346 10.8347C5.91378 10.7652 5.98792 10.6368 5.98792 10.4978V6.60864C5.98792 6.50551 5.94694 6.40655 5.87402 6.33362C5.8011 6.2607 5.70213 6.21973 5.599 6.21973Z" fill="#EB4747"/>
<path d="M7.93176 6.21973C7.82863 6.21973 7.72967 6.2607 7.65674 6.33362C7.58382 6.40655 7.54285 6.50551 7.54285 6.60864V10.4978C7.54285 10.6368 7.61698 10.7652 7.73731 10.8347C7.85763 10.9041 8.0059 10.9041 8.12622 10.8347C8.24654 10.7652 8.32068 10.6368 8.32068 10.4978V6.60864C8.32068 6.50551 8.27971 6.40655 8.20679 6.33362C8.13386 6.2607 8.0349 6.21973 7.93176 6.21973Z" fill="#EB4747"/>
</svg>
