<svg width="14" height="14" viewBox="0 0 14 14" fill="none" xmlns="http://www.w3.org/2000/svg">
<g clip-path="url(#clip0_127_5098)">
<path fill-rule="evenodd" clip-rule="evenodd" d="M11.5 8.4996H12.5C13.3285 8.4996 14 9.17159 14 9.99957V12.5C14 13.328 13.3285 14 12.5 14L1.5 14C0.6715 14 0 13.328 0 12.5V9.99957C0 9.17159 0.6715 8.4996 1.5 8.4996H2.5L2.5 1.49997C2.5 0.67124 3.1715 1.90735e-06 4 1.90735e-06L10 1.90735e-06C10.8285 1.90735e-06 11.5 0.67124 11.5 1.49997L11.5 8.4996ZM2.5 9.50008H1.5C1.224 9.50008 1 9.72358 1 9.99957V12.5C1 12.776 1.224 12.9995 1.5 12.9995L12.5 12.9995C12.776 12.9995 13 12.776 13 12.5V9.99957C13 9.72358 12.776 9.50008 12.5 9.50008H11.5V10.4998H12C12.276 10.4998 12.5 10.7241 12.5 11.0001C12.5 11.276 12.276 11.4995 12 11.4995L2 11.4995C1.724 11.4995 1.5 11.276 1.5 11.0001C1.5 10.7241 1.724 10.4998 2 10.4998H2.5V9.50008ZM10.5 10.4998L10.5 1.49997C10.5 1.22398 10.276 0.999734 10 0.999734L4 0.999734C3.724 0.999734 3.5 1.22398 3.5 1.49997L3.5 10.4998L10.5 10.4998ZM6.7225 9.41608L5.2225 8.4156C4.993 8.2626 4.931 7.95211 5.084 7.72261C5.237 7.49312 5.5475 7.43087 5.7775 7.58387L6.5 8.06536V5.49965C6.5 5.22366 6.724 5.00016 7 5.00016C7.276 5.00016 7.5 5.22366 7.5 5.49965V8.06536L8.2225 7.58387C8.4525 7.43087 8.763 7.49312 8.916 7.72261C9.069 7.95211 9.007 8.2626 8.7775 8.4156L7.2775 9.41608C7.1955 9.47008 7.0995 9.50008 7 9.50008C6.9005 9.50008 6.8045 9.47008 6.7225 9.41608Z" fill="#FF7A00"/>
</g>
<defs>
<clipPath id="clip0_127_5098">
<rect width="14" height="14" fill="white"/>
</clipPath>
</defs>
</svg>
