<svg width="18" height="20" viewBox="0 0 18 20" fill="none" xmlns="http://www.w3.org/2000/svg">
<g clip-path="url(#clip0_67_9963)">
<path d="M13.2842 20.0003H4.41554C3.93241 20.0003 3.45407 19.9044 3.00827 19.7182C2.56248 19.5319 2.1581 19.259 1.8186 18.9152C1.4791 18.5715 1.21122 18.1638 1.03052 17.7157C0.849812 17.2676 0.759871 16.7881 0.76591 16.305V3.45831C0.76591 3.21632 0.862039 2.98425 1.03315 2.81314C1.20426 2.64203 1.43633 2.5459 1.67832 2.5459H9.30606C10.1117 2.54961 10.9086 2.71277 11.6509 3.02596C12.3932 3.33916 13.0661 3.79619 13.6309 4.37072L16.0396 6.77947C16.6329 7.3933 16.9607 8.216 16.952 9.06962V16.3689C16.9496 16.8482 16.8529 17.3223 16.6673 17.7642C16.4816 18.206 16.2108 18.607 15.8702 18.9442C15.5296 19.2814 15.1259 19.5483 14.6822 19.7295C14.2385 19.9107 13.7634 20.0027 13.2842 20.0003ZM2.19839 4.33422V16.305C2.20321 16.8899 2.43892 17.4491 2.8542 17.861C3.26947 18.2729 3.83067 18.5039 4.41554 18.5039H13.2842C13.8722 18.5039 14.4361 18.2703 14.8519 17.8545C15.2677 17.4387 15.5013 16.8748 15.5013 16.2868V9.62619C15.5089 8.77276 15.1813 7.95041 14.5889 7.33604L13.0378 5.79407C12.4753 5.21901 11.8041 4.76154 11.0632 4.44826C10.3223 4.13498 9.52652 3.97216 8.72211 3.96926H2.50861C2.46283 3.96854 2.41745 3.97796 2.37574 3.99685C2.33403 4.01574 2.29702 4.04364 2.26737 4.07852C2.23771 4.11341 2.21615 4.15443 2.20422 4.19864C2.1923 4.24285 2.19031 4.28915 2.19839 4.33422Z" fill="#282828"/>
<path d="M2.70876 3.04745H1.34015V1.75182C1.32011 1.54007 1.34235 1.32645 1.40556 1.12336C1.46877 0.92027 1.5717 0.731762 1.70836 0.56878C1.84503 0.405799 2.01272 0.271591 2.20168 0.173951C2.39064 0.0763104 2.59712 0.0171824 2.80912 0H4.83467C5.04623 0.0183629 5.25209 0.0782694 5.44047 0.17629C5.62885 0.274312 5.79605 0.408522 5.93249 0.571241C6.06894 0.733959 6.17196 0.92199 6.23564 1.12457C6.29933 1.32715 6.32244 1.5403 6.30365 1.75182V2.7646H4.93504V1.75182C4.94156 1.68045 4.93273 1.6085 4.90912 1.54083C4.88551 1.47315 4.84768 1.41132 4.79817 1.35949H2.80912C2.74266 1.47622 2.70805 1.60838 2.70876 1.7427V3.04745Z" fill="#282828"/>
<path d="M16.0112 7.46353L14.9985 6.55113L15.847 5.63872C15.8874 5.59355 15.9097 5.53508 15.9097 5.47448C15.9097 5.41389 15.8874 5.35542 15.847 5.31025L13.2923 3.06572C13.2713 3.04307 13.2459 3.02492 13.2176 3.01237C13.1894 2.99982 13.1589 2.99314 13.128 2.99273C13.0655 3.00038 13.0075 3.02938 12.9638 3.07485L12.2156 3.98726L11.1572 3.07485L11.9145 2.16244C12.0583 2.00632 12.2316 1.88025 12.4245 1.79154C12.6173 1.70282 12.8258 1.65321 13.0379 1.64557C13.25 1.63793 13.4616 1.67243 13.6603 1.74705C13.859 1.82167 14.0409 1.93495 14.1955 2.08032L16.732 4.3066C16.8918 4.44721 17.0218 4.61833 17.1144 4.8099C17.2071 5.00148 17.2605 5.20963 17.2715 5.42214C17.2826 5.63465 17.251 5.84723 17.1788 6.04737C17.1065 6.24752 16.9949 6.4312 16.8507 6.58762L16.0112 7.46353Z" fill="#282828"/>
</g>
<defs>
<clipPath id="clip0_67_9963">
<rect width="16.5602" height="20" fill="white" transform="translate(0.719727)"/>
</clipPath>
</defs>
</svg>
