<svg width="24" height="24" viewBox="0 0 24 24" fill="none" xmlns="http://www.w3.org/2000/svg">
<rect width="24" height="24" rx="8" fill="#256CD6" fill-opacity="0.1"/>
<path d="M12.375 4.875C8.23816 4.875 4.875 8.23816 4.875 12.375C4.875 16.5118 8.23816 19.875 12.375 19.875C16.5118 19.875 19.875 16.5118 19.875 12.375C19.875 8.23816 16.5118 4.875 12.375 4.875ZM6.46974 9.88026C7.44868 7.575 9.72237 5.96447 12.375 5.96447C15.0276 5.96447 17.3013 7.575 18.2803 9.88026C18.4697 10.3382 18.0908 10.8434 17.6013 10.7961C16.7329 10.7329 15.8645 10.6855 14.9961 10.6539C14.7276 10.6382 14.475 10.5434 14.2855 10.3697C13.7803 9.92763 13.1171 9.65921 12.3908 9.65921C11.6645 9.65921 11.0013 9.92763 10.4961 10.3697C10.2908 10.5434 10.0382 10.6539 9.78553 10.6539C8.90132 10.6855 8.03289 10.7329 7.16447 10.7961C6.65921 10.8434 6.28026 10.3382 6.46974 9.88026ZM10.1961 18.4066C8.06447 17.6329 6.45395 15.7697 6.05921 13.4803C5.98026 12.975 6.45395 12.5803 6.94342 12.7382C9.05921 13.4487 10.6382 15.2487 11.0329 17.4434L11.0645 17.6329C11.175 18.1382 10.6855 18.5803 10.1961 18.4066ZM12.375 13.7329C11.7118 13.7329 11.1592 13.1961 11.1592 12.5171C11.1592 11.8539 11.6961 11.3013 12.375 11.3013C13.0539 11.3013 13.5908 11.8382 13.5908 12.5171C13.5908 13.1961 13.0382 13.7329 12.375 13.7329ZM14.5539 18.4066C14.0645 18.5803 13.5908 18.1539 13.6855 17.6487L13.7171 17.4592C14.1118 15.2487 15.6908 13.4487 17.8066 12.7382C18.2803 12.5803 18.7697 12.9908 18.6908 13.4803C18.2961 15.7697 16.6855 17.6329 14.5539 18.4066Z" fill="#256CD6"/>
</svg>
