<svg width="14" height="14" viewBox="0 0 14 14" fill="none" xmlns="http://www.w3.org/2000/svg">
<path d="M1.83024 14C1.34229 14 0.886335 13.8375 0.558369 13.5358C0.142412 13.1566 -0.0575674 12.584 0.0144252 11.965L0.310395 9.45811C0.366389 8.98612 0.662358 8.35939 1.00632 8.01894L7.57364 1.29508C9.21347 -0.383949 10.9253 -0.430374 12.6611 1.15581C14.3969 2.74199 14.4449 4.3978 12.8051 6.07683L6.23778 12.8007C5.90182 13.1489 5.27788 13.4739 4.78993 13.5512L2.2142 13.9768C2.07821 13.9845 1.95822 14 1.83024 14ZM10.1414 1.14807C9.52544 1.14807 8.9895 1.51947 8.44555 2.07657L1.87823 8.80816C1.71825 8.97065 1.53427 9.35752 1.50227 9.58191L1.2063 12.0888C1.17431 12.3442 1.2383 12.5531 1.38228 12.6846C1.52627 12.8162 1.74225 12.8626 2.00622 12.8239L4.58195 12.3983C4.81393 12.3597 5.19789 12.1585 5.35787 11.996L11.9252 5.27214C12.9171 4.25079 13.2771 3.30682 11.8292 1.99145C11.1893 1.39567 10.6373 1.14807 10.1414 1.14807Z" fill="#1469B8"/>
<path d="M11.2688 7.36904C11.2528 7.36904 11.2288 7.36904 11.2128 7.36904C8.71707 7.12917 6.70928 5.29539 6.32532 2.89678C6.27733 2.57954 6.5013 2.28552 6.82927 2.23136C7.15723 2.18493 7.4612 2.40158 7.5172 2.71882C7.82116 4.59129 9.389 6.03045 11.3408 6.21615C11.6688 6.2471 11.9087 6.53339 11.8767 6.85063C11.8367 7.14465 11.5728 7.36904 11.2688 7.36904Z" fill="#1469B8"/>
</svg>
