<svg width="25" height="18" viewBox="0 0 25 18" fill="none" xmlns="http://www.w3.org/2000/svg">
<g clip-path="url(#clip0_67_9969)">
<path d="M10.2642 11.4106H8.7944L9.75029 10.1464C9.80006 10.0533 9.81485 9.94545 9.792 9.84238C9.76914 9.73931 9.71015 9.64783 9.62569 9.58449C9.54123 9.52115 9.43689 9.49013 9.33155 9.49704C9.2262 9.50396 9.12681 9.54836 9.05136 9.6222L7.57128 11.5854C7.52052 11.6497 7.48912 11.7272 7.48077 11.8087C7.47241 11.8903 7.48744 11.9725 7.52409 12.0458C7.56074 12.1191 7.61751 12.1805 7.68775 12.2227C7.75799 12.2649 7.83881 12.2863 7.92074 12.2843H9.44194L8.4141 13.7541C8.38062 13.8005 8.35669 13.8531 8.34372 13.9089C8.33075 13.9646 8.329 14.0224 8.33857 14.0788C8.34813 14.1353 8.36882 14.1892 8.39944 14.2376C8.43005 14.286 8.46997 14.3277 8.51689 14.3605C8.58901 14.4121 8.67496 14.4407 8.76357 14.4428C8.83424 14.4446 8.90423 14.4286 8.96709 14.3962C9.02996 14.3639 9.08368 14.3163 9.12331 14.2578L10.6651 12.0993C10.7058 12.0309 10.7273 11.9528 10.7273 11.8732C10.7273 11.7936 10.7058 11.7154 10.6651 11.647C10.6268 11.5743 10.5691 11.5136 10.4983 11.4718C10.4275 11.43 10.3464 11.4089 10.2642 11.4106Z" fill="#282828"/>
<path d="M11.6626 4.15439H6.52337C6.36799 4.15439 6.21897 4.21612 6.1091 4.32599C5.99922 4.43586 5.9375 4.58488 5.9375 4.74026V7.12484C5.9402 7.27843 6.00311 7.42482 6.11269 7.53248C6.22227 7.64014 6.36975 7.70045 6.52337 7.70043H11.6626C11.739 7.70179 11.815 7.68791 11.886 7.6596C11.957 7.63129 12.0217 7.5891 12.0762 7.53552C12.1308 7.48194 12.1741 7.41802 12.2036 7.34751C12.2332 7.277 12.2484 7.2013 12.2484 7.12484V4.74026C12.2498 4.66294 12.2356 4.58613 12.2067 4.51442C12.1777 4.44271 12.1346 4.37757 12.0799 4.32288C12.0252 4.2682 11.9601 4.2251 11.8884 4.19615C11.8167 4.1672 11.7399 4.153 11.6626 4.15439Z" fill="#282828"/>
<path d="M17.8191 13.2198H18.9188C19.8203 13.2171 20.6841 12.8578 21.3215 12.2203C21.959 11.5829 22.3183 10.7191 22.321 9.81766V9.48875C22.8646 9.29567 23.3481 8.96343 23.7232 8.52518C24.0983 8.08693 24.352 7.55799 24.4589 6.99111C24.6233 6.3744 24.2636 5.74742 23.7805 5.74742H23.4722V4.71958C23.4722 4.56966 23.4126 4.42587 23.3066 4.31985C23.2006 4.21383 23.0568 4.15427 22.9069 4.15427C22.8326 4.15427 22.7591 4.1689 22.6905 4.19731C22.6219 4.22572 22.5596 4.26736 22.5071 4.31985C22.4546 4.37234 22.413 4.43466 22.3846 4.50325C22.3562 4.57184 22.3415 4.64535 22.3415 4.71958V5.74742H21.1698V4.71958C21.1512 4.58147 21.0832 4.45478 20.9783 4.36304C20.8734 4.2713 20.7387 4.22074 20.5994 4.22074C20.46 4.22074 20.3254 4.2713 20.2205 4.36304C20.1156 4.45478 20.0475 4.58147 20.0289 4.71958V5.74742H19.7206C19.2375 5.74742 18.888 6.3744 19.0422 6.99111C19.151 7.5572 19.4054 8.08521 19.7803 8.52315C20.1551 8.96109 20.6376 9.29387 21.1801 9.48875V9.81766C21.1774 10.4165 20.9383 10.9901 20.5148 11.4136C20.0913 11.8371 19.5177 12.0762 18.9188 12.0789H17.5107V4.25706C17.508 3.26018 17.1108 2.3049 16.4059 1.6C15.701 0.895097 14.7457 0.497886 13.7488 0.495173H4.303C3.80628 0.492466 3.31389 0.587624 2.85395 0.775213C2.394 0.962802 1.97551 1.23915 1.62237 1.58847C1.26923 1.9378 0.98835 2.35326 0.795773 2.81114C0.603196 3.26901 0.502692 3.76034 0.5 4.25706V13.744C0.502688 14.2402 0.603264 14.7311 0.795968 15.1884C0.988671 15.6457 1.26971 16.0605 1.62299 16.409C1.97627 16.7575 2.39484 17.0328 2.85473 17.2193C3.31461 17.4058 3.80677 17.4997 4.303 17.4956H13.7797C14.7756 17.4956 15.7309 17.1007 16.4361 16.3974C17.1413 15.6941 17.5388 14.7399 17.5415 13.744V13.2712M16.4109 13.744C16.4082 14.441 16.1301 15.1087 15.6373 15.6016C15.1444 16.0945 14.4767 16.3726 13.7797 16.3753H4.303C3.95438 16.3793 3.60841 16.3144 3.28503 16.1841C2.96165 16.0538 2.66725 15.8608 2.41883 15.6162C2.1704 15.3716 1.97285 15.0802 1.83757 14.7589C1.70229 14.4376 1.63195 14.0926 1.63062 13.744V4.25706C1.63196 3.90794 1.70223 3.56253 1.83738 3.24064C1.97254 2.91875 2.16992 2.62671 2.41821 2.38129C2.6665 2.13586 2.96081 1.94188 3.28425 1.81047C3.60769 1.67906 3.95389 1.61281 4.303 1.61552H13.7797C14.4785 1.61824 15.1477 1.89774 15.6409 2.39283C16.134 2.88792 16.4109 3.55825 16.4109 4.25706V13.744Z" fill="#282828"/>
</g>
<defs>
<clipPath id="clip0_67_9969">
<rect width="24" height="17.0107" fill="white" transform="translate(0.5 0.495117)"/>
</clipPath>
</defs>
</svg>
