<svg width="108" height="81" viewBox="0 0 108 81" fill="none" xmlns="http://www.w3.org/2000/svg">
<path d="M102.834 51.7955C102.39 52.0195 101.844 51.8393 101.62 51.3945C101.396 50.9497 101.576 50.4042 102.021 50.1802C102.466 49.9562 103.011 50.1363 103.235 50.5811C103.459 51.0259 103.279 51.5715 102.834 51.7955Z" fill="#282828"/>
<path d="M75.9306 47.876C75.1347 48.2768 74.1491 47.9514 73.7482 47.1555C73.3474 46.3595 73.6728 45.3739 74.4687 44.9731C75.2647 44.5723 76.2503 44.8977 76.6511 45.6936C77.0519 46.4896 76.7265 47.4751 75.9306 47.876Z" fill="#282828"/>
<path d="M88.9306 20.8721C88.1347 21.2729 87.1491 20.9475 86.7482 20.1516C86.3474 19.3556 86.6728 18.37 87.4687 17.9692C88.2647 17.5684 89.2503 17.8938 89.6511 18.6897C90.0519 19.4856 89.7265 20.4712 88.9306 20.8721Z" fill="#282828"/>
<path d="M95.9067 61.1728C95.1107 61.5737 94.1252 61.2483 93.7243 60.4523C93.3235 59.6564 93.6489 58.6708 94.4448 58.27C95.2408 57.8692 96.2263 58.1945 96.6272 58.9905C97.028 59.7864 96.7026 60.772 95.9067 61.1728Z" fill="#282828"/>
<path d="M57.9307 14.876C57.1348 15.2768 56.1492 14.9514 55.7484 14.1555C55.3475 13.3595 55.6729 12.3739 56.4689 11.9731C57.2648 11.5723 58.2504 11.8977 58.6512 12.6936C59.052 13.4896 58.7267 14.4751 57.9307 14.876Z" fill="#282828"/>
<path d="M95.0959 36.4283C94.6511 36.6523 94.1055 36.4721 93.8815 36.0273C93.6575 35.5826 93.8376 35.037 94.2824 34.813C94.7272 34.589 95.2669 34.7574 95.4909 35.2022C95.7149 35.647 95.5407 36.2043 95.0959 36.4283Z" fill="#282828"/>
<path d="M78.6496 28.9126C78.2048 29.1366 77.6592 28.9565 77.4352 28.5117C77.2112 28.0669 77.3914 27.5213 77.8362 27.2974C78.2809 27.0734 78.8265 27.2535 79.0505 27.6983C79.2686 28.1314 79.0944 28.6887 78.6496 28.9126Z" fill="#282828"/>
<path d="M62.424 29.5337C61.9792 29.7577 61.4336 29.5776 61.2096 29.1328C60.9856 28.688 61.1658 28.1424 61.6106 27.9184C62.0554 27.6945 62.6009 27.8746 62.8249 28.3194C63.0489 28.7642 62.8688 29.3097 62.424 29.5337Z" fill="#282828"/>
<path d="M6.50439 62.2697C6.04098 62.0873 5.81171 61.5605 5.9941 61.0971C6.17648 60.6337 6.70332 60.4044 7.16673 60.5868C7.63014 60.7692 7.85939 61.296 7.67701 61.7594C7.49462 62.2228 6.96779 62.4521 6.50439 62.2697Z" fill="#282828"/>
<path d="M8.44803 42.7339C7.61877 42.4075 7.20463 41.4558 7.531 40.6266C7.85737 39.7973 8.80907 39.3832 9.63833 39.7095C10.4676 40.0359 10.8817 40.9876 10.5554 41.8169C10.229 42.6461 9.27729 43.0603 8.44803 42.7339Z" fill="#282828"/>
<path d="M44.0645 29.2808C43.2352 28.9544 42.8211 28.0027 43.1475 27.1734C43.4738 26.3442 44.4255 25.93 45.2548 26.2564C46.0841 26.5828 46.4982 27.5345 46.1718 28.3637C45.8454 29.193 44.8938 29.6071 44.0645 29.2808Z" fill="#282828"/>
<path d="M26.9556 49.2424C26.4921 49.06 26.2629 48.5331 26.4453 48.0697C26.6277 47.6063 27.1545 47.3771 27.6179 47.5595C28.0813 47.7418 28.3106 48.2687 28.1282 48.7321C27.9458 49.1955 27.419 49.4247 26.9556 49.2424Z" fill="#282828"/>
<path d="M26.8591 34.2541C26.3957 34.0717 26.1664 33.5449 26.3488 33.0815C26.5312 32.618 27.058 32.3888 27.5215 32.5712C27.9849 32.7536 28.2141 33.2804 28.0317 33.7438C27.8542 34.195 27.3225 34.4365 26.8591 34.2541Z" fill="#282828"/>
<path d="M24.5104 16.5197C24.047 16.3373 23.8177 15.8105 24.0001 15.3471C24.1825 14.8837 24.7093 14.6544 25.1727 14.8368C25.6361 15.0192 25.8654 15.546 25.683 16.0094C25.5006 16.4728 24.9738 16.7021 24.5104 16.5197Z" fill="#282828"/>
<path d="M16.3414 57.0158C15.878 56.8334 15.6488 56.3066 15.8311 55.8432C16.0135 55.3798 16.5404 55.1505 17.0038 55.3329C17.4672 55.5153 17.6964 56.0421 17.514 56.5055C17.3317 56.9689 16.8048 57.1982 16.3414 57.0158Z" fill="#282828"/>
<path d="M56.0791 39L55.8132 39C46.7344 39 42.3585 42.5784 41.6019 50.594C41.5201 51.4323 42.1336 52.1889 42.9924 52.2707C43.8103 52.3525 44.5873 51.7186 44.6691 50.8802C45.2621 44.4596 48.2884 42.0672 55.8337 42.0672L56.0995 42.0672C64.4218 42.0672 67.3663 45.0117 67.3663 53.334L67.3663 66.666C67.3663 74.9883 64.4218 77.9328 56.0995 77.9328L55.8337 77.9328C48.2475 77.9328 45.2212 75.4995 44.6691 68.9562C44.5669 68.1178 43.8512 67.4839 42.9924 67.5657C42.1336 67.6271 41.5201 68.3836 41.5815 69.222C42.2767 77.3603 46.673 81 55.8132 81L56.0791 81C66.119 81 70.413 76.7059 70.413 66.666L70.413 53.334C70.413 43.2941 66.119 39 56.0791 39Z" fill="#E51C39"/>
<path d="M55.5886 58.468L32.3189 58.468C31.4805 58.468 30.7853 59.1632 30.7853 60.0016C30.7853 60.8399 31.4805 61.5352 32.3189 61.5352L55.5886 61.5352C56.427 61.5352 57.1222 60.8399 57.1222 60.0016C57.1222 59.1632 56.427 58.468 55.5886 58.468Z" fill="#E51C39"/>
<path d="M36.8784 51.6167C36.4899 51.6167 36.1014 51.7599 35.7947 52.0666L28.9446 58.9166C28.3516 59.5096 28.3516 60.4911 28.9446 61.0841L35.7947 67.9342C36.3877 68.5272 37.3692 68.5272 37.9621 67.9342C38.5551 67.3412 38.5551 66.3597 37.9621 65.7667L32.1958 60.0004L37.9621 54.2341C38.5551 53.6411 38.5551 52.6596 37.9621 52.0666C37.6759 51.7599 37.2669 51.6167 36.8784 51.6167Z" fill="#E51C39"/>
</svg>
