<svg width="18" height="21" viewBox="0 0 18 21" fill="none" xmlns="http://www.w3.org/2000/svg">
<path d="M12.2102 12.2552C13.0324 11.8343 13.9482 11.61 14.8799 11.6012C15.8117 11.5925 16.7319 11.7995 17.5625 12.2049V2.42096C17.562 2.03918 17.4039 1.67316 17.1227 1.40321C16.8415 1.13325 16.4602 0.981394 16.0625 0.980957H1.8125C1.41481 0.981394 1.03355 1.13325 0.752343 1.40321C0.471137 1.67316 0.312955 2.03918 0.3125 2.42096V18.621C0.312955 19.0027 0.471137 19.3687 0.752343 19.6387C1.03355 19.9087 1.41481 20.0605 1.8125 20.061H9.96094C9.48651 19.3068 9.20507 18.4555 9.13973 17.5767C9.07439 16.6979 9.22701 15.8168 9.58505 15.0056C9.50675 14.9845 9.43777 14.9394 9.38858 14.8772C9.3394 14.815 9.31269 14.7391 9.3125 14.661V12.501C9.3125 12.4055 9.35202 12.3139 9.42234 12.2464C9.49267 12.1789 9.58805 12.141 9.6875 12.141H11.9375C11.9887 12.141 12.0393 12.1512 12.0862 12.1708C12.1332 12.1905 12.1754 12.2192 12.2102 12.2552ZM12.5209 7.46096C12.5209 7.36548 12.5604 7.27392 12.6307 7.2064C12.701 7.13889 12.7964 7.10096 12.8959 7.10096H14.4792C14.5786 7.10096 14.674 7.13889 14.7444 7.2064C14.8147 7.27391 14.8542 7.36548 14.8542 7.46096C14.8542 7.55643 14.8147 7.648 14.7444 7.71552C14.674 7.78303 14.5786 7.82096 14.4792 7.82096H12.8959C12.7964 7.82095 12.701 7.78302 12.6307 7.71551C12.5604 7.648 12.5209 7.55643 12.5209 7.46096ZM16.0625 8.90096V11.061C16.0625 11.1564 16.023 11.248 15.9527 11.3155C15.8823 11.383 15.787 11.421 15.6875 11.421H13.4375C13.338 11.421 13.2427 11.383 13.1723 11.3155C13.102 11.248 13.0625 11.1564 13.0625 11.061V8.90096C13.0625 8.80548 13.102 8.71392 13.1723 8.6464C13.2427 8.57889 13.338 8.54096 13.4375 8.54096H15.6875C15.787 8.54096 15.8823 8.57889 15.9527 8.6464C16.023 8.71392 16.0625 8.80548 16.0625 8.90096ZM4.8125 18.261C4.8125 18.3564 4.77298 18.448 4.70266 18.5155C4.63233 18.583 4.53695 18.621 4.4375 18.621H2.1875C2.08805 18.621 1.99267 18.583 1.92234 18.5155C1.85202 18.448 1.81251 18.3564 1.8125 18.261V16.101C1.81251 16.0055 1.85202 15.9139 1.92234 15.8464C1.99267 15.7789 2.08805 15.741 2.1875 15.741H4.4375C4.53695 15.741 4.63233 15.7789 4.70266 15.8464C4.77298 15.9139 4.8125 16.0055 4.8125 16.101V18.261ZM4.8125 14.661C4.8125 14.7564 4.77298 14.848 4.70266 14.9155C4.63233 14.983 4.53695 15.021 4.4375 15.021H2.1875C2.08805 15.021 1.99267 14.983 1.92234 14.9155C1.85202 14.848 1.81251 14.7564 1.8125 14.661V12.501C1.81251 12.4055 1.85202 12.3139 1.92234 12.2464C1.99267 12.1789 2.08805 12.141 2.1875 12.141H4.4375C4.53695 12.141 4.63233 12.1789 4.70266 12.2464C4.77298 12.3139 4.8125 12.4055 4.8125 12.501V14.661ZM4.8125 11.061C4.8125 11.1564 4.77298 11.248 4.70266 11.3155C4.63233 11.383 4.53695 11.421 4.4375 11.421H2.1875C2.08805 11.421 1.99267 11.383 1.92234 11.3155C1.85202 11.248 1.81251 11.1564 1.8125 11.061V8.90096C1.81251 8.80548 1.85202 8.71392 1.92234 8.6464C1.99267 8.57889 2.08805 8.54096 2.1875 8.54096H4.4375C4.53695 8.54096 4.63233 8.57889 4.70266 8.6464C4.77298 8.71392 4.8125 8.80548 4.8125 8.90096V11.061ZM4.97913 7.82096H3.39581C3.29636 7.82096 3.20097 7.78303 3.13065 7.71552C3.06032 7.648 3.02081 7.55643 3.02081 7.46096C3.02081 7.36548 3.06032 7.27391 3.13065 7.2064C3.20097 7.13889 3.29636 7.10096 3.39581 7.10096H4.97913C5.07858 7.10096 5.17397 7.13889 5.24429 7.2064C5.31462 7.27391 5.35413 7.36548 5.35413 7.46096C5.35413 7.55643 5.31462 7.648 5.24429 7.71552C5.17397 7.78303 5.07858 7.82096 4.97913 7.82096ZM8.5625 18.261C8.5625 18.3564 8.52298 18.448 8.45266 18.5155C8.38233 18.583 8.28695 18.621 8.1875 18.621H5.9375C5.83805 18.621 5.74267 18.583 5.67234 18.5155C5.60202 18.448 5.5625 18.3564 5.5625 18.261V16.101C5.5625 16.0055 5.60202 15.9139 5.67234 15.8464C5.74267 15.7789 5.83805 15.741 5.9375 15.741H8.1875C8.28695 15.741 8.38233 15.7789 8.45266 15.8464C8.52298 15.9139 8.5625 16.0055 8.5625 16.101V18.261ZM8.5625 14.661C8.5625 14.7564 8.52298 14.848 8.45266 14.9155C8.38233 14.983 8.28695 15.021 8.1875 15.021H5.9375C5.83805 15.021 5.74267 14.983 5.67234 14.9155C5.60202 14.848 5.5625 14.7564 5.5625 14.661V12.501C5.5625 12.4055 5.60202 12.3139 5.67234 12.2464C5.74267 12.1789 5.83805 12.141 5.9375 12.141H8.1875C8.28695 12.141 8.38233 12.1789 8.45266 12.2464C8.52298 12.3139 8.5625 12.4055 8.5625 12.501V14.661ZM8.5625 11.061C8.5625 11.1564 8.52298 11.248 8.45266 11.3155C8.38233 11.383 8.28695 11.421 8.1875 11.421H5.9375C5.83805 11.421 5.74267 11.383 5.67234 11.3155C5.60202 11.248 5.5625 11.1564 5.5625 11.061V8.90096C5.5625 8.80548 5.60202 8.71392 5.67234 8.6464C5.74267 8.57889 5.83805 8.54096 5.9375 8.54096H8.1875C8.28695 8.54096 8.38233 8.57889 8.45266 8.6464C8.52298 8.71392 8.5625 8.80548 8.5625 8.90096V11.061ZM6.18744 7.46096C6.18744 7.36548 6.22695 7.27392 6.29728 7.2064C6.3676 7.13889 6.46298 7.10096 6.56244 7.10096H8.14575C8.24521 7.10096 8.34059 7.13889 8.41092 7.2064C8.48124 7.27391 8.52075 7.36548 8.52075 7.46096C8.52075 7.55643 8.48124 7.648 8.41092 7.71552C8.34059 7.78303 8.24521 7.82096 8.14575 7.82096H6.56244C6.46298 7.82095 6.3676 7.78302 6.29728 7.71551C6.22695 7.648 6.18744 7.55643 6.18744 7.46096ZM2.9375 6.02096C2.83805 6.02095 2.74267 5.98302 2.67234 5.91551C2.60202 5.848 2.56251 5.75643 2.5625 5.66096V3.14096C2.56251 3.04548 2.60202 2.95392 2.67234 2.8864C2.74267 2.81889 2.83805 2.78096 2.9375 2.78096H14.9375C15.037 2.78096 15.1323 2.81889 15.2027 2.8864C15.273 2.95392 15.3125 3.04548 15.3125 3.14096V5.66096C15.3125 5.75643 15.273 5.848 15.2027 5.91551C15.1323 5.98302 15.037 6.02095 14.9375 6.02096H2.9375ZM11.6876 7.46096C11.6876 7.55643 11.648 7.648 11.5777 7.71551C11.5074 7.78302 11.412 7.82095 11.3126 7.82096H9.72906C9.62961 7.82096 9.53423 7.78303 9.4639 7.71552C9.39357 7.648 9.35406 7.55643 9.35406 7.46096C9.35406 7.36548 9.39357 7.27391 9.4639 7.2064C9.53423 7.13889 9.62961 7.10096 9.72906 7.10096H11.3126C11.412 7.10096 11.5074 7.13889 11.5777 7.2064C11.648 7.27392 11.6876 7.36548 11.6876 7.46096ZM9.3125 11.061V8.90096C9.3125 8.80548 9.35202 8.71392 9.42234 8.6464C9.49267 8.57889 9.58805 8.54096 9.6875 8.54096H11.9375C12.037 8.54096 12.1323 8.57889 12.2027 8.6464C12.273 8.71392 12.3125 8.80548 12.3125 8.90096V11.061C12.3125 11.1564 12.273 11.248 12.2027 11.3155C12.1323 11.383 12.037 11.421 11.9375 11.421H9.6875C9.58805 11.421 9.49267 11.383 9.42234 11.3155C9.35202 11.248 9.3125 11.1564 9.3125 11.061Z" fill="#282828"/>
</svg>
