<svg width="24" height="24" viewBox="0 0 24 24" fill="none" xmlns="http://www.w3.org/2000/svg">
<path d="M0.375 8.43865C0.474455 8.43864 0.569834 8.39913 0.64016 8.3288C0.710485 8.25848 0.749995 8.1631 0.75 8.06364V4.21642L1.5 3.60394V18.8976C1.49997 18.9502 1.51101 19.0022 1.53241 19.0502L2.46991 21.154C2.49941 21.2202 2.54748 21.2765 2.60828 21.3159C2.66908 21.3554 2.74001 21.3764 2.8125 21.3764V21.7514C2.8125 21.8509 2.85201 21.9463 2.92234 22.0166C2.99266 22.0869 3.08804 22.1264 3.1875 22.1264C3.28696 22.1264 3.38234 22.0869 3.45266 22.0166C3.52299 21.9463 3.5625 21.8509 3.5625 21.7514V21.3764C3.6268 21.3756 3.6898 21.3582 3.74535 21.3258C3.62456 21.0457 3.56233 20.7439 3.5625 20.4389V20.08L3.31897 20.6264H3.05603L2.25 18.8178V18.7514H3.5625V18.0013H2.25V16.8763H3.5625V16.1263H2.25V15.0013H3.5625V14.2513H2.25V5.62609H3.5625V4.87608H2.25V4.12606H3.5625V3.56355C3.5625 3.50026 3.56685 3.43803 3.572 3.37604H2.25V2.25102H3.98871C4.18565 1.97692 4.44136 1.75031 4.73714 1.58774C4.67065 1.53203 4.58675 1.50135 4.5 1.50101H4.3125V0.750992C4.3125 0.552075 4.23348 0.361306 4.09283 0.220651C3.95218 0.0799958 3.76141 0.000976563 3.5625 0.000976562L2.8125 0.000976563C2.61359 0.000976563 2.42282 0.0799958 2.28217 0.220651C2.14152 0.361306 2.0625 0.552075 2.0625 0.750992V1.50101H1.875C1.77555 1.50101 1.68017 1.54052 1.60984 1.61085C1.53952 1.68118 1.50001 1.77656 1.5 1.87601V2.63563L0.137878 3.74803C0.0947788 3.78319 0.0600451 3.8275 0.0361969 3.87774C0.0123487 3.92799 -1.5925e-05 3.98291 1.53931e-08 4.03853V8.06364C4.98775e-06 8.1631 0.0395154 8.25848 0.10984 8.3288C0.180166 8.39913 0.275545 8.43864 0.375 8.43865ZM2.8125 0.750992H3.5625V1.50101H2.8125V0.750992Z" fill="#282828"/>
<path d="M18.8542 8.81373C18.8542 8.71427 18.8147 8.61889 18.7443 8.54856C18.674 8.47824 18.5786 8.43873 18.4792 8.43872H16.8959C16.7964 8.43872 16.701 8.47823 16.6307 8.54856C16.5604 8.61889 16.5209 8.71427 16.5209 8.81373C16.5209 8.91319 16.5604 9.00857 16.6307 9.0789C16.701 9.14923 16.7964 9.18874 16.8959 9.18874H18.4792C18.5786 9.18873 18.674 9.14922 18.7443 9.07889C18.8147 9.00857 18.8542 8.91318 18.8542 8.81373Z" fill="#282828"/>
<path d="M9.35406 8.81373C9.35406 8.71427 9.31455 8.61889 9.24422 8.54856C9.1739 8.47824 9.07852 8.43873 8.97906 8.43872H7.39575C7.2963 8.43872 7.20091 8.47823 7.13059 8.54856C7.06026 8.61889 7.02075 8.71427 7.02075 8.81373C7.02075 8.91319 7.06026 9.00857 7.13059 9.0789C7.20091 9.14923 7.2963 9.18874 7.39575 9.18874H8.97907C9.07852 9.18873 9.1739 9.14922 9.24422 9.07889C9.31455 9.00857 9.35406 8.91318 9.35406 8.81373Z" fill="#282828"/>
<path d="M12.1458 9.18874C12.2453 9.18874 12.3407 9.14923 12.411 9.0789C12.4813 9.00857 12.5208 8.91319 12.5208 8.81373C12.5208 8.71427 12.4813 8.61889 12.411 8.54856C12.3407 8.47823 12.2453 8.43872 12.1458 8.43872H10.5625C10.463 8.43872 10.3677 8.47823 10.2973 8.54856C10.227 8.61889 10.1875 8.71427 10.1875 8.81373C10.1875 8.91319 10.227 9.00857 10.2973 9.0789C10.3677 9.14923 10.463 9.18874 10.5625 9.18874H12.1458Z" fill="#282828"/>
<path d="M13.729 9.18874H15.3125C15.412 9.18874 15.5073 9.14923 15.5777 9.0789C15.648 9.00857 15.6875 8.91319 15.6875 8.81373C15.6875 8.71427 15.648 8.61889 15.5777 8.54856C15.5073 8.47823 15.412 8.43872 15.3125 8.43872H13.729C13.6295 8.43872 13.5342 8.47823 13.4638 8.54856C13.3935 8.61889 13.354 8.71427 13.354 8.81373C13.354 8.91319 13.3935 9.00857 13.4638 9.0789C13.5342 9.14923 13.6295 9.18874 13.729 9.18874Z" fill="#282828"/>
<path d="M19.3125 6.93951V4.31446C19.3125 4.215 19.273 4.11962 19.2027 4.0493C19.1323 3.97897 19.037 3.93946 18.9375 3.93945H6.9375C6.83805 3.93946 6.74267 3.97897 6.67234 4.0493C6.60202 4.11962 6.5625 4.215 6.5625 4.31446V6.93951C6.5625 7.03897 6.60202 7.13435 6.67234 7.20468C6.74267 7.27501 6.83805 7.31452 6.9375 7.31452H18.9375C19.037 7.31452 19.1323 7.27501 19.2027 7.20468C19.273 7.13435 19.3125 7.03897 19.3125 6.93951ZM18.5625 6.56451H7.3125V4.68947H18.5625V6.56451Z" fill="#282828"/>
<path d="M8.8125 10.3135C8.81249 10.214 8.77298 10.1186 8.70266 10.0483C8.63233 9.97799 8.53695 9.93848 8.4375 9.93848H6.1875C6.08805 9.93848 5.99267 9.97799 5.92234 10.0483C5.85202 10.1186 5.8125 10.214 5.8125 10.3135V12.5635C5.8125 12.663 5.85202 12.7584 5.92234 12.8287C5.99267 12.899 6.08805 12.9385 6.1875 12.9385H8.4375C8.53695 12.9385 8.63233 12.899 8.70266 12.8287C8.77298 12.7584 8.81249 12.663 8.8125 12.5635V10.3135ZM8.0625 12.1885H6.5625V10.6885H8.0625V12.1885Z" fill="#282828"/>
<path d="M12.5625 10.3135C12.5625 10.214 12.523 10.1186 12.4527 10.0483C12.3823 9.97799 12.287 9.93848 12.1875 9.93848H9.9375C9.83805 9.93848 9.74267 9.97799 9.67234 10.0483C9.60202 10.1186 9.5625 10.214 9.5625 10.3135V12.5635C9.5625 12.663 9.60202 12.7584 9.67234 12.8287C9.74267 12.899 9.83805 12.9385 9.9375 12.9385H12.1875C12.287 12.9385 12.3823 12.899 12.4527 12.8287C12.523 12.7584 12.5625 12.663 12.5625 12.5635V10.3135ZM11.8125 12.1885H10.3125V10.6885H11.8125V12.1885Z" fill="#282828"/>
<path d="M13.3125 12.5635C13.3125 12.663 13.352 12.7584 13.4223 12.8287C13.4927 12.899 13.588 12.9385 13.6875 12.9385H15.9375C16.037 12.9385 16.1323 12.899 16.2027 12.8287C16.273 12.7584 16.3125 12.663 16.3125 12.5635V10.3135C16.3125 10.214 16.273 10.1186 16.2027 10.0483C16.1323 9.97799 16.037 9.93848 15.9375 9.93848H13.6875C13.588 9.93848 13.4927 9.97799 13.4223 10.0483C13.352 10.1186 13.3125 10.214 13.3125 10.3135V12.5635ZM14.0625 10.6885H15.5625V12.1885H14.0625V10.6885Z" fill="#282828"/>
<path d="M17.4375 12.9385H19.6875C19.787 12.9385 19.8823 12.899 19.9527 12.8287C20.023 12.7584 20.0625 12.663 20.0625 12.5635V10.3135C20.0625 10.214 20.023 10.1186 19.9527 10.0483C19.8823 9.97799 19.787 9.93848 19.6875 9.93848H17.4375C17.338 9.93848 17.2427 9.97799 17.1723 10.0483C17.102 10.1186 17.0625 10.214 17.0625 10.3135V12.5635C17.0625 12.663 17.102 12.7584 17.1723 12.8287C17.2427 12.899 17.338 12.9385 17.4375 12.9385ZM17.8125 10.6885H19.3125V12.1885H17.8125V10.6885Z" fill="#282828"/>
<path d="M8.8125 14.0645C8.81249 13.965 8.77298 13.8696 8.70266 13.7993C8.63233 13.729 8.53695 13.6895 8.4375 13.6895H6.1875C6.08805 13.6895 5.99267 13.729 5.92234 13.7993C5.85202 13.8696 5.8125 13.965 5.8125 14.0645V16.3145C5.8125 16.414 5.85202 16.5093 5.92234 16.5797C5.99267 16.65 6.08805 16.6895 6.1875 16.6895H8.4375C8.53695 16.6895 8.63233 16.65 8.70266 16.5797C8.77298 16.5093 8.81249 16.414 8.8125 16.3145V14.0645ZM8.0625 15.9395H6.5625V14.4395H8.0625V15.9395Z" fill="#282828"/>
<path d="M12.5625 14.0645C12.5625 13.965 12.523 13.8696 12.4527 13.7993C12.3823 13.729 12.287 13.6895 12.1875 13.6895H9.9375C9.83805 13.6895 9.74267 13.729 9.67234 13.7993C9.60202 13.8696 9.5625 13.965 9.5625 14.0645V16.3145C9.5625 16.414 9.60202 16.5093 9.67234 16.5797C9.74267 16.65 9.83805 16.6895 9.9375 16.6895H12.1875C12.287 16.6895 12.3823 16.65 12.4527 16.5797C12.523 16.5093 12.5625 16.414 12.5625 16.3145V14.0645ZM11.8125 15.9395H10.3125V14.4395H11.8125V15.9395Z" fill="#282828"/>
<path d="M8.4375 17.4395H6.1875C6.08805 17.4395 5.99267 17.479 5.92234 17.5493C5.85202 17.6196 5.8125 17.715 5.8125 17.8145V20.0645C5.8125 20.164 5.85202 20.2593 5.92234 20.3297C5.99267 20.4 6.08805 20.4395 6.1875 20.4395H8.4375C8.53695 20.4395 8.63233 20.4 8.70266 20.3297C8.77298 20.2593 8.81249 20.164 8.8125 20.0645V17.8145C8.81249 17.715 8.77298 17.6196 8.70266 17.5493C8.63233 17.479 8.53695 17.4395 8.4375 17.4395ZM8.0625 19.6895H6.5625V18.1895H8.0625V19.6895Z" fill="#282828"/>
<path d="M12.1875 17.4395H9.9375C9.83805 17.4395 9.74267 17.479 9.67234 17.5493C9.60202 17.6196 9.5625 17.715 9.5625 17.8145V20.0645C9.5625 20.164 9.60202 20.2593 9.67234 20.3297C9.74267 20.4 9.83805 20.4395 9.9375 20.4395H12.1875C12.287 20.4395 12.3823 20.4 12.4527 20.3297C12.523 20.2593 12.5625 20.164 12.5625 20.0645V17.8145C12.5625 17.715 12.523 17.6196 12.4527 17.5493C12.3823 17.479 12.287 17.4395 12.1875 17.4395ZM11.8125 19.6895H10.3125V18.1895H11.8125V19.6895Z" fill="#282828"/>
<path d="M13.5851 16.6736C13.7178 16.3624 13.8776 16.0634 14.0625 15.78V14.4395H15.2632C15.5576 14.1988 15.8748 13.9874 16.2102 13.8085C16.1754 13.771 16.1332 13.7411 16.0862 13.7206C16.0393 13.7001 15.9887 13.6895 15.9375 13.6895H13.6875C13.588 13.6895 13.4927 13.729 13.4223 13.7993C13.352 13.8696 13.3125 13.965 13.3125 14.0645V16.3145C13.3127 16.3959 13.3394 16.4749 13.3886 16.5397C13.4378 16.6045 13.5067 16.6515 13.5851 16.6736Z" fill="#282828"/>
<path d="M4.3125 20.4398C4.31296 20.8375 4.47114 21.2188 4.75234 21.5C5.03355 21.7812 5.41481 21.9394 5.8125 21.9399H13.9609C13.8154 21.6994 13.6876 21.4488 13.5784 21.1898H5.8125C5.61365 21.1896 5.42301 21.1105 5.2824 20.9699C5.1418 20.8293 5.06271 20.6387 5.0625 20.4398V9.1896H5.8125C5.91196 9.1896 6.00734 9.15009 6.07767 9.07976C6.14799 9.00943 6.1875 8.91405 6.1875 8.81459C6.1875 8.71513 6.14799 8.61975 6.07767 8.54942C6.00734 8.47909 5.91196 8.43958 5.8125 8.43958H5.0625V3.56448C5.06271 3.36563 5.1418 3.17499 5.2824 3.03438C5.42301 2.89377 5.61365 2.81468 5.8125 2.81447H20.0625C20.2613 2.81468 20.452 2.89377 20.5926 3.03438C20.7332 3.17499 20.8123 3.36563 20.8125 3.56448V8.43958H20.0625C19.963 8.43958 19.8677 8.47909 19.7973 8.54942C19.727 8.61975 19.6875 8.71513 19.6875 8.81459C19.6875 8.91405 19.727 9.00943 19.7973 9.07976C19.8677 9.15009 19.963 9.1896 20.0625 9.1896H20.8125V13.4393C21.0696 13.5272 21.3203 13.6331 21.5625 13.7562V3.56448C21.562 3.16679 21.4039 2.78552 21.1227 2.5043C20.8415 2.22309 20.4602 2.06491 20.0625 2.06445H5.8125C5.41481 2.06491 5.03355 2.22309 4.75234 2.5043C4.47114 2.78552 4.31296 3.16679 4.3125 3.56448V20.4398Z" fill="#282828"/>
<path d="M13.875 18.9383C13.875 19.9396 14.1719 20.9184 14.7282 21.751C15.2845 22.5835 16.0751 23.2324 17.0002 23.6156C17.9252 23.9987 18.9431 24.099 19.9251 23.9037C20.9072 23.7083 21.8092 23.2262 22.5172 22.5181C23.2252 21.8101 23.7074 20.908 23.9027 19.926C24.0981 18.944 23.9978 17.926 23.6146 17.001C23.2315 16.0759 22.5826 15.2852 21.7501 14.7289C20.9176 14.1726 19.9388 13.8757 18.9375 13.8757C17.5953 13.8773 16.3085 14.4111 15.3595 15.3602C14.4104 16.3093 13.8765 17.5961 13.875 18.9383ZM23.25 18.9383C23.25 19.7913 22.9971 20.6251 22.5232 21.3343C22.0493 22.0435 21.3758 22.5962 20.5878 22.9226C19.7998 23.2491 18.9327 23.3345 18.0962 23.1681C17.2596 23.0017 16.4912 22.5909 15.8881 21.9878C15.285 21.3847 14.8743 20.6162 14.7079 19.7797C14.5415 18.9431 14.6269 18.076 14.9533 17.288C15.2797 16.5 15.8324 15.8264 16.5416 15.3525C17.2508 14.8787 18.0846 14.6257 18.9375 14.6257C20.0809 14.627 21.177 15.0818 21.9855 15.8903C22.794 16.6988 23.2487 17.795 23.25 18.9383Z" fill="#282828"/>
<path d="M18.8315 16.6202H18.7112C18.5113 16.6122 18.3119 16.6453 18.1254 16.7176C17.9388 16.7898 17.7691 16.8996 17.6267 17.0401C17.3824 17.2917 17.2471 17.6294 17.25 17.9801C17.25 18.6664 17.7519 19.3611 18.7112 19.3611H19.1608C19.6879 19.3611 19.8751 19.6884 19.8751 19.9688C19.8751 20.2838 19.6542 20.6016 19.1608 20.6016H17.9012C17.8017 20.6016 17.7063 20.6411 17.636 20.7114C17.5657 20.7818 17.5262 20.8772 17.5262 20.9766C17.5262 21.0761 17.5657 21.1715 17.636 21.2418C17.7063 21.3121 17.8017 21.3516 17.9012 21.3516H18.8315V21.9396C18.8315 22.039 18.871 22.1344 18.9414 22.2048C19.0117 22.2751 19.1071 22.3146 19.2065 22.3146C19.306 22.3146 19.4014 22.2751 19.4717 22.2048C19.542 22.1344 19.5815 22.039 19.5815 21.9396V21.2984C19.8789 21.225 20.1432 21.0543 20.3323 20.8133C20.5214 20.5724 20.6244 20.2751 20.625 19.9688C20.625 19.2941 20.1221 18.6111 19.1608 18.6111H18.7112C18.22 18.6111 18 18.2942 18 17.9801C18 17.6988 18.1863 17.3702 18.7112 17.3702H19.9706C20.0701 17.3702 20.1655 17.3307 20.2358 17.2603C20.3061 17.19 20.3456 17.0946 20.3456 16.9952C20.3456 16.8957 20.3061 16.8003 20.2358 16.73C20.1655 16.6597 20.0701 16.6202 19.9706 16.6202H19.5815V15.9395C19.5815 15.84 19.542 15.7446 19.4717 15.6743C19.4014 15.604 19.306 15.5645 19.2065 15.5645C19.1071 15.5645 19.0117 15.604 18.9414 15.6743C18.871 15.7446 18.8315 15.84 18.8315 15.9395L18.8315 16.6202Z" fill="#282828"/>
</svg>
