<svg width="24" height="24" viewBox="0 0 24 24" fill="none" xmlns="http://www.w3.org/2000/svg">
<rect width="24" height="24" rx="8" fill="#FF7A00" fill-opacity="0.1"/>
<path d="M12.508 17.9672C12.7141 18.0152 12.733 18.2851 12.5323 18.352L11.3473 18.742C8.36977 19.702 6.80227 18.8995 5.83477 15.922L4.87477 12.9595C3.91477 9.98195 4.70977 8.40695 7.68727 7.44695L7.82627 7.40092C8.22913 7.26751 8.62706 7.67374 8.5214 8.08476C8.50313 8.15584 8.4851 8.22823 8.46727 8.30195L7.73227 11.4445C6.90727 14.977 8.11477 16.927 11.6473 17.767L12.508 17.9672Z" fill="#FF7A00"/>
<path d="M15.8776 5.40836L14.6251 5.11586C12.1201 4.52336 10.6276 5.01086 9.75013 6.82586C9.52513 7.28336 9.34513 7.83836 9.19513 8.47586L8.46013 11.6184C7.72513 14.7534 8.69263 16.2984 11.8201 17.0409L13.0801 17.3409C13.5151 17.4459 13.9201 17.5134 14.2951 17.5434C16.6351 17.7684 17.8801 16.6734 18.5101 13.9659L19.2451 10.8309C19.9801 7.69586 19.0201 6.14336 15.8776 5.40836ZM14.4676 12.9984C14.4001 13.2534 14.1751 13.4184 13.9201 13.4184C13.8751 13.4184 13.8301 13.4109 13.7776 13.4034L11.5951 12.8484C11.2951 12.7734 11.1151 12.4659 11.1901 12.1659C11.2651 11.8659 11.5726 11.6859 11.8726 11.7609L14.0551 12.3159C14.3626 12.3909 14.5426 12.6984 14.4676 12.9984ZM16.6651 10.4634C16.5976 10.7184 16.3726 10.8834 16.1176 10.8834C16.0726 10.8834 16.0276 10.8759 15.9751 10.8684L12.3376 9.94586C12.0376 9.87086 11.8576 9.56336 11.9326 9.26336C12.0076 8.96336 12.3151 8.78336 12.6151 8.85836L16.2526 9.78086C16.5601 9.84836 16.7401 10.1559 16.6651 10.4634Z" fill="#FF7A00"/>
</svg>
