<svg width="65" height="48" viewBox="0 0 65 48" fill="none" xmlns="http://www.w3.org/2000/svg">
<path d="M0.5 20C0.5 15.2718 0.501062 11.776 0.861658 9.09391C1.22032 6.42621 1.9264 4.63857 3.28249 3.28249C4.63857 1.9264 6.42621 1.22032 9.09391 0.861658C11.776 0.501062 15.2718 0.5 20 0.5H45.5V47.5H16C12.2146 47.5 9.4259 47.4989 7.28845 47.2116C5.16538 46.9261 3.75989 46.3665 2.6967 45.3033C1.63351 44.2401 1.07387 42.8346 0.788435 40.7116C0.501062 38.5741 0.5 35.7854 0.5 32V20Z" fill="white"/>
<path d="M0.5 20C0.5 15.2718 0.501062 11.776 0.861658 9.09391C1.22032 6.42621 1.9264 4.63857 3.28249 3.28249C4.63857 1.9264 6.42621 1.22032 9.09391 0.861658C11.776 0.501062 15.2718 0.5 20 0.5H45.5V47.5H16C12.2146 47.5 9.4259 47.4989 7.28845 47.2116C5.16538 46.9261 3.75989 46.3665 2.6967 45.3033C1.63351 44.2401 1.07387 42.8346 0.788435 40.7116C0.501062 38.5741 0.5 35.7854 0.5 32V20Z" stroke="#E3E3E3"/>
<g clip-path="url(#clip0_611_7349)">
<path fill-rule="evenodd" clip-rule="evenodd" d="M22.945 30.2951C22.945 29.8962 23.2683 29.5728 23.6672 29.5728H29.5005C29.8994 29.5728 30.2228 29.8962 30.2228 30.2951C30.2228 30.6939 29.8994 31.0173 29.5005 31.0173H23.6672C23.2683 31.0173 22.945 30.6939 22.945 30.2951Z" fill="#282828"/>
<path fill-rule="evenodd" clip-rule="evenodd" d="M13.7783 30.2951C13.7783 29.8962 14.1017 29.5728 14.5005 29.5728H20.3339C20.7327 29.5728 21.0561 29.8962 21.0561 30.2951C21.0561 30.6939 20.7327 31.0173 20.3339 31.0173H14.5005C14.1017 31.0173 13.7783 30.6939 13.7783 30.2951Z" fill="#282828"/>
<path fill-rule="evenodd" clip-rule="evenodd" d="M21.2783 23.9988C21.2783 23.5999 21.6017 23.2765 22.0005 23.2765L29.5005 23.2765C29.8994 23.2765 30.2228 23.5999 30.2228 23.9988C30.2228 24.3976 29.8994 24.721 29.5005 24.721H22.0005C21.6017 24.721 21.2783 24.3976 21.2783 23.9988Z" fill="#282828"/>
<path fill-rule="evenodd" clip-rule="evenodd" d="M13.7783 23.9988C13.7783 23.5999 14.1017 23.2765 14.5005 23.2765H18.6672C19.0661 23.2765 19.3894 23.5999 19.3894 23.9988C19.3894 24.3976 19.0661 24.721 18.6672 24.721H14.5005C14.1017 24.721 13.7783 24.3976 13.7783 23.9988Z" fill="#282828"/>
<path fill-rule="evenodd" clip-rule="evenodd" d="M24.6117 17.7025C24.6117 17.3036 24.935 16.9803 25.3339 16.9803L29.5005 16.9803C29.8994 16.9803 30.2228 17.3036 30.2228 17.7025C30.2228 18.1013 29.8994 18.4247 29.5005 18.4247L25.3339 18.4247C24.935 18.4247 24.6117 18.1013 24.6117 17.7025Z" fill="#282828"/>
<path fill-rule="evenodd" clip-rule="evenodd" d="M13.7783 17.7025C13.7783 17.3036 14.1017 16.9803 14.5005 16.9803L22.0005 16.9803C22.3994 16.9803 22.7228 17.3036 22.7228 17.7025C22.7228 18.1013 22.3994 18.4247 22.0005 18.4247L14.5005 18.4247C14.1017 18.4247 13.7783 18.1013 13.7783 17.7025Z" fill="#282828"/>
<path fill-rule="evenodd" clip-rule="evenodd" d="M23.6672 33.3784C23.2683 33.3784 22.945 33.0551 22.945 32.6562V27.934C22.945 27.5351 23.2683 27.2117 23.6672 27.2117C24.0661 27.2117 24.3894 27.5351 24.3894 27.934V32.6562C24.3894 33.0551 24.0661 33.3784 23.6672 33.3784Z" fill="#282828"/>
<path fill-rule="evenodd" clip-rule="evenodd" d="M18.6672 27.0821C18.2683 27.0821 17.945 26.7588 17.945 26.3599V21.6377C17.945 21.2388 18.2683 20.9154 18.6672 20.9154C19.0661 20.9154 19.3894 21.2388 19.3894 21.6377V26.3599C19.3894 26.7588 19.0661 27.0821 18.6672 27.0821Z" fill="#282828"/>
<path fill-rule="evenodd" clip-rule="evenodd" d="M25.3339 20.7858C24.935 20.7858 24.6117 20.4625 24.6117 20.0636V15.3414C24.6117 14.9425 24.935 14.6191 25.3339 14.6191C25.7327 14.6191 26.0561 14.9425 26.0561 15.3414V20.0636C26.0561 20.4625 25.7327 20.7858 25.3339 20.7858Z" fill="#282828"/>
</g>
<mask id="path-3-inside-1_611_7349" fill="white">
<path d="M46 0C54.4595 0 58.6892 0 61.4945 2.39594C61.8928 2.73617 62.2638 3.10717 62.6041 3.50552C65 6.31081 65 10.5405 65 19V32C65 39.5425 65 43.3137 62.6569 45.6569C60.3137 48 56.5425 48 49 48H46V0Z"/>
</mask>
<path d="M46 0C54.4595 0 58.6892 0 61.4945 2.39594C61.8928 2.73617 62.2638 3.10717 62.6041 3.50552C65 6.31081 65 10.5405 65 19V32C65 39.5425 65 43.3137 62.6569 45.6569C60.3137 48 56.5425 48 49 48H46V0Z" fill="white"/>
<path d="M46 -1H55C61.0751 -1 66 3.92487 66 10H64C64 5.02944 59.9706 1 55 1H46V-1ZM66 40C66 44.9706 61.9706 49 57 49H46V47H57C60.866 47 64 43.866 64 40H66ZM46 48V0V48ZM55 -1C61.0751 -1 66 3.92487 66 10V40C66 44.9706 61.9706 49 57 49V47C60.866 47 64 43.866 64 40V10C64 5.02944 59.9706 1 55 1V-1Z" fill="#E3E3E3" mask="url(#path-3-inside-1_611_7349)"/>
<path fill-rule="evenodd" clip-rule="evenodd" d="M55.6338 26.7404L59.7465 22.5288C60.0845 22.1538 60.0845 21.6058 59.7465 21.2596C59.4085 20.9135 58.8451 20.9135 58.507 21.2596L55.0141 24.8365L51.493 21.2596C51.1549 20.9135 50.5915 20.9135 50.2535 21.2596C49.9155 21.6058 49.9155 22.1538 50.2535 22.5288L54.3944 26.7404C54.7324 27.0865 55.2676 27.0865 55.6338 26.7404Z" fill="#282828"/>
<defs>
<clipPath id="clip0_611_7349">
<rect width="18.8889" height="20" fill="white" transform="translate(12 33.4434) rotate(-90)"/>
</clipPath>
</defs>
</svg>
