<svg width="24" height="24" viewBox="0 0 24 24" fill="none" xmlns="http://www.w3.org/2000/svg">
<path d="M1.79724 3.46193V19.6068C1.79724 20.5249 2.54399 21.2716 3.46205 21.2716H19.607C20.525 21.2716 21.2718 20.5249 21.2718 19.6068V3.46193C21.2718 2.54386 20.525 1.79712 19.607 1.79712H3.46205C2.54399 1.79712 1.79724 2.54386 1.79724 3.46193ZM9.87955 19.4775C9.82014 19.531 9.74331 19.5628 9.66393 19.5628C9.58633 19.5628 9.51489 19.5326 9.46725 19.4801C8.74996 18.7625 8.36301 18.3034 7.80961 17.3044C7.24776 16.3028 6.9507 15.0741 6.9507 13.7507C6.9507 11.345 9.0086 9.388 11.5382 9.388C14.0678 9.388 16.1257 11.3453 16.1257 13.7507C16.1257 13.9125 15.999 14.039 15.8371 14.039C15.6753 14.039 15.5485 13.9125 15.5485 13.7507C15.5485 11.6633 13.7495 9.96522 11.5382 9.96522C9.32692 9.96522 7.52766 11.6633 7.52766 13.7507C7.52766 14.9735 7.80116 16.1044 8.31897 17.0211C8.84906 17.9738 9.21911 18.3938 9.88109 19.0644C9.98992 19.1789 9.99018 19.3612 9.87955 19.4775ZM16.8159 17.8012C16.7713 17.8657 16.7029 17.9092 16.623 17.9236C16.1388 18.0168 15.7173 18.0217 15.6374 18.0217C14.6673 18.0217 13.8228 17.7799 13.1272 17.3026C11.92 16.4844 11.1999 15.1566 11.1999 13.7507C11.1999 13.5888 11.3267 13.4621 11.4885 13.4621C11.6504 13.4621 11.7769 13.5888 11.7769 13.7507C11.7769 14.9704 12.4022 16.1187 13.4499 16.8229C14.0601 17.2355 14.7759 17.4363 15.6374 17.4363C15.8228 17.4363 16.1664 17.414 16.526 17.351C16.5447 17.3474 16.5624 17.3459 16.5793 17.3459C16.7175 17.3459 16.8361 17.448 16.8612 17.5889C16.8753 17.6639 16.8589 17.7389 16.8159 17.8012ZM15.8125 16.0636C14.4681 16.0636 13.3743 15.0224 13.3743 13.7422C13.3743 12.7804 12.5395 11.9978 11.5134 11.9978C10.4872 11.9978 9.65215 12.7804 9.65215 13.7422C9.65215 15.2032 10.2189 16.5699 11.2478 17.5907C12.0604 18.3945 12.8399 18.8355 14.0284 19.1643C14.1021 19.1838 14.1626 19.2299 14.2007 19.2949C14.2394 19.3618 14.2502 19.4422 14.2304 19.5162C14.1984 19.6624 14.0686 19.7379 13.9623 19.7379C13.9549 19.7379 13.9321 19.7367 13.8847 19.7249C12.5912 19.3669 11.738 18.8854 10.8445 18.0083C9.70362 16.8754 9.07493 15.3632 9.07493 13.7507C9.07493 12.4705 10.1687 11.4293 11.5131 11.4293C12.8576 11.4293 13.9513 12.4705 13.9513 13.7507C13.9513 14.7125 14.7861 15.4951 15.8123 15.4951C16.8384 15.4951 17.6733 14.7125 17.6733 13.7507C17.6733 10.5424 14.906 7.93216 11.5049 7.93216C9.08466 7.93216 6.87772 9.27865 5.88232 11.3627C5.54787 12.0572 5.37834 12.8608 5.37834 13.7507C5.37834 14.4129 5.43698 15.4498 5.9448 16.8032C5.97348 16.878 5.97118 16.9576 5.9384 17.0283C5.9069 17.0959 5.85107 17.1464 5.78142 17.1704C5.74505 17.1843 5.71176 17.1904 5.6777 17.1904C5.55939 17.1904 5.44953 17.1149 5.41061 17.0065C5.00625 15.9259 4.80983 14.8613 4.80983 13.7507C4.80983 12.7722 4.99626 11.8823 5.364 11.1061C6.45262 8.82256 8.86315 7.34674 11.5049 7.34674C15.2243 7.34674 18.2505 10.2157 18.2505 13.7422C18.2505 15.0224 17.157 16.0636 15.8125 16.0636ZM6.43008 4.76259C6.45236 4.68755 6.50076 4.62635 6.56734 4.59024C8.10616 3.75438 9.78147 3.33081 11.5467 3.33081C13.2978 3.33081 14.8292 3.71699 16.5122 4.58307C16.5816 4.61944 16.6323 4.67962 16.6548 4.7526C16.6766 4.82405 16.6689 4.90011 16.633 4.96643C16.5803 5.07194 16.486 5.13263 16.379 5.13263C16.3329 5.13263 16.2886 5.12111 16.2512 5.0996C14.6299 4.26348 13.2248 3.90803 11.5469 3.90803C9.86905 3.90803 8.28209 4.30855 6.84468 5.09832C6.80371 5.12059 6.75813 5.13237 6.71101 5.13237C6.60524 5.13237 6.50537 5.07373 6.45031 4.97949C6.416 4.91598 6.40831 4.83762 6.43034 4.76233L6.43008 4.76259ZM4.22006 9.04946C5.03314 7.90015 6.069 6.99693 7.29795 6.36594C8.56916 5.7101 10.0378 5.36362 11.5454 5.36362C13.053 5.36362 14.5065 5.70729 15.7708 6.35749C17.0028 6.99002 18.0382 7.8876 18.8492 9.02564C18.8945 9.08787 18.9119 9.16418 18.8989 9.24101C18.8858 9.3186 18.8436 9.38544 18.7801 9.42974C18.7288 9.4656 18.6694 9.48429 18.609 9.48429C18.5148 9.48429 18.4295 9.43947 18.3752 9.36162C17.6113 8.29196 16.6453 7.45456 15.504 6.87094C14.3142 6.26171 12.9413 5.9393 11.5339 5.9393C10.1264 5.9393 8.74381 6.26478 7.55558 6.87965C6.41318 7.46762 5.44492 8.31065 4.67743 9.38493C4.63031 9.46585 4.55246 9.50631 4.45669 9.50631C4.39779 9.50631 4.33863 9.48787 4.28613 9.45279C4.15604 9.36214 4.12634 9.18467 4.22006 9.04946Z" fill="#282828"/>
<path d="M0.27049 3.71792C0.128874 3.71792 0.0144043 3.60345 0.0144043 3.46184C0.0144043 1.56066 1.5609 0.0141602 3.46208 0.0141602C3.6037 0.0141602 3.71817 0.12863 3.71817 0.270246C3.71817 0.411861 3.6037 0.526331 3.46208 0.526331C1.84362 0.526331 0.526575 1.84338 0.526575 3.46184C0.526575 3.60345 0.412105 3.71792 0.27049 3.71792Z" fill="#282828"/>
<path d="M3.46208 23.0541C1.5609 23.0541 0.0144043 21.5076 0.0144043 19.6064C0.0144043 19.4648 0.128874 19.3503 0.27049 19.3503C0.412105 19.3503 0.526575 19.4648 0.526575 19.6064C0.526575 21.2249 1.84362 22.5419 3.46208 22.5419C3.6037 22.5419 3.71817 22.6564 3.71817 22.798C3.71817 22.9396 3.6037 23.0541 3.46208 23.0541Z" fill="#282828"/>
<path d="M19.6067 23.0541C19.4651 23.0541 19.3506 22.9396 19.3506 22.798C19.3506 22.6564 19.4651 22.5419 19.6067 22.5419C21.2251 22.5419 22.5422 21.2249 22.5422 19.6064C22.5422 19.4648 22.6566 19.3503 22.7983 19.3503C22.9399 19.3503 23.0543 19.4648 23.0543 19.6064C23.0543 21.5076 21.5078 23.0541 19.6067 23.0541Z" fill="#282828"/>
<path d="M22.7983 3.71792C22.6566 3.71792 22.5422 3.60345 22.5422 3.46184C22.5422 1.84338 21.2251 0.526331 19.6067 0.526331C19.4651 0.526331 19.3506 0.411861 19.3506 0.270246C19.3506 0.12863 19.4651 0.0141602 19.6067 0.0141602C21.5078 0.0141602 23.0543 1.56066 23.0543 3.46184C23.0543 3.60345 22.9399 3.71792 22.7983 3.71792Z" fill="#282828"/>
</svg>
