<svg width="24" height="24" viewBox="0 0 24 24" fill="none" xmlns="http://www.w3.org/2000/svg">
<path d="M13.9629 19.7377C13.9555 19.7377 13.9327 19.7364 13.8853 19.7246C12.5918 19.3666 11.7385 18.8852 10.845 18.0081C9.70418 16.8752 9.0755 15.363 9.0755 13.7504C9.0755 12.4703 10.1692 11.429 11.5137 11.429C12.8581 11.429 13.9519 12.4703 13.9519 13.7504C13.9519 14.7123 14.7867 15.4949 15.8128 15.4949C16.839 15.4949 17.6738 14.7123 17.6738 13.7504C17.6738 10.5422 14.9066 7.93191 11.5055 7.93191C9.08523 7.93191 6.87828 9.2784 5.88288 11.3624C5.54843 12.0569 5.3789 12.8605 5.3789 13.7504C5.3789 14.4127 5.43755 15.4495 5.94536 16.803C5.97405 16.8777 5.97174 16.9574 5.93896 17.0281C5.90746 17.0957 5.85164 17.1461 5.78198 17.1702C5.74562 17.184 5.71233 17.1902 5.67827 17.1902C5.55996 17.1902 5.4501 17.1146 5.41117 17.0063C5.00681 15.9256 4.81039 14.8611 4.81039 13.7504C4.81039 12.7719 4.99682 11.882 5.36456 11.1058C6.45318 8.82232 8.86371 7.3465 11.5055 7.3465C15.2249 7.3465 18.251 10.2154 18.251 13.742C18.251 15.0221 17.1573 16.0634 15.8128 16.0634C14.4684 16.0634 13.3747 15.0221 13.3747 13.742C13.3747 12.7801 12.5398 11.9975 11.5137 11.9975C10.4875 11.9975 9.65246 12.7801 9.65246 13.742C9.65246 15.2029 10.2192 16.5697 11.2481 17.5904C12.0607 18.3943 12.8402 18.8353 14.0287 19.1641C14.1025 19.1835 14.1629 19.2296 14.201 19.2947C14.2397 19.3615 14.2505 19.4419 14.2308 19.5159C14.1987 19.6622 14.0689 19.7377 13.9626 19.7377H13.9629ZM9.66398 19.5628C9.58639 19.5628 9.51494 19.5326 9.46731 19.4801C8.75001 18.7625 8.36307 18.3034 7.80967 17.3044C7.24781 16.3028 6.95076 15.0741 6.95076 13.7507C6.95076 11.345 9.00866 9.38801 11.5383 9.38801C14.0679 9.38801 16.1258 11.3453 16.1258 13.7507C16.1258 13.9125 15.999 14.039 15.8372 14.039C15.6753 14.039 15.5486 13.9125 15.5486 13.7507C15.5486 11.6633 13.7496 9.96523 11.5383 9.96523C9.32697 9.96523 7.52772 11.6633 7.52772 13.7507C7.52772 14.9735 7.80121 16.1044 8.31902 17.0211C8.84912 17.9738 9.21916 18.3938 9.88114 19.0645C9.98998 19.1789 9.98998 19.3613 9.87935 19.4775C9.81994 19.531 9.74337 19.5628 9.66398 19.5628ZM15.6374 18.0214C14.6674 18.0214 13.8228 17.7797 13.1273 17.3023C11.9201 16.4841 11.2 15.1563 11.2 13.7504C11.2 13.5886 11.3267 13.4618 11.4886 13.4618C11.6504 13.4618 11.7769 13.5886 11.7769 13.7504C11.7769 14.9702 12.4023 16.1184 13.4499 16.8227C14.0602 17.2352 14.776 17.436 15.6374 17.436C15.8228 17.436 16.1665 17.4137 16.526 17.3507C16.5447 17.3471 16.5624 17.3456 16.5793 17.3456C16.7176 17.3456 16.8362 17.4478 16.8613 17.5886C16.8753 17.6637 16.859 17.7387 16.8159 17.8009C16.7714 17.8655 16.703 17.909 16.6231 17.9233C16.1388 18.0165 15.7173 18.0214 15.6374 18.0214ZM4.45674 9.50658C4.39784 9.50658 4.33868 9.48814 4.28619 9.45306C4.1561 9.3624 4.12639 9.18468 4.22012 9.04947C5.03319 7.90015 6.06905 6.99694 7.29801 6.36595C8.56921 5.71011 10.0379 5.36363 11.5454 5.36363C13.053 5.36363 14.5066 5.70729 15.7708 6.3575C17.0029 6.99003 18.0382 7.88761 18.8493 9.02565C18.8946 9.08788 18.912 9.16419 18.8989 9.24102C18.8859 9.31861 18.8436 9.38545 18.7801 9.42975C18.7289 9.4656 18.6695 9.4843 18.609 9.4843C18.5148 9.4843 18.4295 9.43948 18.3752 9.36163C17.6113 8.29196 16.6454 7.45457 15.504 6.87095C14.3142 6.26172 12.9414 5.93931 11.5339 5.93931C10.1265 5.93931 8.74387 6.26479 7.55563 6.87965C6.41323 7.46763 5.44497 8.31066 4.67749 9.38494C4.63037 9.46586 4.55252 9.50658 4.45674 9.50658ZM16.3791 5.13264C16.333 5.13264 16.2887 5.12112 16.2513 5.0996C14.63 4.26349 13.2248 3.90804 11.547 3.90804C9.8691 3.90804 8.28214 4.30856 6.84474 5.09832C6.80376 5.1206 6.75818 5.13238 6.71106 5.13238C6.6053 5.13238 6.50542 5.07374 6.45036 4.9795C6.41605 4.91599 6.40837 4.83763 6.43039 4.76234C6.45267 4.68731 6.50107 4.6261 6.56765 4.58999C8.10647 3.75413 9.78178 3.33057 11.547 3.33057C13.2981 3.33057 14.8295 3.71674 16.5125 4.58282C16.5819 4.61919 16.6326 4.67937 16.6551 4.75235C16.6769 4.8238 16.6692 4.89986 16.6333 4.96618C16.5806 5.07169 16.4863 5.13238 16.3793 5.13238L16.3791 5.13264Z" fill="#282828"/>
<path d="M0.27049 3.71792C0.128874 3.71792 0.0144043 3.60345 0.0144043 3.46184C0.0144043 1.56066 1.5609 0.0141602 3.46208 0.0141602C3.6037 0.0141602 3.71817 0.12863 3.71817 0.270246C3.71817 0.411861 3.6037 0.526331 3.46208 0.526331C1.84362 0.526331 0.526575 1.84338 0.526575 3.46184C0.526575 3.60345 0.412105 3.71792 0.27049 3.71792Z" fill="#282828"/>
<path d="M3.46208 23.0541C1.5609 23.0541 0.0144043 21.5076 0.0144043 19.6064C0.0144043 19.4648 0.128874 19.3503 0.27049 19.3503C0.412105 19.3503 0.526575 19.4648 0.526575 19.6064C0.526575 21.2249 1.84362 22.5419 3.46208 22.5419C3.6037 22.5419 3.71817 22.6564 3.71817 22.798C3.71817 22.9396 3.6037 23.0541 3.46208 23.0541Z" fill="#282828"/>
<path d="M19.6067 23.0541C19.4651 23.0541 19.3506 22.9396 19.3506 22.798C19.3506 22.6564 19.4651 22.5419 19.6067 22.5419C21.2251 22.5419 22.5422 21.2249 22.5422 19.6064C22.5422 19.4648 22.6566 19.3503 22.7983 19.3503C22.9399 19.3503 23.0543 19.4648 23.0543 19.6064C23.0543 21.5076 21.5078 23.0541 19.6067 23.0541Z" fill="#282828"/>
<path d="M22.7983 3.71792C22.6566 3.71792 22.5422 3.60345 22.5422 3.46184C22.5422 1.84338 21.2251 0.526331 19.6067 0.526331C19.4651 0.526331 19.3506 0.411861 19.3506 0.270246C19.3506 0.12863 19.4651 0.0141602 19.6067 0.0141602C21.5078 0.0141602 23.0543 1.56066 23.0543 3.46184C23.0543 3.60345 22.9399 3.71792 22.7983 3.71792Z" fill="#282828"/>
<path d="M19.6068 21.7835H3.46214C2.26161 21.7835 1.28516 20.8071 1.28516 19.6065V3.46189C1.28516 2.26137 2.26161 1.28491 3.46214 1.28491H19.607C20.8076 1.28491 21.784 2.26137 21.784 3.46189V19.6068C21.784 20.8073 20.8076 21.7838 19.607 21.7838L19.6068 21.7835ZM3.46214 1.79708C2.54407 1.79708 1.79733 2.54383 1.79733 3.46189V19.6068C1.79733 20.5249 2.54407 21.2716 3.46214 21.2716H19.607C20.5251 21.2716 21.2719 20.5249 21.2719 19.6068V3.46189C21.2719 2.54383 20.5251 1.79708 19.607 1.79708H3.46214Z" fill="#282828"/>
</svg>
