<svg width="28" height="28" viewBox="0 0 28 28" fill="none" xmlns="http://www.w3.org/2000/svg">
<rect width="28" height="28" rx="8" fill="#FF7A00" fill-opacity="0.1"/>
<path d="M14.593 20.9624C14.8334 21.0183 14.8555 21.3332 14.6213 21.4112L13.2388 21.8662C9.76505 22.9862 7.9363 22.05 6.80755 18.5762L5.68755 15.12C4.56755 11.6462 5.49505 9.80874 8.9688 8.68874L9.3003 8.57896C9.70317 8.44554 10.0977 8.85054 9.98735 9.26031C9.9503 9.39783 9.91423 9.5398 9.8788 9.68624L9.0213 13.3525C8.0588 17.4737 9.46755 19.7487 13.5888 20.7287L14.593 20.9624Z" fill="#FF7A00"/>
<path d="M18.5239 6.30876L17.0627 5.96751C14.1402 5.27626 12.3989 5.84501 11.3752 7.96251C11.1127 8.49626 10.9027 9.14376 10.7277 9.88751L9.87016 13.5538C9.01266 17.2113 10.1414 19.0138 13.7902 19.88L15.2602 20.23C15.7677 20.3525 16.2402 20.4313 16.6777 20.4663C19.4077 20.7288 20.8602 19.4513 21.5952 16.2925L22.4527 12.635C23.3102 8.97751 22.1902 7.16626 18.5239 6.30876ZM16.8789 15.1638C16.8002 15.4613 16.5377 15.6538 16.2402 15.6538C16.1877 15.6538 16.1352 15.645 16.0739 15.6363L13.5277 14.9888C13.1777 14.9013 12.9677 14.5425 13.0552 14.1925C13.1427 13.8425 13.5014 13.6325 13.8514 13.72L16.3977 14.3675C16.7564 14.455 16.9664 14.8138 16.8789 15.1638ZM19.4427 12.2063C19.3639 12.5038 19.1014 12.6963 18.8039 12.6963C18.7514 12.6963 18.6989 12.6875 18.6377 12.6788L14.3939 11.6025C14.0439 11.515 13.8339 11.1563 13.9214 10.8063C14.0089 10.4563 14.3677 10.2463 14.7177 10.3338L18.9614 11.41C19.3202 11.4888 19.5302 11.8475 19.4427 12.2063Z" fill="#FF7A00"/>
</svg>
