<svg width="30" height="19" viewBox="0 0 30 19" fill="none" xmlns="http://www.w3.org/2000/svg">
<path fill-rule="evenodd" clip-rule="evenodd" d="M28.33 18.3963H1.67032C1.22753 18.396 0.802938 18.22 0.48977 17.907C0.176602 17.594 0.000454159 17.1694 0 16.7266V5.66602H30V16.726C29.9995 17.1688 29.8234 17.5935 29.5103 17.9067C29.1972 18.2199 28.7729 18.3957 28.33 18.3963ZM10.798 14.5601C10.798 14.4491 10.7762 14.3392 10.7337 14.2367C10.6913 14.1341 10.6291 14.0409 10.5506 13.9624C10.4721 13.8839 10.379 13.8217 10.2764 13.7792C10.1739 13.7367 10.064 13.7148 9.95302 13.7148H3.45621C3.34384 13.7126 3.23215 13.7328 3.12768 13.7742C3.0232 13.8156 2.92805 13.8775 2.84778 13.9562C2.76751 14.0348 2.70374 14.1287 2.66021 14.2323C2.61668 14.336 2.59425 14.4472 2.59425 14.5596C2.59425 14.672 2.61668 14.7833 2.66021 14.8869C2.70374 14.9905 2.76751 15.0844 2.84778 15.1631C2.92805 15.2417 3.0232 15.3036 3.12768 15.345C3.23215 15.3865 3.34384 15.4066 3.45621 15.4044H9.95234C10.0634 15.4044 10.1734 15.3825 10.276 15.34C10.3786 15.2974 10.4718 15.2351 10.5503 15.1566C10.6288 15.078 10.691 14.9847 10.7335 14.8821C10.7759 14.7795 10.7977 14.6695 10.7976 14.5584L10.798 14.5601ZM14.7329 10.1366C14.733 10.0255 14.7113 9.91553 14.6689 9.8129C14.6265 9.71027 14.5642 9.617 14.4858 9.53843C14.4073 9.45987 14.3141 9.39754 14.2115 9.35501C14.1089 9.31248 13.999 9.2906 13.8879 9.2906H3.45655C3.23246 9.2906 3.01755 9.37962 2.85909 9.53807C2.70064 9.69653 2.61162 9.91144 2.61162 10.1355C2.61162 10.3596 2.70064 10.5745 2.85909 10.733C3.01755 10.8914 3.23246 10.9805 3.45655 10.9805H13.8876C14.1113 10.9802 14.3258 10.8914 14.4842 10.7334C14.6425 10.5755 14.732 10.3613 14.7329 10.1376V10.1366Z" fill="#282828"/>
<path d="M28.3297 0H1.66998C1.22731 0.000362961 0.802853 0.17633 0.489769 0.489285C0.176686 0.802241 0.000544796 1.22662 0 1.6693V3.97778H29.9993V1.67032C29.999 1.22756 29.823 0.803019 29.5099 0.489871C29.1969 0.176722 28.7724 0.000544796 28.3297 0Z" fill="#E51C39"/>
</svg>
