<svg width="37" height="32" viewBox="0 0 37 32" fill="none" xmlns="http://www.w3.org/2000/svg">
<path d="M16.6956 1C16.6956 0.447715 17.1433 0 17.6956 0H18.4782C19.0304 0 19.4782 0.447715 19.4782 1V32H16.6956V1Z" fill="white"/>
<path d="M11.1304 14.913C11.1304 14.3607 11.5781 13.913 12.1304 13.913H12.913C13.4653 13.913 13.913 14.3607 13.913 14.913V32H11.1304V14.913Z" fill="white"/>
<path d="M5.56519 7.95654C5.56519 7.40426 6.0129 6.95654 6.56519 6.95654H7.34779C7.90008 6.95654 8.34779 7.40426 8.34779 7.95654V32H5.56519V7.95654Z" fill="white"/>
<path d="M22.261 12.1304C22.261 11.5781 22.7087 11.1304 23.261 11.1304H24.0436C24.5959 11.1304 25.0436 11.5781 25.0436 12.1304V32H22.261V12.1304Z" fill="white"/>
<path d="M0 12.1304C0 11.5781 0.447715 11.1304 1 11.1304H1.78261C2.33489 11.1304 2.78261 11.5781 2.78261 12.1304V32H0V12.1304Z" fill="white"/>
<path d="M27.8262 14.913C27.8262 14.3607 28.2739 13.913 28.8262 13.913H29.6088C30.1611 13.913 30.6088 14.3607 30.6088 14.913V32H27.8262V14.913Z" fill="white"/>
<path d="M33.3914 9.34784C33.3914 8.79555 33.8391 8.34784 34.3914 8.34784H35.174C35.7263 8.34784 36.174 8.79555 36.174 9.34784V32H33.3914V9.34784Z" fill="white"/>
</svg>
