<svg width="34" height="34" viewBox="0 0 34 34" fill="none" xmlns="http://www.w3.org/2000/svg">
<path d="M17.0001 0.9H17C13.8157 0.9 10.703 1.84425 8.05532 3.61334C5.40769 5.38243 3.34412 7.8969 2.12555 10.8388C0.906976 13.7807 0.588142 17.0179 1.20936 20.1409C1.83059 23.264 3.36396 26.1328 5.61559 28.3844C7.86721 30.636 10.736 32.1694 13.859 32.7906C16.9821 33.4119 20.2193 33.093 23.1612 31.8745C26.1031 30.6559 28.6176 28.5923 30.3867 25.9447C32.1558 23.297 33.1 20.1843 33.1 17V16.9999C33.0952 12.7314 31.3975 8.6391 28.3792 5.62082C25.3609 2.60255 21.2686 0.904778 17.0001 0.9ZM28.7422 9.15411C30.2939 11.4765 31.1222 14.2068 31.1222 16.9999C31.1179 20.744 29.6287 24.3336 26.9812 26.9811C24.3336 29.6287 20.7441 31.1179 16.9999 31.1222C14.2068 31.1222 11.4765 30.2939 9.15412 28.7422C6.83173 27.1904 5.02165 24.9848 3.95277 22.4043C2.8839 19.8238 2.60423 16.9843 3.14914 14.2449C3.69405 11.5054 5.03906 8.98911 7.01409 7.01408C8.98911 5.03905 11.5055 3.69404 14.2449 3.14913C16.9843 2.60422 19.8238 2.88389 22.4043 3.95277C24.9848 5.02164 27.1904 6.83173 28.7422 9.15411Z" fill="#E3E3E3" stroke="#E3E3E3" stroke-width="0.2"/>
<path d="M18.4383 19.3259L18.9971 9.07521C19.0117 8.80805 18.9708 8.54077 18.877 8.28967C18.7832 8.03857 18.6385 7.80892 18.4516 7.61473C18.2647 7.42054 18.0396 7.26589 17.7901 7.1602C17.5405 7.05451 17.2717 7 17 7C16.7283 7 16.4595 7.05451 16.2099 7.1602C15.9604 7.26589 15.7353 7.42054 15.5484 7.61473C15.3615 7.80892 15.2168 8.03857 15.123 8.28967C15.0292 8.54077 14.9883 8.80805 15.0029 9.07521L15.5616 19.3259C15.5814 19.6885 15.7416 20.0297 16.0091 20.2795C16.2767 20.5292 16.6313 20.6684 17 20.6684C17.3686 20.6684 17.7233 20.5292 17.9908 20.2795C18.2584 20.0297 18.4186 19.6885 18.4383 19.3259Z" fill="#E3E3E3"/>
<path d="M16.2416 23.5377C16.4661 23.3899 16.7301 23.3111 17.0001 23.3111C17.3621 23.3111 17.7094 23.4527 17.9654 23.7049C18.2214 23.957 18.3652 24.299 18.3652 24.6555C18.3652 24.9215 18.2852 25.1814 18.1352 25.4025C17.9852 25.6236 17.7719 25.7959 17.5225 25.8977C17.273 25.9994 16.9986 26.026 16.7337 25.9742C16.4689 25.9223 16.2257 25.7942 16.0347 25.6062C15.8438 25.4182 15.7138 25.1786 15.6611 24.9178C15.6085 24.657 15.6355 24.3867 15.7388 24.141C15.8421 23.8954 16.0171 23.6854 16.2416 23.5377Z" fill="#E3E3E3"/>
</svg>
