<svg width="24" height="24" viewBox="0 0 24 24" fill="none" xmlns="http://www.w3.org/2000/svg">
<path d="M23.6187 17.3928H23.3001V12.8272C23.3001 12.7387 23.2639 12.6533 23.2 12.5908C23.1361 12.5283 23.0487 12.4939 22.9592 12.4939H20.7934V7.92508C20.7934 7.83654 20.7582 7.75217 20.6943 7.68967C20.6304 7.62717 20.543 7.59175 20.4525 7.59175H19.6364V2.57709C19.6364 2.48855 19.6002 2.40313 19.5363 2.34063C19.4724 2.27813 19.3861 2.24376 19.2955 2.24376H17.3428V0.333333C17.3428 0.244792 17.3065 0.160416 17.2426 0.0979173C17.1787 0.0354161 17.0924 0 17.0018 0H4.68438C4.59383 0 4.50754 0.0354161 4.44362 0.0979173L0.141891 4.30405C0.0779689 4.36655 0.041748 4.45092 0.041748 4.53946V21.4226C0.041748 21.5112 0.0779689 21.5966 0.141891 21.6591C0.205813 21.7216 0.292103 21.756 0.382657 21.756H2.3365V23.6664C2.3365 23.7549 2.37272 23.8393 2.43665 23.9018C2.50057 23.9643 2.58686 23.9997 2.67741 23.9997H19.2969C19.4844 23.9997 19.6367 23.8508 19.6367 23.6664V19.232H23.6191C23.7086 19.232 23.7959 19.1976 23.8598 19.1351C23.9238 19.0716 23.96 18.9872 23.96 18.8987V17.7258C23.96 17.6372 23.9238 17.5528 23.8598 17.4904C23.7959 17.4279 23.7086 17.3924 23.6191 17.3924L23.6187 17.3928ZM15.4412 13.1584H15.9974V14.2845L15.682 13.9761C15.5489 13.847 15.3326 13.847 15.1994 13.9761L14.8841 14.2845L14.8852 13.1584H15.4412ZM14.4143 15.3969C14.541 15.449 14.688 15.4199 14.785 15.3251L15.4391 14.6855L16.0954 15.3251C16.1934 15.4199 16.3393 15.449 16.4672 15.3969C16.595 15.3459 16.6781 15.224 16.677 15.0897V13.1584H17.6039L17.6049 17.3928H13.2765V13.1584H14.2033V15.0897C14.2033 15.224 14.2864 15.3459 14.4143 15.3969ZM22.6184 17.3928H18.2878V13.1584H19.2146V15.0896C19.2146 15.224 19.2977 15.3459 19.4256 15.3969C19.5534 15.449 19.6994 15.4198 19.7974 15.325L20.4536 14.6855L21.1099 15.325H21.1088C21.2068 15.4198 21.3528 15.449 21.4806 15.3969C21.6074 15.3459 21.6905 15.224 21.6905 15.0896V13.1584H22.6173L22.6184 17.3928ZM21.0098 13.1584V14.2844L20.6955 13.9761H20.6945C20.5613 13.8469 20.345 13.8469 20.2119 13.9761L19.8965 14.2844V13.1584H21.0098ZM20.1128 12.4917H15.7821V8.25839H16.709V10.1886C16.709 10.323 16.7921 10.4449 16.9199 10.4969C17.0467 10.548 17.1937 10.5198 17.2917 10.424L17.9458 9.78443L18.5999 10.424C18.6979 10.5198 18.845 10.548 18.9717 10.4969C19.0996 10.4448 19.1827 10.323 19.1827 10.1886V8.25839H20.1095L20.1128 12.4917ZM17.3908 8.25839H18.503V9.38444L18.1877 9.07612C18.1238 9.01362 18.0375 8.9782 17.9469 8.9782C17.8564 8.9782 17.7701 9.01362 17.7062 9.07612L17.3908 9.38444L17.3908 8.25839ZM18.9547 2.9104V7.59172H17.3429V2.9104H18.9547ZM4.34364 1.13853V4.20626H1.20618L4.34364 1.13853ZM0.72373 4.87293H4.68455C4.7751 4.87293 4.86246 4.83751 4.92638 4.77501C4.9903 4.71251 5.02546 4.62814 5.02546 4.53959V0.666799H16.6611V7.59186H15.4413C15.2527 7.59186 15.1004 7.74081 15.1004 7.92519V12.4919H12.9356C12.747 12.4919 12.5947 12.6419 12.5947 12.8252V17.3929H12.2772C12.0886 17.3929 11.9363 17.5419 11.9363 17.7262V18.8992C11.9363 18.9877 11.9714 19.0721 12.0354 19.1356C12.0993 19.1981 12.1866 19.2325 12.2772 19.2325H16.661V21.0898H0.723375L0.72373 4.87293ZM18.955 23.3334H3.01846V21.7563H17.002C17.0926 21.7563 17.1789 21.722 17.2428 21.6595C17.3067 21.597 17.3429 21.5116 17.3429 21.423V19.2324H18.9548L18.955 23.3334ZM23.2772 18.5657H12.6185V18.0595H23.2772V18.5657ZM6.31382 18.5376V19.3126C6.31382 19.4001 6.2776 19.4855 6.21368 19.548C6.14976 19.6105 6.06347 19.6459 5.97291 19.6459H3.13273C2.94523 19.6459 2.79182 19.4959 2.79182 19.3126V16.5376C2.79182 16.3533 2.94523 16.2043 3.13273 16.2043H5.04608C5.23464 16.2043 5.38698 16.3533 5.38698 16.5376C5.38698 16.721 5.23464 16.871 5.04608 16.871H3.47364V18.9793H5.62988L5.63094 18.5376C5.63094 18.3533 5.78328 18.2043 5.97185 18.2043C6.15935 18.2043 6.31276 18.3533 6.31276 18.5376L6.31382 18.5376ZM6.6217 16.5626C6.75487 16.6928 6.75487 16.9043 6.6217 17.0345L5.12702 18.4959C4.99385 18.6261 4.7776 18.6261 4.64443 18.4959L3.96899 17.8365C3.83583 17.7063 3.83583 17.4949 3.96899 17.3647C4.10216 17.2345 4.31735 17.2345 4.45052 17.3647L4.8841 17.7886L6.13908 16.5615V16.5626C6.27225 16.4324 6.48744 16.4334 6.62061 16.5626L6.6217 16.5626ZM2.79179 14.023V11.2481C2.79179 11.0637 2.9452 10.9148 3.1327 10.9148H5.04605C5.23461 10.9148 5.38696 11.0637 5.38696 11.2481C5.38696 11.4325 5.23461 11.5814 5.04605 11.5814H3.47361V13.6898H5.62985L5.63091 13.2491C5.63091 13.0648 5.78326 12.9158 5.97182 12.9158C6.15932 12.9158 6.31273 13.0648 6.31273 13.2491V14.0241V14.0231C6.31273 14.1116 6.27651 14.197 6.21259 14.2595C6.14867 14.322 6.06131 14.3564 5.97182 14.3564H3.13273C2.94523 14.3564 2.79179 14.2074 2.79179 14.023ZM6.62059 11.274C6.75375 11.4042 6.75375 11.6146 6.62059 11.7458L5.1259 13.2073C4.99274 13.3375 4.77649 13.3375 4.64331 13.2073L3.96894 12.5469C3.90289 12.4854 3.8656 12.4 3.86454 12.3104C3.86347 12.2208 3.8997 12.1354 3.96468 12.0719C4.02967 12.0083 4.11702 11.9729 4.20864 11.974C4.30026 11.975 4.38762 12.0115 4.45048 12.076L4.88406 12.5L6.13904 11.2729C6.27221 11.1437 6.48741 11.1438 6.62059 11.274ZM2.79179 8.7344V5.95947C2.79179 5.77509 2.9452 5.62613 3.1327 5.62613H5.04605C5.23461 5.62613 5.38696 5.77509 5.38696 5.95947C5.38696 6.14384 5.23461 6.2928 5.04605 6.2928H3.47361V8.40008H5.62985L5.63091 7.95947C5.63091 7.77613 5.78326 7.62613 5.97182 7.62613C6.15932 7.62613 6.31273 7.77613 6.31273 7.95947V8.73341C6.31273 8.82195 6.27651 8.90633 6.21259 8.96883C6.14867 9.03133 6.06238 9.06674 5.97182 9.06674H3.13273C2.94523 9.06674 2.79286 8.91773 2.79179 8.7344ZM6.62059 5.98429C6.75375 6.1145 6.75375 6.32595 6.62059 6.45616L5.1259 7.91762C5.06198 7.98012 4.97463 8.01554 4.88407 8.01554C4.79458 8.01554 4.70722 7.98012 4.64331 7.91762L3.96893 7.25824C3.83577 7.12803 3.83577 6.91658 3.96893 6.78637C4.1021 6.65616 4.31729 6.65616 4.45046 6.78637L4.88404 7.21032L6.13902 5.98323V5.98427C6.27219 5.8551 6.48741 5.85512 6.62059 5.98429ZM14.5924 6.22284C14.5924 6.31033 14.5572 6.39575 14.4933 6.45825C14.4294 6.52075 14.3421 6.55617 14.2515 6.55617H7.9744C7.78584 6.55617 7.63349 6.40617 7.63349 6.22284C7.63349 6.03846 7.78584 5.8895 7.9744 5.8895H14.2515C14.3421 5.8895 14.4294 5.92388 14.4933 5.98638C14.5573 6.04888 14.5924 6.13429 14.5924 6.22284ZM14.5913 8.50825L14.5924 8.5072C14.5924 8.59575 14.5572 8.68116 14.4933 8.74366C14.4294 8.80616 14.3421 8.84054 14.2515 8.84054H7.9744C7.78584 8.84054 7.63349 8.69158 7.63349 8.5072C7.63349 8.32387 7.78584 8.17387 7.9744 8.17387H14.2515C14.4401 8.17387 14.5924 8.32283 14.5924 8.50616L14.5913 8.50825ZM14.5924 11.5115C14.5924 11.6 14.5572 11.6844 14.4933 11.7469C14.4294 11.8094 14.3421 11.8448 14.2515 11.8448H7.9744C7.78584 11.8448 7.63349 11.6958 7.63349 11.5115C7.63349 11.3271 7.78584 11.1781 7.9744 11.1781H14.2515C14.3421 11.1781 14.4294 11.2136 14.4933 11.2761C14.5573 11.3386 14.5924 11.4229 14.5924 11.5115ZM10.7221 13.7969C10.7221 13.8854 10.6859 13.9698 10.622 14.0323C10.558 14.0948 10.4707 14.1302 10.3812 14.1302H7.9746C7.78603 14.1302 7.63369 13.9813 7.63369 13.7969C7.63369 13.6125 7.78603 13.4635 7.9746 13.4635H10.3812C10.4707 13.4635 10.558 13.499 10.622 13.5615C10.6859 13.624 10.7221 13.7083 10.7221 13.7969ZM10.7221 16.8001C10.7221 16.8886 10.6859 16.974 10.622 17.0365C10.558 17.099 10.4707 17.1334 10.3812 17.1334H7.9746C7.78603 17.1334 7.63369 16.9844 7.63369 16.8001C7.63369 16.6167 7.78603 16.4667 7.9746 16.4667H10.3812C10.5687 16.4667 10.721 16.6157 10.7221 16.8001ZM9.52361 19.0855C9.52361 19.174 9.48738 19.2584 9.42346 19.3209C9.35954 19.3834 9.27325 19.4188 9.1827 19.4188H7.9746C7.78603 19.4188 7.63369 19.2699 7.63369 19.0855C7.63369 18.9011 7.78603 18.7522 7.9746 18.7522H9.1827C9.27325 18.7522 9.35954 18.7876 9.42346 18.8501C9.48738 18.9126 9.52361 18.9969 9.52361 19.0855ZM6.54384 1.98761C6.54384 1.80324 6.69618 1.65428 6.88475 1.65428H14.2781C14.4656 1.65428 14.619 1.80324 14.619 1.98761C14.619 2.17199 14.4656 2.32095 14.2781 2.32095H6.88475C6.69618 2.32095 6.54384 2.17199 6.54384 1.98761ZM14.2781 4.15012H6.88475C6.69618 4.15012 6.54384 4.00012 6.54384 3.81679C6.54384 3.63241 6.69618 3.48345 6.88475 3.48345H14.2781C14.4656 3.48345 14.619 3.63241 14.619 3.81679C14.619 4.00012 14.4656 4.15012 14.2781 4.15012Z" fill="#282828"/>
</svg>
