<svg width="24" height="24" viewBox="0 0 24 24" fill="none" xmlns="http://www.w3.org/2000/svg">
<path fill-rule="evenodd" clip-rule="evenodd" d="M14.411 1.04587C14.509 1.04379 14.6027 1.0792 14.673 1.14587C14.7433 1.21254 14.7828 1.30316 14.7828 1.399C14.7828 1.49379 14.7433 1.58545 14.673 1.65212C14.6027 1.71879 14.509 1.7542 14.411 1.75212H6.58395C6.38899 1.74691 6.23238 1.58962 6.23238 1.399C6.23238 1.20733 6.38898 1.05108 6.58395 1.04588L14.411 1.04587ZM7.73759 19.8552C7.54156 19.85 7.38601 19.6937 7.38601 19.5021C7.38601 19.3115 7.54155 19.1552 7.73759 19.15H9.01706C9.21202 19.1552 9.36757 19.3115 9.36757 19.5021C9.36757 19.6937 9.21203 19.85 9.01706 19.8552H7.73759ZM7.73759 17.4354C7.54156 17.4302 7.38601 17.274 7.38601 17.0823C7.38601 16.8917 7.54155 16.7344 7.73759 16.7292H10.2859H10.2848C10.4809 16.7344 10.6364 16.8917 10.6364 17.0823C10.6364 17.274 10.4809 17.4302 10.2848 17.4354H7.73759ZM7.73759 14.2551C7.54156 14.2499 7.38601 14.0937 7.38601 13.902C7.38601 13.7114 7.54155 13.5541 7.73759 13.5489H10.2859H10.2848C10.4809 13.5541 10.6364 13.7114 10.6364 13.902C10.6364 14.0937 10.4809 14.2499 10.2848 14.2551H7.73759ZM7.73759 11.8354C7.54156 11.8302 7.38601 11.6739 7.38601 11.4822C7.38601 11.2916 7.54155 11.1343 7.73759 11.1291H14.3842C14.5792 11.1343 14.7347 11.2916 14.7347 11.4822C14.7347 11.6739 14.5792 11.8302 14.3842 11.8354H7.73759ZM7.73759 8.6551C7.54156 8.64989 7.38601 8.49364 7.38601 8.30198C7.38601 8.11135 7.54155 7.95406 7.73759 7.94886H14.3842C14.5792 7.95407 14.7347 8.11136 14.7347 8.30198C14.7347 8.49364 14.5792 8.6499 14.3842 8.6551H7.73759ZM7.73759 6.23531C7.54156 6.2301 7.38601 6.07385 7.38601 5.88219C7.38601 5.69157 7.54155 5.53427 7.73759 5.52907H14.3842C14.5792 5.53428 14.7347 5.69157 14.7347 5.88219C14.7347 6.07386 14.5792 6.23011 14.3842 6.23531H7.73759ZM3.89377 0.498777L0.57086 3.74784H3.89377V0.498777ZM23.9392 18.4156H12.654V18.952H23.9392V18.4156ZM19.3637 19.6583H17.657V21.9781C17.657 22.1729 17.4951 22.3312 17.2959 22.3312H2.48977V24H19.3637V19.6583ZM3.49531 18.1791C3.4282 18.1135 3.38985 18.0239 3.38985 17.9302C3.38985 17.8364 3.4282 17.7468 3.49531 17.6802C3.637 17.5427 3.865 17.5416 4.00668 17.6802L4.46584 18.1291L5.79326 16.8312V16.8302C5.93388 16.6927 6.16294 16.6927 6.30356 16.8312C6.44418 16.9687 6.44418 17.1916 6.30356 17.3302L4.72152 18.877V18.876C4.5809 19.0145 4.35184 19.0145 4.21122 18.876L3.49744 18.1781L3.49531 18.1791ZM5.25525 18.9218C5.25206 18.8271 5.28934 18.7343 5.35753 18.6666C5.42571 18.5979 5.51839 18.5593 5.6164 18.5593C5.71335 18.5593 5.8071 18.5979 5.87528 18.6666C5.9424 18.7343 5.97968 18.8271 5.97649 18.9218V19.7416C5.97755 19.8354 5.9392 19.926 5.87102 19.9916C5.8039 20.0583 5.71228 20.0948 5.6164 20.0948H2.61095C2.41173 20.0948 2.2498 19.9375 2.2498 19.7416V16.804C2.2498 16.6092 2.41174 16.4509 2.61095 16.4509H4.63617C4.73311 16.4478 4.82793 16.4842 4.89824 16.5509C4.96749 16.6176 5.00691 16.7082 5.00691 16.804C5.00691 16.8988 4.96749 16.9905 4.89824 17.0572C4.82793 17.1228 4.73311 17.1592 4.63617 17.1572H2.97209V19.3895H5.25512L5.25525 18.9218ZM3.49531 12.5792C3.4282 12.5136 3.38985 12.424 3.38985 12.3302C3.38985 12.2365 3.4282 12.1469 3.49531 12.0802C3.637 11.9427 3.865 11.9417 4.00668 12.0802L4.46584 12.5292L5.79326 11.2313C5.86038 11.1646 5.952 11.1271 6.04788 11.1271C6.14376 11.1271 6.23644 11.1646 6.30356 11.2302C6.37174 11.2969 6.40903 11.3865 6.40903 11.4802C6.40903 11.574 6.37068 11.6636 6.30356 11.7302L4.72152 13.2771V13.2761C4.5809 13.4146 4.35184 13.4146 4.21122 13.2761L3.49744 12.5781L3.49531 12.5792ZM5.25419 13.3219L5.25525 13.7896H2.97223V11.5573H4.6363C4.73324 11.5594 4.82806 11.5229 4.89837 11.4573C4.96762 11.3906 5.00704 11.299 5.00704 11.2042C5.00704 11.1083 4.96762 11.0177 4.89837 10.9511C4.82806 10.8844 4.73324 10.8479 4.6363 10.8511H2.61108C2.41186 10.8511 2.24993 11.0094 2.24993 11.2042V14.1418C2.24993 14.3376 2.41187 14.4949 2.61108 14.4949H5.61653C5.71241 14.4949 5.80403 14.4584 5.87115 14.3918C5.93933 14.3261 5.97768 14.2355 5.97662 14.1418V13.322C5.97129 13.1303 5.81149 12.9782 5.61654 12.9782C5.42051 12.9782 5.26071 13.1303 5.25539 13.322L5.25419 13.3219ZM3.49531 6.97923C3.4282 6.91361 3.38985 6.82402 3.38985 6.73027C3.38985 6.63652 3.4282 6.54694 3.49531 6.48027C3.637 6.34277 3.865 6.34173 4.00668 6.48027L4.46584 6.92923L5.79326 5.63131C5.93388 5.49381 6.16188 5.49381 6.3025 5.63131C6.44312 5.76881 6.44312 5.99174 6.30356 6.13027L4.72153 7.67715V7.67611C4.5809 7.81465 4.35184 7.81465 4.21123 7.67611L3.49744 6.97819L3.49531 6.97923ZM5.25419 7.72195L5.25525 8.18966H2.97223V5.95736H4.6363C4.73324 5.95945 4.82806 5.92299 4.89837 5.85736C4.96762 5.7907 5.00704 5.69903 5.00704 5.60424C5.00704 5.5084 4.96762 5.41778 4.89837 5.35111C4.82806 5.28445 4.73324 5.24799 4.6363 5.25111H2.61108C2.41186 5.25111 2.24993 5.40945 2.24993 5.60423V8.54183C2.24993 8.73767 2.41187 8.89495 2.61108 8.89495H5.61653C5.71241 8.89495 5.80403 8.85849 5.87115 8.79183C5.93933 8.7262 5.97768 8.63558 5.97662 8.54183V7.72204C5.97129 7.53037 5.81149 7.37828 5.61654 7.37828C5.42051 7.37828 5.26071 7.53036 5.25539 7.72204L5.25419 7.72195ZM21.539 13.2273H20.3618V14.42L20.6953 14.0939V14.0929C20.8359 13.9554 21.0639 13.9554 21.2056 14.0929L21.539 14.419L21.539 13.2273ZM23.2425 13.2273V17.7097H18.6574V13.2273H19.6397V15.271C19.6397 15.4138 19.727 15.5429 19.8623 15.5971C19.9976 15.6523 20.1531 15.6221 20.2554 15.5211L20.95 14.8419L21.6414 15.519L21.6425 15.5179C21.7448 15.6211 21.9003 15.6523 22.0367 15.5981C22.172 15.544 22.2604 15.4148 22.2604 15.271V13.2273L23.2425 13.2273ZM16.2315 13.2273H15.0543V14.42L15.3878 14.0939V14.0929C15.5284 13.9554 15.7574 13.9554 15.8981 14.0929L16.2315 14.419L16.2315 13.2273ZM17.935 13.2273L17.936 17.7097H13.3509V13.2273H14.3332V15.271C14.3332 15.4138 14.4206 15.5429 14.5559 15.5971C14.6901 15.6523 14.8456 15.6221 14.949 15.5211L15.6436 14.8419L16.3361 15.5179C16.4394 15.62 16.5949 15.6523 16.7302 15.5971C16.8666 15.5429 16.955 15.4148 16.955 15.271V13.2273L17.935 13.2273ZM18.8842 8.03875L17.7081 8.03771V9.23043L18.0415 8.90438C18.1821 8.76688 18.4112 8.76688 18.5518 8.90438L18.8853 9.23043V8.03771L18.8842 8.03875ZM20.5877 8.03875L20.5887 12.5211H16.0045V8.03795H16.9867V10.0817L16.9857 10.0828C16.9857 10.2255 17.0741 10.3546 17.2083 10.4088C17.3436 10.463 17.4992 10.4328 17.6025 10.3317L18.2971 9.65359L18.9885 10.3307C19.0908 10.4328 19.2474 10.464 19.3827 10.4099C19.5191 10.3557 19.6075 10.2265 19.6075 10.0838V8.03796L20.5877 8.03875ZM17.657 7.33251H19.3636V2.37518H17.657V7.33251ZM15.6435 7.33251H16.9347V0.000244141H4.61502V4.10131C4.61502 4.2961 4.45309 4.45339 4.25494 4.45339H0.0606689V21.6243H16.9346V19.6587H12.2928C12.1969 19.6587 12.1053 19.6212 12.0371 19.5545C11.97 19.4889 11.9316 19.3993 11.9316 19.3056V18.0629C11.9316 17.8681 12.0935 17.7097 12.2928 17.7097H12.6294V12.8743C12.6294 12.7805 12.6667 12.6909 12.7349 12.6243C12.802 12.5586 12.8936 12.5211 12.9895 12.5211H15.2821V7.68568C15.2821 7.59193 15.3204 7.50234 15.3876 7.43568C15.4557 7.36901 15.5476 7.33251 15.6435 7.33251ZM14.4109 2.98264C14.5089 2.97952 14.6026 3.01598 14.6729 3.0816C14.7433 3.14827 14.7827 3.23993 14.7827 3.33473C14.7827 3.43056 14.7433 3.52223 14.6729 3.58785C14.6026 3.65452 14.5089 3.69098 14.4109 3.68785H6.58387C6.38891 3.68264 6.2323 3.52639 6.2323 3.33473C6.2323 3.14411 6.3889 2.98785 6.58387 2.98265L14.4109 2.98264Z" fill="#282828"/>
</svg>
