<svg width="20" height="18" viewBox="0 0 20 18" fill="none" xmlns="http://www.w3.org/2000/svg">
<g id="Group 1116601640">
<path id="Vector" d="M17.7275 5.67312H12.7274V2.70829C12.7267 2.10366 12.487 1.52401 12.061 1.09647C11.6349 0.668942 11.0572 0.428443 10.4547 0.427734H2.27275C1.6702 0.428443 1.09253 0.668942 0.666454 1.09647C0.240383 1.52401 0.000705757 2.10366 0 2.70829V8.18161C0.000705757 8.78623 0.240383 9.36589 0.666454 9.79342C1.09253 10.221 1.6702 10.4614 2.27275 10.4622V11.4152C2.2724 11.5952 2.32545 11.7712 2.42514 11.9209C2.52482 12.0705 2.66664 12.187 2.83252 12.2555C2.99907 12.3253 3.18258 12.3438 3.35963 12.3084C3.53667 12.2731 3.69921 12.1857 3.82647 12.0572C3.84274 12.0411 3.85766 12.0237 3.87108 12.0051L5.00248 10.4622H7.27282V13.427C7.27352 14.0316 7.5132 14.6113 7.93927 15.0388C8.36534 15.4663 8.94302 15.7068 9.54557 15.7075H14.5847L16.1757 17.3038C16.3029 17.4312 16.4648 17.518 16.6411 17.5531C16.8173 17.5882 17 17.5702 17.166 17.5012C17.3321 17.4321 17.474 17.3153 17.5739 17.1654C17.6738 17.0155 17.7271 16.8393 17.7272 16.6589V15.7075C18.3298 15.7068 18.9075 15.4663 19.3335 15.0388C19.7596 14.6113 19.9993 14.0316 20 13.427V7.95367C19.9994 7.34907 19.7597 6.76942 19.3337 6.34188C18.9077 5.91434 18.33 5.67383 17.7275 5.67312ZM4.77291 9.54994C4.70164 9.54993 4.63137 9.56675 4.56778 9.59904C4.50418 9.63132 4.44905 9.67817 4.40684 9.73579L3.18186 11.405V10.006C3.18186 9.88508 3.13397 9.76907 3.04872 9.68353C2.96348 9.59799 2.84786 9.54994 2.72731 9.54994H2.27275C1.91121 9.54955 1.56458 9.40526 1.30893 9.14874C1.05328 8.89221 0.909487 8.54439 0.909102 8.18161V2.70829C0.909487 2.3455 1.05328 1.99768 1.30893 1.74116C1.56458 1.48463 1.91121 1.34034 2.27275 1.33995H10.4547C10.8162 1.34034 11.1628 1.48463 11.4185 1.74116C11.6741 1.99768 11.8179 2.3455 11.8183 2.70829V5.67312H9.54557C9.06189 5.67441 8.59148 5.83195 8.20398 6.12242L6.77754 2.97563C6.74143 2.89589 6.6832 2.82828 6.60982 2.78086C6.53643 2.73344 6.451 2.70822 6.36371 2.70822C6.27643 2.70822 6.19099 2.73344 6.11761 2.78086C6.04423 2.82828 5.986 2.89589 5.94989 2.97563L3.67714 7.99284C3.62732 8.10301 3.62313 8.22851 3.6655 8.34178C3.70787 8.45504 3.79332 8.54679 3.90308 8.59685C3.96194 8.62393 4.02596 8.63787 4.09072 8.63772C4.17806 8.63775 4.26356 8.61253 4.337 8.56507C4.41043 8.51762 4.46868 8.44994 4.50478 8.37013L5.21 6.81328H7.51839L7.55064 6.88407C7.37083 7.21214 7.27534 7.58 7.27282 7.9544V9.54994H4.77291ZM7.10506 5.90106H5.62334L6.36371 4.26636L7.10506 5.90106ZM19.0911 13.427C19.0907 13.7898 18.9469 14.1375 18.6912 14.3941C18.4356 14.6506 18.089 14.7949 17.7275 14.7953H17.2729C17.2132 14.7953 17.1541 14.8071 17.0989 14.83C17.0438 14.8529 16.9937 14.8865 16.9515 14.9288C16.9092 14.9712 16.8758 15.0215 16.8529 15.0769C16.8301 15.1322 16.8184 15.1915 16.8184 15.2514V16.6589L15.0942 14.9289C15.0521 14.8865 15.002 14.8529 14.9469 14.83C14.8918 14.8071 14.8327 14.7953 14.773 14.7953H9.54557C9.18404 14.7949 8.83746 14.6506 8.58182 14.3941C8.32618 14.1375 8.18237 13.7898 8.18192 13.427V7.95367C8.1823 7.59089 8.3261 7.24307 8.58175 6.98655C8.8374 6.73002 9.18403 6.58573 9.54557 6.58534H17.7275C18.089 6.58573 18.4357 6.73002 18.6913 6.98655C18.947 7.24307 19.0908 7.59089 19.0911 7.95367V13.427Z" fill="#282828"/>
<path id="Vector_2" d="M11.0576 8.52262C11.5322 8.14167 12.2915 8.04643 12.8609 8.33214C13.7151 8.7131 14.4744 9.66548 13.905 10.4274C13.8101 10.5226 13.8101 10.6179 13.905 10.7131C13.9999 10.8083 14.0948 10.9036 14.1897 10.9988C14.2846 11.094 14.7592 10.6179 14.949 10.6179C15.1388 10.4274 15.4236 10.3321 15.6134 10.1417C15.7083 9.76071 15.6134 9.18929 15.6134 8.80833C15.0439 8.80833 15.0439 8.90357 14.6643 8.52262C14.5694 8.42738 14.4744 8.33214 14.3795 8.2369C14.7592 8.2369 15.0439 8.2369 15.4236 8.2369C15.8981 8.2369 16.3727 8.2369 16.7523 8.2369C17.0371 8.2369 17.2269 8.14167 17.4167 8.33214C17.6066 8.52262 17.7964 8.61786 17.9862 8.80833C17.7964 8.80833 16.3727 8.71309 16.4676 8.90357C16.4676 10.4274 16.4676 11.9512 16.4676 13.3798C16.3727 13.2845 16.2778 13.1893 16.1829 13.094C16.088 12.9988 15.8032 12.8083 15.7083 12.7131C15.7083 12.2369 15.7083 11.7607 15.7083 11.2845C15.7083 11.1893 15.1388 11.6655 15.0439 11.6655C14.8541 11.7607 14.7592 11.856 14.7592 12.1417C14.7592 12.4274 14.6643 12.6179 14.4744 12.8083C14.1897 13.1893 13.5253 13.475 12.9558 13.3798C11.8169 13.2845 10.9627 12.4274 10.2034 11.7607C10.1085 11.6655 10.2034 11.5702 10.2983 11.475C10.3932 11.475 10.3932 11.5702 10.4881 11.5702C10.9627 11.9512 11.3423 12.3321 11.8169 12.6179C12.6711 12.9988 13.7151 12.6179 13.905 11.7607C13.905 11.475 13.905 11.094 13.7151 10.9036C13.5253 10.7131 13.5253 10.8083 13.3355 10.9036C13.1457 10.9988 13.0508 10.9988 12.8609 11.094C12.766 11.094 12.6711 10.9988 12.6711 10.9036C11.9118 10.2369 12.3864 10.6179 12.8609 10.2369C13.3355 9.95119 13.5253 9.475 13.3355 8.99881C13.1457 8.80833 12.8609 8.80833 12.5762 8.80833C12.1016 8.80833 11.8169 9.09405 11.5322 9.28452C11.2474 9.18929 10.9627 8.99881 10.7729 8.80833C10.7729 8.7131 10.9627 8.61786 11.0576 8.52262Z" fill="#282828"/>
</g>
</svg>
