<svg width="19" height="18" viewBox="0 0 19 18" fill="none" xmlns="http://www.w3.org/2000/svg">
<g id="vuesax/outline/logout">
<g id="logout">
<path id="Vector" d="M7.07011 1.29617L7.16761 1.29617C10.4976 1.29617 12.1026 2.60867 12.3801 5.54867C12.4101 5.85617 12.1851 6.13367 11.8701 6.16367C11.5701 6.19367 11.2851 5.96117 11.2551 5.65367C11.0376 3.29867 9.92761 2.42117 7.16011 2.42117L7.06261 2.42117C4.01011 2.42117 2.93011 3.50117 2.93011 6.55367L2.93011 11.4437C2.93011 14.4962 4.01011 15.5762 7.06261 15.5762L7.16011 15.5762C9.94261 15.5762 11.0526 14.6837 11.2551 12.2837C11.2926 11.9762 11.5551 11.7437 11.8701 11.7737C12.1851 11.7962 12.4101 12.0737 12.3876 12.3812C12.1326 15.3662 10.5201 16.7012 7.16761 16.7012L7.07011 16.7012C3.38761 16.7012 1.81261 15.1262 1.81261 11.4437L1.81261 6.55367C1.81261 2.87117 3.38761 1.29617 7.07011 1.29617Z" fill="#EB4747"/>
<path id="Vector_2" d="M7.25016 8.4375L15.7852 8.4375C16.0927 8.4375 16.3477 8.6925 16.3477 9C16.3477 9.3075 16.0927 9.5625 15.7852 9.5625L7.25016 9.5625C6.94266 9.5625 6.68766 9.3075 6.68766 9C6.68766 8.6925 6.94266 8.4375 7.25016 8.4375Z" fill="#EB4747"/>
<path id="Vector_3" d="M14.1124 5.92414C14.2549 5.92414 14.3974 5.97664 14.5099 6.08914L17.0224 8.60164C17.2399 8.81914 17.2399 9.17914 17.0224 9.39664L14.5099 11.9091C14.2924 12.1266 13.9324 12.1266 13.7149 11.9091C13.4974 11.6916 13.4974 11.3316 13.7149 11.1141L15.8299 8.99914L13.7149 6.88414C13.4974 6.66664 13.4974 6.30664 13.7149 6.08914C13.8199 5.97664 13.9699 5.92414 14.1124 5.92414Z" fill="#EB4747"/>
</g>
</g>
</svg>
