<svg width="38" height="38" viewBox="0 0 38 38" fill="none" xmlns="http://www.w3.org/2000/svg">
<rect x="0.5" y="0.5" width="37" height="37" rx="7.5" stroke="#E3E3E3"/>
<path d="M15.2791 28C15.0186 28 14.7488 27.9356 14.507 27.8066C13.9767 27.5303 13.6512 26.9777 13.6512 26.3883V25.0805C10.8419 24.795 9 22.7503 9 19.8216V14.2957C9 11.1275 11.1488 9 14.3488 9H23.6512C26.8512 9 29 11.1275 29 14.2957V19.8216C29 22.9898 26.8512 25.1173 23.6512 25.1173H20.1442L16.1814 27.733C15.9116 27.908 15.5953 28 15.2791 28ZM14.3488 10.3723C11.9488 10.3723 10.3953 11.9103 10.3953 14.2865V19.8125C10.3953 22.1886 11.9488 23.7267 14.3488 23.7267C14.7302 23.7267 15.0465 24.0398 15.0465 24.4174V26.3792C15.0465 26.4989 15.1209 26.5541 15.1674 26.5817C15.214 26.6094 15.307 26.637 15.4093 26.5725L19.5489 23.8464C19.6605 23.7728 19.8 23.7267 19.9395 23.7267H23.6605C26.0605 23.7267 27.614 22.1886 27.614 19.8125V14.2865C27.614 11.9103 26.0605 10.3723 23.6605 10.3723H14.3488Z" fill="#282828"/>
<path d="M18.9996 18.5979C18.6183 18.5979 18.302 18.2847 18.302 17.9071V17.7138C18.302 16.6454 19.0927 16.1204 19.3903 15.9178C19.7345 15.6876 19.8461 15.531 19.8461 15.2916C19.8461 14.8311 19.4648 14.4534 18.9996 14.4534C18.5345 14.4534 18.1532 14.8311 18.1532 15.2916C18.1532 15.6692 17.8369 15.9823 17.4555 15.9823C17.0741 15.9823 16.7578 15.6692 16.7578 15.2916C16.7578 14.0666 17.7624 13.0719 18.9996 13.0719C20.2369 13.0719 21.2415 14.0666 21.2415 15.2916C21.2415 16.3415 20.4601 16.8664 20.1718 17.0598C19.809 17.2993 19.6973 17.4559 19.6973 17.7138V17.9071C19.6973 18.294 19.381 18.5979 18.9996 18.5979Z" fill="#282828"/>
<path d="M18.9985 20.8898C18.6078 20.8898 18.3008 20.5767 18.3008 20.1991C18.3008 19.8215 18.6171 19.5083 18.9985 19.5083C19.3799 19.5083 19.6961 19.8215 19.6961 20.1991C19.6961 20.5767 19.3892 20.8898 18.9985 20.8898Z" fill="#282828"/>
</svg>
