<svg width="20" height="20" viewBox="0 0 20 20" fill="none" xmlns="http://www.w3.org/2000/svg">
<g id="vuesax/outline/profile-2user">
<g id="profile-2user">
<g id="Group 1116601635">
<path id="Vector" d="M7.58174 9.78026C7.55826 9.78026 7.54261 9.78026 7.51914 9.78026C7.48001 9.77243 7.42524 9.77243 7.37829 9.78026C5.10912 9.70983 3.39551 7.9258 3.39551 5.72705C3.39551 3.48918 5.21867 1.66602 7.45654 1.66602C9.69441 1.66602 11.5176 3.48918 11.5176 5.72705C11.5097 7.9258 9.78831 9.70983 7.60521 9.78026C7.59738 9.78026 7.58956 9.78026 7.58174 9.78026ZM7.45654 2.83972C5.86812 2.83972 4.56922 4.13863 4.56922 5.72705C4.56922 7.29199 5.78987 8.55177 7.34699 8.60655C7.39394 8.59872 7.49566 8.59872 7.59739 8.60655C9.13103 8.53613 10.336 7.27634 10.3439 5.72705C10.3439 4.13863 9.04496 2.83972 7.45654 2.83972Z" fill="#282828"/>
<path id="Vector_2" d="M13.3565 9.88149C13.333 9.88149 13.3095 9.88149 13.2861 9.87366C12.9653 9.90496 12.6366 9.67804 12.6053 9.35723C12.574 9.03642 12.7696 8.7469 13.0905 8.70778C13.1844 8.69995 13.2861 8.69995 13.3721 8.69995C14.5146 8.63735 15.4066 7.69839 15.4066 6.54815C15.4066 5.35879 14.4441 4.39635 13.2548 4.39635C12.934 4.40418 12.6679 4.13814 12.6679 3.81732C12.6679 3.49651 12.934 3.23047 13.2548 3.23047C15.0858 3.23047 16.5803 4.72499 16.5803 6.55598C16.5803 8.35566 15.1718 9.81106 13.38 9.88149C13.3721 9.88149 13.3643 9.88149 13.3565 9.88149Z" fill="#282828"/>
<path id="Vector_3" d="M7.58982 18.3327C6.05618 18.3327 4.5147 17.9414 3.34882 17.159C2.26118 16.4391 1.6665 15.4532 1.6665 14.3812C1.6665 13.3092 2.26118 12.3155 3.34882 11.5878C5.69624 10.0306 9.49905 10.0306 11.8308 11.5878C12.9106 12.3076 13.5131 13.2936 13.5131 14.3655C13.5131 15.4375 12.9185 16.4313 11.8308 17.159C10.6571 17.9414 9.12347 18.3327 7.58982 18.3327ZM3.99827 12.5737C3.2471 13.0745 2.84021 13.7161 2.84021 14.389C2.84021 15.0541 3.25492 15.6957 3.99827 16.1887C5.94663 17.4954 9.23301 17.4954 11.1814 16.1887C11.9325 15.6879 12.3394 15.0463 12.3394 14.3734C12.3394 13.7083 11.9247 13.0666 11.1814 12.5737C9.23301 11.2748 5.94663 11.2748 3.99827 12.5737Z" fill="#282828"/>
<path id="Vector_4" d="M14.7651 16.9235C14.4913 16.9235 14.2487 16.7357 14.1939 16.454C14.1313 16.1332 14.3348 15.828 14.6478 15.7576C15.1407 15.6559 15.5946 15.4603 15.9467 15.1864C16.3927 14.8499 16.6352 14.4274 16.6352 13.9814C16.6352 13.5354 16.3927 13.1129 15.9545 12.7842C15.6102 12.5182 15.1798 12.3304 14.6712 12.213C14.3583 12.1426 14.1548 11.8296 14.2252 11.5088C14.2957 11.1958 14.6086 10.9924 14.9295 11.0628C15.6024 11.2115 16.1892 11.4775 16.6665 11.8453C17.3942 12.393 17.809 13.1676 17.809 13.9814C17.809 14.7952 17.3864 15.5698 16.6587 16.1254C16.1736 16.501 15.5633 16.7748 14.8903 16.9079C14.8434 16.9235 14.8043 16.9235 14.7651 16.9235Z" fill="#282828"/>
</g>
</g>
</g>
</svg>
