<svg width="20" height="20" viewBox="0 0 20 20" fill="none" xmlns="http://www.w3.org/2000/svg">
<g id="setting-2 3" clip-path="url(#clip0_813_41165)">
<g id="Group 1116601706">
<path id="Vector" d="M6.58284 9.28385C5.24951 9.28385 4.24951 8.20052 4.24951 6.95052C4.24951 5.61719 5.33284 4.61719 6.58284 4.61719C7.83284 4.61719 8.91618 5.70052 8.91618 6.95052C8.91618 7.20052 8.91618 7.45052 8.83285 7.61719C8.66618 8.03385 8.41618 8.45052 8.08284 8.78385C7.66618 9.11719 7.16618 9.28385 6.58284 9.28385ZM6.58284 5.70052C5.91618 5.70052 5.33285 6.28385 5.33285 6.95052C5.33285 7.61719 5.91618 8.20052 6.58284 8.20052C7.24951 8.20052 7.83284 7.61719 7.83284 6.95052C7.91618 6.28385 7.33284 5.70052 6.58284 5.70052Z" fill="#282828"/>
<path id="Vector_2" d="M4.66667 13.2018C4.41667 13.2018 4.16667 13.1185 3.91667 12.9518L2.91667 12.3685C2.5 12.1185 2.25 11.7852 2.08333 11.3685C2 10.9518 2 10.4518 2.25 10.1185C2.41667 9.86849 2.41667 9.61849 2.33333 9.45182C2.25 9.28516 2 9.20182 1.66667 9.20182C0.75 9.20182 0 8.45182 0 7.53516V6.45182C0 5.53516 0.75 4.78516 1.66667 4.78516C2.08333 4.70182 2.33333 4.61849 2.41667 4.53516C2.5 4.36849 2.41667 4.11849 2.33333 3.86849C2 3.45182 2 3.03516 2.08333 2.53516C2.16667 2.11849 2.5 1.70182 2.83333 1.53516L3.83333 0.951823C4.08333 0.785156 4.33333 0.785156 4.58333 0.785156C5.16667 0.785156 5.66667 1.11849 5.91667 1.53516L6 1.61849C6.25 1.86849 6.41667 2.03516 6.66667 2.03516C6.83333 2.03516 7 1.86849 7.16667 1.61849L7.25 1.53516C7.5 1.03516 8.08333 0.785156 8.58333 0.785156C8.83333 0.785156 9.16667 0.86849 9.33333 1.03516L10.3333 1.61849C10.75 1.86849 11 2.20182 11.0833 2.61849C11.25 3.03516 11.25 3.45182 11 3.86849C10.8333 4.11849 10.8333 4.36849 10.9167 4.53516C10.9167 4.61849 11.1667 4.70182 11.5 4.70182C12.4167 4.70182 13.1667 5.45182 13.1667 6.36849V7.45182C13.1667 7.53516 13.1667 7.53516 13.1667 7.61849C13.0833 8.28516 12.6667 8.86849 12 9.03516C11.8333 9.11849 11.6667 9.11849 11.4167 9.11849C11.0833 9.11849 10.8333 9.20182 10.75 9.36849C10.6667 9.53516 10.75 9.78516 10.8333 10.0352C11 10.3685 11.0833 10.7852 11 11.1185C11 11.2018 11 11.2018 11 11.2852C10.9167 11.7018 10.6667 12.0352 10.25 12.2852L9.16667 12.9518C8.91667 13.1185 8.66667 13.1185 8.41667 13.1185C8.25 13.1185 8.16667 13.1185 8 13.0352C7.75 12.9518 7.5 12.7852 7.25 12.6185C7.16667 12.5352 7.08333 12.4518 7 12.3685L6.91667 12.2852C6.75 12.0352 6.58333 11.8685 6.41667 11.8685C6.25 11.8685 6.08333 12.0352 5.91667 12.2852L5.83333 12.3685C5.66667 12.7018 5.33333 12.9518 4.91667 13.1185C4.91667 13.1185 4.83333 13.2018 4.66667 13.2018ZM6.58333 10.7852C6.83333 10.7852 7.08333 10.8685 7.25 10.9518C7.58333 11.1185 7.83333 11.3685 8 11.7018L8.08333 11.7852C8.16667 11.8685 8.16667 11.9518 8.33333 11.9518H8.41667H8.5C8.58333 11.9518 8.66667 11.9518 8.75 11.8685L9.83333 11.2852C10 11.2018 10.0833 11.0352 10.0833 10.9518C10.1667 10.7852 10.0833 10.6185 10 10.5352C9.66667 9.95182 9.58333 9.28516 9.91667 8.78516C10.1667 8.36849 10.5 8.11849 11.0833 8.03516C11.25 8.03516 11.4167 7.95182 11.5 7.95182C11.8333 7.95182 12.0833 7.70182 12.0833 7.36849V6.45182C12.0833 6.11849 11.8333 5.86849 11.5 5.86849C10.75 5.86849 10.1667 5.61849 9.91667 5.11849C9.66667 4.61849 9.66667 3.95182 10 3.36849C10.0833 3.20182 10.0833 3.03516 10.0833 2.95182C10.0833 2.78516 9.91667 2.70182 9.83333 2.61849L8.75 1.86849C8.66667 1.86849 8.58333 1.78516 8.5 1.78516C8.33333 1.78516 8.16667 1.86849 8.08333 2.03516L8 2.11849C7.75 2.78516 7.16667 3.11849 6.58333 3.11849C6 3.11849 5.5 2.78516 5.16667 2.11849L5.08333 2.03516C5 1.86849 4.83333 1.78516 4.66667 1.78516C4.58333 1.78516 4.58333 1.86849 4.5 1.86849L3.41667 2.45182C3.33333 2.53516 3.16667 2.70182 3.16667 2.86849C3.16667 3.03516 3.16667 3.20182 3.25 3.28516C3.58333 3.86849 3.58333 4.53516 3.33333 5.03516C3 5.53516 2.5 5.78516 1.75 5.78516C1.41667 5.78516 1.16667 6.03516 1.16667 6.36849V7.45182C1.16667 7.78516 1.41667 8.03516 1.75 8.03516C2.5 8.03516 3.08333 8.28516 3.33333 8.78516C3.58333 9.28516 3.58333 9.95182 3.25 10.5352C3.16667 10.7018 3.16667 10.7852 3.16667 10.9518C3.25 11.1185 3.33333 11.2018 3.41667 11.2852L4.41667 11.8685C4.5 11.8685 4.58333 11.9518 4.66667 11.9518H4.75C4.83333 11.9518 5 11.8685 5 11.7018L5.08333 11.6185C5.5 11.1185 6.08333 10.7852 6.58333 10.7852Z" fill="#282828"/>
<path id="Vector_3" d="M12.7498 15.3691C11.4165 15.3691 10.4165 14.2858 10.4165 13.0358L10.6665 12.8691C11.2498 12.5358 11.5832 12.0358 11.7498 11.4525C11.8332 11.2858 11.8332 11.0358 11.8332 10.7858C12.0832 10.7025 12.4165 10.6191 12.7498 10.6191C14.0832 10.6191 15.0832 11.7025 15.0832 12.9525C15.0832 14.3691 14.0832 15.3691 12.7498 15.3691ZM12.7498 11.7858C12.0832 11.7858 11.4998 12.3691 11.4998 13.0358C11.4998 13.7025 12.0832 14.2858 12.7498 14.2858C13.4165 14.2858 13.9998 13.7025 13.9998 13.0358C13.9998 12.3691 13.4998 11.7858 12.7498 11.7858Z" fill="#282828"/>
<path id="Vector_4" d="M14.667 19.2858C14.5837 19.2858 14.417 19.2858 14.2503 19.2025C13.8337 19.1191 13.5003 18.8691 13.3337 18.4525L13.2503 18.2858C13.0837 18.0358 12.917 17.8691 12.7503 17.8691C12.5837 17.8691 12.417 18.0358 12.2503 18.2858L12.167 18.3691C11.917 18.7025 11.5837 18.9525 11.2503 19.1191C11.0837 19.1191 11.0003 19.2025 10.8337 19.2025C10.5837 19.2025 10.3337 19.1191 10.0837 18.9525L9.08366 18.3691C8.66699 18.1191 8.41699 17.7858 8.25032 17.3691C8.16699 16.9525 8.16699 16.4525 8.41699 16.1191C8.58366 15.8691 8.58366 15.6191 8.50033 15.4525C8.41699 15.2858 8.16699 15.2025 7.83366 15.2025C6.91699 15.2025 6.16699 14.4525 6.16699 13.5358V13.0358C6.25033 12.9525 6.41699 12.7858 6.50033 12.6191C6.50033 12.6191 6.50033 12.5358 6.58366 12.5358C6.66699 12.5358 6.66699 12.6191 6.66699 12.6191C6.83366 13.0358 7.08366 13.2025 7.33366 13.3691V13.5358C7.33366 13.8691 7.58366 14.1191 7.91699 14.1191C8.66699 14.1191 9.25032 14.3691 9.50032 14.8691C9.75032 15.3691 9.75033 16.0358 9.41699 16.6191C9.33366 16.7858 9.33366 16.9525 9.33366 17.0358C9.33366 17.2025 9.50033 17.2858 9.58366 17.3691L10.667 17.9525C10.7503 18.0358 10.8337 18.0358 10.917 18.0358H11.0003C11.0837 18.0358 11.2503 17.9525 11.2503 17.7858L11.3337 17.7025C11.667 17.1191 12.2503 16.7025 12.8337 16.7025C13.417 16.7025 13.917 17.0358 14.2503 17.7025L14.3337 17.7858C14.417 17.8691 14.5003 17.9525 14.5837 17.9525C14.667 17.9525 14.667 17.9525 14.667 17.9525C14.7503 17.9525 14.8337 17.9525 14.917 17.8691L16.0003 17.2858C16.167 17.2025 16.2503 17.1191 16.2503 16.9525C16.2503 16.7858 16.2503 16.6191 16.167 16.5358C15.8337 15.9525 15.7503 15.2858 16.0837 14.7858C16.3337 14.2858 16.917 14.0358 17.667 14.0358C18.0003 14.0358 18.2503 13.7858 18.2503 13.4525V12.3691C18.2503 12.0358 18.0003 11.7858 17.667 11.7858C16.917 11.7858 16.417 11.5358 16.0837 11.0358C15.8337 10.5358 15.8337 9.86914 16.167 9.28581C16.2503 9.11914 16.2503 8.95247 16.2503 8.86914C16.2503 8.70247 16.0837 8.61914 16.0003 8.53581L15.0003 7.95247C14.917 7.95247 14.8337 7.86914 14.7503 7.86914C14.5837 7.86914 14.417 7.95247 14.3337 8.11914L14.2503 8.20247C13.917 8.70247 13.5003 9.11914 13.0003 9.20247C13.5003 8.78581 13.8337 8.11914 13.8337 7.45247V7.11914C14.0837 6.95247 14.417 6.86914 14.7503 6.86914C15.0003 6.86914 15.3337 6.95247 15.5003 7.11914L16.5003 7.70247C16.917 7.95247 17.167 8.28581 17.2503 8.70247C17.3337 9.11914 17.3337 9.61914 17.0837 9.95247C16.917 10.2025 16.917 10.4525 17.0003 10.6191C17.0837 10.7858 17.3337 10.8691 17.667 10.8691C18.5837 10.8691 19.3337 11.6191 19.3337 12.5358V13.6191C19.3337 14.5358 18.5837 15.2858 17.667 15.2858C17.3337 15.2858 17.0837 15.3691 17.0003 15.5358C16.917 15.7025 16.917 15.9525 17.0837 16.2025C17.3337 16.6191 17.3337 17.0358 17.2503 17.4525C17.167 17.8691 16.8337 18.2858 16.5003 18.4525L15.5003 19.0358C15.2503 19.2025 15.0003 19.2858 14.667 19.2858Z" fill="#282828"/>
</g>
</g>
<defs>
<clipPath id="clip0_813_41165">
<rect width="20" height="20" fill="white"/>
</clipPath>
</defs>
</svg>
