<svg width="30" height="30" viewBox="0 0 30 30" fill="none" xmlns="http://www.w3.org/2000/svg">
<rect width="29.2133" height="29.2133" rx="6.79379" fill="#256CD6"/>
<path d="M12.9756 14.7679C12.9564 14.7679 12.9437 14.7679 12.9246 14.7679C12.8927 14.7615 12.848 14.7615 12.8097 14.7679C10.9598 14.7105 9.56274 13.256 9.56274 11.4635C9.56274 9.63905 11.0491 8.15271 12.8735 8.15271C14.698 8.15271 16.1843 9.63905 16.1843 11.4635C16.1779 13.256 14.7745 14.7105 12.9947 14.7679C12.9883 14.7679 12.982 14.7679 12.9756 14.7679ZM12.8735 9.10958C11.5786 9.10958 10.5196 10.1685 10.5196 11.4635C10.5196 12.7393 11.5148 13.7664 12.7842 13.811C12.8225 13.8046 12.9054 13.8046 12.9883 13.811C14.2387 13.7536 15.221 12.7266 15.2274 11.4635C15.2274 10.1685 14.1685 9.10958 12.8735 9.10958Z" fill="white"/>
<path d="M17.6834 14.8509C17.6643 14.8509 17.6452 14.8509 17.626 14.8445C17.3645 14.87 17.0965 14.685 17.071 14.4235C17.0455 14.1619 17.205 13.9259 17.4665 13.894C17.5431 13.8876 17.626 13.8876 17.6962 13.8876C18.6275 13.8366 19.3548 13.0711 19.3548 12.1333C19.3548 11.1637 18.5701 10.3791 17.6005 10.3791C17.339 10.3855 17.1221 10.1686 17.1221 9.90702C17.1221 9.64548 17.339 9.42859 17.6005 9.42859C19.0932 9.42859 20.3116 10.647 20.3116 12.1397C20.3116 13.6069 19.1634 14.7934 17.7026 14.8509C17.6962 14.8509 17.6898 14.8509 17.6834 14.8509Z" fill="white"/>
<path d="M12.9818 21.7401C11.7315 21.7401 10.4748 21.4211 9.52435 20.7832C8.63765 20.1963 8.15283 19.3926 8.15283 18.5186C8.15283 17.6447 8.63765 16.8345 9.52435 16.2413C11.4381 14.9718 14.5384 14.9718 16.4393 16.2413C17.3197 16.8282 17.8109 17.6319 17.8109 18.5059C17.8109 19.3798 17.326 20.19 16.4393 20.7832C15.4825 21.4211 14.2322 21.7401 12.9818 21.7401ZM10.0538 17.045C9.44142 17.4533 9.1097 17.9764 9.1097 18.525C9.1097 19.0672 9.4478 19.5903 10.0538 19.9922C11.6422 21.0575 14.3215 21.0575 15.9099 19.9922C16.5223 19.5839 16.854 19.0609 16.854 18.5122C16.854 17.97 16.5159 17.4469 15.9099 17.045C14.3215 15.9861 11.6422 15.9861 10.0538 17.045Z" fill="white"/>
<path d="M18.8316 20.5921C18.6083 20.5921 18.4106 20.439 18.3659 20.2093C18.3149 19.9478 18.4807 19.699 18.7359 19.6416C19.1378 19.5587 19.5078 19.3992 19.7948 19.1759C20.1585 18.9016 20.3562 18.5571 20.3562 18.1935C20.3562 17.8299 20.1585 17.4854 19.8012 17.2175C19.5205 17.0006 19.1697 16.8475 18.755 16.7518C18.4999 16.6944 18.334 16.4393 18.3914 16.1777C18.4488 15.9226 18.704 15.7567 18.9656 15.8141C19.5142 15.9353 19.9926 16.1522 20.3817 16.452C20.975 16.8986 21.3131 17.5301 21.3131 18.1935C21.3131 18.857 20.9686 19.4885 20.3753 19.9414C19.9798 20.2476 19.4823 20.4709 18.9337 20.5793C18.8954 20.5921 18.8635 20.5921 18.8316 20.5921Z" fill="white"/>
</svg>
