<svg width="30" height="30" viewBox="0 0 30 30" fill="none" xmlns="http://www.w3.org/2000/svg">
<rect x="0.393555" width="29.2133" height="29.2133" rx="6.79379" fill="white"/>
<path d="M18.2153 22.4195H12.6539C10.5545 22.4195 9.35181 21.2169 9.35181 19.1174V12.3394C9.35181 10.1496 10.4641 9.03735 12.6539 9.03735C12.9389 9.03735 13.1753 9.27371 13.1753 9.55874C13.1753 9.83681 13.2865 10.101 13.4812 10.2956C13.6758 10.4903 13.94 10.6015 14.2181 10.6015H16.6512C17.2282 10.6015 17.6939 10.1357 17.6939 9.55874C17.6939 9.27371 17.9303 9.03735 18.2153 9.03735C20.4051 9.03735 21.5174 10.1496 21.5174 12.3394V19.1174C21.5174 21.2169 20.3148 22.4195 18.2153 22.4195ZM12.202 10.094C11.1036 10.1844 10.3946 10.678 10.3946 12.3394V19.1174C10.3946 20.6607 11.1106 21.3768 12.6539 21.3768H18.2153C19.7586 21.3768 20.4747 20.6607 20.4747 19.1174V12.3394C20.4747 10.678 19.7656 10.1914 18.6672 10.094C18.4308 10.9839 17.6175 11.6443 16.6512 11.6443H14.2181C13.6619 11.6443 13.1405 11.4288 12.7443 11.0325C12.4801 10.7683 12.2993 10.4486 12.202 10.094Z" fill="#E51C39"/>
<path d="M16.651 11.6443H14.2179C13.6617 11.6443 13.1403 11.4288 12.7441 11.0326C12.3478 10.6363 12.1323 10.1149 12.1323 9.5588C12.1323 8.41176 13.0708 7.47327 14.2179 7.47327H16.651C17.2071 7.47327 17.7285 7.68878 18.1248 8.08503C18.521 8.48128 18.7365 9.00266 18.7365 9.5588C18.7365 10.7058 17.798 11.6443 16.651 11.6443ZM14.2179 8.51603C13.6409 8.51603 13.1751 8.9818 13.1751 9.5588C13.1751 9.83687 13.2863 10.101 13.481 10.2957C13.6756 10.4903 13.9398 10.6016 14.2179 10.6016H16.651C17.228 10.6016 17.6937 10.1358 17.6937 9.5588C17.6937 9.28073 17.5825 9.01656 17.3879 8.82191C17.1932 8.62726 16.9291 8.51603 16.651 8.51603H14.2179Z" fill="#E51C39"/>
<path d="M15.4344 16.163H12.6537C12.3687 16.163 12.1323 15.9266 12.1323 15.6416C12.1323 15.3566 12.3687 15.1202 12.6537 15.1202H15.4344C15.7194 15.1202 15.9558 15.3566 15.9558 15.6416C15.9558 15.9266 15.7194 16.163 15.4344 16.163Z" fill="#E51C39"/>
<path d="M18.2151 18.9435H12.6537C12.3687 18.9435 12.1323 18.7072 12.1323 18.4221C12.1323 18.1371 12.3687 17.9008 12.6537 17.9008H18.2151C18.5002 17.9008 18.7365 18.1371 18.7365 18.4221C18.7365 18.7072 18.5002 18.9435 18.2151 18.9435Z" fill="#E51C39"/>
</svg>
