<svg width="28" height="28" viewBox="0 0 28 28" fill="none" xmlns="http://www.w3.org/2000/svg">
<rect width="28" height="28" rx="8" fill="#E51C39" fill-opacity="0.1"/>
<path d="M23.5589 12.74L22.2089 11.16C21.9589 10.86 21.7489 10.3 21.7489 9.89999V8.19999C21.7489 7.13999 20.8789 6.26999 19.8189 6.26999H18.1189C17.7189 6.26999 17.1489 6.05999 16.8489 5.80999L15.2689 4.45999C14.5789 3.86999 13.4489 3.86999 12.7589 4.45999L11.1589 5.80999C10.8589 6.05999 10.2989 6.26999 9.89891 6.26999H8.16891C7.10891 6.26999 6.23891 7.13999 6.23891 8.19999V9.89999C6.23891 10.29 6.03891 10.85 5.78891 11.15L4.43891 12.74C3.85891 13.44 3.85891 14.56 4.43891 15.24L5.78891 16.83C6.03891 17.12 6.23891 17.69 6.23891 18.08V19.79C6.23891 20.85 7.10891 21.72 8.16891 21.72H9.90891C10.2989 21.72 10.8689 21.93 11.1689 22.18L12.7489 23.53C13.4389 24.12 14.5689 24.12 15.2589 23.53L16.8389 22.18C17.1389 21.93 17.6989 21.72 18.0989 21.72H19.7989C20.8589 21.72 21.7289 20.85 21.7289 19.79V18.09C21.7289 17.69 21.9389 17.13 22.1889 16.83L23.5389 15.25C24.1489 14.57 24.1489 13.44 23.5589 12.74ZM13.2489 10.13C13.2489 9.71999 13.5889 9.37999 13.9989 9.37999C14.4089 9.37999 14.7489 9.71999 14.7489 10.13V14.96C14.7489 15.37 14.4089 15.71 13.9989 15.71C13.5889 15.71 13.2489 15.37 13.2489 14.96V10.13ZM13.9989 18.87C13.4489 18.87 12.9989 18.42 12.9989 17.87C12.9989 17.32 13.4389 16.87 13.9989 16.87C14.5489 16.87 14.9989 17.32 14.9989 17.87C14.9989 18.42 14.5589 18.87 13.9989 18.87Z" fill="#E51C39"/>
</svg>
