<svg width="28" height="28" viewBox="0 0 28 28" fill="none" xmlns="http://www.w3.org/2000/svg">
<path d="M14.0234 23.9513C11.3051 23.9513 8.58672 23.5196 6.00838 22.6563C5.02838 22.3179 4.28172 21.6296 3.95505 20.7313C3.61672 19.8329 3.73338 18.8413 4.27005 17.9546L5.61172 15.7263C5.89172 15.2596 6.14838 14.3263 6.14838 13.7779V10.4063C6.14838 6.06625 9.68338 2.53125 14.0234 2.53125C18.3634 2.53125 21.8984 6.06625 21.8984 10.4063V13.7779C21.8984 14.3146 22.155 15.2596 22.435 15.7379L23.7651 17.9546C24.2667 18.7946 24.3601 19.8096 24.0217 20.7313C23.6834 21.6529 22.9484 22.3529 22.0267 22.6563C19.46 23.5196 16.7417 23.9513 14.0234 23.9513ZM14.0234 4.28125C10.6517 4.28125 7.89838 7.02292 7.89838 10.4063V13.7779C7.89838 14.6296 7.54838 15.8896 7.11672 16.6246L5.77505 18.8529C5.51838 19.2846 5.44838 19.7396 5.60005 20.1246C5.74005 20.5213 6.09005 20.8246 6.56838 20.9879C11.4451 22.6213 16.6134 22.6213 21.4901 20.9879C21.9101 20.8479 22.2367 20.5329 22.3884 20.1129C22.5401 19.6929 22.5051 19.2379 22.2717 18.8529L20.9301 16.6246C20.4867 15.8663 20.1484 14.6179 20.1484 13.7663V10.4063C20.1484 7.02292 17.4067 4.28125 14.0234 4.28125Z" fill="white"/>
<path d="M16.1934 4.595C16.1117 4.595 16.0301 4.58333 15.9484 4.56C15.6101 4.46667 15.2834 4.39667 14.9684 4.35C13.9767 4.22167 13.0201 4.29167 12.1217 4.56C11.7951 4.665 11.4451 4.56 11.2234 4.315C11.0017 4.07 10.9317 3.72 11.0601 3.405C11.5384 2.18 12.7051 1.375 14.0351 1.375C15.3651 1.375 16.5317 2.16833 17.0101 3.405C17.1267 3.72 17.0684 4.07 16.8467 4.315C16.6717 4.50167 16.4267 4.595 16.1934 4.595Z" fill="white"/>
<path d="M14.0233 26.6133C12.8683 26.6133 11.7483 26.1466 10.9316 25.3299C10.115 24.5133 9.64832 23.3933 9.64832 22.2383H11.3983C11.3983 22.9266 11.6783 23.6033 12.1683 24.0933C12.6583 24.5833 13.335 24.8633 14.0233 24.8633C15.47 24.8633 16.6483 23.6849 16.6483 22.2383H18.3983C18.3983 24.6533 16.4383 26.6133 14.0233 26.6133Z" fill="white"/>
</svg>
