<svg width="29" height="28" viewBox="0 0 29 28" fill="none" xmlns="http://www.w3.org/2000/svg">
<rect x="0.789551" width="28" height="28" rx="8" fill="#346B9D" fill-opacity="0.1"/>
<circle cx="14.7897" cy="14" r="8.16667" fill="#346B9D"/>
<path d="M18.8717 8.02834C18.8717 8.35051 18.6106 8.61167 18.2884 8.61167C17.9662 8.61167 17.7051 8.35051 17.7051 8.02834C17.7051 7.70617 17.9662 7.44501 18.2884 7.44501C18.6106 7.44501 18.8717 7.70617 18.8717 8.02834Z" fill="white"/>
<path d="M8.64037 10.19C8.96248 10.196 9.21879 10.4619 9.21286 10.784C9.20692 11.1061 8.94099 11.3624 8.61888 11.3565C8.29677 11.3506 8.04046 11.0846 8.04639 10.7625C8.05233 10.4404 8.31826 10.1841 8.64037 10.19Z" fill="white"/>
<path d="M21.1891 10.7627C21.1891 11.0849 20.928 11.346 20.6058 11.346C20.2836 11.346 20.0225 11.0849 20.0225 10.7627C20.0225 10.4405 20.2836 10.1794 20.6058 10.1794C20.928 10.1794 21.1891 10.4405 21.1891 10.7627Z" fill="white"/>
<path d="M11.2844 7.45567C11.6065 7.4616 11.8628 7.72754 11.8569 8.04965C11.851 8.37176 11.585 8.62807 11.2629 8.62214C10.9408 8.6162 10.6845 8.35027 10.6904 8.02815C10.6964 7.70604 10.9623 7.44973 11.2844 7.45567Z" fill="white"/>
<path d="M22.3483 14.0041C22.3483 14.3262 22.0871 14.5874 21.765 14.5874C21.4428 14.5874 21.1816 14.3262 21.1816 14.0041C21.1816 13.6819 21.4428 13.4207 21.765 13.4207C22.0871 13.4207 22.3483 13.6819 22.3483 14.0041Z" fill="white"/>
<path d="M8.42301 14.0041C8.42301 14.3262 8.16185 14.5874 7.83968 14.5874C7.51751 14.5874 7.25635 14.3262 7.25635 14.0041C7.25635 13.6819 7.51751 13.4207 7.83968 13.4207C8.16185 13.4207 8.42301 13.6819 8.42301 14.0041Z" fill="white"/>
<path d="M15.3766 6.86934C15.3766 7.19151 15.1155 7.45268 14.7933 7.45268C14.4711 7.45268 14.21 7.19151 14.21 6.86934C14.21 6.54718 14.4711 6.28601 14.7933 6.28601C15.1155 6.28601 15.3766 6.54718 15.3766 6.86934Z" fill="white"/>
<path d="M17.7123 10.5507L14.3846 12.4524C14.1855 12.5573 14.0141 12.7078 13.8843 12.8916C13.7545 13.0755 13.67 13.2874 13.6378 13.5102C13.6055 13.7329 13.6264 13.9601 13.6988 14.1732C13.7711 14.3863 13.8928 14.5793 14.054 14.7363C14.2111 14.8974 14.4041 15.019 14.6172 15.0912C14.8302 15.1634 15.0573 15.1843 15.28 15.152C15.5026 15.1197 15.7145 15.0353 15.8983 14.9055C16.0821 14.7757 16.2326 14.6043 16.3376 14.4053L18.2389 11.0776C18.2809 11.0041 18.2975 10.9188 18.2863 10.8349C18.275 10.7509 18.2365 10.673 18.1767 10.6132C18.1168 10.5533 18.0389 10.5148 17.955 10.5035C17.8711 10.4923 17.7858 10.5087 17.7123 10.5507Z" fill="white"/>
</svg>
