<svg width="30" height="30" viewBox="0 0 30 30" fill="none" xmlns="http://www.w3.org/2000/svg">
<rect width="29.2133" height="29.2133" rx="6.79379" fill="#F9BB2A"/>
<path d="M14.5385 22.2497H11.9569C8.9744 22.2497 7.64282 20.9181 7.64282 17.9356V15.354C7.64282 12.3715 8.9744 11.0399 11.9569 11.0399H13.995C14.2736 11.0399 14.5045 11.2709 14.5045 11.5495C14.5045 11.828 14.2736 12.059 13.995 12.059H11.9569C9.5247 12.059 8.66189 12.9218 8.66189 15.354V17.9356C8.66189 20.3678 9.5247 21.2306 11.9569 21.2306H14.5385C16.9707 21.2306 17.8335 20.3678 17.8335 17.9356V15.8975C17.8335 15.6189 18.0645 15.3879 18.343 15.3879C18.6216 15.3879 18.8526 15.6189 18.8526 15.8975V17.9356C18.8526 20.9181 17.521 22.2497 14.5385 22.2497Z" fill="white"/>
<path d="M18.3436 16.4073H16.1696C14.2606 16.4073 13.4861 15.6329 13.4861 13.7238V11.5498C13.4861 11.346 13.6084 11.1558 13.7986 11.081C13.9888 10.9995 14.2062 11.0471 14.3557 11.1897L18.7037 15.5377C18.8464 15.6804 18.8939 15.9046 18.8124 16.0948C18.7377 16.2851 18.5475 16.4073 18.3436 16.4073ZM14.5052 12.7795V13.7238C14.5052 15.0758 14.8177 15.3883 16.1696 15.3883H17.114L14.5052 12.7795Z" fill="white"/>
<path d="M17.3918 8.66213H14.6743C14.3958 8.66213 14.1648 8.43115 14.1648 8.1526C14.1648 7.87406 14.3958 7.64307 14.6743 7.64307H17.3918C17.6704 7.64307 17.9014 7.87406 17.9014 8.1526C17.9014 8.43115 17.6704 8.66213 17.3918 8.66213Z" fill="white"/>
<path d="M11.5493 10.7003C11.2708 10.7003 11.0398 10.4693 11.0398 10.1907C11.0398 8.78442 12.1812 7.64307 13.5875 7.64307H15.3674C15.646 7.64307 15.877 7.87406 15.877 8.1526C15.877 8.43115 15.646 8.66213 15.3674 8.66213H13.5875C12.745 8.66213 12.0589 9.34831 12.0589 10.1907C12.0589 10.4693 11.8279 10.7003 11.5493 10.7003Z" fill="white"/>
<path d="M19.8313 18.8528C19.5528 18.8528 19.3218 18.6218 19.3218 18.3433C19.3218 18.0648 19.5528 17.8338 19.8313 17.8338C20.6058 17.8338 21.2308 17.2019 21.2308 16.4342V12.2289C21.2308 11.9503 21.4618 11.7194 21.7404 11.7194C22.0189 11.7194 22.2499 11.9503 22.2499 12.2289V16.4342C22.2499 17.7658 21.1629 18.8528 19.8313 18.8528Z" fill="white"/>
<path d="M21.7401 12.7387H19.702C17.8948 12.7387 17.1543 11.9982 17.1543 10.1911V8.15294C17.1543 7.94913 17.2766 7.7589 17.4668 7.68417C17.657 7.60264 17.8744 7.6502 18.0239 7.79287L22.1002 11.8691C22.2428 12.0118 22.2904 12.236 22.2089 12.4262C22.1341 12.6165 21.9439 12.7387 21.7401 12.7387ZM18.1734 9.38262V10.1911C18.1734 11.4343 18.4587 11.7197 19.702 11.7197H20.5104L18.1734 9.38262Z" fill="white"/>
</svg>
