<svg width="24" height="24" viewBox="0 0 24 24" fill="none" xmlns="http://www.w3.org/2000/svg">
<rect width="24" height="24" rx="8" fill="#64A2FF" fill-opacity="0.1"/>
<path fill-rule="evenodd" clip-rule="evenodd" d="M13.0292 5.28016C13.1713 5.39508 13.3727 5.56285 13.6136 5.77719C14.0947 6.20527 14.737 6.82221 15.3805 7.57771C16.652 9.07022 17.9999 11.1863 17.9999 13.4999C17.9999 16.5375 15.5375 18.9999 12.5 18.9999C9.46242 18.9999 7 16.5375 7 13.4999C7 11.1863 8.34789 9.07022 9.61938 7.57771C10.263 6.82221 10.9052 6.20527 11.3864 5.77719C11.6273 5.56285 11.8286 5.39508 11.9708 5.28016C12.1255 5.15503 12.2886 5 12.5 5C12.7131 5 12.8725 5.15344 13.0292 5.28016Z" fill="#64A2FF"/>
<path d="M15 13.5C15.2761 13.5 15.5 13.7238 15.5 14C15.5 15.3807 14.3807 16.5 13 16.5C12.7238 16.5 12.5 16.2761 12.5 16C12.5 15.7238 12.7238 15.5 13 15.5C13.8284 15.5 14.5 14.8284 14.5 14C14.5 13.7238 14.7238 13.5 15 13.5Z" fill="white"/>
</svg>
