<svg width="25" height="24" viewBox="0 0 25 24" fill="none" xmlns="http://www.w3.org/2000/svg">
<path d="M18 22.75H4C3.59 22.75 3.25 22.41 3.25 22V5C3.25 2.76 4.76 1.25 7 1.25H15C17.24 1.25 18.75 2.76 18.75 5V22C18.75 22.41 18.41 22.75 18 22.75ZM4.75 21.25H17.25V5C17.25 3.59 16.41 2.75 15 2.75H7C5.59 2.75 4.75 3.59 4.75 5V21.25Z" fill="#282828"/>
<path d="M19.5 22.75H2.5C2.09 22.75 1.75 22.41 1.75 22C1.75 21.59 2.09 21.25 2.5 21.25H19.5C19.91 21.25 20.25 21.59 20.25 22C20.25 22.41 19.91 22.75 19.5 22.75Z" fill="#282828"/>
<path d="M13.1102 10.7502H8.88023C7.25023 10.7502 6.24023 9.74023 6.24023 8.11023V6.88023C6.24023 5.25023 7.25023 4.24023 8.88023 4.24023H13.1102C14.7402 4.24023 15.7502 5.25023 15.7502 6.88023V8.11023C15.7502 9.74023 14.7402 10.7502 13.1102 10.7502ZM8.89023 5.75023C8.08023 5.75023 7.75023 6.08023 7.75023 6.89023V8.12022C7.75023 8.93022 8.08023 9.26022 8.89023 9.26022H13.1202C13.9302 9.26022 14.2602 8.93022 14.2602 8.12022V6.89023C14.2602 6.08023 13.9302 5.75023 13.1202 5.75023H8.89023Z" fill="#282828"/>
<path d="M10 13.75H7C6.59 13.75 6.25 13.41 6.25 13C6.25 12.59 6.59 12.25 7 12.25H10C10.41 12.25 10.75 12.59 10.75 13C10.75 13.41 10.41 13.75 10 13.75Z" fill="#282828"/>
<path d="M18 16.7602C17.59 16.7602 17.25 16.4302 17.25 16.0102C17.25 15.6002 17.58 15.2602 18 15.2602L21.75 15.2502V10.4602L20.16 9.67017C19.79 9.48017 19.64 9.03017 19.82 8.66017C20.01 8.29017 20.46 8.14018 20.83 8.32018L22.83 9.32018C23.08 9.45018 23.24 9.71017 23.24 9.99017V15.9902C23.24 16.4002 22.91 16.7402 22.49 16.7402L18 16.7602Z" fill="#282828"/>
</svg>
