<svg width="24" height="24" viewBox="0 0 24 24" fill="none" xmlns="http://www.w3.org/2000/svg">
<rect width="24" height="24" rx="8" fill="#2541F7" fill-opacity="0.1"/>
<g clip-path="url(#clip0_2029_13786)">
<path fill-rule="evenodd" clip-rule="evenodd" d="M14.7777 14.9101C14.7852 14.8745 14.8048 14.842 14.8337 14.8172C14.8372 14.8141 14.8409 14.811 14.8447 14.8082C14.8616 14.7817 14.8779 14.7548 14.8937 14.728C14.8971 14.7211 14.9011 14.7145 14.9055 14.7081C15.1903 14.2164 15.3313 13.6656 15.3149 13.1092C15.2986 12.5528 15.1253 12.0098 14.812 11.5328C14.4987 11.0558 14.0561 10.6612 13.527 10.3872C12.9979 10.1131 12.4005 9.96908 11.7926 9.96897C11.1848 9.96886 10.5873 10.1127 10.0581 10.3865C9.52893 10.6603 9.08608 11.0548 8.77259 11.5317C8.45909 12.0085 8.28561 12.5515 8.26899 13.1079C8.25238 13.6643 8.39319 14.2151 8.67775 14.707C8.68242 14.7138 8.68657 14.7209 8.69019 14.7283C9.1241 15.463 9.852 16.0153 10.7211 16.2691C11.5901 16.5229 12.5328 16.4586 13.3512 16.0895C13.3537 16.0871 13.3561 16.0848 13.3588 16.0825C13.3871 16.0581 13.423 16.0423 13.4616 16.0373C13.9987 15.7714 14.4523 15.3832 14.7777 14.9101ZM9.69979 11.1588L9.70424 11.1555C10.2942 10.6492 11.0794 10.378 11.8876 10.4012C12.6957 10.4244 13.4608 10.7403 14.015 11.2794L14.0187 11.2835C14.1994 11.4598 14.3543 11.6568 14.4797 11.8695C14.4852 11.8774 14.49 11.8856 14.4941 11.8941C14.8412 12.5005 14.9342 13.2021 14.7556 13.867C14.7538 13.877 14.7511 13.8868 14.7474 13.8964C14.6455 14.2585 14.4648 14.5981 14.2161 14.8947C14.211 14.9017 14.2054 14.9084 14.1993 14.9147C14.1033 15.0271 13.9981 15.1327 13.8845 15.2305L13.8801 15.2339C13.2893 15.741 12.5028 16.0125 11.6935 15.9886C10.8841 15.9647 10.1183 15.6474 9.5645 15.1064C9.50121 15.0444 9.44154 14.9806 9.38548 14.915C9.379 14.9086 9.37306 14.9017 9.3677 14.8945C9.11881 14.5978 8.93795 14.2581 8.83597 13.8958C8.83253 13.8867 8.82991 13.8774 8.82815 13.8679C8.64885 13.2029 8.74155 12.5007 9.08877 11.8939C9.09268 11.8856 9.09732 11.8775 9.10264 11.8698C9.25848 11.605 9.46025 11.3647 9.69979 11.1588ZM5.95348 7.50933H4.90246C4.89782 7.50923 4.89322 7.50999 4.88891 7.51155C4.8846 7.51312 4.88069 7.51546 4.87739 7.51845C4.87413 7.52147 4.87157 7.52505 4.86986 7.529C4.86815 7.53294 4.86733 7.53716 4.86744 7.5414V7.87919C4.86786 7.97735 4.91062 8.07139 4.9864 8.14082C5.06219 8.21024 5.16486 8.24944 5.27206 8.24987H5.71224L5.95348 7.50933ZM18.2886 8.25052H18.7288C18.8359 8.25 18.9386 8.21078 19.0143 8.14137C19.0901 8.07196 19.1329 7.97798 19.1334 7.87984V7.54205C19.1333 7.53777 19.1324 7.53354 19.1306 7.5296C19.1287 7.52566 19.1261 7.5221 19.1227 7.5191C19.1194 7.51612 19.1155 7.51377 19.1112 7.5122C19.1069 7.51064 19.1023 7.50988 19.0977 7.50998H18.0466L18.2886 8.25052ZM17.9707 8.48249L18.0605 8.75761H5.93961L6.0285 8.48249C6.03095 8.47625 6.03303 8.4699 6.03472 8.46345L6.38352 7.39538C6.38591 7.38924 6.38793 7.38299 6.38957 7.37666L6.88397 5.8627C6.95493 5.63548 7.10555 5.43595 7.31262 5.29488C7.51968 5.15382 7.77168 5.07905 8.02975 5.08212H15.9704C16.2283 5.07922 16.48 5.15405 16.6869 5.29507C16.8938 5.43609 17.0443 5.63549 17.1153 5.86254L17.6097 7.37649C17.6113 7.38283 17.6133 7.38908 17.6157 7.39522L17.9645 8.46329C17.9661 8.46975 17.9682 8.47628 17.9707 8.48249ZM6.66992 10.996C6.54991 10.8861 6.39201 10.8178 6.22313 10.8026C6.05425 10.7874 5.88483 10.8262 5.74375 10.9126C5.60266 10.9989 5.49864 11.1274 5.4494 11.2761C5.40015 11.4248 5.40874 11.5846 5.4737 11.7281C5.53865 11.8717 5.65595 11.9902 5.80562 12.0634C5.95528 12.1366 6.12805 12.1601 6.29449 12.1298C6.46092 12.0995 6.61072 12.0172 6.71837 11.8971C6.82602 11.777 6.88486 11.6264 6.88486 11.471C6.88497 11.3828 6.86604 11.2954 6.82916 11.2139C6.79227 11.1323 6.73816 11.0583 6.66992 10.996ZM6.15117 10.4542C6.40827 10.4542 6.65742 10.5358 6.85617 10.6852C7.05492 10.8345 7.19097 11.0424 7.24114 11.2733C7.29131 11.5042 7.25249 11.7439 7.1313 11.9515C7.01011 12.1591 6.81405 12.3218 6.57652 12.412C6.33899 12.5021 6.07469 12.514 5.82866 12.4456C5.58262 12.3773 5.37007 12.2329 5.22723 12.0372C5.08438 11.8414 5.02008 11.6064 5.04527 11.3721C5.07046 11.1378 5.1836 10.9188 5.36539 10.7523C5.46844 10.6576 5.59092 10.5825 5.72577 10.5314C5.86063 10.4802 6.0052 10.454 6.15117 10.4542ZM18.3673 10.9966C18.2473 10.8867 18.0894 10.8182 17.9204 10.8029C17.7514 10.7876 17.5819 10.8264 17.4407 10.9128C17.2995 10.9991 17.1953 11.1276 17.146 11.2764C17.0967 11.4252 17.1052 11.585 17.1702 11.7287C17.2351 11.8723 17.3525 11.9909 17.5022 12.0642C17.6519 12.1376 17.8248 12.1611 17.9913 12.1307C18.1579 12.1004 18.3078 12.0182 18.4155 11.898C18.5232 11.7778 18.5821 11.6271 18.5821 11.4717C18.5822 11.3834 18.5633 11.2961 18.5265 11.2145C18.4896 11.133 18.4355 11.059 18.3673 10.9966ZM17.8489 10.4542C18.1061 10.4542 18.3552 10.5358 18.554 10.6851C18.7528 10.8344 18.8889 11.0422 18.9391 11.2731C18.9893 11.504 18.9505 11.7437 18.8293 11.9514C18.7081 12.159 18.5121 12.3218 18.2746 12.4119C18.037 12.502 17.7727 12.514 17.5267 12.4456C17.2806 12.3773 17.0681 12.233 16.9252 12.0372C16.7824 11.8415 16.718 11.6064 16.7432 11.3721C16.7684 11.1378 16.8815 10.9188 17.0633 10.7523C17.1664 10.6576 17.2888 10.5826 17.4236 10.5314C17.5585 10.4803 17.703 10.454 17.8489 10.4542ZM5.02157 14.9721V15.9661C5.02194 16.0283 5.04908 16.0878 5.09708 16.1317C5.14508 16.1756 5.21007 16.2004 5.27792 16.2007H6.82121C6.88907 16.2003 6.95404 16.1755 7.00202 16.1315C7.05001 16.0876 7.07715 16.0281 7.07757 15.966V14.9721H5.02157ZM16.9225 14.9721V15.9661C16.923 16.0283 16.9502 16.0877 16.9982 16.1316C17.0461 16.1755 17.1111 16.2003 17.1789 16.2007H18.7222C18.7901 16.2004 18.8551 16.1756 18.9031 16.1316C18.9511 16.0877 18.9782 16.0281 18.9785 15.966V14.9721H16.9225ZM9.2685 14.0117H14.3151C14.2306 14.2307 14.1124 14.4374 13.964 14.6257H9.61997C9.47141 14.4375 9.35305 14.2307 9.2685 14.0117ZM9.37819 12.135H14.2056C14.4542 12.6109 14.529 13.1474 14.4189 13.6653H9.16557C9.05541 13.1474 9.12949 12.6109 9.37819 12.135ZM9.96664 11.4025C10.4848 10.9597 11.1736 10.7233 11.8819 10.7452C12.5902 10.767 13.2601 11.0454 13.7446 11.519L13.7483 11.5231C13.8336 11.6067 13.9125 11.6955 13.9844 11.7891H9.59917C9.70554 11.6503 9.82725 11.522 9.96237 11.4061L9.96664 11.4025ZM9.12432 10.5885C8.53675 11.0935 8.13419 11.7527 7.97186 12.4755C7.80954 13.1983 7.8954 13.9494 8.21766 14.6257H4.32272C4.2723 14.6255 4.22401 14.6071 4.18835 14.5744C4.15269 14.5418 4.13256 14.4976 4.13232 14.4514V10.6045C4.13354 10.2067 4.30663 9.82548 4.61379 9.54416C4.92094 9.26284 5.33719 9.10426 5.77161 9.10305H18.2285C18.6629 9.10426 19.0791 9.26279 19.3862 9.54404C19.6933 9.82529 19.8665 10.2064 19.8678 10.6041V14.452C19.8676 14.4982 19.8474 14.5424 19.8118 14.5751C19.7761 14.6077 19.7278 14.6262 19.6774 14.6264H15.3665C15.7259 13.8728 15.7904 13.0288 15.5491 12.2367C15.3078 11.4446 14.7755 10.753 14.042 10.2786C13.3085 9.80421 12.4187 9.57604 11.5228 9.63262C10.6269 9.6892 9.77976 10.0264 9.12432 10.5885ZM14.7944 16.7532C14.8453 16.7242 14.8929 16.6906 14.9366 16.653L15.3535 16.2948L15.3579 16.2916C15.4004 16.2548 15.4389 16.2142 15.4728 16.1706L17.5526 18.2031C17.6369 18.2855 17.6819 18.3953 17.6778 18.5082C17.6737 18.6211 17.6208 18.7279 17.5307 18.8051C17.4406 18.8822 17.3208 18.9235 17.1975 18.9197C17.0742 18.916 16.9576 18.8675 16.8733 18.785L14.7944 16.7532ZM15.2418 15.8286C15.2147 15.9109 15.1644 15.9852 15.0959 16.044L15.0914 16.0474L14.6788 16.4016C14.6107 16.46 14.527 16.501 14.4361 16.5204C14.4324 16.521 14.4286 16.5218 14.4249 16.5227C14.3821 16.531 14.3384 16.5345 14.2946 16.5331C14.2244 16.5311 14.1552 16.5164 14.0912 16.4898C14.0271 16.4633 13.9694 16.4255 13.9213 16.3785L13.7986 16.2587C14.2734 15.997 14.6825 15.6464 14.999 15.2298L15.1215 15.3495L15.1252 15.3536C15.2198 15.4483 15.2701 15.5732 15.2651 15.7014C15.2637 15.7406 15.2573 15.7794 15.2459 15.8172C15.2445 15.8209 15.2429 15.8248 15.2418 15.8286ZM9.81552 12.6844C9.81552 12.6386 9.83542 12.5946 9.87082 12.5622C9.90623 12.5298 9.95425 12.5116 10.0043 12.5116C10.0544 12.5116 10.1024 12.5298 10.1378 12.5622C10.1732 12.5946 10.1931 12.6386 10.1931 12.6844V13.2485C10.1931 13.2944 10.1732 13.3383 10.1378 13.3708C10.1024 13.4032 10.0544 13.4214 10.0043 13.4214C9.95425 13.4214 9.90623 13.4032 9.87082 13.3708C9.83542 13.3383 9.81552 13.2944 9.81552 13.2485V12.6844ZM10.9889 12.6844C10.9889 12.6386 11.0087 12.5946 11.0442 12.5622C11.0796 12.5298 11.1276 12.5116 11.1777 12.5116C11.2277 12.5116 11.2758 12.5298 11.3112 12.5622C11.3466 12.5946 11.3665 12.6386 11.3665 12.6844V13.2485C11.3665 13.2944 11.3466 13.3383 11.3112 13.3708C11.2758 13.4032 11.2277 13.4214 11.1777 13.4214C11.1276 13.4214 11.0796 13.4032 11.0442 13.3708C11.0087 13.3383 10.9889 13.2944 10.9889 13.2485V12.6844ZM12.1622 12.6844C12.1622 12.6386 12.1821 12.5946 12.2175 12.5622C12.2529 12.5298 12.3009 12.5116 12.351 12.5116C12.4011 12.5116 12.4491 12.5298 12.4845 12.5622C12.5199 12.5946 12.5398 12.6386 12.5398 12.6844V13.2485C12.5398 13.2944 12.5199 13.3383 12.4845 13.3708C12.4491 13.4032 12.4011 13.4214 12.351 13.4214C12.3009 13.4214 12.2529 13.4032 12.2175 13.3708C12.1821 13.3383 12.1622 13.2944 12.1622 13.2485V12.6844ZM13.3355 12.6844C13.337 12.6395 13.3576 12.5968 13.3929 12.5655C13.4281 12.5342 13.4753 12.5167 13.5244 12.5167C13.5735 12.5167 13.6207 12.5342 13.656 12.5655C13.6912 12.5968 13.7118 12.6395 13.7133 12.6844V13.2485C13.7118 13.2935 13.6912 13.3361 13.656 13.3674C13.6207 13.3987 13.5735 13.4163 13.5244 13.4163C13.4753 13.4163 13.4281 13.3987 13.3929 13.3674C13.3576 13.3361 13.337 13.2935 13.3355 13.2485V12.6844Z" fill="#2541F7"/>
</g>
<defs>
<clipPath id="clip0_2029_13786">
<rect width="16" height="14" fill="white" transform="translate(4 5)"/>
</clipPath>
</defs>
</svg>
