<svg width="16" height="16" viewBox="0 0 16 16" fill="none" xmlns="http://www.w3.org/2000/svg">
<path d="M8 0C3.59111 0 0 3.59111 0 8C0 12.4089 3.59111 16 8 16C12.4089 16 16 12.4089 16 8C16 3.59111 12.4089 0 8 0ZM8 14.6667C4.32 14.6667 1.33333 11.68 1.33333 8C1.33333 4.32 4.32 1.33333 8 1.33333C11.68 1.33333 14.6667 4.32 14.6667 8C14.6667 11.68 11.68 14.6667 8 14.6667Z" fill="#E51C39"/>
<path d="M11.3405 7.34222H8.6738V4.67556C8.6738 4.30222 8.37158 4 7.99825 4C7.62491 4 7.32269 4.30222 7.32269 4.67556V7.34222H4.65602C4.28269 7.34222 3.98047 7.64444 3.98047 8.01778C3.98047 8.39111 4.28269 8.69333 4.65602 8.69333H7.32269V11.36C7.32269 11.7333 7.62491 12.0356 7.99825 12.0356C8.37158 12.0356 8.6738 11.7333 8.6738 11.36V8.69333H11.3405C11.7138 8.69333 12.016 8.39111 12.016 8.01778C12.016 7.64444 11.696 7.34222 11.3405 7.34222Z" fill="#E51C39"/>
</svg>
