<svg width="14" height="14" viewBox="0 0 14 14" fill="none" xmlns="http://www.w3.org/2000/svg">
<g clip-path="url(#clip0_127_5081)">
<path d="M5.76087 6.53491C5.76087 7.15568 4.83002 7.15568 4.83002 6.53491C4.83002 5.91414 5.76087 5.91414 5.76087 6.53491Z" fill="#3BB54A"/>
<path d="M3.70942 6.53491C3.70942 7.15568 2.77856 7.15568 2.77856 6.53491C2.77856 5.91414 3.70942 5.91414 3.70942 6.53491Z" fill="#3BB54A"/>
<path d="M11.6543 12.1186H10.3447V11.1878H11.6543C12.424 11.1878 13.0505 10.5612 13.0505 9.79151V6.12693C13.0505 5.35723 12.424 4.73066 11.6543 4.73066H2.34574C1.57604 4.73066 0.949467 5.35723 0.949467 6.12693V9.79151C0.949467 10.5612 1.57604 11.1878 2.34574 11.1878H3.86936V12.1186H2.34574C1.06233 12.1186 0.0186157 11.0749 0.0186157 9.79151V6.12693C0.0186157 4.84352 1.06233 3.7998 2.34574 3.7998H11.6543C12.9377 3.7998 13.9814 4.84352 13.9814 6.12693V9.79151C13.9814 11.0749 12.9377 12.1186 11.6543 12.1186Z" fill="#3BB54A"/>
<path d="M2.81119 8.39648H11.1888C11.446 8.39648 11.6543 8.65364 11.6543 8.86191C11.6543 9.11906 11.446 9.32734 11.1888 9.32734H2.81119C2.55404 9.32734 2.34576 9.07018 2.34576 8.86191C2.34576 8.60476 2.55404 8.39648 2.81119 8.39648Z" fill="#3BB54A"/>
<path d="M9.32714 13.9816H4.67289C3.90319 13.9816 3.27661 13.355 3.27661 12.5853V8.39648H10.7234V12.5853C10.7234 13.355 10.0968 13.9816 9.32714 13.9816ZM4.20746 9.32734V12.5853C4.20746 12.8425 4.41573 13.0507 4.67289 13.0507H9.32714C9.5843 13.0507 9.79257 12.8425 9.79257 12.5853V9.32734H4.20746Z" fill="#3BB54A"/>
<path d="M10.7234 4.73043H3.27661V1.93787C3.27661 0.911033 4.11147 0.0761719 5.13831 0.0761719H8.86172C9.88856 0.0761719 10.7234 0.911033 10.7234 1.93787V4.73043ZM4.20746 3.79958H9.79257V1.93787C9.79257 1.42474 9.37485 1.00702 8.86172 1.00702H5.13831C4.62518 1.00702 4.20746 1.42474 4.20746 1.93787V3.79958Z" fill="#3BB54A"/>
</g>
<defs>
<clipPath id="clip0_127_5081">
<rect width="14" height="14" fill="white"/>
</clipPath>
</defs>
</svg>
