<svg width="24" height="24" viewBox="0 0 24 24" fill="none" xmlns="http://www.w3.org/2000/svg">
<path d="M13.9333 8.33164C13.9333 9.67982 12.8115 10.7773 11.4333 10.7773C10.0552 10.7773 8.93332 9.67982 8.93332 8.33164C8.93332 6.98347 10.0552 5.88599 11.4333 5.88599C12.8115 5.88599 13.9333 6.98347 13.9333 8.33164ZM20.1835 5.04234V11.2218C19.4043 10.9365 18.5626 10.7775 17.6835 10.7775C15.1543 10.7775 12.9293 12.0819 11.6792 14.0384H5.15412C4.97078 12.7911 3.95828 11.8006 2.68329 11.6213V5.04242C3.95828 4.86307 4.97078 3.87257 5.15412 2.6253H17.7125C17.8958 3.87257 18.9085 4.86299 20.1835 5.04234ZM14.7669 8.33164C14.7669 6.5341 13.2711 5.07077 11.4336 5.07077C9.59609 5.07077 8.10025 6.5341 8.10025 8.33164C8.10025 10.1292 9.59609 11.5925 11.4336 11.5925C13.2711 11.5925 14.7669 10.1292 14.7669 8.33164ZM22.6837 1.8099V12.8071C22.1962 12.3261 21.6337 11.9185 21.0171 11.5965V4.66314C21.0171 4.43895 20.8296 4.25553 20.6004 4.25553C19.4504 4.25553 18.5171 3.34249 18.5171 2.21749C18.5171 1.9933 18.3296 1.80988 18.1004 1.80988H4.76705C4.53788 1.80988 4.35038 1.9933 4.35038 2.21749C4.35038 3.34249 3.41705 4.25553 2.26705 4.25553C2.03788 4.25553 1.85038 4.43895 1.85038 4.66314V12.0001C1.85038 12.2243 2.03788 12.4077 2.26705 12.4077C3.41705 12.4077 4.35038 13.3207 4.35038 14.4457C4.35038 14.6699 4.53788 14.8534 4.76705 14.8534H11.2337C10.992 15.367 10.817 15.9131 10.717 16.4838H1.85038C0.929556 16.4838 0.183716 15.7542 0.183716 14.8534V1.80988C0.183716 0.909069 0.929556 0.179443 1.85038 0.179443H21.0171C21.9379 0.179443 22.6837 0.909095 22.6837 1.8099ZM23.9337 17.7068C23.9337 21.0788 21.1305 23.821 17.6836 23.821C14.2366 23.821 11.4334 21.0788 11.4334 17.7068C11.4334 14.3348 14.2366 11.5925 17.6836 11.5925C21.1305 11.5925 23.9337 14.3348 23.9337 17.7068ZM20.9524 17.0556C20.6899 15.7503 19.6118 14.721 18.2681 14.4958C17.8921 14.4327 17.5192 14.4347 17.1577 14.4918L17.541 13.8569C17.6577 13.6633 17.5931 13.4136 17.3941 13.2985C17.1973 13.1833 16.941 13.2475 16.8233 13.4422L16.0744 14.6803C15.9608 14.8678 15.9285 15.0869 15.9848 15.2978C16.04 15.5088 16.1764 15.6861 16.3671 15.7961L17.6327 16.5298C17.6994 16.5685 17.7723 16.5869 17.8452 16.5869C17.9879 16.5869 18.1265 16.5156 18.2046 16.3872C18.3213 16.1935 18.2567 15.9429 18.0588 15.8287L17.1785 15.3192C17.4858 15.2561 17.8046 15.2448 18.1275 15.2989C19.1327 15.468 19.939 16.2364 20.1348 17.2126C20.2817 17.9463 20.0921 18.6922 19.615 19.2588C19.1369 19.8264 18.4337 20.1525 17.6837 20.1525C16.3056 20.1525 15.1837 19.055 15.1837 17.7068C15.1837 17.4816 14.9973 17.2992 14.7671 17.2992C14.5369 17.2992 14.3504 17.4816 14.3504 17.7068C14.3504 19.5044 15.8462 20.9677 17.6837 20.9677C18.6827 20.9677 19.6212 20.5336 20.2577 19.7765C20.8931 19.0214 21.1462 18.0288 20.9514 17.0556L20.9524 17.0556Z" fill="black"/>
</svg>
