<svg width="800" height="196" viewBox="0 0 800 196" fill="none" xmlns="http://www.w3.org/2000/svg">
<g clip-path="url(#clip0_1_16956)">
<path d="M-5.74658 -3.46094H794.253V188.948C794.253 191.986 791.066 193.971 788.34 192.629L773.926 185.537C769.929 183.57 765.245 183.57 761.247 185.537L746.928 192.583C743.12 194.457 738.677 194.55 734.794 192.836L717.429 185.176C713.473 183.431 708.942 183.562 705.093 185.531L691.346 192.566C687.654 194.455 683.326 194.656 679.475 193.116L658.65 184.791C654.872 183.28 650.631 183.444 646.98 185.24L632.057 192.583C628.248 194.457 623.805 194.55 619.922 192.836L602.313 185.069C598.498 183.386 594.139 183.444 590.37 185.23L574.761 192.626C570.869 194.47 566.356 194.47 562.464 192.626L546.855 185.23C543.086 183.444 538.727 183.386 534.911 185.069L517.185 192.888C513.369 194.572 509.01 194.513 505.242 192.727L489.522 185.279C485.694 183.465 481.26 183.434 477.407 185.195L460.63 192.86C456.9 194.564 452.62 194.592 448.868 192.937L430.921 185.02C427.169 183.365 422.889 183.393 419.159 185.097L402.272 192.813C398.482 194.544 394.127 194.544 390.338 192.813L373.664 185.195C369.811 183.434 365.377 183.465 361.549 185.279L345.829 192.727C342.06 194.513 337.701 194.572 333.886 192.888L316.049 185.02C312.297 183.365 308.017 183.393 304.287 185.097L287.51 192.762C283.657 194.523 279.223 194.492 275.395 192.678L259.779 185.279C255.95 183.465 251.516 183.434 247.663 185.195L230.79 192.904C227.116 194.583 222.905 194.636 219.19 193.052L200.314 185.002C196.466 183.362 192.095 183.48 188.342 185.327L173.808 192.478C169.878 194.412 165.279 194.446 161.321 192.57L145.933 185.279C142.104 183.465 137.67 183.434 133.817 185.195L117.04 192.86C113.31 194.564 109.03 194.592 105.278 192.937L87.4416 185.069C83.6259 183.386 79.2669 183.444 75.498 185.23L59.2448 192.931C55.727 194.598 51.6833 194.765 48.04 193.394L24.9479 184.706C21.0836 183.252 16.7805 183.531 13.1371 185.473L0.285763 192.324C-2.44695 193.78 -5.74658 191.8 -5.74658 188.703V-3.46094Z" fill="#E51C39"/>
<circle cx="790.567" cy="237.029" r="187.692" transform="rotate(48.1791 790.567 237.029)" fill="white" fill-opacity="0.1"/>
<circle cx="9.0283" cy="304.721" r="187.692" transform="rotate(48.1791 9.0283 304.721)" fill="white" fill-opacity="0.1"/>
<ellipse cx="14.359" cy="13.3333" rx="14.359" ry="13.3333" transform="matrix(1 -8.74228e-08 -8.74228e-08 -1 25.0225 125.846)" fill="white" fill-opacity="0.05"/>
<circle cx="25.641" cy="25.641" r="25.641" transform="matrix(1 -8.74228e-08 -8.74228e-08 -1 687.586 82.7695)" fill="white" fill-opacity="0.05"/>
<circle cx="14.359" cy="14.359" r="14.359" transform="matrix(1 -8.74228e-08 -8.74228e-08 -1 494.359 121.025)" fill="white" fill-opacity="0.05"/>
<circle cx="4.10256" cy="4.10256" r="4.10256" transform="matrix(1 -8.74228e-08 -8.74228e-08 -1 151.794 153.846)" fill="white" fill-opacity="0.05"/>
<ellipse cx="12.3077" cy="13.3333" rx="12.3077" ry="13.3333" transform="matrix(1 -8.74228e-08 -8.74228e-08 -1 710.769 13.1182)" fill="white" fill-opacity="0.05"/>
</g>
<defs>
<clipPath id="clip0_1_16956">
<rect width="800" height="196" fill="white"/>
</clipPath>
</defs>
</svg>
