<svg width="795" height="195" viewBox="0 0 795 195" fill="none" xmlns="http://www.w3.org/2000/svg">
<path d="M-5.74646 -3.46143H794.254V188.948C794.254 191.986 791.066 193.97 788.34 192.629L773.926 185.537C769.929 183.57 765.245 183.57 761.248 185.537L746.928 192.582C743.12 194.456 738.677 194.549 734.794 192.836L717.429 185.176C713.473 183.431 708.942 183.561 705.093 185.531L691.346 192.565C687.654 194.454 683.326 194.655 679.475 193.116L658.65 184.79C654.872 183.28 650.631 183.443 646.98 185.239L632.057 192.582C628.248 194.456 623.805 194.549 619.922 192.836L602.314 185.068C598.498 183.385 594.139 183.444 590.37 185.23L574.761 192.626C570.869 194.469 566.356 194.469 562.464 192.625L546.855 185.23C543.086 183.444 538.727 183.385 534.911 185.068L517.185 192.888C513.37 194.571 509.011 194.512 505.242 192.727L489.522 185.279C485.694 183.465 481.26 183.434 477.407 185.194L460.63 192.859C456.9 194.564 452.62 194.592 448.868 192.937L430.921 185.02C427.169 183.365 422.889 183.393 419.159 185.097L402.272 192.812C398.482 194.544 394.127 194.544 390.338 192.812L373.664 185.194C369.811 183.434 365.377 183.465 361.549 185.279L345.829 192.727C342.061 194.512 337.702 194.571 333.886 192.888L316.05 185.02C312.298 183.365 308.017 183.393 304.287 185.097L287.51 192.762C283.657 194.522 279.223 194.492 275.395 192.678L259.779 185.279C255.95 183.465 251.517 183.434 247.663 185.194L230.79 192.904C227.116 194.582 222.906 194.636 219.19 193.051L200.314 185.002C196.466 183.361 192.095 183.48 188.342 185.326L173.808 192.477C169.878 194.411 165.28 194.445 161.321 192.57L145.933 185.279C142.104 183.465 137.67 183.434 133.817 185.194L117.041 192.859C113.311 194.564 109.03 194.592 105.278 192.937L87.4417 185.068C83.626 183.385 79.267 183.444 75.4981 185.23L59.2449 192.931C55.7272 194.597 51.6834 194.764 48.0401 193.394L24.948 184.705C21.0838 183.251 16.7806 183.531 13.1372 185.473L0.285885 192.323C-2.44683 193.78 -5.74646 191.799 -5.74646 188.703V-3.46143Z" fill="#E51C39"/>
</svg>
