<svg width="24" height="24" viewBox="0 0 24 24" fill="none" xmlns="http://www.w3.org/2000/svg">
<path d="M14.4825 8.57146C14.4825 6.68148 12.997 5.14291 11.1722 5.14291C9.34737 5.14291 7.86186 6.68148 7.86186 8.57146C7.86186 10.4614 9.34737 12 11.1722 12C12.997 12 14.4825 10.4614 14.4825 8.57146ZM11.1722 11.1429C9.80356 11.1429 8.68944 9.98896 8.68944 8.57146C8.68944 7.15396 9.80356 6.00005 11.1722 6.00005C12.5408 6.00005 13.6549 7.15396 13.6549 8.57146C13.6549 9.98896 12.5408 11.1429 11.1722 11.1429ZM22.3446 13.215V1.71428C22.3446 0.769285 21.6019 0 20.6895 0H1.65516C0.742755 0 0 0.769285 0 1.71428V15.4285C0 16.3735 0.742755 17.1428 1.65516 17.1428H11.6068C11.5974 17.2853 11.5861 17.4267 11.5861 17.5713C11.5861 21.1167 14.3699 24 17.793 24C21.2162 24 24 21.1167 24 17.5713C24 15.8903 23.369 14.3625 22.3448 13.2149L22.3446 13.215ZM1.65516 16.2856C1.19894 16.2856 0.827578 15.901 0.827578 15.4285V1.71428C0.827578 1.24177 1.19894 0.857138 1.65516 0.857138H20.6895C21.1457 0.857138 21.517 1.24177 21.517 1.71428V12.4402C21.2553 12.2355 20.9812 12.0491 20.6895 11.8895V4.71418C20.6895 4.47739 20.5043 4.28561 20.2757 4.28561C19.1346 4.28561 18.2067 3.32454 18.2067 2.14276C18.2067 1.90598 18.0216 1.71419 17.7929 1.71419H4.55168C4.32306 1.71419 4.13789 1.90598 4.13789 2.14276C4.13789 3.32454 3.20997 4.28561 2.06895 4.28561C1.84033 4.28561 1.65516 4.47739 1.65516 4.71418V12.4284C1.65516 12.6652 1.84033 12.857 2.06895 12.857C3.20997 12.857 4.13789 13.8181 4.13789 14.9998C4.13789 15.2366 4.32306 15.4284 4.55168 15.4284H11.9482C11.8531 15.707 11.7693 15.9909 11.7113 16.2855L1.65516 16.2856ZM12.3072 14.5713H4.93554C4.75348 13.2588 3.749 12.2185 2.48281 12.031V5.11164C3.749 4.92307 4.75451 3.88271 4.93554 2.5713H17.4083C17.5903 3.88381 18.5948 4.92414 19.861 5.11164V11.5175C19.2124 11.2786 18.5183 11.1425 17.7921 11.1425C15.4159 11.1425 13.3491 12.5343 12.3062 14.5711L12.3072 14.5713ZM17.7931 23.1427C14.8273 23.1427 12.4139 20.6431 12.4139 17.5715C12.4139 14.4998 14.8274 12.0002 17.7931 12.0002C20.7588 12.0002 23.1722 14.4998 23.1722 17.5715C23.1722 20.6431 20.7588 23.1427 17.7931 23.1427ZM21.1034 17.5715C21.1034 19.4614 19.6179 21 17.7931 21C16.1214 21 14.7394 19.709 14.518 18.0408C14.5687 18.044 14.6173 18.0483 14.67 18.0483C14.9142 18.0483 15.1366 18.0129 15.3414 17.954C15.5204 19.1904 16.5507 20.1429 17.7931 20.1429C19.1617 20.1429 20.2759 18.989 20.2759 17.5715C20.2759 16.154 19.1617 15.0001 17.7931 15.0001C17.6224 15.0001 17.4528 15.0226 17.2873 15.059L18.1645 15.5968C18.361 15.7168 18.4262 15.9804 18.3093 16.184C18.2317 16.319 18.0941 16.394 17.9524 16.394C17.881 16.394 17.8086 16.3747 17.7414 16.334L16.4845 15.5626C16.2941 15.4458 16.1597 15.2604 16.1048 15.0386C16.049 14.8168 16.081 14.5865 16.1938 14.3893L16.9376 13.0876C17.0535 12.8829 17.309 12.8154 17.5045 12.9365C17.701 13.0565 17.7662 13.32 17.6503 13.5236L17.2686 14.1911C17.4414 14.1611 17.6162 14.1429 17.7921 14.1429C19.6169 14.1429 21.1024 15.6815 21.1024 17.5714L21.1034 17.5715Z" fill="#282828"/>
</svg>
