<svg width="25" height="24" viewBox="0 0 25 24" fill="none" xmlns="http://www.w3.org/2000/svg">
<path fill-rule="evenodd" clip-rule="evenodd" d="M23.1932 0.000156548H1.62719C0.955884 0.00117551 0.411435 0.43427 0.410156 0.968218V19.0202H5.06425C5.94309 19.0212 6.65539 19.5888 6.65795 20.2878V24H23.1931C23.8644 23.999 24.4088 23.5659 24.4101 23.0319V0.978262C24.4127 0.72045 24.2858 0.471809 24.0578 0.288392C23.8285 0.103949 23.5187 0.00117394 23.1932 0.000156548ZM20.8783 19.3045C20.9834 19.2964 21.0884 19.3249 21.1678 19.381C21.246 19.438 21.2908 19.5185 21.2908 19.6031C21.2908 19.6877 21.246 19.7682 21.1678 19.8252C21.0884 19.8823 20.9834 19.9098 20.8783 19.9017H9.60596C9.50091 19.9098 9.39586 19.8823 9.31771 19.8252C9.23828 19.7682 9.19344 19.6877 9.19344 19.6031C9.19344 19.5185 9.23828 19.438 9.31771 19.381C9.39585 19.3249 9.5009 19.2964 9.60596 19.3045H20.8783ZM20.8783 17.1391C21.0871 17.1391 21.2549 17.2736 21.2549 17.4397C21.2549 17.6048 21.0871 17.7393 20.8783 17.7393H3.94207C3.73325 17.7393 3.56544 17.6048 3.56544 17.4397C3.56544 17.2736 3.73326 17.1391 3.94207 17.1391H20.8783ZM0.786754 19.6204H5.05025C5.27316 19.6204 5.48709 19.6907 5.64468 19.8161C5.80225 19.9414 5.89065 20.1106 5.89065 20.2879V23.6792L0.773799 19.6091L0.786754 19.6204ZM5.94329 6.69718L9.2229 4.79567V4.79466C9.21777 4.74982 9.21777 4.70396 9.2229 4.65913C9.24467 4.28413 9.63029 3.9876 10.1017 3.98248C10.5745 3.97739 10.969 4.26678 11.0036 4.64076L14.1231 5.72092H14.1218C14.2858 5.60679 14.4946 5.54361 14.7124 5.54361C14.8636 5.54463 15.0122 5.57418 15.1454 5.63226L18.425 3.73076C18.4186 3.68592 18.4186 3.64006 18.425 3.59523C18.425 3.30683 18.6441 3.04698 18.981 2.93796C19.3167 2.82893 19.701 2.89313 19.9547 3.09897C20.2083 3.30481 20.2801 3.61257 20.1353 3.87751C19.9918 4.14245 19.66 4.31061 19.2975 4.30448C19.1463 4.3055 18.9964 4.27493 18.8645 4.21582L15.5848 6.11733C15.59 6.16217 15.59 6.20802 15.5848 6.25286C15.5221 6.60136 15.1493 6.85917 14.7073 6.86121C14.2653 6.86325 13.8887 6.60849 13.8208 6.261L10.7013 5.17881C10.4182 5.37649 10.0082 5.41216 9.67898 5.26746L6.39937 7.16897C6.4109 7.2138 6.41603 7.25864 6.41475 7.3045C6.42243 7.59289 6.20849 7.85579 5.87541 7.9689C5.54362 8.08304 5.15672 8.02597 4.89793 7.8242C4.64042 7.62244 4.56101 7.31572 4.69807 7.04872C4.83515 6.78276 5.16056 6.6085 5.52309 6.60748C5.67426 6.60748 5.82415 6.63805 5.9561 6.69715L5.94329 6.69718ZM20.6491 6.72368V14.7342C20.6491 15.0552 20.3211 15.3161 19.9175 15.3161H18.7069C18.3072 15.312 17.9857 15.0522 17.9857 14.7342V6.72263C17.9857 6.40163 18.3136 6.14076 18.7172 6.14076H19.9278C20.3314 6.14076 20.658 6.40163 20.658 6.72263L20.6491 6.72368ZM14.0898 9.23353H15.3005L15.2992 9.23251C15.7027 9.23251 16.0294 9.49134 16.0307 9.81133V14.7342C16.0307 15.0552 15.704 15.3161 15.2992 15.3161H14.1065C13.7017 15.3161 13.375 15.0552 13.375 14.7342V9.81133C13.3763 9.49135 13.7029 9.23251 14.1065 9.23251L14.0898 9.23353ZM9.49838 7.3789H10.709L10.7077 7.37788C11.1126 7.37788 11.4393 7.63773 11.4393 7.95975V14.7424C11.4393 15.0634 11.1126 15.3232 10.7077 15.3232H9.50478C9.10122 15.3232 8.77326 15.0634 8.77326 14.7424V7.95975C8.77326 7.63774 9.10122 7.37788 9.50478 7.37788L9.49838 7.3789ZM4.90693 10.4676L6.11373 10.4666C6.51345 10.4717 6.8337 10.7305 6.83498 11.0485V14.7343C6.83498 15.0553 6.50702 15.3162 6.10346 15.3162H4.90306C4.4995 15.3162 4.17154 15.0553 4.17154 14.7343V11.0485C4.1741 10.7275 4.4995 10.4676 4.90306 10.4666L4.90693 10.4676Z" fill="#282828"/>
</svg>
