<svg width="25" height="24" viewBox="0 0 25 24" fill="none" xmlns="http://www.w3.org/2000/svg">
<path d="M22.7946 4.34022e-05H1.88637C1.03499 4.34022e-05 0.340454 0.556561 0.340454 1.23875V19.147C0.340454 19.2238 0.379038 19.3006 0.448741 19.3535L6.13934 23.9132C6.20904 23.9691 6.30239 24 6.39699 24H22.7945C23.6459 24 24.3405 23.4435 24.3405 22.7613V1.2387C24.3405 0.556518 23.646 4.34022e-05 22.7946 4.34022e-05ZM6.03124 23.0017L1.59003 19.4403H5.21967C5.66901 19.4403 6.03494 19.7335 6.03494 20.0935V23.0019L6.03124 23.0017ZM23.6074 22.7613C23.6074 23.1214 23.2415 23.4146 22.7922 23.4146L6.76424 23.4156V20.0913C6.76424 19.4092 6.0697 18.8526 5.21833 18.8526H1.07345V1.23566C1.07345 0.875607 1.43938 0.582399 1.88873 0.582399H22.7982C23.2476 0.582399 23.6135 0.875607 23.6135 1.23566V22.7613L23.6074 22.7613ZM5.0629 15.5287H6.2354C6.82788 15.5287 7.30956 15.1427 7.30956 14.668V11.0675C7.30956 10.5927 6.82788 10.2068 6.2354 10.2068H5.0629C4.47042 10.2068 3.98873 10.5927 3.98873 11.0675V14.668C3.99246 15.1427 4.4729 15.5287 5.0629 15.5287ZM4.72185 11.0706C4.72185 10.92 4.87495 10.7953 5.06538 10.7953H6.23788C6.42583 10.7953 6.58141 10.918 6.58141 11.0706V14.6711C6.58141 14.8217 6.42831 14.9463 6.23788 14.9463H5.06538C4.87743 14.9463 4.72185 14.8236 4.72185 14.6711V11.0706ZM9.52376 7.19277C8.93128 7.19277 8.4496 7.57874 8.4496 8.05348V14.6688C8.4496 15.1435 8.93128 15.5295 9.52376 15.5295H10.6963C11.2887 15.5295 11.7704 15.1435 11.7704 14.6688V8.05246C11.7704 7.57772 11.2887 7.19175 10.6963 7.19175L9.52376 7.19277ZM11.041 8.05248V14.6678C11.041 14.8184 10.8879 14.943 10.6975 14.943H9.52501C9.33706 14.943 9.18148 14.8204 9.18148 14.6678L9.17899 8.05248C9.17899 7.90189 9.33209 7.77722 9.52252 7.77722H10.695C10.8879 7.77922 11.041 7.90189 11.041 8.05248ZM13.9847 9.00296C13.3923 9.00296 12.9106 9.38892 12.9106 9.86366V14.6688C12.9106 15.1435 13.3923 15.5295 13.9847 15.5295H15.1572C15.7497 15.5295 16.2314 15.1435 16.2314 14.6688V9.86264C16.2314 9.3879 15.7497 9.00194 15.1572 9.00194L13.9847 9.00296ZM15.502 9.86267V14.6678C15.502 14.8184 15.3489 14.943 15.1585 14.943H13.986C13.798 14.943 13.6424 14.8203 13.6424 14.6678L13.64 9.86267C13.64 9.71207 13.7931 9.58741 13.9835 9.58741H15.156C15.3452 9.5894 15.502 9.71208 15.502 9.86267ZM18.442 5.98489C17.8495 5.98489 17.3678 6.37085 17.3678 6.84559V14.6688C17.3678 15.1435 17.8495 15.5295 18.442 15.5295H19.6145C20.2069 15.5295 20.6886 15.1435 20.6886 14.6688V6.84457C20.6886 6.36983 20.2069 5.98387 19.6145 5.98387L18.442 5.98489ZM19.9592 6.8446V14.6678C19.9592 14.8184 19.8061 14.9431 19.6157 14.9431H18.4432C18.2553 14.9431 18.0997 14.8204 18.0997 14.6678L18.0984 6.8446C18.0984 6.694 18.2515 6.56934 18.442 6.56934H19.6145C19.8061 6.57133 19.9592 6.694 19.9592 6.8446ZM5.65292 8.41041C6.33127 8.41041 6.88268 7.96859 6.88268 7.42504C6.88268 7.31533 6.85405 7.21061 6.81298 7.11386L9.38077 5.61685C9.5849 5.73952 9.83633 5.81332 10.1102 5.81332C10.4799 5.81332 10.8084 5.67768 11.0337 5.47125L13.3538 6.28109C13.3501 6.317 13.3414 6.34991 13.3414 6.38581C13.3414 6.92936 13.8928 7.37119 14.5711 7.37119C15.2495 7.37119 15.8009 6.92936 15.8009 6.38581C15.8009 6.2761 15.7723 6.17138 15.7312 6.07463L18.299 4.57862C18.5031 4.70129 18.7545 4.77509 19.0284 4.77509C19.7067 4.77509 20.2581 4.33326 20.2581 3.78971C20.2581 3.24617 19.7067 2.80434 19.0284 2.80434C18.35 2.80434 17.7986 3.24617 17.7986 3.78971C17.7986 3.89942 17.8272 4.00414 17.8683 4.1009L15.3005 5.59691C15.0964 5.47424 14.845 5.40044 14.5711 5.40044C14.2014 5.40044 13.8729 5.53607 13.6476 5.74251L11.3275 4.93267C11.3312 4.89676 11.3399 4.86385 11.3399 4.82794C11.3399 4.2844 10.7885 3.84257 10.1102 3.84257C9.43182 3.84257 8.88041 4.2844 8.88041 4.82794C8.88041 4.93765 8.90904 5.04237 8.95012 5.13913L6.38232 6.63813C6.17819 6.51546 5.92676 6.44165 5.65292 6.44165C4.97457 6.44165 4.42316 6.88348 4.42316 7.42703C4.42192 7.97058 4.97332 8.41041 5.65292 8.41041ZM19.0285 3.39289C19.3023 3.39289 19.5251 3.57142 19.5251 3.79083C19.5251 4.01025 19.3023 4.18877 19.0285 4.18877C18.7547 4.18877 18.5319 4.01025 18.5319 3.79083C18.5319 3.57142 18.7547 3.39289 19.0285 3.39289ZM14.5713 5.98693C14.8452 5.98693 15.068 6.16545 15.068 6.38487C15.068 6.60429 14.8452 6.78281 14.5713 6.78281C14.2975 6.78281 14.0747 6.60429 14.0747 6.38487C14.0747 6.16546 14.2975 5.98693 14.5713 5.98693ZM10.1104 4.43209C10.3842 4.43209 10.607 4.61061 10.607 4.83003C10.607 5.04945 10.3842 5.22797 10.1104 5.22797C9.83655 5.22797 9.61375 5.04945 9.61375 4.83003C9.61375 4.61061 9.83655 4.43209 10.1104 4.43209ZM5.65324 7.02613C5.92707 7.02613 6.14987 7.20465 6.14987 7.42407C6.14987 7.64348 5.92707 7.82201 5.65324 7.82201C5.37941 7.82201 5.15661 7.64348 5.15661 7.42407C5.15536 7.20465 5.37567 7.02613 5.65324 7.02613ZM20.9155 19.43C20.9155 19.5906 20.7524 19.7232 20.5495 19.7232H9.62241C9.42202 19.7232 9.25649 19.5926 9.25649 19.43C9.25649 19.2665 9.41954 19.1368 9.62241 19.1368H20.5483C20.7499 19.1358 20.9155 19.2685 20.9155 19.43ZM20.9155 17.3157C20.9155 17.4762 20.7524 17.6089 20.5495 17.6089H4.13224C3.93185 17.6089 3.76632 17.4782 3.76632 17.3157C3.76632 17.1521 3.92937 17.0225 4.13224 17.0225H20.5486C20.7502 17.0245 20.9155 17.1551 20.9155 17.3157Z" fill="#282828"/>
</svg>
