<svg width="28" height="28" viewBox="0 0 28 28" fill="none" xmlns="http://www.w3.org/2000/svg">
<rect width="28" height="28" rx="8" fill="#F9BB2A" fill-opacity="0.1"/>
<g clip-path="url(#clip0_1019_65539)">
<path d="M15.4271 12.4476L18.0502 12.8289L16.1522 14.6793C16.0724 14.7574 16.0359 14.8695 16.0546 14.9799L16.503 17.592L14.1567 16.3582C14.0581 16.3064 13.9393 16.3064 13.8408 16.3582L11.4945 17.592L11.9428 14.9799C11.9615 14.8695 11.925 14.7574 11.8452 14.6793L9.94723 12.8289L12.5703 12.4476C12.6807 12.4315 12.7766 12.3618 12.8259 12.2616L13.9927 9.87207L15.1722 12.2616C15.2214 12.3618 15.3167 12.4315 15.4271 12.4476ZM21.1319 13.9999C21.1319 17.9334 17.9321 21.133 13.9989 21.133C10.0656 21.133 6.86583 17.9332 6.86583 13.9999C6.86583 10.0666 10.0656 6.86687 13.9989 6.86687C17.9321 6.86687 21.1319 10.0666 21.1319 13.9999ZM18.7219 12.6107C18.6438 12.3703 18.44 12.1988 18.1903 12.1623L15.7023 11.8005L14.5899 9.54595C14.4786 9.32006 14.2519 9.17911 13.9997 9.17911C13.7475 9.17911 13.5207 9.32007 13.4086 9.54595L12.2962 11.8005L9.80816 12.1623C9.5585 12.1988 9.3547 12.3703 9.27657 12.6107C9.19844 12.851 9.26213 13.1091 9.44301 13.2858L11.2433 15.041L10.8178 17.5188C10.7754 17.7676 10.8756 18.0148 11.0802 18.1634C11.1957 18.2474 11.3307 18.2899 11.4666 18.2899C11.571 18.2899 11.6763 18.2644 11.774 18.2135L13.9997 17.0433L16.2253 18.2135C16.4495 18.3315 16.7144 18.312 16.9191 18.1634C17.1237 18.0148 17.2239 17.7685 17.1815 17.5188L16.7561 15.041L18.5563 13.2858C18.7372 13.1091 18.8 12.851 18.7219 12.6107ZM23.8493 13.9999C23.8493 19.4312 19.4302 23.8503 13.9989 23.8503C8.56757 23.8503 4.14844 19.4312 4.14844 13.9999C4.14844 8.56861 8.56757 4.14948 13.9989 4.14948C19.4302 4.14948 23.8493 8.56861 23.8493 13.9999ZM21.8113 13.9999C21.8113 9.69208 18.3067 6.1873 13.9987 6.1873C9.69061 6.1873 6.18605 9.69187 6.18605 13.9999C6.18605 18.308 9.69061 21.8125 13.9987 21.8125C18.3067 21.8125 21.8113 18.308 21.8113 13.9999Z" fill="#F9BB2A"/>
</g>
<defs>
<clipPath id="clip0_1019_65539">
<rect width="20" height="20" fill="white" transform="translate(4 4)"/>
</clipPath>
</defs>
</svg>
