<svg width="24" height="24" viewBox="0 0 24 24" fill="none" xmlns="http://www.w3.org/2000/svg">
<path fill-rule="evenodd" clip-rule="evenodd" d="M13.3498 3.84519C13.7986 3.93993 14.2389 4.06937 14.6667 4.23229C14.6096 4.42453 14.5668 4.62057 14.5388 4.81887C14.1939 4.43853 13.7932 4.11039 13.3498 3.84519ZM3.68786 15.6798C4.30211 15.6801 4.90247 15.8586 5.41304 16.1927C5.92362 16.5269 6.32148 17.0016 6.55632 17.557C6.79117 18.1124 6.85245 18.7234 6.73243 19.3129C6.6124 19.9023 6.31646 20.4437 5.88201 20.8686C5.44756 21.2935 4.89412 21.5828 4.29165 21.6999C3.68919 21.8171 3.06475 21.7568 2.49729 21.5267C1.92983 21.2967 1.44483 20.9071 1.10361 20.4073C0.762384 19.9076 0.580258 19.32 0.580258 18.719C0.580608 17.9128 0.908178 17.1397 1.49094 16.5698C2.0737 15.9998 2.86393 15.6797 3.68786 15.6798ZM3.68786 19.0447C3.81451 19.0452 3.93584 19.0946 4.02555 19.1821C4.11525 19.2696 4.1661 19.3881 4.16707 19.512C4.16759 19.5737 4.15525 19.6347 4.13081 19.6915C4.10637 19.7483 4.07033 19.7997 4.02492 19.8424C3.98081 19.8857 3.92841 19.92 3.8707 19.9435C3.813 19.9669 3.75113 19.979 3.68865 19.979C3.62617 19.979 3.56431 19.9669 3.5066 19.9435C3.4489 19.92 3.39649 19.8857 3.35239 19.8424C3.30692 19.7997 3.27086 19.7484 3.24641 19.6916C3.22196 19.6348 3.20965 19.5737 3.21024 19.512C3.21024 19.426 3.17531 19.3435 3.11314 19.2827C3.05097 19.2218 2.96664 19.1876 2.87872 19.1876C2.7908 19.1876 2.70647 19.2218 2.6443 19.2827C2.58213 19.3435 2.5472 19.426 2.5472 19.512C2.54705 19.8079 2.66617 20.092 2.87872 20.3025C3.01203 20.433 3.17644 20.5291 3.35714 20.582V20.84C3.35714 20.9261 3.39207 21.0086 3.45424 21.0694C3.51641 21.1302 3.60073 21.1644 3.68865 21.1644C3.77658 21.1644 3.8609 21.1302 3.92307 21.0694C3.98524 21.0086 4.02017 20.9261 4.02017 20.84V20.582C4.25529 20.5134 4.46132 20.372 4.60736 20.1791C4.75339 19.9862 4.83155 19.7521 4.8301 19.512C4.8308 19.3651 4.80176 19.2195 4.74467 19.0836C4.68757 18.9477 4.60354 18.8242 4.49743 18.7202C4.39132 18.6162 4.26522 18.5338 4.12641 18.4778C3.9876 18.4217 3.83882 18.3931 3.68865 18.3936C3.62612 18.3938 3.56417 18.3818 3.50643 18.3584C3.44869 18.3349 3.39632 18.3003 3.35239 18.2568C3.29726 18.2025 3.25664 18.1357 3.23411 18.0624C3.21159 17.9891 3.20785 17.9115 3.22324 17.8365C3.23862 17.7614 3.27266 17.6912 3.32233 17.6321C3.372 17.5729 3.43579 17.5267 3.50807 17.4974C3.58034 17.4681 3.65887 17.4566 3.73674 17.464C3.8146 17.4715 3.8894 17.4975 3.95453 17.54C4.01966 17.5824 4.07311 17.6398 4.11018 17.7072C4.14725 17.7746 4.16679 17.8499 4.16707 17.9265C4.16707 17.9691 4.17565 18.0113 4.19231 18.0506C4.20897 18.09 4.23339 18.1257 4.26417 18.1559C4.29495 18.186 4.3315 18.2099 4.37172 18.2262C4.41194 18.2425 4.45505 18.2509 4.49859 18.2509C4.54212 18.2509 4.58523 18.2425 4.62545 18.2262C4.66568 18.2099 4.70222 18.186 4.73301 18.1559C4.76379 18.1257 4.78821 18.09 4.80487 18.0506C4.82153 18.0113 4.8301 17.9691 4.8301 17.9265C4.83147 17.6896 4.75545 17.4584 4.61312 17.2667C4.47079 17.075 4.2696 16.9329 4.0389 16.8609V16.5982C4.0389 16.5116 4.00372 16.4285 3.9411 16.3672C3.87848 16.3059 3.79356 16.2715 3.70501 16.2715C3.61645 16.2715 3.53153 16.3059 3.46891 16.3672C3.40629 16.4285 3.37112 16.5116 3.37112 16.5982V16.8516C3.18567 16.9055 3.01652 17.0029 2.87846 17.1355C2.71837 17.292 2.60936 17.4915 2.56524 17.7087C2.52111 17.9258 2.54386 18.1509 2.6306 18.3554C2.71734 18.56 2.86416 18.7347 3.05247 18.8575C3.24078 18.9803 3.4621 19.0456 3.68839 19.0452L3.68786 19.0447ZM19.5498 1.255C20.4209 1.255 21.2724 1.50776 21.9967 1.98131C22.721 2.45486 23.2855 3.12794 23.6189 3.91543C23.9522 4.70293 24.0395 5.56946 23.8695 6.40545C23.6996 7.24145 23.2801 8.00936 22.6641 8.61208C22.0482 9.2148 21.2634 9.62526 20.409 9.79155C19.5546 9.95784 18.6691 9.87249 17.8643 9.5463C17.0595 9.22011 16.3716 8.66773 15.8876 7.95901C15.4037 7.25028 15.1454 6.41705 15.1454 5.56468C15.1458 4.42183 15.61 3.32592 16.4359 2.5178C17.2618 1.70969 18.3818 1.25548 19.5498 1.255ZM19.5498 5.88984C19.6582 5.88793 19.7659 5.90718 19.8666 5.94645C19.9673 5.98573 20.059 6.04425 20.1364 6.11859C20.2138 6.19294 20.2752 6.28162 20.3171 6.37945C20.3591 6.47729 20.3807 6.58232 20.3807 6.68842C20.3807 6.79452 20.3591 6.89955 20.3171 6.99738C20.2752 7.09522 20.2138 7.1839 20.1364 7.25824C20.059 7.33259 19.9673 7.39111 19.8666 7.43038C19.7659 7.46966 19.6582 7.48891 19.5498 7.487C19.4426 7.48727 19.3364 7.46679 19.2373 7.42673C19.1382 7.38667 19.0482 7.32782 18.9725 7.25358C18.8968 7.17934 18.8368 7.09117 18.7961 6.99415C18.7553 6.89713 18.7346 6.79318 18.7351 6.68829C18.7351 6.60164 18.6999 6.51854 18.6373 6.45727C18.5747 6.396 18.4897 6.36158 18.4012 6.36158C18.3126 6.36158 18.2277 6.396 18.1651 6.45727C18.1025 6.51854 18.0673 6.60164 18.0673 6.68829C18.0679 7.01634 18.182 7.33452 18.391 7.59103C18.6 7.84753 18.8915 8.02726 19.2182 8.10093V8.57087C19.2182 8.61347 19.2268 8.65565 19.2435 8.69501C19.2601 8.73436 19.2845 8.77013 19.3153 8.80025C19.3461 8.83037 19.3827 8.85426 19.4229 8.87057C19.4631 8.88687 19.5062 8.89526 19.5498 8.89526C19.5933 8.89526 19.6364 8.88687 19.6766 8.87057C19.7168 8.85426 19.7534 8.83037 19.7842 8.80025C19.815 8.77013 19.8394 8.73436 19.856 8.69501C19.8727 8.65565 19.8813 8.61347 19.8813 8.57087V8.10093C20.1519 8.03968 20.3997 7.9056 20.5965 7.71384C20.8036 7.51113 20.9447 7.25289 21.0019 6.97176C21.059 6.69064 21.0298 6.39924 20.9177 6.13438C20.8057 5.86953 20.616 5.64311 20.3725 5.48374C20.129 5.32438 19.8427 5.23921 19.5498 5.239C19.3879 5.23956 19.2294 5.19308 19.0946 5.10545C18.9597 5.01782 18.8545 4.89298 18.7922 4.74676C18.7299 4.60054 18.7134 4.43952 18.7447 4.2841C18.7761 4.12869 18.8539 3.98588 18.9683 3.87378C19.0827 3.76167 19.2285 3.68532 19.3873 3.6544C19.546 3.62347 19.7106 3.63937 19.8601 3.70007C20.0097 3.76078 20.1374 3.86355 20.2272 3.99538C20.317 4.1272 20.3647 4.28214 20.3644 4.44055C20.3644 4.5272 20.3996 4.6103 20.4622 4.67157C20.5248 4.73284 20.6098 4.76726 20.6983 4.76726C20.7869 4.76726 20.8718 4.73284 20.9344 4.67157C20.997 4.6103 21.0322 4.5272 21.0322 4.44055C21.0328 4.25006 20.9947 4.06136 20.9201 3.8854C20.8455 3.70944 20.736 3.54972 20.5978 3.41552C20.4068 3.22925 20.1679 3.09701 19.9063 3.03281V2.55771C19.9063 2.47168 19.8714 2.38917 19.8092 2.32833C19.7471 2.2675 19.6627 2.23332 19.5748 2.23332C19.4869 2.23332 19.4026 2.2675 19.3404 2.32833C19.2782 2.38917 19.2433 2.47168 19.2433 2.55771V3.02223C18.8853 3.09676 18.5682 3.29834 18.3531 3.58809C18.1379 3.87785 18.0401 4.23527 18.0783 4.59145C18.1165 4.94763 18.2882 5.27735 18.5601 5.51705C18.8321 5.75674 19.1851 5.88945 19.5511 5.88958L19.5498 5.88984ZM22.2826 12.1719C22.2826 12.0853 22.3178 12.0022 22.3804 11.9409C22.443 11.8796 22.5279 11.8452 22.6165 11.8452C22.705 11.8452 22.79 11.8796 22.8526 11.9409C22.9152 12.0022 22.9504 12.0853 22.9504 12.1719C22.9492 13.8075 22.5823 15.4231 21.8755 16.9053C21.1686 18.3875 20.1389 19.7004 18.8586 20.752C17.5783 21.8036 16.0784 22.5684 14.464 22.9927C12.8497 23.417 11.16 23.4906 9.51353 23.2083C9.14646 23.1461 8.78283 23.0658 8.42404 22.9678L8.66562 23.3753C8.70947 23.4501 8.72113 23.539 8.69804 23.6223C8.67494 23.7056 8.61897 23.7765 8.54246 23.8194C8.50502 23.8407 8.46365 23.8545 8.42072 23.8601C8.3778 23.8657 8.33418 23.8629 8.29236 23.8519C8.25054 23.8409 8.21135 23.8219 8.17706 23.7961C8.14276 23.7702 8.11403 23.738 8.09252 23.7012L7.41999 22.5657C7.39829 22.5287 7.38426 22.4878 7.37871 22.4455C7.37316 22.4031 7.37618 22.3601 7.38762 22.3189C7.39906 22.2777 7.41868 22.2391 7.44537 22.2054C7.47206 22.1716 7.50529 22.1433 7.54316 22.1221L8.70333 21.4648C8.77943 21.4237 8.86898 21.4134 8.95272 21.4362C9.03647 21.459 9.10773 21.5131 9.15117 21.5867C9.1946 21.6604 9.20675 21.7478 9.185 21.8302C9.16325 21.9126 9.10933 21.9833 9.03485 22.0271L8.51872 22.3185C8.88313 22.4208 9.25289 22.504 9.62641 22.5675C11.1774 22.8346 12.7694 22.7661 14.2905 22.3668C15.8116 21.9676 17.2248 21.2473 18.431 20.2565C19.6373 19.2657 20.6071 18.0286 21.2725 16.6319C21.9379 15.2352 22.2827 13.7129 22.2826 12.1719ZM13.1652 0.625064L13.4683 1.13294C13.2647 1.09887 13.0658 1.06997 12.8617 1.04648C12.4094 0.993987 11.9544 0.967619 11.4989 0.967516C9.87197 0.964319 8.26305 1.30101 6.77974 1.95509C5.29644 2.60917 3.97292 3.56556 2.89768 4.76032C1.82244 5.95508 1.02025 7.36068 0.544737 8.88315C0.069229 10.4056 -0.0686404 12.0099 0.140346 13.5887C0.200938 14.0562 0.291044 14.5196 0.410149 14.9763C0.42092 15.0177 0.439925 15.0567 0.46608 15.0909C0.492234 15.1252 0.525025 15.154 0.562581 15.1759C0.600137 15.1977 0.641721 15.2121 0.684961 15.2182C0.7282 15.2243 0.772248 15.2221 0.814588 15.2115C0.856929 15.201 0.896733 15.1824 0.931728 15.1568C0.966724 15.1312 0.996225 15.0991 1.01855 15.0624C1.04087 15.0256 1.05558 14.9849 1.06183 14.9426C1.06808 14.9003 1.06576 14.8572 1.05498 14.8158C0.940576 14.3857 0.855118 13.9487 0.79916 13.5076C0.605512 12.021 0.737653 10.511 1.18679 9.07812C1.63593 7.64529 2.39176 6.32248 3.40401 5.19771C4.41625 4.07293 5.66168 3.17199 7.05744 2.55482C8.4532 1.93766 9.96728 1.61842 11.4989 1.61835C11.9295 1.6183 12.3597 1.64303 12.7873 1.69242C12.9247 1.70868 13.0621 1.72674 13.1948 1.74764L12.7968 1.97268C12.7206 2.01631 12.6652 2.08778 12.6428 2.17136C12.6205 2.25494 12.633 2.34379 12.6776 2.41835C12.7222 2.49292 12.7952 2.54711 12.8806 2.56898C12.966 2.59086 13.0568 2.57863 13.133 2.535L14.2935 1.87926C14.3311 1.85777 14.3641 1.82922 14.3904 1.79524C14.4168 1.76126 14.436 1.72253 14.447 1.68126C14.458 1.64 14.4606 1.59701 14.4545 1.55477C14.4485 1.51253 14.434 1.47188 14.4119 1.43513L13.7441 0.299645C13.7223 0.262519 13.6932 0.229969 13.6584 0.203852C13.6237 0.177736 13.5841 0.158565 13.5418 0.147433C13.4995 0.136302 13.4554 0.133429 13.412 0.138978C13.3686 0.144527 13.3267 0.15839 13.2888 0.179774C13.2508 0.201158 13.2176 0.229646 13.1909 0.26361C13.1642 0.297574 13.1446 0.336349 13.1332 0.377722C13.1219 0.419095 13.1189 0.462255 13.1246 0.504739C13.1303 0.547222 13.1444 0.588197 13.1663 0.625322L13.1652 0.625064ZM20.0377 10.5017C19.8765 10.5164 19.7154 10.5244 19.5498 10.5244C18.5408 10.5257 17.5544 10.2317 16.7175 9.68029C16.8469 10.3958 16.9197 11.12 16.9353 11.8465H20.1985C20.1813 11.3948 20.1275 10.9451 20.0377 10.5017ZM20.1985 12.4976H16.9353C16.9097 13.9369 16.6504 15.363 16.1671 16.7226H18.863C19.6837 15.4557 20.1447 13.9977 20.1985 12.4986V12.4976ZM18.3941 17.3722H15.9076C15.7571 17.7113 15.5862 18.0414 15.3959 18.3608C14.9065 19.2289 14.2032 19.9636 13.3498 20.4981C15.3555 20.0711 17.1422 18.9638 18.3941 17.3722ZM9.64619 20.4981C8.79312 19.9646 8.09102 19.2296 7.60461 18.3608C7.52549 18.2338 7.45323 18.1027 7.38202 17.9683C7.43388 18.2153 7.45933 18.4669 7.45797 18.719C7.45824 19.0354 7.41685 19.3505 7.33481 19.6565C8.06009 20.044 8.83851 20.3274 9.64619 20.4981ZM3.29938 15.048C3.97299 14.9803 4.65281 15.091 5.26775 15.3684C5.88269 15.6458 6.41014 16.0799 6.79494 16.6251C6.33346 15.2949 6.0875 13.9022 6.06597 12.4976H2.79749C2.82927 13.3679 2.9983 14.2282 3.29859 15.048H3.29938ZM2.79828 11.8465C2.85078 10.4639 3.2474 9.11473 3.95371 7.91616H6.72373C6.30773 9.18739 6.08609 10.5118 6.06597 11.8465H2.79828ZM4.3807 7.26481C5.63709 5.52076 7.51577 4.30068 9.64619 3.84519C8.79312 4.37866 8.09102 5.11368 7.60461 5.98248C7.35932 6.39365 7.14563 6.8221 6.96531 7.26429L4.3807 7.26481ZM14.4879 5.799C13.7494 4.77423 12.8303 4.11797 11.8307 3.99771V7.26481H14.7851C14.6104 6.79379 14.5097 6.29956 14.4865 5.799H14.4879ZM11.8307 7.91513V11.8455H16.2676C16.2482 10.8889 16.1243 9.93721 15.8981 9.00648C15.5786 8.68001 15.3047 8.31365 15.0834 7.91693L11.8307 7.91513ZM11.8307 12.4965V16.7226H15.4624C15.9757 15.3701 16.2481 13.9413 16.2676 12.4986L11.8307 12.4965ZM11.8307 17.3711V20.3466C12.9864 20.207 14.0332 19.3492 14.8241 18.0325C14.9472 17.8235 15.0656 17.6034 15.1794 17.3722L11.8307 17.3711ZM11.1664 3.99771V7.26481H7.68531C7.82758 6.93745 7.99054 6.61907 8.17323 6.31152C8.96443 4.99539 10.0107 4.13706 11.1664 3.99771ZM7.42474 7.91616C6.98574 9.18301 6.75084 10.509 6.72848 11.8465H11.1664V7.91616H7.42474ZM6.72848 12.4976C6.75016 13.9404 7.02244 15.3691 7.53367 16.7226H11.1664V12.4976H6.72848ZM7.81797 17.3722C7.93155 17.6029 8.04997 17.823 8.17323 18.0325C8.96443 19.3487 10.0107 20.207 11.1664 20.3466V17.3722H7.81797Z" fill="#282828"/>
</svg>
