<svg width="24" height="24" viewBox="0 0 24 24" fill="none" xmlns="http://www.w3.org/2000/svg">
<path fill-rule="evenodd" clip-rule="evenodd" d="M3.17604 15.3807C3.00366 14.9398 2.86672 14.4859 2.76653 14.0233C2.45548 12.5792 2.51365 11.08 2.93567 9.66441C3.35768 8.24879 4.12991 6.96247 5.1809 5.92445C6.23189 4.88643 7.5277 4.13023 8.94845 3.72583C10.3692 3.32142 11.869 3.28187 13.3091 3.61083C13.8278 3.72864 14.3346 3.89371 14.8231 4.10396C15.0898 3.33514 15.5556 2.65079 16.173 2.12069C16.7904 1.59059 17.5374 1.2337 18.3377 1.0864C19.138 0.939104 19.9631 1.00667 20.7288 1.28222C21.4945 1.55776 22.1734 2.03142 22.6964 2.65491C23.2193 3.2784 23.5676 4.02942 23.7056 4.83139C23.8437 5.63335 23.7666 6.45759 23.4823 7.22005C23.1979 7.98252 22.7164 8.65594 22.087 9.17166C21.4575 9.68738 20.7025 10.027 19.899 10.1558C19.9589 10.4212 20.0095 10.6919 20.0506 10.968C20.3486 13.1222 19.837 15.3104 18.6149 17.1092C18.5932 17.1702 18.555 17.224 18.5045 17.2646C18.2209 17.6615 17.9053 18.0346 17.5609 18.3802C16.1897 19.7532 14.402 20.6329 12.4776 20.8818C10.5531 21.1306 8.60047 20.7345 6.92509 19.7555C6.7336 20.3118 6.39855 20.8077 5.95385 21.193C5.50914 21.5782 4.97057 21.8392 4.39262 21.9495C3.81467 22.0597 3.21784 22.0154 2.66254 21.8209C2.10724 21.6264 1.61316 21.2887 1.2303 20.8419C0.847438 20.3951 0.589377 19.8552 0.482229 19.2766C0.375081 18.6981 0.422647 18.1015 0.620116 17.5473C0.817585 16.993 1.15795 16.5008 1.60677 16.1203C2.05559 15.7399 2.59694 15.4847 3.17604 15.3807ZM8.63288 21.3953L7.50564 22.0461C7.46909 22.0674 7.4371 22.0957 7.41152 22.1294C7.38593 22.163 7.36725 22.2014 7.35654 22.2423C7.34584 22.2833 7.34332 22.3259 7.34914 22.3678C7.35496 22.4097 7.36899 22.45 7.39044 22.4864L8.03945 23.6139C8.08277 23.6877 8.15342 23.7414 8.23608 23.7635C8.31874 23.7855 8.40676 23.7741 8.48105 23.7317C8.5176 23.7103 8.54957 23.682 8.57514 23.6482C8.60072 23.6145 8.61939 23.5761 8.63009 23.5351C8.64079 23.4942 8.64331 23.4515 8.6375 23.4096C8.6317 23.3677 8.61768 23.3273 8.59625 23.2908L8.36611 22.8866C8.7112 22.9831 9.06564 23.0635 9.41983 23.1259C10.0581 23.237 10.7048 23.2929 11.3527 23.2928C12.8132 23.2932 14.2595 23.0057 15.6089 22.4469C16.9583 21.888 18.1843 21.0687 19.2169 20.0358C20.2495 19.0028 21.0684 17.7765 21.6268 16.427C22.1852 15.0774 22.4721 13.631 22.4713 12.1705C22.4713 12.1282 22.463 12.0863 22.4468 12.0472C22.4306 12.0081 22.4069 11.9726 22.3769 11.9427C22.347 11.9128 22.3115 11.8891 22.2724 11.8729C22.2334 11.8567 22.1915 11.8484 22.1492 11.8484C22.1069 11.8484 22.065 11.8567 22.0259 11.8729C21.9868 11.8891 21.9513 11.9128 21.9214 11.9427C21.8915 11.9726 21.8678 12.0081 21.8516 12.0472C21.8354 12.0863 21.8271 12.1282 21.8271 12.1705C21.8258 13.6996 21.4901 15.2098 20.8435 16.5955C20.1969 17.9811 19.255 19.2085 18.084 20.1916C16.9129 21.1748 15.5409 21.8899 14.0642 22.2868C12.5876 22.6837 11.042 22.7528 9.53579 22.4892C9.17263 22.4262 8.81313 22.3437 8.45882 22.2422L8.95575 21.9536C8.99308 21.9329 9.0259 21.9049 9.05231 21.8713C9.07872 21.8377 9.09818 21.7992 9.10956 21.758C9.12093 21.7168 9.12401 21.6738 9.1186 21.6314C9.11318 21.589 9.09939 21.5481 9.07802 21.5111C9.05666 21.4741 9.02815 21.4418 8.99414 21.4159C8.96014 21.39 8.92134 21.3712 8.87998 21.3604C8.83862 21.3497 8.79554 21.3473 8.75325 21.3534C8.71096 21.3595 8.6703 21.3739 8.63364 21.3958L8.63288 21.3953ZM12.9733 0.708848L13.2631 1.21411C13.0699 1.18001 12.872 1.15146 12.6788 1.12796C12.2389 1.07593 11.7964 1.04978 11.3535 1.04965C9.77473 1.05149 8.21442 1.38901 6.77606 2.03981C5.3377 2.69062 4.05416 3.63984 3.0106 4.8245C1.96704 6.00916 1.18731 7.40217 0.723136 8.91114C0.258962 10.4201 0.120956 12.0105 0.318274 13.5769C0.377385 14.0408 0.465132 14.5006 0.58101 14.9537C0.591428 14.9948 0.609839 15.0335 0.635194 15.0675C0.660548 15.1015 0.692349 15.1301 0.728781 15.1518C0.765213 15.1735 0.805562 15.1878 0.847525 15.1939C0.889488 15.2001 0.932242 15.1978 0.973347 15.1874C1.01445 15.177 1.0531 15.1586 1.08709 15.1332C1.12108 15.1079 1.14975 15.0761 1.17145 15.0396C1.19314 15.0032 1.20746 14.9629 1.21356 14.9209C1.21967 14.8789 1.21745 14.8362 1.20703 14.7951C1.09573 14.3679 1.01269 13.9339 0.958442 13.4958C0.902399 13.0563 0.874721 12.6136 0.875579 12.1705C0.876048 9.39196 1.9802 6.72739 3.94515 4.76291C5.91011 2.79843 8.57494 1.69492 11.3535 1.69512C11.7702 1.69507 12.1866 1.71953 12.6005 1.76838C12.7339 1.78405 12.8673 1.80232 13.0009 1.82321L12.6144 2.04678C12.577 2.06757 12.5442 2.09557 12.5178 2.12915C12.4914 2.16274 12.4719 2.20125 12.4606 2.24243C12.4492 2.28362 12.4461 2.32665 12.4515 2.36903C12.4569 2.41142 12.4707 2.4523 12.4921 2.4893C12.5134 2.5263 12.542 2.55868 12.576 2.58455C12.61 2.61043 12.6488 2.62928 12.6901 2.64001C12.7315 2.65074 12.7746 2.65313 12.8169 2.64705C12.8591 2.64097 12.8998 2.62654 12.9365 2.6046L14.064 1.95356C14.1005 1.93229 14.1325 1.904 14.1581 1.87032C14.1837 1.83663 14.2023 1.79823 14.213 1.7573C14.2237 1.71638 14.2262 1.67375 14.2203 1.63186C14.2145 1.58997 14.2004 1.54965 14.1789 1.51323L13.5301 0.385732C13.5101 0.346956 13.4825 0.312651 13.4488 0.284903C13.4151 0.257154 13.3762 0.236542 13.3343 0.224317C13.2924 0.212092 13.2485 0.208511 13.2052 0.213791C13.1618 0.219071 13.1201 0.233102 13.0823 0.255031C13.0446 0.27696 13.0118 0.306329 12.9857 0.341354C12.9597 0.376379 12.9411 0.416328 12.931 0.458774C12.9209 0.50122 12.9195 0.545276 12.927 0.588266C12.9344 0.631255 12.9506 0.67228 12.9744 0.708848H12.9733ZM4.08728 20.7746V20.5187C4.34226 20.4416 4.56102 20.2754 4.70363 20.0504C4.84624 19.8255 4.90319 19.5567 4.8641 19.2932C4.825 19.0297 4.69247 18.7891 4.49068 18.6152C4.28889 18.4413 4.0313 18.3458 3.76493 18.3461C3.70418 18.3464 3.64397 18.3346 3.58787 18.3113C3.53177 18.288 3.4809 18.2537 3.43827 18.2104C3.39446 18.1677 3.35963 18.1166 3.33586 18.0602C3.31208 18.0038 3.29983 17.9432 3.29983 17.882C3.29983 17.8208 3.31208 17.7602 3.33586 17.7038C3.35963 17.6474 3.39446 17.5963 3.43827 17.5536C3.48113 17.5106 3.53206 17.4764 3.58814 17.4531C3.64421 17.4298 3.70433 17.4179 3.76505 17.4179C3.82577 17.4179 3.88589 17.4298 3.94197 17.4531C3.99805 17.4764 4.04897 17.5106 4.09183 17.5536C4.13598 17.596 4.17099 17.6471 4.19471 17.7035C4.21843 17.76 4.23036 17.8207 4.22977 17.882C4.22977 17.9243 4.2381 17.9662 4.25429 18.0052C4.27047 18.0443 4.2942 18.0798 4.32411 18.1097C4.35402 18.1397 4.38953 18.1634 4.42861 18.1796C4.46769 18.1958 4.50957 18.2041 4.55187 18.2041C4.59417 18.2041 4.63606 18.1958 4.67514 18.1796C4.71422 18.1634 4.74973 18.1397 4.77964 18.1097C4.80955 18.0798 4.83327 18.0443 4.84946 18.0052C4.86565 17.9662 4.87398 17.9243 4.87398 17.882C4.87492 17.647 4.80091 17.4179 4.66271 17.2278C4.5245 17.0378 4.32931 16.8967 4.10547 16.8252V16.5643C4.10547 16.4782 4.0713 16.3957 4.01047 16.3349C3.94963 16.2741 3.86713 16.2399 3.78109 16.2399C3.69506 16.2399 3.61256 16.2741 3.55172 16.3349C3.49089 16.3957 3.45672 16.4782 3.45672 16.5643V16.8169C3.20234 16.8935 2.9838 17.0586 2.84067 17.2824C2.69753 17.5061 2.63927 17.7738 2.67644 18.0368C2.7136 18.2999 2.84374 18.5409 3.04327 18.7162C3.2428 18.8916 3.49854 18.9897 3.76417 18.9928C3.82496 18.9924 3.88521 19.0042 3.94136 19.0275C3.99751 19.0508 4.04842 19.0852 4.09107 19.1285C4.13483 19.1712 4.1696 19.2223 4.19333 19.2787C4.21707 19.3351 4.22929 19.3957 4.22929 19.4569C4.22929 19.5181 4.21707 19.5787 4.19333 19.6351C4.1696 19.6915 4.13483 19.7425 4.09107 19.7853C4.04822 19.8283 3.99729 19.8625 3.94121 19.8857C3.88514 19.909 3.82501 19.921 3.76429 19.921C3.70358 19.921 3.64345 19.909 3.58738 19.8857C3.5313 19.8625 3.48037 19.8283 3.43752 19.7853C3.35026 19.6982 3.30073 19.5802 3.29958 19.4569C3.29958 19.4146 3.29125 19.3727 3.27506 19.3336C3.25887 19.2945 3.23515 19.259 3.20524 19.2291C3.17533 19.1992 3.13982 19.1755 3.10074 19.1593C3.06166 19.1431 3.01977 19.1348 2.97747 19.1348C2.93517 19.1348 2.89329 19.1431 2.85421 19.1593C2.81513 19.1755 2.77962 19.1992 2.74971 19.2291C2.7198 19.259 2.69607 19.2945 2.67989 19.3336C2.6637 19.3727 2.65537 19.4146 2.65537 19.4569C2.65635 19.6945 2.7332 19.9256 2.87471 20.1164C3.01622 20.3073 3.215 20.448 3.44206 20.5179V20.7739C3.44086 20.8169 3.4483 20.8598 3.46395 20.9C3.4796 20.9401 3.50314 20.9767 3.53319 21.0076C3.56323 21.0385 3.59916 21.0631 3.63885 21.0798C3.67855 21.0966 3.7212 21.1052 3.76429 21.1052C3.80739 21.1052 3.85004 21.0966 3.88974 21.0798C3.92943 21.0631 3.96536 21.0385 3.9954 21.0076C4.02545 20.9767 4.04899 20.9401 4.06464 20.9C4.08029 20.8598 4.08773 20.8169 4.08653 20.7739L4.08728 20.7746ZM7.07844 19.0939C7.63203 19.4372 8.22537 19.7118 8.84535 19.9116C8.33891 19.4482 7.90734 18.9091 7.56602 18.3135C7.38101 17.9967 7.21507 17.6691 7.06909 17.3325H6.82531C7.01037 17.7539 7.10594 18.2092 7.10598 18.6694C7.10601 18.8113 7.09682 18.9532 7.07844 19.0939ZM6.01537 17.1903C5.9148 17.0372 5.7992 16.8946 5.67027 16.7646C5.18142 16.2732 4.52246 15.9883 3.82956 15.9689C3.13666 15.9494 2.46277 16.1969 1.94715 16.6602C1.43154 17.1235 1.1136 17.7672 1.05904 18.4582C1.00448 19.1492 1.21746 19.8348 1.65399 20.3733C2.09051 20.9117 2.7172 21.2619 3.40456 21.3515C4.09193 21.441 4.78743 21.2631 5.34735 20.8545C5.90727 20.4458 6.28881 19.8377 6.41314 19.1558C6.53746 18.4738 6.39506 17.7702 6.01537 17.1903ZM6.45242 16.685H6.81596C6.34612 15.3358 6.09603 13.9199 6.07524 12.4913H3.22202C3.2401 12.9608 3.29859 13.4277 3.39684 13.8871C3.50497 14.3798 3.65716 14.8617 3.85158 15.3271C4.70691 15.3482 5.52121 15.6981 6.12526 16.304C6.24475 16.4208 6.35403 16.5476 6.45192 16.683L6.45242 16.685ZM19.494 8.59626V8.12965C19.8366 8.0484 20.1375 7.84447 20.3399 7.55641C20.5423 7.26835 20.6322 6.91612 20.5925 6.5663C20.5529 6.21648 20.3864 5.8933 20.1247 5.65787C19.8629 5.42243 19.524 5.29105 19.1719 5.28855C19.0667 5.29043 18.9621 5.27133 18.8643 5.23235C18.7665 5.19337 18.6775 5.13531 18.6024 5.06154C18.5273 4.98777 18.4677 4.89979 18.4269 4.80272C18.3862 4.70565 18.3653 4.60144 18.3653 4.49617C18.3653 4.39091 18.3862 4.2867 18.4269 4.18963C18.4677 4.09256 18.5273 4.00457 18.6024 3.93081C18.6775 3.85704 18.7665 3.79898 18.8643 3.76C18.9621 3.72102 19.0667 3.70192 19.1719 3.7038C19.3822 3.70453 19.5838 3.78781 19.7333 3.93571C19.8066 4.0094 19.8646 4.09682 19.9041 4.19297C19.9436 4.28912 19.9638 4.39211 19.9634 4.49605C19.9634 4.58148 19.9973 4.6634 20.0578 4.72381C20.1182 4.78422 20.2001 4.81815 20.2855 4.81815C20.3709 4.81815 20.4529 4.78422 20.5133 4.72381C20.5737 4.6634 20.6076 4.58148 20.6076 4.49605C20.6086 4.17468 20.5016 3.8623 20.3038 3.60898C20.1061 3.35566 19.829 3.17607 19.517 3.099V2.62733C19.517 2.58503 19.5087 2.54315 19.4925 2.50407C19.4763 2.46499 19.4526 2.42948 19.4227 2.39957C19.3928 2.36966 19.3572 2.34593 19.3182 2.32975C19.2791 2.31356 19.2372 2.30523 19.1949 2.30523C19.1526 2.30523 19.1107 2.31356 19.0716 2.32975C19.0326 2.34593 18.9971 2.36966 18.9671 2.39957C18.9372 2.42948 18.9135 2.46499 18.8973 2.50407C18.8811 2.54315 18.8728 2.58503 18.8728 2.62733V3.08889C18.5272 3.16514 18.2217 3.36601 18.0148 3.65315C17.8078 3.94029 17.7139 4.29359 17.7509 4.64559C17.7879 4.99759 17.9532 5.32364 18.2153 5.56148C18.4775 5.79933 18.818 5.93231 19.1719 5.93504C19.3822 5.93591 19.5837 6.01917 19.7333 6.16695C19.8807 6.31627 19.9634 6.51768 19.9634 6.72754C19.9634 6.9374 19.8807 7.13881 19.7333 7.28813C19.5836 7.43573 19.3821 7.51896 19.1719 7.52005C19.0029 7.52067 18.8383 7.46661 18.7025 7.36594C18.6565 7.30152 18.6103 7.23104 18.5552 7.15474C18.5093 7.08476 18.4585 7.01605 18.408 6.94885C18.3893 6.87656 18.3801 6.80219 18.3804 6.72754C18.3781 6.64305 18.3428 6.5628 18.2822 6.50387C18.2216 6.44494 18.1404 6.41197 18.0559 6.41197C17.9714 6.41197 17.8902 6.44494 17.8296 6.50387C17.769 6.5628 17.7338 6.64305 17.7314 6.72754C17.7311 6.91674 17.7684 7.10411 17.8411 7.27879C17.9138 7.45347 18.0204 7.61199 18.1548 7.74514C18.3446 7.93761 18.5859 8.07113 18.8498 8.12965V8.59626C18.8498 8.68169 18.8837 8.76362 18.9442 8.82402C19.0046 8.88443 19.0865 8.91836 19.1719 8.91836C19.2573 8.91836 19.3393 8.88443 19.3997 8.82402C19.4601 8.76362 19.494 8.68169 19.494 8.59626ZM14.6526 4.73403C14.3928 4.61843 14.1271 4.51673 13.8565 4.42935C14.1239 4.66866 14.3691 4.93162 14.5892 5.21504C14.6031 5.05209 14.6261 4.89142 14.6536 4.73504L14.6526 4.73403ZM15.2693 6.26649C15.4828 6.6576 15.6674 7.06382 15.8215 7.4819C15.8314 7.4998 15.8391 7.51879 15.8445 7.53849C15.895 7.67862 15.9456 7.82177 15.9961 7.96796C16.1102 8.1243 16.2364 8.27144 16.3735 8.40805C17.0207 9.05771 17.8731 9.46278 18.7855 9.55419C19.698 9.6456 20.6138 9.41769 21.377 8.90932C22.1402 8.40096 22.7034 7.64361 22.9706 6.76642C23.2378 5.88922 23.1925 4.94651 22.8423 4.09901C22.4921 3.2515 21.8589 2.5517 21.0504 2.11892C20.242 1.68613 19.3085 1.54717 18.409 1.72571C17.5096 1.90426 16.7 2.38927 16.1181 3.09804C15.5363 3.8068 15.2184 4.69544 15.2185 5.61243C15.219 5.83149 15.2359 6.0502 15.269 6.26674L15.2693 6.26649ZM16.3326 9.23289C16.5123 10.0937 16.6124 10.9692 16.6317 11.8484H19.4801C19.4714 11.5826 19.4484 11.3174 19.4112 11.0541C19.3716 10.771 19.3178 10.49 19.25 10.2123C19.2224 10.2123 19.1949 10.2123 19.1719 10.2123C18.1423 10.214 17.1422 9.86901 16.3326 9.23289ZM15.4168 8.2691C15.3433 8.16476 15.2695 8.05714 15.2051 7.94624H11.6756V11.8484H15.9827C15.9629 10.6349 15.7724 9.43024 15.4168 8.26986V8.2691ZM14.8921 7.30102C14.7862 7.03482 14.706 6.75913 14.6526 6.47769C14.6296 6.43575 14.6021 6.39432 14.5791 6.35339C13.8151 5.04653 12.7935 4.19516 11.6753 4.05672V7.30102H14.8921ZM17.6395 17.3325H15.6331C15.4871 17.6691 15.3211 17.9967 15.1361 18.3135C14.7962 18.9084 14.3662 19.4471 13.8613 19.9104C15.0843 19.5125 16.1959 18.8314 17.1056 17.9224C17.2898 17.7347 17.4692 17.5382 17.6395 17.3325ZM14.9244 17.3325H11.6756V20.2863C12.7937 20.1476 13.8154 19.296 14.5793 17.9894C14.706 17.7771 14.8212 17.5583 14.9244 17.3338V17.3325ZM11.0266 17.3325H7.77773C7.88821 17.5617 8.00324 17.7803 8.12282 17.9881C8.89133 19.2947 9.90842 20.1463 11.0266 20.285V17.3325ZM7.5016 16.6863H11.0266V12.4926H6.71996C6.74121 13.9248 7.00604 15.3429 7.50312 16.6863H7.5016ZM11.6756 16.6863H15.2005C15.6999 15.3436 15.9648 13.925 15.9837 12.4926H11.6756V16.6863ZM15.8862 16.6863H18.1179C18.9527 15.442 19.4244 13.9899 19.4801 12.4926H16.6317C16.6072 13.9212 16.3555 15.3368 15.8862 16.6863ZM11.0266 7.94523H7.39575C6.96918 9.2033 6.74119 10.5201 6.71996 11.8484H11.0266V7.94624V7.94523ZM6.71491 7.94523H4.40004C3.68153 9.12479 3.27605 10.4683 3.22202 11.8484H6.07524C6.09474 10.5232 6.31029 9.20826 6.71491 7.94624V7.94523ZM4.83735 7.30102H6.9496C7.12489 6.86296 7.33088 6.43782 7.56602 6.02876C7.906 5.43403 8.33602 4.89552 8.8408 4.43238C7.61916 4.82989 6.50898 5.51095 5.60105 6.41984C5.32597 6.69514 5.07076 6.9896 4.83735 7.30102ZM7.64888 7.30102H11.0266V4.05672C9.90842 4.19516 8.89133 5.04653 8.12282 6.35339C7.9455 6.65922 7.78722 6.97569 7.64888 7.30102Z" fill="#282828"/>
</svg>
