<svg width="30" height="30" viewBox="0 0 30 30" fill="none" xmlns="http://www.w3.org/2000/svg">
<rect width="29.2133" height="29.2133" rx="6.79379" fill="#3BB54A"/>
<path fill-rule="evenodd" clip-rule="evenodd" d="M14.924 8.15247C12.2525 8.15247 9.86423 9.70474 8.75442 12.0488L8.49838 11.2117C8.47868 11.1458 8.44609 11.0843 8.4025 11.0309C8.35891 10.9775 8.30517 10.9333 8.24436 10.9006C8.18355 10.868 8.11687 10.8477 8.04815 10.8408C7.97944 10.8339 7.91003 10.8407 7.84393 10.8606C7.711 10.9011 7.59965 10.9926 7.53435 11.1149C7.46905 11.2372 7.45516 11.3803 7.49572 11.5129L8.13787 13.6187C8.17779 13.7485 8.26681 13.8577 8.38608 13.9233C8.50535 13.9888 8.64553 14.0055 8.77695 13.9699L10.8478 13.4064C10.9145 13.3883 10.9769 13.3573 11.0315 13.3151C11.0861 13.2729 11.1318 13.2204 11.166 13.1605C11.2002 13.1007 11.2221 13.0347 11.2306 12.9663C11.2391 12.898 11.234 12.8287 11.2155 12.7623C11.1788 12.6288 11.0905 12.5152 10.97 12.4465C10.8494 12.3778 10.7064 12.3596 10.5723 12.3958L9.63213 12.6531C10.536 10.5783 12.5985 9.19774 14.924 9.19774C18.1171 9.19774 20.6911 11.7645 20.6911 14.9457C20.6911 18.127 18.1171 20.6948 14.924 20.6948C12.3053 20.6948 10.0179 18.9453 9.34536 16.4238C9.32765 16.3575 9.29697 16.2952 9.2551 16.2407C9.21323 16.1861 9.16099 16.1403 9.10135 16.1059C9.04171 16.0715 8.97585 16.0491 8.90753 16.0401C8.83922 16.0311 8.76978 16.0355 8.70321 16.0533C8.56939 16.089 8.45518 16.176 8.38553 16.2954C8.31587 16.4147 8.29642 16.5567 8.33144 16.6902C9.12481 19.6649 11.8351 21.74 14.924 21.74C18.6837 21.74 21.7398 18.6921 21.7398 14.9457C21.7398 11.1994 18.6837 8.15247 14.924 8.15247ZM14.5789 11.4312C14.4405 11.4317 14.308 11.4868 14.2101 11.5843C14.1123 11.6818 14.0571 11.8139 14.0565 11.9518V15.8022C14.0562 15.8945 14.0803 15.9852 14.1266 16.0652C14.1728 16.1451 14.2395 16.2115 14.3197 16.2574L16.7778 17.6508C16.8377 17.6848 16.9038 17.7067 16.9723 17.7152C17.0407 17.7237 17.1102 17.7187 17.1767 17.7004C17.2432 17.6821 17.3055 17.6509 17.3598 17.6086C17.4142 17.5662 17.4597 17.5136 17.4936 17.4538C17.5278 17.394 17.5497 17.3281 17.5583 17.2599C17.5668 17.1917 17.5618 17.1224 17.5434 17.0561C17.525 16.9898 17.4937 16.9278 17.4513 16.8736C17.4088 16.8194 17.356 16.7741 17.296 16.7403L15.1053 15.498V11.9518C15.105 11.8832 15.0912 11.8153 15.0646 11.7519C15.038 11.6886 14.9991 11.6312 14.9503 11.5828C14.9014 11.5345 14.8434 11.4962 14.7797 11.4702C14.716 11.4442 14.6477 11.4309 14.5789 11.4312Z" fill="white"/>
</svg>
