<svg width="20" height="20" viewBox="0 0 20 20" fill="none" xmlns="http://www.w3.org/2000/svg">
<g id="Frame 1116601769">
<path id="Vector" fill-rule="evenodd" clip-rule="evenodd" d="M10.8785 2C7.69517 2 4.84943 3.82788 3.52701 6.58808L3.22192 5.60243C3.19845 5.52475 3.15962 5.45239 3.10768 5.38953C3.05574 5.32666 2.9917 5.27452 2.91924 5.2361C2.84678 5.19768 2.76733 5.17373 2.68545 5.16564C2.60357 5.15755 2.52087 5.16547 2.44211 5.18894C2.28371 5.23665 2.15103 5.34436 2.07322 5.48838C1.99542 5.63241 1.97886 5.80098 2.02719 5.95703L2.79236 8.43678C2.83992 8.58961 2.94599 8.71822 3.08811 8.79539C3.23024 8.87256 3.39727 8.89224 3.55386 8.85027L6.02144 8.18676C6.10088 8.16549 6.17528 8.12895 6.24034 8.07927C6.3054 8.02958 6.35986 7.96771 6.40057 7.89723C6.44128 7.82675 6.46745 7.74904 6.47757 7.66856C6.48769 7.58808 6.48157 7.50643 6.45955 7.42829C6.41587 7.27106 6.31065 7.13731 6.16696 7.05641C6.02328 6.97551 5.85288 6.95406 5.69316 6.99677L4.57287 7.29968C5.64992 4.85648 8.10747 3.23086 10.8785 3.23086C14.6833 3.23086 17.7503 6.25331 17.7503 9.9994C17.7503 13.7455 14.6833 16.7691 10.8785 16.7691C7.75817 16.7691 5.03249 14.7091 4.23116 11.7399C4.21005 11.6618 4.1735 11.5885 4.12361 11.5242C4.07372 11.46 4.01146 11.4061 3.9404 11.3655C3.86934 11.325 3.79086 11.2987 3.70946 11.288C3.62805 11.2774 3.54532 11.2827 3.46599 11.3036C3.30654 11.3456 3.17045 11.4481 3.08745 11.5886C3.00445 11.7292 2.98128 11.8963 3.023 12.0536C3.96835 15.5564 7.19787 18 10.8785 18C15.3584 18 19 14.4109 19 9.9994C19 5.5879 15.3584 2 10.8785 2ZM10.4672 5.86087C10.3024 5.8615 10.1444 5.92629 10.0278 6.04112C9.91126 6.15595 9.84548 6.3115 9.84484 6.47389V11.0079C9.84441 11.1166 9.8732 11.2234 9.92829 11.3176C9.98338 11.4117 10.0628 11.4899 10.1585 11.544L13.0873 13.1847C13.1588 13.2248 13.2376 13.2506 13.3191 13.2606C13.4007 13.2706 13.4835 13.2647 13.5627 13.2431C13.642 13.2216 13.7161 13.1848 13.7809 13.135C13.8457 13.0852 13.8999 13.0232 13.9404 12.9527C13.981 12.8824 14.0072 12.8048 14.0174 12.7244C14.0276 12.6441 14.0215 12.5625 13.9996 12.4845C13.9778 12.4064 13.9405 12.3334 13.8899 12.2696C13.8393 12.2057 13.7764 12.1524 13.7048 12.1125L11.0945 10.6497V6.47389C11.0942 6.39307 11.0777 6.31311 11.046 6.23856C11.0143 6.16401 10.968 6.09635 10.9098 6.03942C10.8515 5.9825 10.7824 5.93743 10.7065 5.90679C10.6306 5.87616 10.5493 5.86055 10.4672 5.86087Z" fill="#282828"/>
</g>
</svg>
