<svg width="28" height="28" viewBox="0 0 28 28" fill="none" xmlns="http://www.w3.org/2000/svg">
<g clip-path="url(#clip0_445_5927)">
<path d="M9.11743 12.8567C7.2711 12.8567 5.88635 11.3565 5.88635 9.6256C5.88635 7.77928 7.38649 6.39453 9.11743 6.39453C10.8484 6.39453 12.3485 7.89467 12.3485 9.6256C12.3485 9.97179 12.3485 10.318 12.2331 10.5488C12.0023 11.1257 11.6561 11.7027 11.1945 12.1643C10.6176 12.6259 9.92519 12.8567 9.11743 12.8567ZM9.11743 7.89467C8.19426 7.89467 7.38649 8.70244 7.38649 9.6256C7.38649 10.5488 8.19426 11.3565 9.11743 11.3565C10.0406 11.3565 10.8484 10.5488 10.8484 9.6256C10.9638 8.70244 10.156 7.89467 9.11743 7.89467Z" fill="white"/>
<path d="M6.46337 18.2799C6.11718 18.2799 5.77099 18.1645 5.42481 17.9337L4.04006 17.1259C3.46309 16.7797 3.1169 16.3181 2.88611 15.7412C2.77071 15.1642 2.77071 14.4718 3.1169 14.0102C3.34769 13.664 3.34769 13.3179 3.23229 13.0871C3.1169 12.8563 2.77071 12.7409 2.30913 12.7409C1.03978 12.7409 0.0012207 11.7023 0.0012207 10.433V8.93283C0.0012207 7.66348 1.03978 6.62492 2.30913 6.62492C2.88611 6.50952 3.23229 6.39413 3.34769 6.27873C3.46309 6.04794 3.34769 5.70176 3.23229 5.35557C2.77071 4.77859 2.77071 4.20162 2.88611 3.50924C3.0015 2.93227 3.46309 2.35529 3.92467 2.1245L5.30941 1.31673C5.6556 1.08594 6.00179 1.08594 6.34797 1.08594C7.15574 1.08594 7.84811 1.54752 8.1943 2.1245L8.3097 2.23989C8.65588 2.58608 8.88667 2.81687 9.23286 2.81687C9.46365 2.81687 9.69444 2.58608 9.92523 2.23989L10.0406 2.1245C10.3868 1.43212 11.1946 1.08594 11.887 1.08594C12.2331 1.08594 12.6947 1.20133 12.9255 1.43212L14.3103 2.23989C14.8872 2.58608 15.2334 3.04766 15.3488 3.62464C15.5796 4.20162 15.5796 4.77859 15.2334 5.35557C15.0026 5.70176 15.0026 6.04794 15.118 6.27873C15.118 6.39413 15.4642 6.50952 15.9258 6.50952C17.1951 6.50952 18.2337 7.54808 18.2337 8.81743V10.3176C18.2337 10.433 18.2337 10.433 18.2337 10.5484C18.1183 11.4715 17.5413 12.2793 16.6182 12.5101C16.3874 12.6255 16.1566 12.6255 15.8104 12.6255C15.3488 12.6255 15.0026 12.7409 14.8872 12.9717C14.7718 13.2025 14.8872 13.5486 15.0026 13.8948C15.2334 14.3564 15.3488 14.9334 15.2334 15.395C15.2334 15.5104 15.2334 15.5104 15.2334 15.6258C15.118 16.2027 14.7718 16.6643 14.1949 17.0105L12.6947 17.9337C12.3485 18.1645 12.0024 18.1645 11.6562 18.1645C11.4254 18.1645 11.31 18.1645 11.0792 18.0491C10.733 17.9337 10.3868 17.7029 10.0406 17.4721C9.92523 17.3567 9.80984 17.2413 9.69444 17.1259L9.57905 17.0105C9.34826 16.6643 9.11746 16.4335 8.88667 16.4335C8.65588 16.4335 8.42509 16.6643 8.1943 17.0105L8.07891 17.1259C7.84811 17.5875 7.38653 17.9337 6.80955 18.1645C6.80955 18.1645 6.69416 18.2799 6.46337 18.2799ZM9.11746 14.9334C9.46365 14.9334 9.80984 15.0488 10.0406 15.1642C10.5022 15.395 10.8484 15.7412 11.0792 16.2027L11.1946 16.3181C11.31 16.4335 11.31 16.5489 11.5408 16.5489H11.6562H11.7716C11.887 16.5489 12.0024 16.5489 12.1177 16.4335L13.6179 15.6258C13.8487 15.5104 13.9641 15.2796 13.9641 15.1642C14.0795 14.9334 13.9641 14.7026 13.8487 14.5872C13.3871 13.7794 13.2717 12.8563 13.7333 12.1639C14.0795 11.5869 14.5411 11.2407 15.3488 11.1253C15.5796 11.1253 15.8104 11.0099 15.9258 11.0099C16.3874 11.0099 16.7336 10.6638 16.7336 10.2022V8.93283C16.7336 8.47125 16.3874 8.12506 15.9258 8.12506C14.8872 8.12506 14.0795 7.77887 13.7333 7.0865C13.3871 6.39413 13.3871 5.47097 13.8487 4.6632C13.9641 4.43241 13.9641 4.20162 13.9641 4.08622C13.9641 3.85543 13.7333 3.74003 13.6179 3.62464L12.1177 2.58608C12.0024 2.58608 11.887 2.47068 11.7716 2.47068C11.5408 2.47068 11.31 2.58608 11.1946 2.81687L11.0792 2.93227C10.733 3.85543 9.92523 4.31701 9.11746 4.31701C8.3097 4.31701 7.61732 3.85543 7.15574 2.93227L7.04035 2.81687C6.92495 2.58608 6.69416 2.47068 6.46337 2.47068C6.34797 2.47068 6.34797 2.58608 6.23258 2.58608L4.73244 3.39385C4.61704 3.50924 4.38625 3.74003 4.38625 3.97082C4.38625 4.20162 4.38625 4.43241 4.50164 4.5478C4.96323 5.35557 4.96323 6.27873 4.61704 6.97111C4.15546 7.66348 3.46309 8.00967 2.42453 8.00967C1.96294 8.00967 1.61676 8.35585 1.61676 8.81743V10.3176C1.61676 10.7792 1.96294 11.1253 2.42453 11.1253C3.46309 11.1253 4.27085 11.4715 4.61704 12.1639C4.96323 12.8563 4.96323 13.7794 4.50164 14.5872C4.38625 14.818 4.38625 14.9334 4.38625 15.1642C4.50165 15.395 4.61704 15.5104 4.73244 15.6258L6.11718 16.4335C6.23258 16.4335 6.34797 16.5489 6.46337 16.5489H6.57876C6.69416 16.5489 6.92495 16.4335 6.92495 16.2027L7.04035 16.0873C7.61732 15.395 8.42509 14.9334 9.11746 14.9334Z" fill="white"/>
<path d="M17.6566 21.2807C15.8103 21.2807 14.4255 19.7805 14.4255 18.0496L14.7717 17.8188C15.5795 17.3572 16.0411 16.6648 16.2719 15.8571C16.3873 15.6263 16.3873 15.2801 16.3873 14.9339C16.7334 14.8185 17.195 14.7031 17.6566 14.7031C19.5029 14.7031 20.8877 16.2033 20.8877 17.9342C20.8877 19.8959 19.5029 21.2807 17.6566 21.2807ZM17.6566 16.3187C16.7334 16.3187 15.9257 17.1264 15.9257 18.0496C15.9257 18.9728 16.7334 19.7805 17.6566 19.7805C18.5798 19.7805 19.3875 18.9728 19.3875 18.0496C19.3875 17.1264 18.6952 16.3187 17.6566 16.3187Z" fill="white"/>
<path d="M20.3107 26.7056C20.1954 26.7056 19.9646 26.7056 19.7338 26.5902C19.1568 26.4749 18.6952 26.1287 18.4644 25.5517L18.349 25.3209C18.1182 24.9747 17.8874 24.7439 17.6566 24.7439C17.4259 24.7439 17.1951 24.9747 16.9643 25.3209L16.8489 25.4363C16.5027 25.8979 16.0411 26.2441 15.5795 26.4749C15.3487 26.4749 15.2333 26.5902 15.0026 26.5902C14.6564 26.5902 14.3102 26.4749 13.964 26.2441L12.5792 25.4363C12.0023 25.0901 11.6561 24.6285 11.4253 24.0515C11.3099 23.4746 11.3099 22.7822 11.6561 22.3206C11.8869 21.9744 11.8869 21.6282 11.7715 21.3975C11.6561 21.1667 11.3099 21.0513 10.8483 21.0513C9.57896 21.0513 8.54041 20.0127 8.54041 18.7434V18.051C8.6558 17.9356 8.88659 17.7048 9.00199 17.474C9.00199 17.474 9.00199 17.3586 9.11738 17.3586C9.23278 17.3586 9.23278 17.474 9.23278 17.474C9.46357 18.051 9.80976 18.2818 10.1559 18.5126V18.7434C10.1559 19.2049 10.5021 19.5511 10.9637 19.5511C12.0023 19.5511 12.81 19.8973 13.1562 20.5897C13.5024 21.2821 13.5024 22.2052 13.0408 23.013C12.9254 23.2438 12.9254 23.4746 12.9254 23.59C12.9254 23.8208 13.1562 23.9362 13.2716 24.0515L14.7718 24.8593C14.8872 24.9747 15.0026 24.9747 15.1179 24.9747H15.2333C15.3487 24.9747 15.5795 24.8593 15.5795 24.6285L15.6949 24.5131C16.1565 23.7054 16.9643 23.1284 17.772 23.1284C18.5798 23.1284 19.2722 23.59 19.7338 24.5131L19.8492 24.6285C19.9646 24.7439 20.08 24.8593 20.1953 24.8593C20.3107 24.8593 20.3107 24.8593 20.3107 24.8593C20.4261 24.8593 20.5415 24.8593 20.6569 24.7439L22.1571 23.9362C22.3879 23.8208 22.5033 23.7054 22.5033 23.4746C22.5033 23.2438 22.5033 23.013 22.3879 22.8976C21.9263 22.0898 21.8109 21.1667 22.2725 20.4743C22.6187 19.7819 23.4264 19.4357 24.465 19.4357C24.9266 19.4357 25.2728 19.0895 25.2728 18.628V17.1278C25.2728 16.6662 24.9266 16.3201 24.465 16.3201C23.4264 16.3201 22.734 15.9739 22.2725 15.2815C21.9263 14.5891 21.9263 13.666 22.3879 12.8582C22.5033 12.6274 22.5033 12.3966 22.5033 12.2812C22.5033 12.0504 22.2725 11.935 22.1571 11.8196L20.7723 11.0119C20.6569 11.0119 20.5415 10.8965 20.4261 10.8965C20.1954 10.8965 19.9646 11.0119 19.8492 11.2427L19.7338 11.358C19.2722 12.0504 18.6952 12.6274 18.0028 12.7428C18.6952 12.1658 19.1568 11.2427 19.1568 10.3195V9.8579C19.503 9.62711 19.9646 9.51172 20.4261 9.51172C20.7723 9.51172 21.2339 9.62711 21.4647 9.8579L22.8494 10.6657C23.4264 11.0119 23.7726 11.4734 23.888 12.0504C24.0034 12.6274 24.0034 13.3198 23.6572 13.7814C23.4264 14.1275 23.4264 14.4737 23.5418 14.7045C23.6572 14.9353 24.0034 15.0507 24.465 15.0507C25.7343 15.0507 26.7729 16.0893 26.7729 17.3586V18.8588C26.7729 20.1281 25.7343 21.1667 24.465 21.1667C24.0034 21.1667 23.6572 21.2821 23.5418 21.5128C23.4264 21.7436 23.4264 22.0898 23.6572 22.436C24.0034 23.013 24.0034 23.59 23.888 24.1669C23.7726 24.7439 23.311 25.3209 22.8494 25.5517L21.4647 26.3595C21.1185 26.5903 20.7723 26.7056 20.3107 26.7056Z" fill="white"/>
</g>
<defs>
<clipPath id="clip0_445_5927">
<rect width="27.6949" height="27.6949" fill="white" transform="translate(0.000366211)"/>
</clipPath>
</defs>
</svg>
