<svg width="65" height="48" viewBox="0 0 65 48" fill="none" xmlns="http://www.w3.org/2000/svg">
<path d="M0.5 20C0.5 15.2718 0.501062 11.776 0.861658 9.09391C1.22032 6.42621 1.9264 4.63857 3.28249 3.28249C4.63857 1.9264 6.42621 1.22032 9.09391 0.861658C11.776 0.501062 15.2718 0.5 20 0.5H45.5V47.5H16C12.2146 47.5 9.4259 47.4989 7.28845 47.2116C5.16538 46.9261 3.75989 46.3665 2.6967 45.3033C1.63351 44.2401 1.07387 42.8346 0.788435 40.7116C0.501062 38.5741 0.5 35.7854 0.5 32V20Z" fill="white"/>
<path d="M0.5 20C0.5 15.2718 0.501062 11.776 0.861658 9.09391C1.22032 6.42621 1.9264 4.63857 3.28249 3.28249C4.63857 1.9264 6.42621 1.22032 9.09391 0.861658C11.776 0.501062 15.2718 0.5 20 0.5H45.5V47.5H16C12.2146 47.5 9.4259 47.4989 7.28845 47.2116C5.16538 46.9261 3.75989 46.3665 2.6967 45.3033C1.63351 44.2401 1.07387 42.8346 0.788435 40.7116C0.501062 38.5741 0.5 35.7854 0.5 32V20Z" stroke="#E3E3E3"/>
<g clip-path="url(#clip0_611_7358)">
<path d="M17.4573 17.5004C17.7545 17.8115 17.7545 18.3161 17.4573 18.6272C17.16 18.9383 16.6779 18.9383 16.3797 18.6272L15.648 17.8614V32.9542C15.648 33.395 15.3069 33.7519 14.8858 33.7519C14.4656 33.7519 14.1236 33.395 14.1236 32.9542V17.8614L13.3919 18.6272C13.0918 18.9203 12.624 18.9114 12.3334 18.6082C12.0438 18.3041 12.0352 17.8145 12.3153 17.5004L14.3475 15.3735V15.3725C14.418 15.3007 14.5009 15.2429 14.5914 15.203C14.7791 15.1172 14.9925 15.1172 15.1812 15.203C15.2717 15.2429 15.3546 15.3007 15.4251 15.3725L17.4573 17.5004ZM19.9678 17.2661H25.0487C25.4699 17.2661 25.8109 16.9091 25.8109 16.4683C25.8109 16.0276 25.4699 15.6706 25.0487 15.6706H19.9678C19.5466 15.6706 19.2056 16.0276 19.2056 16.4683C19.2056 16.9091 19.5466 17.2661 19.9678 17.2661ZM19.9678 22.5839H27.0819H27.081C27.5021 22.5839 27.8432 22.2269 27.8432 21.7861C27.8432 21.3464 27.5021 20.9884 27.081 20.9884H19.9678C19.5467 20.9884 19.2056 21.3464 19.2056 21.7861C19.2056 22.2269 19.5466 22.5839 19.9678 22.5839ZM19.9678 27.9016H29.1141V27.9026C29.5343 27.9026 29.8763 27.5447 29.8763 27.1049C29.8763 26.6642 29.5343 26.3072 29.1141 26.3072H19.9678C19.5466 26.3072 19.2056 26.6642 19.2056 27.1049C19.2056 27.5447 19.5466 27.9026 19.9678 27.9026V27.9016ZM31.1463 31.624L19.9678 31.625C19.5466 31.625 19.2056 31.982 19.2056 32.4227C19.2056 32.8635 19.5466 33.2204 19.9678 33.2204H31.1463C31.5674 33.2204 31.9085 32.8635 31.9085 32.4227C31.9085 31.982 31.5674 31.625 31.1463 31.625V31.624Z" fill="black"/>
</g>
<mask id="path-3-inside-1_611_7358" fill="white">
<path d="M46 0C54.4595 0 58.6892 0 61.4945 2.39594C61.8928 2.73617 62.2638 3.10717 62.6041 3.50552C65 6.31081 65 10.5405 65 19V32C65 39.5425 65 43.3137 62.6569 45.6569C60.3137 48 56.5425 48 49 48H46V0Z"/>
</mask>
<path d="M46 0C54.4595 0 58.6892 0 61.4945 2.39594C61.8928 2.73617 62.2638 3.10717 62.6041 3.50552C65 6.31081 65 10.5405 65 19V32C65 39.5425 65 43.3137 62.6569 45.6569C60.3137 48 56.5425 48 49 48H46V0Z" fill="white"/>
<path d="M46 -1H55C61.0751 -1 66 3.92487 66 10H64C64 5.02944 59.9706 1 55 1H46V-1ZM66 40C66 44.9706 61.9706 49 57 49H46V47H57C60.866 47 64 43.866 64 40H66ZM46 48V0V48ZM55 -1C61.0751 -1 66 3.92487 66 10V40C66 44.9706 61.9706 49 57 49V47C60.866 47 64 43.866 64 40V10C64 5.02944 59.9706 1 55 1V-1Z" fill="#E3E3E3" mask="url(#path-3-inside-1_611_7358)"/>
<path fill-rule="evenodd" clip-rule="evenodd" d="M55.6338 26.7404L59.7465 22.5288C60.0845 22.1538 60.0845 21.6058 59.7465 21.2596C59.4085 20.9135 58.8451 20.9135 58.507 21.2596L55.0141 24.8365L51.493 21.2596C51.1549 20.9135 50.5915 20.9135 50.2535 21.2596C49.9155 21.6058 49.9155 22.1538 50.2535 22.5288L54.3944 26.7404C54.7324 27.0865 55.2676 27.0865 55.6338 26.7404Z" fill="#282828"/>
<defs>
<clipPath id="clip0_611_7358">
<rect width="20" height="18.89" fill="white" transform="translate(12 15)"/>
</clipPath>
</defs>
</svg>
