<svg width="30" height="30" viewBox="0 0 30 30" fill="none" xmlns="http://www.w3.org/2000/svg">
<path d="M22.2629 11.4502C20.2908 11.4502 18.692 9.85771 18.692 7.8933C18.692 5.92889 20.2908 4.33643 22.2629 4.33643C24.2351 4.33643 25.8338 5.92889 25.8338 7.8933C25.8338 9.85771 24.2351 11.4502 22.2629 11.4502Z" fill="#E51C39"/>
<path d="M16.5462 5.691C18.1239 5.691 19.4029 4.41703 19.4029 2.8455C19.4029 1.27397 18.1239 0 16.5462 0C14.9685 0 13.6895 1.27397 13.6895 2.8455C13.6895 4.41703 14.9685 5.691 16.5462 5.691Z" fill="#E51C39"/>
<path d="M13.7288 11.451C14.8931 11.451 15.837 10.5108 15.837 9.35097C15.837 8.19119 14.8931 7.25098 13.7288 7.25098C12.5644 7.25098 11.6205 8.19119 11.6205 9.35097C11.6205 10.5108 12.5644 11.451 13.7288 11.451Z" fill="#E51C39"/>
<path fill-rule="evenodd" clip-rule="evenodd" d="M10.748 28.2469L9.19755 29.792C8.91831 30.0694 8.46623 30.0694 8.1877 29.792L0.208897 21.8445C-0.0696324 21.5671 -0.0696324 21.1161 0.208897 20.8386L1.76009 19.2935C2.03862 19.0161 2.4907 19.0161 2.76994 19.2935L10.748 27.241C11.0273 27.5184 11.0273 27.9695 10.748 28.2469Z" fill="#282828"/>
<path fill-rule="evenodd" clip-rule="evenodd" d="M10.8359 25.3152L11.3409 24.8123C11.7422 24.4118 12.2879 24.187 12.8556 24.187H18.814C19.004 24.187 19.1854 24.1123 19.319 23.9786L29.6188 13.7191C30.1259 13.2148 30.1259 12.3952 29.6188 11.8902L29.6174 11.8895C29.0675 11.3417 28.1891 11.3019 27.5913 11.7977C25.1231 13.8465 19.8703 18.3253 19.8703 18.3253C19.741 18.4355 19.5761 18.496 19.4061 18.496H13.6927C13.2984 18.496 12.9785 18.1773 12.9785 17.7846C12.9785 17.3919 13.2984 17.0732 13.6927 17.0732H17.2636C18.052 17.0732 18.6919 16.4366 18.6919 15.6505C18.6919 14.8644 18.052 14.2277 17.2636 14.2277H9.99893C9.80967 14.2277 9.62827 14.3024 9.494 14.4362L4.70401 19.2074L10.8359 25.3152Z" fill="#282828"/>
</svg>
