<svg width="24" height="24" viewBox="0 0 24 24" fill="none" xmlns="http://www.w3.org/2000/svg">
<path d="M12.1152 20.9569C12.1152 21.1631 11.9858 21.2684 11.952 21.3169L10.4832 22.7905C10.2836 22.98 9.99261 22.9719 9.80157 22.7905C9.61437 22.6033 9.61437 22.2961 9.80157 22.1089L10.4736 21.4369H5.00637C4.74237 21.4369 4.52637 21.2257 4.52637 20.9569V16.2337L3.85437 16.9057C3.66717 17.0929 3.36477 17.0929 3.17757 16.9057C2.98557 16.7185 2.98557 16.4113 3.17757 16.2241L4.66557 14.7361C4.79338 14.5939 5.12041 14.5141 5.34237 14.7361L5.36637 14.7601L6.83517 16.2241C7.02237 16.4113 7.02237 16.7185 6.83517 16.9057C6.65554 17.0853 6.34931 17.0966 6.15837 16.9057L5.48637 16.2337V20.4769H10.4736L9.80157 19.8097C9.61437 19.6177 9.61437 19.3153 9.80157 19.1281C9.98877 18.9409 10.296 18.9409 10.4832 19.1281L11.928 20.5777C12.1009 20.7468 12.1152 20.8728 12.1152 20.9569Z" fill="#282828"/>
<path d="M12.0288 2.70237L13.5216 1.21437C13.7088 1.02717 14.0112 1.02717 14.1984 1.21437C14.3856 1.40157 14.3856 1.70397 14.1984 1.89117L13.5264 2.56317H18.9984C19.2624 2.56317 19.4784 2.77917 19.4784 3.04317V7.76637L20.1456 7.09917C20.3328 6.91197 20.64 6.91197 20.8272 7.09917C21.0144 7.28637 21.0144 7.58877 20.8272 7.77597L19.3344 9.26877C19.2432 9.35517 19.1232 9.40798 18.9984 9.40798C18.8688 9.40798 18.7488 9.35517 18.6576 9.26877L17.1648 7.77597C16.9776 7.58877 16.9776 7.28637 17.1648 7.09917C17.352 6.91197 17.6592 6.91197 17.8464 7.09917L18.5184 7.76637V3.52317H13.5264L14.1984 4.19517C14.3856 4.38237 14.3856 4.68477 14.1984 4.87197C14.0034 5.06695 13.6897 5.04881 13.5216 4.87197L12.0288 3.38397C11.8403 3.19548 11.8515 2.87983 12.0288 2.70237Z" fill="#282828"/>
<path d="M2.40955 3.24004C2.40955 1.53604 3.79675 0.144043 5.50555 0.144043C7.20955 0.144043 8.59675 1.53604 8.59675 3.24004C8.59675 4.86724 7.29595 7.28164 5.50555 7.28164C3.71035 7.28164 2.40955 4.86724 2.40955 3.24004Z" fill="#282828"/>
<path d="M11.0064 10.3009V13.1521C11.0064 13.4161 10.7904 13.6321 10.5264 13.6321H0.48C0.216 13.6321 0 13.4161 0 13.1521V10.3009C0 8.78414 1.2672 7.55054 2.8224 7.55054C2.952 7.55054 3.072 7.60334 3.1632 7.69454L5.4864 10.0033L7.848 7.68974C7.9344 7.60334 8.0544 7.55054 8.184 7.55054C9.7392 7.55054 11.0064 8.78414 11.0064 10.3009Z" fill="#282828"/>
<path d="M15.4032 13.4642C15.4032 11.7554 16.7904 10.3682 18.4992 10.3682C20.2032 10.3682 21.5952 11.7554 21.5952 13.4642C21.5952 15.0914 20.2944 17.5058 18.4992 17.5058C16.704 17.5058 15.4032 15.0914 15.4032 13.4642Z" fill="#282828"/>
<path d="M24 20.52V23.376C24 23.64 23.784 23.856 23.52 23.856H13.4784C13.2096 23.856 12.9984 23.64 12.9984 23.376V20.52C12.9984 19.008 14.2608 17.7744 15.8208 17.7744C15.9456 17.7744 16.0656 17.8272 16.1568 17.9136L18.4848 20.2272L20.8416 17.9136C20.9328 17.8224 21.0528 17.7744 21.1776 17.7744C22.7328 17.7744 24 19.008 24 20.52Z" fill="#282828"/>
</svg>
