<svg width="24" height="24" viewBox="0 0 24 24" fill="none" xmlns="http://www.w3.org/2000/svg">
<path d="M5.50219 7.28292C7.29704 7.28292 8.59641 4.86789 8.59641 3.23973C8.59641 1.53348 7.20844 0.145508 5.50219 0.145508C3.79592 0.145508 2.40796 1.53348 2.40796 3.23973C2.40795 4.86789 3.70731 7.28292 5.50219 7.28292ZM5.50219 1.10551C6.67919 1.10551 7.63641 2.06292 7.63641 3.23973C7.63641 4.52901 6.56111 6.32292 5.50219 6.32292C4.44325 6.32292 3.36796 4.52901 3.36796 3.23973C3.36795 2.06292 4.32517 1.10551 5.50219 1.10551Z" fill="#282828"/>
<path d="M0.48 13.6322H10.5244C10.7897 13.6322 11.0044 13.4173 11.0044 13.1522V10.2991C11.0044 8.78435 9.73781 7.552 8.18112 7.552C8.05546 7.552 7.93454 7.60125 7.84502 7.68938L5.48765 10.0024L3.16124 7.69149C3.07123 7.60216 2.94936 7.552 2.82284 7.552C1.2661 7.552 0 8.78435 0 10.2991V13.1522C0 13.4173 0.214704 13.6322 0.48 13.6322ZM0.96 10.2991C0.96 9.37475 1.69546 8.61208 2.6339 8.52117L5.14733 11.0175C5.3339 11.2029 5.63438 11.2036 5.82188 11.0196L8.36813 8.52093C9.30797 8.61117 10.0444 9.37427 10.0444 10.2991V12.6722H0.96V10.2991Z" fill="#282828"/>
<path d="M18.4978 10.3679C16.7915 10.3679 15.4036 11.7559 15.4036 13.4621C15.4036 15.0904 16.703 17.5054 18.4978 17.5054C20.2927 17.5054 21.592 15.0904 21.592 13.4621C21.592 11.7559 20.204 10.3679 18.4978 10.3679ZM18.4978 16.5454C17.4389 16.5454 16.3636 14.7515 16.3636 13.4621C16.3636 12.2854 17.3208 11.3279 18.4978 11.3279C19.6748 11.3279 20.632 12.2854 20.632 13.4621C20.632 14.7515 19.5567 16.5454 18.4978 16.5454Z" fill="#282828"/>
<path d="M21.1767 17.7744C21.0511 17.7744 20.9301 17.8237 20.8406 17.9118L18.4833 20.2248L16.1569 17.9139C16.0669 17.8246 15.945 17.7744 15.8184 17.7744C14.2617 17.7744 12.9956 19.0068 12.9956 20.5216V23.3746C12.9956 23.6397 13.2103 23.8546 13.4756 23.8546H23.52C23.7853 23.8546 24 23.6397 24 23.3746V20.5216C24 19.0068 22.7334 17.7744 21.1767 17.7744ZM23.04 22.8946H13.9556V20.5216C13.9556 19.5972 14.6911 18.8345 15.6295 18.7436L18.143 21.2399C18.33 21.4253 18.6305 21.426 18.8175 21.242L21.3637 18.7433C22.3036 18.8336 23.04 19.5967 23.04 20.5216V22.8946Z" fill="#282828"/>
<path d="M9.80257 19.1281C9.61507 19.3156 9.61507 19.6193 9.80257 19.8068L10.4738 20.4781H5.48443V16.2326L6.15566 16.9039C6.24941 16.9976 6.37224 17.0445 6.49507 17.0445C6.61785 17.0445 6.74069 16.9976 6.83443 16.9039C7.02193 16.7163 7.02193 16.4126 6.83443 16.2251L5.34422 14.7349C5.29987 14.6905 5.24673 14.6553 5.18785 14.6308C5.07053 14.5824 4.93833 14.5824 4.82102 14.6309C4.76213 14.6553 4.70899 14.6905 4.66465 14.7349L3.17443 16.2251C2.98694 16.4126 2.98694 16.7163 3.17443 16.9039C3.36192 17.0914 3.66566 17.0914 3.8532 16.9039L4.52443 16.2326V20.9581C4.52443 21.2232 4.73913 21.4381 5.00443 21.4381H10.4738L9.80256 22.1093C9.61506 22.2968 9.61506 22.6006 9.80256 22.7881C9.99004 22.9756 10.2938 22.9756 10.4813 22.7881L11.9716 21.2977C12.016 21.2534 12.0512 21.2003 12.0756 21.1414C12.1241 21.0241 12.1241 20.892 12.0756 20.7747C12.0512 20.7158 12.016 20.6627 11.9716 20.6184L10.4813 19.1281C10.2938 18.9406 9.99005 18.9406 9.80257 19.1281Z" fill="#282828"/>
<path d="M14.1975 1.21215C14.01 1.02466 13.7062 1.02466 13.5187 1.21215L12.0284 2.70245C11.984 2.74681 11.9488 2.79994 11.9245 2.85879C11.8759 2.9761 11.8759 3.10825 11.9245 3.22556C11.9488 3.2844 11.984 3.33754 12.0284 3.38184L13.5187 4.87215C13.7062 5.05968 14.01 5.05968 14.1975 4.87215C14.385 4.68466 14.385 4.38092 14.1975 4.19343L13.5262 3.52215H18.5151V7.76732L17.8443 7.09637C17.6569 6.90889 17.3531 6.90889 17.1656 7.09637C16.9781 7.28367 16.9781 7.58765 17.1656 7.77514L18.6554 9.26535C18.7446 9.35487 18.8681 9.40637 18.9951 9.40637C19.121 9.40637 19.2449 9.35564 19.3349 9.26535L20.8251 7.77514C21.0126 7.58765 21.0126 7.28391 20.8251 7.09637C20.6376 6.90889 20.3339 6.90889 20.1464 7.09637L19.4751 7.76751V3.04215C19.4751 2.77709 19.2604 2.56215 18.9951 2.56215H13.5262L14.1975 1.89092C14.385 1.70343 14.385 1.39969 14.1975 1.21215Z" fill="#282828"/>
</svg>
