<svg width="22" height="22" viewBox="0 0 22 22" fill="none" xmlns="http://www.w3.org/2000/svg">
<path d="M2.99893 0.120884C1.41103 0.120884 0.12085 1.40892 0.12085 2.99678V18.9068C0.12085 20.4946 1.41123 21.7856 2.99893 21.7856H11.674H18.9089C20.4966 21.7856 21.7848 20.4945 21.7848 18.9068V11.6828V11.6743C21.7852 11.6648 21.7852 11.6553 21.7848 11.6458V2.99699C21.7848 1.40932 20.4968 0.120361 18.9089 0.120361L2.99893 0.120884ZM2.99893 0.868681H18.9089C20.0957 0.868681 21.0378 1.80986 21.0378 2.99678V11.2998H14.1778C12.5901 11.2998 11.3019 12.5902 11.3019 14.1779V21.0385H2.99893C1.81197 21.0385 0.867913 20.0935 0.867913 18.9068V2.99678C0.867913 1.81006 1.81217 0.868681 2.99893 0.868681ZM14.1778 12.0468H20.5081L16.2782 16.2775L12.475 20.0806L12.049 20.506V14.1779C12.049 12.9909 12.9909 12.0468 14.1778 12.0468ZM21.0378 12.5765V18.9068C21.0378 20.0937 20.0959 21.0385 18.9089 21.0385H12.5757L21.0378 12.5765Z" fill="#282828"/>
</svg>
