<svg width="22" height="22" viewBox="0 0 22 22" fill="none" xmlns="http://www.w3.org/2000/svg">
<path d="M2.99957 0.120605C2.20568 0.120605 1.48677 0.444337 0.965729 0.965377C0.444703 1.48639 0.120972 2.20462 0.120972 2.99849V18.9074C0.120972 20.4952 1.41128 21.7853 2.99885 21.7853H11.3013V14.1788C11.3013 12.5912 12.5894 11.301 14.177 11.3009H21.7849L21.7835 3.00068C21.7835 1.41312 20.4955 0.120648 18.9078 0.120605H2.99957ZM14.177 12.0479C12.9901 12.048 12.0483 12.9919 12.0483 14.1788V21.5665L21.5668 12.0479H14.177ZM21.3823 13.4165C21.2936 13.4234 21.2103 13.4617 21.1474 13.5245L13.5226 21.1492C13.4709 21.2016 13.4358 21.2681 13.4217 21.3403C13.4076 21.4126 13.4152 21.4874 13.4434 21.5553C13.4717 21.6233 13.5195 21.6814 13.5807 21.7223C13.6419 21.7632 13.7138 21.7852 13.7874 21.7853H18.9071C20.4946 21.7853 21.785 20.495 21.7849 18.9074V13.7878C21.7848 13.7364 21.774 13.6856 21.7533 13.6385C21.7326 13.5914 21.7024 13.5492 21.6646 13.5143C21.6268 13.4794 21.5822 13.4528 21.5336 13.4359C21.4851 13.4191 21.4335 13.4125 21.3823 13.4165Z" fill="#282828"/>
</svg>
