<svg width="71" height="124" viewBox="0 0 71 124" fill="none" xmlns="http://www.w3.org/2000/svg">
<g id="Isolation_Mode" clip-path="url(#clip0_729_19624)">
<path id="Vector" fill-rule="evenodd" clip-rule="evenodd" d="M46.5784 30.9515C42.2307 28.4897 37.3241 27.1963 32.3331 27.1963C27.3421 27.1963 22.4356 28.4897 18.0879 30.9515C19.3494 36.771 20.2342 42.6665 20.7367 48.6009C28.5125 51.105 36.8525 51.2404 44.7049 48.9902C44.6088 42.9237 45.2379 36.8675 46.5784 30.9515Z" fill="#DEDEDE"/>
<path id="Vector_2" fill-rule="evenodd" clip-rule="evenodd" d="M36.1778 23.5543C36.1778 25.3062 36.1778 26.604 36.1778 27.772C36.0577 28.6933 35.6079 29.5393 34.9126 30.1521C34.2172 30.765 33.3236 31.103 32.3985 31.103C31.4733 31.103 30.5798 30.765 29.8844 30.1521C29.189 29.5393 28.7393 28.6933 28.6191 27.772C28.6191 25.3711 28.6191 25.0467 28.6191 23.4245C31.0069 23.2647 33.4025 23.2647 35.7902 23.4245" fill="#F49A65"/>
<path id="Vector_3" fill-rule="evenodd" clip-rule="evenodd" d="M19.8992 117.77C19.3824 119.263 17.315 119.782 15.4415 120.301C13.568 120.82 12.1467 121.664 11.8237 122.961C11.5006 124.259 18.2841 124.324 19.3824 123.61C21.2323 122.189 23.5151 121.455 25.8428 121.534C26.3596 121.534 26.5535 120.625 26.5535 119.587C26.4235 118.705 26.4235 117.809 26.5535 116.927H20.416C20.4437 117.272 20.4437 117.619 20.416 117.965" fill="#E51C39"/>
<path id="Vector_4" fill-rule="evenodd" clip-rule="evenodd" d="M42.9621 117.771C43.4789 119.263 45.5463 119.782 47.4198 120.301C49.2933 120.82 50.7146 121.664 51.1022 122.962C51.4899 124.259 44.6418 124.324 43.4789 123.61C41.7209 122.25 39.5606 121.519 37.3415 121.534C36.8893 121.534 36.6309 120.626 36.6309 119.587V116.732H43.0913C43.0913 117.057 43.0913 117.381 43.0913 117.771" fill="#E51C39"/>
<path id="Vector_5" fill-rule="evenodd" clip-rule="evenodd" d="M21.0598 66.4448C20.22 84.8729 19.7031 113.942 19.7031 118.355C21.5767 119.393 25.0007 119.977 26.1636 118.355C27.3264 116.733 31.3965 80.201 32.624 72.9336C33.5931 80.0712 36.4356 111.866 36.7587 117.965C37.7722 118.432 38.874 118.674 39.9889 118.674C41.1038 118.674 42.2056 118.432 43.2191 117.965C43.2191 111.022 44.059 87.4683 43.2191 66.7692C43.5421 59.6316 43.9297 53.7917 44.382 48.5358C42.1854 47.9519 40.4411 44.7075 40.1827 40.5547H24.0316C24.08 42.0534 23.771 43.542 23.1305 44.8964C22.4899 46.2509 21.5363 47.4319 20.3492 48.3412C20.8634 54.2743 21.0575 60.231 20.9306 66.1852" fill="#E51C39"/>
<path id="Vector_6" fill-rule="evenodd" clip-rule="evenodd" d="M25.7771 28.4208L26.6815 40.8143C26.6815 41.9823 24.2912 42.1121 24.162 40.8143L23.3867 29.0697C23.3867 28.7453 25.7125 28.0315 25.7771 28.4208Z" fill="#E51C39"/>
<path id="Vector_7" fill-rule="evenodd" clip-rule="evenodd" d="M38.7622 28.1611L37.7285 41.1386C37.7285 42.631 40.3127 42.5662 40.3127 41.1386L41.1525 29.0696C41.1525 29.0696 38.7622 28.0314 38.7622 28.4856" fill="#E51C39"/>
<path id="Vector_8" fill-rule="evenodd" clip-rule="evenodd" d="M27.1988 47.8877H38.2461C38.4175 47.8877 38.5818 47.9561 38.7029 48.0777C38.8241 48.1994 38.8922 48.3645 38.8922 48.5366V55.0253C38.8922 55.1974 38.8241 55.3625 38.7029 55.4841C38.5818 55.6058 38.4175 55.6742 38.2461 55.6742H27.1988C27.0323 55.6596 26.8763 55.5865 26.7582 55.4678C26.64 55.3492 26.5673 55.1925 26.5527 55.0253V48.5366C26.5673 48.3694 26.64 48.2127 26.7582 48.094C26.8763 47.9754 27.0323 47.9023 27.1988 47.8877Z" fill="white"/>
<path id="Vector_9" fill-rule="evenodd" clip-rule="evenodd" d="M32.4313 4.02344C24.7434 4.02344 24.2266 10.5122 24.2266 15.833C24.2266 21.1537 27.586 27.0585 32.8835 27.0585C38.1811 27.0585 40.7007 20.5697 41.0237 15.833C41.3467 11.0962 40.1838 4.02344 32.4313 4.02344Z" fill="#FCD2A0"/>
<path id="Vector_10" fill-rule="evenodd" clip-rule="evenodd" d="M29.7168 22.1914C31.8588 22.5065 34.0352 22.5065 36.1772 22.1914C35.942 22.8633 35.505 23.4453 34.9263 23.857C34.3477 24.2687 33.6561 24.4898 32.947 24.4898C32.2379 24.4898 31.5463 24.2687 30.9677 23.857C30.3891 23.4453 29.952 22.8633 29.7168 22.1914Z" fill="#9B1915"/>
<path id="Vector_11" fill-rule="evenodd" clip-rule="evenodd" d="M41.8636 13.8857C39.0856 13.8857 38.7626 19.2714 41.1529 18.7523C43.5433 18.2332 43.8663 13.9506 41.8636 13.8857Z" fill="#FCD2A0"/>
<path id="Vector_12" fill-rule="evenodd" clip-rule="evenodd" d="M23.3226 13.8857C26.1006 13.8857 26.4237 19.2714 24.0333 18.7523C21.6429 18.2332 21.3199 13.9506 23.3226 13.8857Z" fill="#FCD2A0"/>
<path id="Vector_13" fill-rule="evenodd" clip-rule="evenodd" d="M41.1538 15.4434C41.1538 14.0158 41.1538 9.47371 39.0218 8.5004C36.9351 9.54585 34.635 10.09 32.303 10.09C29.971 10.09 27.6709 9.54585 25.5841 8.5004C25.0673 8.5004 24.8735 11.7448 24.2921 14.9892C23.8981 14.0348 23.6372 13.0304 23.5168 12.0043C23.2861 10.2817 23.2861 8.5359 23.5168 6.81333C25.2611 -2.9198 40.6369 -1.29762 41.6706 6.48888C41.8931 8.51589 41.8931 10.5613 41.6706 12.5883C41.563 13.4095 41.2999 14.2024 40.8954 14.9243" fill="#6D3911"/>
<path id="Vector_14" fill-rule="evenodd" clip-rule="evenodd" d="M41.9286 13.1068C38.3753 7.20208 26.2943 9.14871 23.5163 12.5229C22.2242 4.80125 25.5837 -0.130204 33.207 -0.000429209C40.8303 0.129346 42.7684 5.57989 41.9286 12.9771" fill="#848586"/>
<path id="Vector_15" fill-rule="evenodd" clip-rule="evenodd" d="M22.7405 12.9777C25.8604 11.4049 29.3242 10.6458 32.8128 10.7706C36.3014 10.8953 39.7027 11.8998 42.7033 13.6915C42.1494 11.483 40.8965 9.51483 39.1328 8.08326C37.3692 6.65169 35.1904 5.83415 32.9243 5.75364C30.6581 5.67314 28.4272 6.33403 26.5673 7.63687C24.7074 8.93971 23.3191 10.814 22.6113 12.9777" fill="#E51C39"/>
<path id="Vector_16" fill-rule="evenodd" clip-rule="evenodd" d="M18.1534 31.3408C13.9217 36.6096 11.4369 43.0758 11.0469 49.8337C11.0469 52.8835 16.8613 51.5208 16.9905 50.8719C18.0241 47.8871 19.3162 45.1618 20.2207 42.761C20.8869 38.8286 20.1551 34.7861 18.1534 31.3408Z" fill="#DEDEDE"/>
<path id="Vector_17" fill-rule="evenodd" clip-rule="evenodd" d="M46.5794 30.9512C51.5011 34.6244 56.1638 38.6354 60.534 42.9553C61.5676 44.902 58.6604 49.9632 55.0426 47.4975C51.4248 45.0318 47.0317 41.7874 45.352 40.3599C44.7881 39.6733 44.3708 38.8776 44.1261 38.0222C43.8815 37.1668 43.8146 36.27 43.9298 35.3876C44.0449 34.5051 44.3395 33.6559 44.7954 32.8927C45.2512 32.1295 45.8585 31.4686 46.5794 30.9512Z" fill="#DEDEDE"/>
<path id="Vector_18" fill-rule="evenodd" clip-rule="evenodd" d="M63.1172 34.6501L63.9571 34.0013C63.6967 33.5356 63.56 33.0105 63.56 32.4764C63.56 31.9423 63.6967 31.4172 63.9571 30.9515C64.1166 29.9413 64.1166 28.9121 63.9571 27.9018C64.4739 26.9934 65.5722 27.9018 65.8952 30.1729C66.6507 29.6607 67.5122 29.3279 68.4147 29.1996C69.19 29.1996 71.3865 32.2493 69.9653 33.9364C68.544 35.6234 67.4457 35.299 66.4766 35.9479L65.8952 36.7914C64.9541 36.259 64.1387 35.5286 63.5048 34.6501" fill="#FCD2A0"/>
<path id="Vector_19" fill-rule="evenodd" clip-rule="evenodd" d="M65.962 30.1074C65.1867 30.8212 65.962 33.5465 67.9647 34.5847C67.2502 34.0985 66.6845 33.4222 66.3308 32.6315C65.9771 31.8408 65.8494 30.9668 65.962 30.1074Z" fill="#F49A65"/>
<path id="Vector_20" fill-rule="evenodd" clip-rule="evenodd" d="M54.2689 42.8909C57.4019 39.9198 60.2765 36.6853 62.8613 33.2227C64.9932 34.3257 66.4145 35.4288 67.7066 35.9479C63.4427 43.0856 59.1142 48.4712 57.2407 48.2117C55.3672 47.9521 51.7493 45.9406 54.2689 42.8909Z" fill="#DEDEDE"/>
<path id="Vector_21" fill-rule="evenodd" clip-rule="evenodd" d="M30.6872 87.663L14.9238 80.0712C14.7337 79.9997 14.5243 79.9997 14.3343 80.0713C14.1443 80.1429 13.9865 80.2811 13.8901 80.4605C13.8469 80.5541 13.8227 80.6554 13.8189 80.7585C13.8151 80.8616 13.8317 80.9644 13.8677 81.061C13.9038 81.1576 13.9586 81.246 14.029 81.3212C14.0994 81.3963 14.1839 81.4567 14.2777 81.4987L30.0412 89.3501C30.1297 89.3924 30.226 89.4159 30.3239 89.419C30.4219 89.4221 30.5195 89.4049 30.6105 89.3683C30.7015 89.3317 30.784 89.2766 30.8528 89.2065C30.9216 89.1364 30.9752 89.0527 31.0102 88.9607C31.0814 88.7699 31.0814 88.5596 31.0101 88.3687C30.9389 88.1779 30.8012 88.0194 30.6226 87.9225" fill="#E51C39"/>
<path id="Vector_22" fill-rule="evenodd" clip-rule="evenodd" d="M15.3104 81.1097L19.6389 71.9605C19.6829 71.8756 19.7095 71.7827 19.717 71.6873C19.7246 71.5919 19.7129 71.4959 19.6828 71.4051C19.6527 71.3143 19.6047 71.2305 19.5416 71.1587C19.4786 71.0869 19.4018 71.0286 19.3159 70.9872C19.2274 70.9449 19.1311 70.9215 19.0331 70.9183C18.9351 70.9152 18.8376 70.9325 18.7466 70.969C18.6556 71.0056 18.5731 71.0607 18.5043 71.1308C18.4355 71.2009 18.3819 71.2846 18.3468 71.3766L13.9537 80.5257C13.9116 80.6146 13.8882 80.7113 13.8851 80.8097C13.882 80.9081 13.8992 81.0061 13.9356 81.0975C13.972 81.1889 14.0268 81.2718 14.0967 81.3409C14.1665 81.41 14.2498 81.4638 14.3414 81.499C14.5314 81.5705 14.7408 81.5705 14.9308 81.4989C15.1208 81.4273 15.2786 81.2891 15.375 81.1097" fill="#E51C39"/>
<path id="Vector_23" fill-rule="evenodd" clip-rule="evenodd" d="M2.64961 62.9414L19.3175 70.9226C19.4956 71.019 19.6291 71.1817 19.6894 71.3756C19.7498 71.5696 19.7322 71.7796 19.6405 71.9608C19.5445 72.1396 19.3826 72.2737 19.1895 72.3343C18.9963 72.3949 18.7872 72.3773 18.6069 72.2852L1.93896 64.3689C1.83548 64.3464 1.7377 64.3028 1.65164 64.2408C1.56559 64.1788 1.49309 64.0998 1.43861 64.0086C1.38413 63.9174 1.34882 63.816 1.33488 63.7105C1.32093 63.6051 1.32864 63.4979 1.35752 63.3956C1.4539 63.2162 1.6117 63.078 1.80172 63.0064C1.99174 62.9348 2.20114 62.9348 2.39119 63.0063" fill="#E51C39"/>
<path id="Vector_24" d="M28.4782 85.3677L26.8633 88.7637L31.9351 91.1967L33.55 87.8007L28.4782 85.3677Z" fill="#E51C39"/>
<path id="Vector_25" d="M1.60515 61.2329L-0.00976562 64.6289L5.06201 67.0619L6.67693 63.6659L1.60515 61.2329Z" fill="#E51C39"/>
<path id="Vector_26" fill-rule="evenodd" clip-rule="evenodd" d="M16.7969 71.5065C16.7969 71.8959 16.7969 72.3501 15.8925 72.3501C14.988 72.3501 12.4684 71.8959 12.1454 71.0523C11.5843 69.5683 11.5843 67.9293 12.1454 66.4453C12.1454 66.4453 12.1454 64.7582 12.1454 64.6284C13.1123 64.5366 14.0857 64.5366 15.0526 64.6284C15.0526 65.0178 15.0526 65.9911 15.4402 66.1209C16.1097 66.4423 16.6486 66.9855 16.9663 67.6591C17.2839 68.3326 17.361 69.0955 17.1845 69.8195L16.5385 69.495C15.8925 69.495 15.8925 70.9874 16.5385 71.247" fill="#FCD2A0"/>
<path id="Vector_27" fill-rule="evenodd" clip-rule="evenodd" d="M16.9901 50.418C16.4621 55.6126 16.2894 60.8375 16.4733 66.0559C14.9001 66.5088 13.2527 66.6411 11.6279 66.4452C10.5737 60.8193 10.3777 55.065 11.0465 49.3798C13.0492 46.5896 17.1193 48.4714 16.9901 50.418Z" fill="#DEDEDE"/>
</g>
<defs>
<clipPath id="clip0_729_19624">
<rect width="70.0311" height="124" fill="white"/>
</clipPath>
</defs>
</svg>
