<svg width="24" height="24" viewBox="0 0 24 24" fill="none" xmlns="http://www.w3.org/2000/svg">
<rect width="24" height="24" rx="8" fill="#53BE61" fill-opacity="0.1"/>
<path d="M9.13985 5.82729C9.13984 5.76251 9.15256 5.69836 9.17728 5.63851C9.20199 5.57866 9.23822 5.52428 9.28389 5.47847C9.32956 5.43266 9.38378 5.39633 9.44345 5.37154C9.50312 5.34674 9.56708 5.33399 9.63166 5.33399H18.0759C18.2009 5.33366 18.3213 5.38122 18.4126 5.46695C18.5038 5.55268 18.5589 5.6701 18.5668 5.79525C18.5746 5.92039 18.5345 6.04381 18.4546 6.14029C18.3748 6.23677 18.2612 6.29904 18.1372 6.31438V8.91934C18.1168 8.91811 18.0966 8.91623 18.0759 8.91623H9.63168C9.61099 8.91623 9.59077 8.91811 9.57038 8.91934V6.31438C9.45176 6.29979 9.34253 6.24223 9.26324 6.15253C9.18396 6.06283 9.14007 5.94717 9.13985 5.82729ZM18.0759 9.44954H9.63166C9.61394 9.44954 9.59621 9.45102 9.57849 9.4525C10.3495 10.414 11.2549 11.7932 11.3229 13.0318H18.0759C18.0965 13.0318 18.1172 13.0332 18.1379 13.0347V10.4303C18.2619 10.4147 18.3753 10.3523 18.455 10.2557C18.5347 10.1592 18.5747 10.0357 18.5667 9.91064C18.5588 9.78555 18.5036 9.66819 18.4124 9.58251C18.3212 9.49683 18.2008 9.44927 18.0759 9.44954ZM18.5677 14.0584C18.5677 13.9936 18.555 13.9295 18.5303 13.8696C18.5056 13.8097 18.4694 13.7554 18.4237 13.7095C18.378 13.6637 18.3238 13.6274 18.2641 13.6026C18.2044 13.5778 18.1405 13.5651 18.0759 13.5651H11.3051C11.2435 14.1053 11.054 14.6229 10.7523 15.0747C10.4507 15.5264 10.0457 15.8993 9.57111 16.1621V17.6866C9.44693 17.7018 9.33323 17.7639 9.25324 17.8604C9.17325 17.9569 9.13301 18.0803 9.14074 18.2056C9.14847 18.3308 9.2036 18.4483 9.29484 18.5342C9.38609 18.62 9.50657 18.6676 9.63166 18.6673H18.0759C18.2008 18.6676 18.3212 18.62 18.4124 18.5343C18.5036 18.4487 18.5588 18.3313 18.5667 18.2062C18.5746 18.0811 18.5347 17.9577 18.455 17.8611C18.3753 17.7646 18.2619 17.7021 18.1379 17.6866V14.5458C18.2565 14.5311 18.3656 14.4734 18.4447 14.3837C18.5239 14.2939 18.5676 14.1783 18.5677 14.0584ZM5.27441 13.1806C5.27441 11.5142 7.50866 9.10728 7.87975 8.77759C7.89405 8.76477 7.91256 8.75768 7.93174 8.75768C7.95091 8.75768 7.96942 8.76477 7.98372 8.77759C8.3548 9.10719 10.5891 11.5142 10.5891 13.1822C10.5881 13.8886 10.3076 14.5658 9.80921 15.0649C9.31079 15.564 8.63521 15.8443 7.9309 15.844C7.2266 15.8438 6.55119 15.5632 6.05308 15.0637C5.55497 14.5643 5.2749 13.887 5.27441 13.1806ZM5.89227 13.5185C5.96278 13.9459 6.16488 14.3405 6.47024 14.6468C6.77559 14.9532 7.16889 15.156 7.59498 15.2269C7.6365 15.2336 7.67898 15.2312 7.71947 15.2198C7.75997 15.2084 7.79752 15.1883 7.82952 15.161C7.86153 15.1336 7.88722 15.0996 7.90484 15.0613C7.92245 15.023 7.93156 14.9813 7.93154 14.9391C7.93228 14.8686 7.90817 14.8 7.86346 14.7456C7.81875 14.6911 7.75632 14.6542 7.68716 14.6414C7.38437 14.5902 7.10503 14.4456 6.88795 14.2278C6.67088 14.0099 6.52688 13.7297 6.47596 13.4259C6.46322 13.3565 6.42644 13.2939 6.37212 13.2491C6.31781 13.2042 6.24944 13.1801 6.17909 13.1809C6.13704 13.1809 6.09549 13.19 6.05732 13.2077C6.01915 13.2254 5.98526 13.2512 5.95799 13.2833C5.93072 13.3154 5.91072 13.3531 5.89937 13.3937C5.88803 13.4343 5.88561 13.4769 5.89227 13.5185Z" fill="#53BE61"/>
</svg>
