<svg width="26" height="30" viewBox="0 0 26 30" fill="none" xmlns="http://www.w3.org/2000/svg">
<path d="M15.5802 4.46988V4.66615C15.5802 6.14858 14.374 7.35425 12.8916 7.35425C11.4091 7.35425 10.203 6.14858 10.203 4.66615V4.46988H15.5802ZM1.6847 13.1444V12.0312H6.80559V13.1444C6.80559 13.788 6.28206 14.312 5.63803 14.312H2.85179C2.20822 14.312 1.6847 13.788 1.6847 13.1444ZM11.4982 24.731H14.2849C14.9285 24.731 15.4525 25.2545 15.4525 25.8985V27.0118H10.3311V25.8985C10.3311 25.2545 10.8547 24.731 11.4982 24.731ZM15.4525 13.1444C15.4525 13.788 14.9285 14.312 14.2849 14.312H11.4982C10.8547 14.312 10.3311 13.788 10.3311 13.1444V12.0312H15.4525V13.1444ZM1.6847 25.8985C1.6847 25.2545 2.20822 24.731 2.85179 24.731H5.63803C6.28206 24.731 6.80559 25.2545 6.80559 25.8985V27.0118H1.6847V25.8985ZM25.0464 27.9445V30H0.736743V27.9445C0.736743 27.6272 0.994928 27.3691 1.31216 27.3691H1.50606H6.98422H10.1525H15.6311H18.7975H24.2761H24.471C24.7882 27.3691 25.0464 27.6272 25.0464 27.9445ZM24.0975 25.8985V27.0118H18.9762V25.8985C18.9762 25.2545 19.5001 24.731 20.1437 24.731H22.9299C23.5735 24.731 24.0975 25.2545 24.0975 25.8985ZM24.0975 13.1444C24.0975 13.788 23.5735 14.312 22.9299 14.312H20.1437C19.5001 14.312 18.9762 13.788 18.9762 13.1444V12.0312H24.0975V13.1444ZM25.0464 11.0985C25.0464 11.4157 24.7882 11.6739 24.471 11.6739H24.2761H18.7975H15.6311H10.1525H6.98422H1.50606H1.31216C0.994928 11.6739 0.736743 11.4157 0.736743 11.0985V9.44643H25.0464V11.0985ZM25.7543 8.62137C25.6862 8.84717 25.4852 9.08869 25.125 9.08869H0.660509C0.300389 9.08869 0.0993655 8.84717 0.030778 8.62137C-0.0378385 8.3951 -0.00448969 8.08261 0.262272 7.90064L9.58659 4.08594L9.84571 4.36223V4.66615C9.84571 6.34532 11.2124 7.71153 12.8916 7.71153C14.5707 7.71153 15.9374 6.34532 15.9374 4.66615V4.36032L16.1961 4.08641L25.488 7.88397C25.7881 8.08309 25.8224 8.3951 25.7543 8.62137Z" fill="#E51C39"/>
<path d="M11.1718 19.5317C11.1718 21.126 11.2647 22.7542 11.4486 24.3739H11.4977H14.2844H14.352C14.5178 22.7947 14.6045 21.187 14.6102 19.5917C14.6102 17.9306 14.5235 16.2753 14.3525 14.6694H14.2844H11.4977H11.4486C11.2647 16.2962 11.1718 17.9316 11.1718 19.5317Z" fill="#E51C39"/>
<path d="M2.52539 19.5317C2.52539 21.126 2.61828 22.7542 2.80215 24.3739H2.85123H5.63747H5.70606C5.87135 22.7938 5.95758 21.1861 5.96378 19.5917C5.96378 17.9311 5.87708 16.2762 5.70652 14.6694H5.63747H2.85123H2.80215C2.61828 16.2962 2.52539 17.9316 2.52539 19.5317Z" fill="#E51C39"/>
<path d="M23.2557 19.5917C23.2557 17.9306 23.169 16.2753 22.998 14.6694H22.9294H20.1432H20.0941C19.9102 16.2953 19.8168 17.9306 19.8168 19.5317C19.8168 21.127 19.9097 22.7552 20.0936 24.3739H20.1432H22.9294H22.9975C23.1628 22.7947 23.2495 21.187 23.2557 19.5917Z" fill="#E51C39"/>
<path d="M12.4798 0.134514L9.49157 2.30243C9.32864 2.42152 9.22385 2.60492 9.20431 2.80595C9.18527 3.00793 9.25339 3.20895 9.39199 3.35758L9.76022 3.74962L9.76357 3.75152L10.1003 4.11166H15.6795L16.0163 3.75152C16.0182 3.74914 16.022 3.74914 16.0244 3.74676L16.3931 3.3571C16.5312 3.20847 16.5989 3.00793 16.5798 2.80643C16.5608 2.6054 16.4555 2.42152 16.2926 2.30243L13.3048 0.134514C13.0581 -0.0450777 12.7261 -0.044598 12.4798 0.134514Z" fill="#E51C39"/>
<path d="M1.6847 13.1444V12.0312H6.80559V13.1444C6.80559 13.788 6.28206 14.312 5.63803 14.312H2.85179C2.20822 14.312 1.6847 13.788 1.6847 13.1444ZM11.4982 24.731H14.2849C14.9285 24.731 15.4525 25.2545 15.4525 25.8985V27.0118H10.3311V25.8985C10.3311 25.2545 10.8547 24.731 11.4982 24.731ZM15.4525 13.1444C15.4525 13.788 14.9285 14.312 14.2849 14.312H11.4982C10.8547 14.312 10.3311 13.788 10.3311 13.1444V12.0312H15.4525V13.1444ZM1.6847 25.8985C1.6847 25.2545 2.20822 24.731 2.85179 24.731H5.63803C6.28206 24.731 6.80559 25.2545 6.80559 25.8985V27.0118H1.6847V25.8985ZM25.0464 27.9445V30H0.736743V27.9445C0.736743 27.6272 0.994928 27.3691 1.31216 27.3691H1.50606H6.98422H10.1525H15.6311H18.7975H24.2761H24.471C24.7882 27.3691 25.0464 27.6272 25.0464 27.9445ZM24.0975 25.8985V27.0118H18.9762V25.8985C18.9762 25.2545 19.5001 24.731 20.1437 24.731H22.9299C23.5735 24.731 24.0975 25.2545 24.0975 25.8985ZM24.0975 13.1444C24.0975 13.788 23.5735 14.312 22.9299 14.312H20.1437C19.5001 14.312 18.9762 13.788 18.9762 13.1444V12.0312H24.0975V13.1444ZM25.0464 11.0985C25.0464 11.4157 24.7882 11.6739 24.471 11.6739H24.2761H18.7975H15.6311H10.1525H6.98422H1.50606H1.31216C0.994928 11.6739 0.736743 11.4157 0.736743 11.0985V9.44643H25.0464V11.0985ZM25.7543 8.62137C25.6862 8.84717 25.4852 9.08869 25.125 9.08869H0.660509C0.300389 9.08869 0.0993655 8.84717 0.030778 8.62137C-0.0378385 8.3951 -0.00448969 8.08261 0.262272 7.90064L9.58659 4.08594L9.84571 4.36223V4.66615C9.84571 6.34532 11.2124 7.71153 12.8916 7.71153C14.5707 7.71153 15.9374 6.34532 15.9374 4.66615V4.36032L16.1961 4.08641L25.488 7.88397C25.7881 8.08309 25.8224 8.3951 25.7543 8.62137Z" fill="#282828"/>
<path d="M11.1718 19.5317C11.1718 21.126 11.2647 22.7542 11.4486 24.3739H11.4977H14.2844H14.352C14.5178 22.7947 14.6045 21.187 14.6102 19.5917C14.6102 17.9306 14.5235 16.2753 14.3525 14.6694H14.2844H11.4977H11.4486C11.2647 16.2962 11.1718 17.9316 11.1718 19.5317Z" fill="#282828"/>
<path d="M2.52539 19.5317C2.52539 21.126 2.61828 22.7542 2.80215 24.3739H2.85123H5.63747H5.70606C5.87135 22.7938 5.95758 21.1861 5.96378 19.5917C5.96378 17.9311 5.87708 16.2762 5.70652 14.6694H5.63747H2.85123H2.80215C2.61828 16.2962 2.52539 17.9316 2.52539 19.5317Z" fill="#282828"/>
<path d="M23.2557 19.5917C23.2557 17.9306 23.169 16.2753 22.998 14.6694H22.9294H20.1432H20.0941C19.9102 16.2953 19.8168 17.9306 19.8168 19.5317C19.8168 21.127 19.9097 22.7552 20.0936 24.3739H20.1432H22.9294H22.9975C23.1628 22.7947 23.2495 21.187 23.2557 19.5917Z" fill="#282828"/>
<path d="M12.4798 0.134514L9.49157 2.30243C9.32864 2.42152 9.22385 2.60492 9.20431 2.80595C9.18527 3.00793 9.25339 3.20895 9.39199 3.35758L9.76022 3.74962L9.76357 3.75152L10.1003 4.11166H15.6795L16.0163 3.75152C16.0182 3.74914 16.022 3.74914 16.0244 3.74676L16.3931 3.3571C16.5312 3.20847 16.5989 3.00793 16.5798 2.80643C16.5608 2.6054 16.4555 2.42152 16.2926 2.30243L13.3048 0.134514C13.0581 -0.0450777 12.7261 -0.044598 12.4798 0.134514Z" fill="#E51C39"/>
</svg>
