<svg width="30" height="30" viewBox="0 0 30 30" fill="none" xmlns="http://www.w3.org/2000/svg">
<rect width="29.2133" height="29.2133" rx="6.79379" fill="#52459F"/>
<path d="M14.9463 22.2498C14.4911 22.2498 14.0292 22.1343 13.6215 21.8965L9.58602 19.5662C8.77076 19.0907 8.26123 18.2143 8.26123 17.2699V12.623C8.26123 11.6787 8.77076 10.8023 9.58602 10.3267L13.6215 7.99644C14.4368 7.52088 15.4491 7.52088 16.2711 7.99644L20.3066 10.3267C21.1219 10.8023 21.6314 11.6787 21.6314 12.623V17.2699C21.6314 18.2143 21.1219 19.0907 20.3066 19.5662L16.2711 21.8965C15.8635 22.1343 15.4015 22.2498 14.9463 22.2498ZM14.9463 8.66222C14.6678 8.66222 14.3824 8.73696 14.1311 8.87963L10.0956 11.2099C9.59281 11.502 9.2803 12.0387 9.2803 12.623V17.2699C9.2803 17.8474 9.59281 18.3909 10.0956 18.6831L14.1311 21.0133C14.6338 21.3055 15.2588 21.3055 15.7616 21.0133L19.7971 18.6831C20.2998 18.3909 20.6123 17.8542 20.6123 17.2699V12.623C20.6123 12.0455 20.2998 11.502 19.7971 11.2099L15.7616 8.87963C15.5102 8.73696 15.2249 8.66222 14.9463 8.66222Z" fill="white"/>
<path d="M14.9462 14.7764C13.7913 14.7764 12.8538 13.8388 12.8538 12.6839C12.8538 11.5289 13.7913 10.5914 14.9462 10.5914C16.1012 10.5914 17.0387 11.5289 17.0387 12.6839C17.0387 13.8388 16.1012 14.7764 14.9462 14.7764ZM14.9462 11.6105C14.3552 11.6105 13.8728 12.0928 13.8728 12.6839C13.8728 13.2749 14.3552 13.7573 14.9462 13.7573C15.5373 13.7573 16.0197 13.2749 16.0197 12.6839C16.0197 12.0928 15.5373 11.6105 14.9462 11.6105Z" fill="white"/>
<path d="M17.6638 18.622C17.3853 18.622 17.1543 18.391 17.1543 18.1125C17.1543 17.1749 16.1624 16.4073 14.9463 16.4073C13.7302 16.4073 12.7383 17.1749 12.7383 18.1125C12.7383 18.391 12.5073 18.622 12.2288 18.622C11.9502 18.622 11.7192 18.391 11.7192 18.1125C11.7192 16.611 13.1663 15.3882 14.9463 15.3882C16.7263 15.3882 18.1733 16.611 18.1733 18.1125C18.1733 18.391 17.9423 18.622 17.6638 18.622Z" fill="white"/>
</svg>
