<svg width="22" height="22" viewBox="0 0 22 22" fill="none" xmlns="http://www.w3.org/2000/svg">
<path d="M1.04175 11.0003C1.04175 16.4943 5.50613 20.9587 11.0001 20.9587C16.494 20.9587 20.9584 16.4943 20.9584 11.0003C20.9584 5.50637 16.494 1.04199 11.0001 1.04199C5.50613 1.04199 1.04175 5.50637 1.04175 11.0003Z" fill="#3BB54A" stroke="white" stroke-width="2"/>
<path d="M9.8167 13.9827C9.65003 13.9827 9.4917 13.916 9.37503 13.7993L7.0167 11.441C6.77503 11.1993 6.77503 10.7993 7.0167 10.5577C7.25837 10.316 7.65837 10.316 7.90003 10.5577L9.8167 12.4743L14.1 8.19102C14.3417 7.94935 14.7417 7.94935 14.9834 8.19102C15.225 8.43268 15.225 8.83268 14.9834 9.07435L10.2584 13.7993C10.1417 13.916 9.98337 13.9827 9.8167 13.9827Z" fill="white"/>
</svg>
