<svg width="24" height="24" viewBox="0 0 24 24" fill="none" xmlns="http://www.w3.org/2000/svg">
<path d="M9.0257 2C6.41105 2 4.2854 4.13001 4.2854 6.75003C4.2854 9.32004 6.2913 11.4001 8.90594 11.4901C8.98578 11.4801 9.06562 11.4801 9.12549 11.4901C9.14545 11.4901 9.15543 11.4901 9.17539 11.4901C9.18537 11.4901 9.18537 11.4901 9.19535 11.4901C11.7501 11.4001 13.756 9.32004 13.766 6.75003C13.766 4.13001 11.6403 2 9.0257 2Z" fill="#737373"/>
<path d="M14.0952 14.15C11.3109 12.2899 6.77024 12.2899 3.96598 14.15C2.69857 15 2 16.15 2 17.38C2 18.61 2.69857 19.75 3.956 20.59C5.35314 21.53 7.18938 22 9.02562 22C10.8619 22 12.6981 21.53 14.0952 20.59C15.3527 19.74 16.0512 18.6 16.0512 17.36C16.0413 16.13 15.3527 14.99 14.0952 14.15Z" fill="#737373"/>
<path d="M19.9932 7.33994C20.1529 9.27995 18.7757 10.98 16.8696 11.21C16.8596 11.21 16.8596 11.21 16.8497 11.21H16.8197C16.7599 11.21 16.7 11.21 16.6501 11.23C15.6821 11.28 14.7939 10.97 14.1252 10.4C15.1531 9.47995 15.7419 8.09994 15.6222 6.59993C15.5523 5.78993 15.2729 5.04992 14.8538 4.41992C15.233 4.22992 15.6721 4.10992 16.1212 4.06992C18.0772 3.89992 19.8236 5.35992 19.9932 7.33994Z" fill="#737373"/>
<path d="M21.989 16.5905C21.9092 17.5605 21.2905 18.4005 20.2526 18.9705C19.2546 19.5205 17.9972 19.7805 16.7498 19.7505C17.4683 19.1005 17.8874 18.2905 17.9673 17.4305C18.0671 16.1904 17.4783 15.0004 16.3007 14.0504C15.632 13.5204 14.8536 13.1004 14.0054 12.7904C16.2109 12.1504 18.9852 12.5804 20.6917 13.9604C21.6098 14.7004 22.0788 15.6304 21.989 16.5905Z" fill="#737373"/>
</svg>
