<svg width="28" height="21" viewBox="0 0 28 21" fill="none" xmlns="http://www.w3.org/2000/svg">
<g clip-path="url(#clip0_445_5980)">
<path d="M16.9899 10.9141H10.7967C10.5607 10.9141 10.3344 11.0078 10.1675 11.1747C10.0006 11.3416 9.90686 11.5679 9.90686 11.8039C9.90686 12.0399 10.0006 12.2662 10.1675 12.4331C10.3344 12.6 10.5607 12.6937 10.7967 12.6937H17.0374C17.2734 12.6937 17.4997 12.6 17.6666 12.4331C17.8334 12.2662 17.9272 12.0399 17.9272 11.8039C17.9272 11.5679 17.8334 11.3416 17.6666 11.1747C17.4997 11.0078 17.2734 10.9141 17.0374 10.9141H16.9899Z" fill="white"/>
<path d="M28 5.68305C28 4.98764 27.7238 4.32072 27.232 3.82899C26.7403 3.33727 26.0734 3.06102 25.378 3.06102C24.8983 3.0569 24.426 3.17988 24.0092 3.41744C23.5924 3.65501 23.246 3.99869 23.0051 4.41356L22.3407 2.68136C22.0304 1.89461 21.4916 1.21877 20.7938 0.740893C20.096 0.263014 19.2712 0.00497212 18.4254 0H9.39661C8.58716 0.00169373 7.79554 0.237921 7.11753 0.6801C6.43952 1.12228 5.90418 1.75146 5.57627 2.49153L4.97119 3.79661C4.73427 3.3765 4.38935 3.02737 3.97214 2.78539C3.55493 2.54341 3.0806 2.41737 2.59831 2.42034C2.25241 2.42498 1.91081 2.49772 1.59303 2.63439C1.27524 2.77106 0.987493 2.969 0.746212 3.21689C0.50493 3.46478 0.314845 3.75777 0.186809 4.07914C0.0587728 4.4005 -0.00470628 4.74393 -4.0514e-07 5.08983C-4.0514e-07 5.64679 0.221249 6.18093 0.615076 6.57476C1.0089 6.96858 1.54305 7.18983 2.1 7.18983H3.22712L2.62203 8.19831C2.0353 9.20308 1.72426 10.3449 1.72034 11.5085V13.6441C1.72247 14.4528 1.97278 15.2415 2.43744 15.9035C2.9021 16.5655 3.55873 17.0689 4.31865 17.3458V18.5322C4.31865 19.1615 4.56864 19.7651 5.01364 20.2101C5.45865 20.6551 6.0622 20.9051 6.69153 20.9051H7.87797C8.50729 20.9051 9.11084 20.6551 9.55584 20.2101C10.0008 19.7651 10.2508 19.1615 10.2508 18.5322V17.6424H18.0814V18.5322C18.0814 19.1615 18.3314 19.7651 18.7764 20.2101C19.2214 20.6551 19.8249 20.9051 20.4542 20.9051H21.6407C22.27 20.9051 22.8736 20.6551 23.3186 20.2101C23.7636 19.7651 24.0136 19.1615 24.0136 18.5322V17.2271C24.4581 17.0333 24.861 16.7553 25.2 16.4085C25.5823 16.038 25.8848 15.5932 26.0888 15.1015C26.2928 14.6097 26.3941 14.0815 26.3864 13.5492V11.1763C26.2717 9.93855 25.8021 8.76028 25.0339 7.78305H25.8644C26.1436 7.7894 26.4212 7.73969 26.6809 7.63685C26.9405 7.53402 27.1769 7.38015 27.376 7.18435C27.5751 6.98855 27.7329 6.7548 27.8401 6.49693C27.9473 6.23906 28.0017 5.96231 28 5.68305ZM24.4407 5.7661C24.4438 5.51958 24.5439 5.28421 24.7194 5.111C24.8948 4.93778 25.1314 4.84066 25.378 4.84068C25.6014 4.84068 25.8156 4.92943 25.9736 5.0874C26.1316 5.24538 26.2203 5.45964 26.2203 5.68305C26.2204 5.76599 26.1883 5.84573 26.1308 5.90547C26.0732 5.96522 25.9948 6.00032 25.9119 6.00339H24.4407V5.7661ZM7.23729 3.20339C7.42333 2.77707 7.73057 2.41483 8.12081 2.1617C8.51104 1.90857 8.96707 1.77572 9.4322 1.77966H18.4966C18.9855 1.7732 19.4644 1.9179 19.8679 2.19398C20.2714 2.47006 20.5798 2.86403 20.7508 3.32203L21.4746 5.37458C21.5458 5.57627 21.6525 5.77797 21.7475 5.97966H5.95593L6.05085 5.84915L7.23729 3.20339ZM1.77966 5.08983C1.77966 4.86642 1.86841 4.65216 2.02639 4.49418C2.18436 4.33621 2.39862 4.24746 2.62203 4.24746C2.87062 4.24746 3.10902 4.34621 3.2848 4.52198C3.46057 4.69776 3.55932 4.93616 3.55932 5.18475V5.41017H2.1C2.05793 5.41017 2.01628 5.40188 1.97741 5.38579C1.93855 5.36969 1.90323 5.34609 1.87349 5.31634C1.84374 5.2866 1.82014 5.25128 1.80405 5.21242C1.78795 5.17355 1.77966 5.1319 1.77966 5.08983ZM8.42373 18.4966C8.42373 18.6539 8.36123 18.8048 8.24998 18.9161C8.13873 19.0273 7.98784 19.0898 7.83051 19.0898H6.64407C6.48674 19.0898 6.33585 19.0273 6.2246 18.9161C6.11335 18.8048 6.05085 18.6539 6.05085 18.4966V17.6068H8.42373V18.4966ZM21.5576 19.0898H20.3712C20.2139 19.0898 20.063 19.0273 19.9517 18.9161C19.8405 18.8048 19.778 18.6539 19.778 18.4966V17.6068H22.1508V18.4966C22.1508 18.6539 22.0883 18.8048 21.9771 18.9161C21.8658 19.0273 21.715 19.0898 21.5576 19.0898ZM23.5271 8.64915C24.0671 9.41466 24.3685 10.3229 24.3932 11.2593V13.6322C24.4091 13.9108 24.3691 14.1898 24.2753 14.4527C24.1816 14.7156 24.0361 14.957 23.8475 15.1627C23.6468 15.3728 23.4056 15.5401 23.1385 15.6543C22.8713 15.7685 22.5838 15.8273 22.2932 15.8271H5.68305C5.10503 15.824 4.55157 15.593 4.14285 15.1843C3.73412 14.7755 3.50311 14.2221 3.5 13.6441V11.5085C3.50508 10.6739 3.73017 9.85542 4.15254 9.13559L4.95932 7.79492H22.661H22.9102L23.5271 8.64915Z" fill="white"/>
<path d="M6.46602 9.375C5.99671 9.375 5.53794 9.51417 5.14772 9.7749C4.75751 10.0356 4.45336 10.4062 4.27377 10.8398C4.09417 11.2734 4.04718 11.7505 4.13873 12.2108C4.23029 12.6711 4.45629 13.0939 4.78814 13.4258C5.12 13.7576 5.5428 13.9836 6.0031 14.0752C6.46339 14.1667 6.9405 14.1197 7.37409 13.9401C7.80767 13.7605 8.17827 13.4564 8.439 13.0662C8.69974 12.676 8.8389 12.2172 8.8389 11.7479C8.8389 11.1186 8.58891 10.515 8.1439 10.07C7.6989 9.625 7.09535 9.375 6.46602 9.375ZM6.46602 12.3055C6.35006 12.3079 6.23605 12.2755 6.13865 12.2125C6.04125 12.1495 5.96492 12.0589 5.91945 11.9522C5.87399 11.8455 5.86148 11.7276 5.88353 11.6137C5.90558 11.4999 5.96119 11.3952 6.0432 11.3132C6.12521 11.2312 6.22987 11.1756 6.34374 11.1535C6.45761 11.1315 6.57547 11.144 6.68217 11.1894C6.78887 11.2349 6.87953 11.3112 6.9425 11.4086C7.00546 11.5061 7.03786 11.6201 7.03552 11.736C7.03552 11.8871 6.97552 12.0319 6.86872 12.1387C6.76191 12.2455 6.61706 12.3055 6.46602 12.3055Z" fill="white"/>
<path d="M19.161 11.7323C19.161 12.2016 19.3002 12.6603 19.5609 13.0506C19.8217 13.4408 20.1922 13.7449 20.6258 13.9245C21.0594 14.1041 21.5365 14.1511 21.9968 14.0595C22.4571 13.968 22.8799 13.742 23.2118 13.4101C23.5436 13.0783 23.7696 12.6555 23.8612 12.1952C23.9527 11.7349 23.9057 11.2578 23.7261 10.8242C23.5466 10.3906 23.2424 10.02 22.8522 9.75928C22.462 9.49854 22.0032 9.35938 21.5339 9.35938C20.9046 9.35938 20.301 9.60937 19.856 10.0544C19.411 10.4994 19.161 11.1029 19.161 11.7323ZM22.0915 11.7323C22.0915 11.8833 22.0315 12.0281 21.9247 12.1349C21.8179 12.2417 21.6731 12.3017 21.522 12.3017C21.3647 12.3017 21.2138 12.2392 21.1026 12.128C20.9913 12.0167 20.9288 11.8659 20.9288 11.7085C20.9288 11.5512 20.9913 11.4003 21.1026 11.2891C21.2138 11.1778 21.3647 11.1153 21.522 11.1153C21.601 11.115 21.6791 11.1312 21.7515 11.1627C21.8239 11.1943 21.8889 11.2405 21.9425 11.2985C21.996 11.3565 22.0369 11.4251 22.0626 11.4997C22.0882 11.5744 22.0981 11.6536 22.0915 11.7323Z" fill="white"/>
</g>
<defs>
<clipPath id="clip0_445_5980">
<rect width="28" height="20.8695" fill="white"/>
</clipPath>
</defs>
</svg>
