<svg width="28" height="28" viewBox="0 0 28 28" fill="none" xmlns="http://www.w3.org/2000/svg">
<rect width="28" height="28" rx="8" fill="#3BB54A" fill-opacity="0.1"/>
<path d="M23.5599 12.74L22.1999 11.16C21.9399 10.86 21.7299 10.3 21.7299 9.9V8.2C21.7299 7.14 20.8599 6.27 19.7999 6.27H18.0999C17.7099 6.27 17.1399 6.06 16.8399 5.8L15.2599 4.44C14.5699 3.85 13.4399 3.85 12.7399 4.44L11.1699 5.81C10.8699 6.06 10.2999 6.27 9.90988 6.27H8.17988C7.11988 6.27 6.24988 7.14 6.24988 8.2V9.91C6.24988 10.3 6.03988 10.86 5.78988 11.16L4.43988 12.75C3.85988 13.44 3.85988 14.56 4.43988 15.25L5.78988 16.84C6.03988 17.14 6.24988 17.7 6.24988 18.09V19.8C6.24988 20.86 7.11988 21.73 8.17988 21.73H9.90988C10.2999 21.73 10.8699 21.94 11.1699 22.2L12.7499 23.56C13.4399 24.15 14.5699 24.15 15.2699 23.56L16.8499 22.2C17.1499 21.94 17.7099 21.73 18.1099 21.73H19.8099C20.8699 21.73 21.7399 20.86 21.7399 19.8V18.1C21.7399 17.71 21.9499 17.14 22.2099 16.84L23.5699 15.26C24.1499 14.57 24.1499 13.43 23.5599 12.74ZM18.1599 12.11L13.3299 16.94C13.1899 17.08 12.9999 17.16 12.7999 17.16C12.5999 17.16 12.4099 17.08 12.2699 16.94L9.84988 14.52C9.55988 14.23 9.55988 13.75 9.84988 13.46C10.1399 13.17 10.6199 13.17 10.9099 13.46L12.7999 15.35L17.0999 11.05C17.3899 10.76 17.8699 10.76 18.1599 11.05C18.4499 11.34 18.4499 11.82 18.1599 12.11Z" fill="#39AC47"/>
</svg>
