<svg width="18" height="17" viewBox="0 0 18 17" fill="none" xmlns="http://www.w3.org/2000/svg">
<g clip-path="url(#clip0_632_7508)">
<path fill-rule="evenodd" clip-rule="evenodd" d="M9.79928 2.52856C9.45115 1.88983 8.54909 1.88983 8.20096 2.52856L2.1635 13.6027C1.82479 14.224 2.26554 14.9876 2.96266 14.9876H15.0376C15.7347 14.9876 16.1754 14.224 15.8367 13.6027L9.79928 2.52856ZM6.60186 1.62333C7.64711 -0.293713 10.3533 -0.293713 11.3986 1.62333L17.4361 12.6975C18.4522 14.5612 17.13 16.8513 15.0377 16.8513H2.96279C0.870573 16.8513 -0.451725 14.5612 0.564397 12.6975L6.60186 1.62333ZM8.08528 12.1915C8.08528 11.6769 8.49515 11.2592 9.00021 11.2592C9.50526 11.2592 9.91513 11.6769 9.91513 12.1915C9.91513 12.7062 9.50526 13.1238 9.00021 13.1238C8.49515 13.1238 8.08528 12.7062 8.08528 12.1915ZM9.91511 6.59941C9.91511 6.08475 9.50524 5.66709 9.00019 5.66709C8.49513 5.66709 8.08526 6.08475 8.08526 6.59941V9.39546C8.08526 9.91011 8.49513 10.3278 9.00019 10.3278C9.50524 10.3278 9.91511 9.91011 9.91511 9.39546V6.59941Z" fill="#E51C39"/>
</g>
<defs>
<clipPath id="clip0_632_7508">
<rect width="18" height="17" fill="white"/>
</clipPath>
</defs>
</svg>
