<svg width="15" height="17" viewBox="0 0 15 17" fill="none" xmlns="http://www.w3.org/2000/svg">
<g clip-path="url(#clip0_1019_65651)">
<path d="M14.3333 2.44399L7.66667 0.843994C7.5 0.843994 7.41667 0.843994 7.25 0.843994L0.583333 2.44399C0.25 2.52399 0 2.84399 0 3.24399V7.24399C0 10.524 1.75 13.564 4.66667 15.244L7.08333 16.684C7.25 16.764 7.33333 16.844 7.5 16.844C7.66667 16.844 7.83333 16.764 7.91667 16.684L10.3333 15.244C13.25 13.484 15 10.524 15 7.24399V3.24399C15 2.84399 14.75 2.52399 14.3333 2.44399ZM13.3333 7.24399C13.3333 9.96399 11.9167 12.444 9.5 13.964L7.5 15.084L5.5 13.884C3.08333 12.444 1.66667 9.96399 1.66667 7.24399V3.88399L7.5 2.44399L13.3333 3.80399V7.24399Z" fill="#53BE61"/>
<path d="M6.41667 8.36397C6.08333 8.04397 5.58333 8.04397 5.25 8.36397C4.91667 8.68397 4.91667 9.16397 5.25 9.48397L6.41667 10.604C6.58333 10.764 6.83333 10.844 7 10.844C7.16667 10.844 7.41667 10.764 7.58333 10.604L10.5 7.80397C10.8333 7.48397 10.8333 7.00397 10.5 6.68397C10.1667 6.36397 9.66667 6.36397 9.33333 6.68397L7 8.92397L6.41667 8.36397Z" fill="#53BE61"/>
</g>
<defs>
<clipPath id="clip0_1019_65651">
<rect width="15" height="16" fill="white" transform="translate(0 0.843994)"/>
</clipPath>
</defs>
</svg>
